<svg id="Niezaleznosc" xmlns="http://www.w3.org/2000/svg" xmlns:xlink="http://www.w3.org/1999/xlink" viewBox="0 0 662.06 662.06"><defs><style>.cls-1{fill:none;}.cls-2{fill:#c21333;}.cls-3{fill:#961430;}.cls-4{clip-path:url(#clip-path);}.cls-5{clip-path:url(#clip-path-2);}.cls-6{fill:#fff;}</style><clipPath id="clip-path"><rect class="cls-1" x="387.72" y="413.72" width="141.76" height="96.18"/></clipPath><clipPath id="clip-path-2"><rect class="cls-1" x="174.94" y="243.6" width="92.71" height="74.05"/></clipPath></defs><path class="cls-2" d="M480.84,208.62c.32,0,.64,0,1,0,9.65-.54,18.47,8.26,18.39,18.37a18.66,18.66,0,0,1-18.53,18.32c-.28,0-.55,0-.82-.05v19.08h4.68c4.16,0,4.16,0,5.31-3.93,1-3.29,1-3.26,4-4.47a2.57,2.57,0,0,1,2.55.23,33.17,33.17,0,0,0,4.1,2.22,1.87,1.87,0,0,0,1.69-.14c3.24-3.16,6.4-6.42,9.59-9.63a1.75,1.75,0,0,0,.19-2.44c-.67-1.1-1.19-2.31-1.92-3.38s-.48-1.95-.15-3.08a5,5,0,0,1,4.55-3.82c.71-.1,1.38-.38,2.08-.53a1.92,1.92,0,0,0,1.75-2.16c0-3.89,0-7.78,0-11.67-.07-2.65-.16-2.64-2.7-3.34-.81-.22-1.6-.53-2.43-.69a3.81,3.81,0,0,1-2.77-2.36,4.62,4.62,0,0,1,.4-5.38c.49-.68.84-1.46,1.29-2.17a1.84,1.84,0,0,0-.34-2.59c-2.39-2.38-4.72-4.81-7.11-7.18-1-1-1.95-2.43-3-2.55s-2.53,1-3.79,1.66c-.87.43-1.72.89-2.57,1.33a15.38,15.38,0,0,0-2.42-.91,3.19,3.19,0,0,1-2.64-2.74c-.27-1.2-.65-2.38-.91-3.58a1.7,1.7,0,0,0-1.88-1.55h-7.48Z"/><path class="cls-3" d="M482.38,245.27c-.32,0-.65,0-1,0-9.64.55-18.46-8.26-18.39-18.37a18.67,18.67,0,0,1,18.53-18.32l.83.05V189.55l-4.69,0c-4.16,0-4.16,0-5.3,3.93-1,3.29-1,3.27-4,4.47a2.54,2.54,0,0,1-2.55-.23,33.79,33.79,0,0,0-4.1-2.22,1.87,1.87,0,0,0-1.69.14c-3.24,3.16-6.39,6.42-9.59,9.63a1.75,1.75,0,0,0-.19,2.44c.68,1.1,1.19,2.31,1.92,3.38s.48,2,.15,3.09a4.94,4.94,0,0,1-4.55,3.81c-.7.1-1.38.39-2.07.53a1.93,1.93,0,0,0-1.76,2.16c0,3.89,0,7.78.06,11.67.06,2.65.15,2.65,2.69,3.34.81.22,1.61.54,2.43.69a3.81,3.81,0,0,1,2.77,2.36,4.61,4.61,0,0,1-.4,5.38c-.49.68-.83,1.46-1.29,2.17a1.84,1.84,0,0,0,.34,2.59c2.39,2.38,4.72,4.81,7.11,7.19,1,.95,1.95,2.42,3.05,2.54s2.52-1,3.78-1.66c.87-.43,1.72-.89,2.57-1.33a16.52,16.52,0,0,0,2.42.92,3.18,3.18,0,0,1,2.65,2.73c.27,1.2.65,2.38.9,3.58a1.7,1.7,0,0,0,1.88,1.55h7.49Z"/><path d="M475,265.39a2.69,2.69,0,0,1-2.84-2.34c-.13-.62-.3-1.22-.46-1.83s-.31-1.16-.44-1.74a2.22,2.22,0,0,0-1.88-2,8.64,8.64,0,0,1-1.83-.65l-.33-.14-.36.19-1.82.94c-.35.17-.7.38-1.05.59a5.36,5.36,0,0,1-3.28,1.16c-1.21-.13-2.14-1.17-3-2.09-.23-.26-.45-.51-.68-.74-1.21-1.2-2.4-2.41-3.59-3.63s-2.34-2.37-3.52-3.55a2.83,2.83,0,0,1-.47-3.84c.18-.29.35-.59.51-.89a12.22,12.22,0,0,1,.8-1.32,3.61,3.61,0,0,0,.34-4.32c-.68-1.26-1.16-1.69-2.08-1.86a14.6,14.6,0,0,1-1.67-.45l-.84-.26c-2.9-.79-3.36-1.14-3.43-4.27-.06-2.35-.05-4.73-.05-7,0-1.56,0-3.11,0-4.66a2.91,2.91,0,0,1,2.55-3.15c.27-.06.54-.14.81-.22a8.63,8.63,0,0,1,1.33-.32,4,4,0,0,0,3.72-3.11c.34-1.14.42-1.6,0-2.24a20.54,20.54,0,0,1-1.17-2c-.25-.48-.5-.95-.78-1.41a2.7,2.7,0,0,1,.34-3.66l3.15-3.19c2.1-2.13,4.27-4.33,6.45-6.46a2.81,2.81,0,0,1,2.79-.33,32.61,32.61,0,0,1,4.23,2.29,1.58,1.58,0,0,0,1.65.14c2.61-1,2.61-1,3.43-3.82,1.27-4.34,1.68-4.65,6.27-4.65h2.87c2.3,0,4.69,0,7,0,2,0,3.11.85,3.41,2.71a16.16,16.16,0,0,0,1.07,3.68,3.5,3.5,0,0,0,1.27,1.34c1.52,1.09,2.91,1,5.13-.31.6-.36,1.06-.66,1.44-.91,2.16-1.41,2.68-1.19,4.61.69.3.29.65.64,1.07,1,1.41,1.32,2.75,2.74,4,4.11,1.07,1.13,2.18,2.3,3.31,3.39a3.08,3.08,0,0,1,.49,4.31l-.21.33a15.85,15.85,0,0,0-1.47,2.73,4.54,4.54,0,0,0-.13,2.08c.26,1.89,1.34,2.81,4,3.37l1.11.23c2.64.53,3.11.84,3,3.55,0,.38,0,.85,0,1.4,0,1.23,0,2.45,0,3.68,0,2.42,0,4.93.06,7.39a2.76,2.76,0,0,1-2.45,3.13c-.68.15-1.36.34-2.07.54s-1.23.34-1.86.49-.88.42-1.27,1.17c-1.07,2.09-1,3.45.1,4.85a10.55,10.55,0,0,1,1.08,1.76c.12.24.25.49.38.72a2.6,2.6,0,0,1-.58,3.56c-3.21,3-6.32,6.18-9.2,9.13a2.52,2.52,0,0,1-3.62.45,6,6,0,0,0-1-.51,6.82,6.82,0,0,1-1.48-.87c-1.37-1.12-2.61-1.17-4.44-.19a2.53,2.53,0,0,0-1.55,1.72c-.13.54-.29,1.07-.44,1.6-.2.73-.4,1.42-.55,2.13a2.65,2.65,0,0,1-2.8,2.38h0c-4.4,0-8.81,0-13.22,0Zm-7.89-10.88.42.17.82.34a8,8,0,0,0,1.44.53,4.2,4.2,0,0,1,3.42,3.49c.12.55.27,1.1.42,1.66s.35,1.28.49,1.93.33.76.87.76h0c4.42,0,8.83,0,13.24,0,.51,0,.7-.07.85-.8s.38-1.53.59-2.26c.14-.51.29-1,.42-1.53a4.53,4.53,0,0,1,2.55-3c1.59-.86,4-1.75,6.64.4a5.47,5.47,0,0,0,1.08.61,7.81,7.81,0,0,1,1.23.67c.42.3.51.36,1-.19,2.9-3,6-6.14,9.27-9.2.55-.52.48-.64.22-1.11-.15-.25-.29-.52-.43-.78a7.85,7.85,0,0,0-.86-1.43c-2.15-2.65-1.21-5.28-.32-7a3.79,3.79,0,0,1,2.6-2.21c.59-.14,1.18-.3,1.77-.47s1.44-.41,2.19-.57.9-.32.87-1.12c-.07-2.48-.06-5-.06-7.45q0-1.83,0-3.66c0-.57,0-1.06,0-1.46a8.48,8.48,0,0,0,0-1.2,9.59,9.59,0,0,0-1.42-.34l-1.14-.23c-2.34-.5-5.09-1.52-5.56-5.06a6.67,6.67,0,0,1,.23-3,17.25,17.25,0,0,1,1.66-3.09l.2-.32c.51-.83.48-1.18-.18-1.82-1.16-1.13-2.28-2.31-3.37-3.46-1.28-1.35-2.6-2.74-4-4l-1.11-1.05a7.21,7.21,0,0,0-1.18-1c-.07,0-.51.32-.94.6s-.88.57-1.5.95c-2.06,1.22-4.55,2.21-7.33.21a5.43,5.43,0,0,1-1.94-2.17,17.66,17.66,0,0,1-1.2-4.14c-.14-.83-.33-1.07-1.4-1-2.37,0-4.76,0-7.08,0h-2.86c-1.74,0-2.79,0-3.19.3s-.68,1.28-1.16,2.91c-1,3.55-1.25,3.79-4.53,5.09a3.64,3.64,0,0,1-3.54-.28,31.24,31.24,0,0,0-4-2.16,1.22,1.22,0,0,0-.63,0c-2.15,2.1-4.29,4.28-6.37,6.39-1.05,1.06-2.1,2.13-3.16,3.19-.33.34-.44.56,0,1.2s.57,1,.84,1.52a18.49,18.49,0,0,0,1.05,1.82,4.18,4.18,0,0,1,.28,3.94A5.92,5.92,0,0,1,448,219a7.4,7.4,0,0,0-1,.26c-.32.09-.65.19-1,.26-.75.15-1,.41-.95,1.17q0,2.34,0,4.68c0,2.29,0,4.66.05,7a5.7,5.7,0,0,0,.19,1.78,5.57,5.57,0,0,0,1.68.59l1,.3a10.19,10.19,0,0,0,1.43.39,4.85,4.85,0,0,1,3.47,2.88,5.59,5.59,0,0,1-.47,6.42c-.24.35-.45.73-.68,1.14s-.37.68-.58,1c-.31.49-.36.79.2,1.35,1.19,1.17,2.36,2.37,3.54,3.56s2.37,2.42,3.57,3.61c.25.25.51.54.77.83.52.58,1.24,1.39,1.68,1.43a4.31,4.31,0,0,0,2-.87c.41-.25.81-.49,1.21-.69.59-.29,1.18-.6,1.77-.91Zm-6.35-58.11Zm.08-.06Zm21.59,50-.9,0a18,18,0,0,1-13.19-5.14,19.59,19.59,0,0,1-6.19-14.24,19.25,19.25,0,0,1,5.9-13.7A19.4,19.4,0,1,1,495,241.14,18.41,18.41,0,0,1,482.44,246.3Zm-.89-2h.05a16.28,16.28,0,0,0,12-4.58,17.39,17.39,0,0,0,5.46-12.83,17.58,17.58,0,0,0-17.39-17.28,17.66,17.66,0,0,0-17.51,17.33,17.6,17.6,0,0,0,5.56,12.77,16,16,0,0,0,11.77,4.59Z"/><path class="cls-2" d="M362.91,95.57V229.38a66.91,66.91,0,0,0,0-133.81Z"/><path class="cls-3" d="M362.91,135.56l-.27,67.38s10-.26,9.81-.53,4.53-9.32,4.53-9.32l10.95-18.69v-18l-9.29-13.75-10.9-6.65Z"/><circle class="cls-2" cx="323.2" cy="526.16" r="8.36"/><path d="M491.38,101.41c-3.66-2.85-7.47-5.57-11.33-8.07A158.93,158.93,0,0,0,442.64,75.5l.62-1.9a161.14,161.14,0,0,1,37.88,18.06c3.9,2.54,7.76,5.29,11.47,8.17Z"/><path d="M57.63,333.2l-.92-1.77a76.61,76.61,0,0,0,13.58-9.05,24.51,24.51,0,0,1-11.55-11c-5.4-10.68-2.18-23.47.72-32.15,2.4-7.22,6.09-16.17,13.31-21.43,7-5.09,18.2-5.64,23.79,1.65,3.31,4.32,4.09,10.49,2.37,18.87A80.9,80.9,0,0,1,74,321.78,35.72,35.72,0,0,0,100.78,320c13.79-6.87,23.19-20.62,31.65-34.11,9.62-15.36,19.13-31.37,28.33-46.85,38.72-65.19,78.76-132.59,141-175.68,8.71-6,18.26-11.71,29-12.32,10.41-.6,22.73,5.37,25.34,16.4a18.83,18.83,0,0,1,.43,2.51,156.91,156.91,0,0,1,73.33-.09l-.46,1.94a154.92,154.92,0,0,0-72.77.19c0,12.21-11.78,22.42-22.29,29.13-3.11,2-6.44,3.86-10.07,3.18a8,8,0,0,1-5.65-4.51,12.17,12.17,0,0,1-.16-10.38c2.55-5.29,8-8.38,13.08-10.71a138.93,138.93,0,0,1,23-8.24,17.69,17.69,0,0,0-.41-2.56c-2.38-10-13.69-15.41-23.28-14.87-10.22.59-19.47,6.1-28,12C241,107.81,201.09,175,162.48,240c-9.2,15.49-18.72,31.51-28.36,46.89-8.6,13.74-18.2,27.74-32.44,34.84a37.67,37.67,0,0,1-29.34,1.5A77.71,77.71,0,0,1,57.63,333.2ZM84.57,256A18.51,18.51,0,0,0,74,259.39c-6.73,4.9-10.14,13.09-12.59,20.45-2.79,8.35-5.9,20.6-.83,30.61A22.65,22.65,0,0,0,71.94,321,78.87,78.87,0,0,0,97,277.9c1.59-7.77.94-13.42-2-17.25A12.76,12.76,0,0,0,84.57,256Zm270-183.52a137.31,137.31,0,0,0-22.24,8c-5,2.29-9.85,5.05-12.11,9.76a10.21,10.21,0,0,0,.14,8.61,6,6,0,0,0,4.23,3.44c2.91.55,5.85-1.13,8.62-2.9C343.07,93.09,354.14,83.58,354.53,72.48Z"/><g class="cls-4"><g id="_Powtarzanie_siatki_" data-name="&lt;Powtarzanie siatki&gt;"><circle cx="389.61" cy="415.61" r="1.89"/></g><g id="_Powtarzanie_siatki_2" data-name="&lt;Powtarzanie siatki&gt;"><circle cx="403.4" cy="415.61" r="1.89"/></g><g id="_Powtarzanie_siatki_3" data-name="&lt;Powtarzanie siatki&gt;"><circle cx="417.18" cy="415.61" r="1.89"/></g><g id="_Powtarzanie_siatki_4" data-name="&lt;Powtarzanie siatki&gt;"><circle cx="430.96" cy="415.61" r="1.89"/></g><g id="_Powtarzanie_siatki_5" data-name="&lt;Powtarzanie siatki&gt;"><circle cx="444.74" cy="415.61" r="1.89"/></g><g id="_Powtarzanie_siatki_6" data-name="&lt;Powtarzanie siatki&gt;"><circle cx="458.53" cy="415.61" r="1.89"/></g><g id="_Powtarzanie_siatki_7" data-name="&lt;Powtarzanie siatki&gt;"><circle cx="472.31" cy="415.61" r="1.89"/></g><g id="_Powtarzanie_siatki_8" data-name="&lt;Powtarzanie siatki&gt;"><circle cx="486.09" cy="415.61" r="1.89"/></g><g id="_Powtarzanie_siatki_9" data-name="&lt;Powtarzanie siatki&gt;"><circle cx="499.87" cy="415.61" r="1.89"/></g><g id="_Powtarzanie_siatki_10" data-name="&lt;Powtarzanie siatki&gt;"><circle cx="513.66" cy="415.61" r="1.89"/></g><g id="_Powtarzanie_siatki_11" data-name="&lt;Powtarzanie siatki&gt;"><circle cx="527.44" cy="415.61" r="1.89"/></g><g id="_Powtarzanie_siatki_12" data-name="&lt;Powtarzanie siatki&gt;"><circle cx="389.61" cy="429.39" r="1.89"/></g><g id="_Powtarzanie_siatki_13" data-name="&lt;Powtarzanie siatki&gt;"><circle cx="403.4" cy="429.39" r="1.89"/></g><g id="_Powtarzanie_siatki_14" data-name="&lt;Powtarzanie siatki&gt;"><circle cx="417.18" cy="429.39" r="1.89"/></g><g id="_Powtarzanie_siatki_15" data-name="&lt;Powtarzanie siatki&gt;"><circle cx="430.96" cy="429.39" r="1.89"/></g><g id="_Powtarzanie_siatki_16" data-name="&lt;Powtarzanie siatki&gt;"><circle cx="444.74" cy="429.39" r="1.89"/></g><g id="_Powtarzanie_siatki_17" data-name="&lt;Powtarzanie siatki&gt;"><circle cx="458.53" cy="429.39" r="1.89"/></g><g id="_Powtarzanie_siatki_18" data-name="&lt;Powtarzanie siatki&gt;"><circle cx="472.31" cy="429.39" r="1.89"/></g><g id="_Powtarzanie_siatki_19" data-name="&lt;Powtarzanie siatki&gt;"><circle cx="486.09" cy="429.39" r="1.89"/></g><g id="_Powtarzanie_siatki_20" data-name="&lt;Powtarzanie siatki&gt;"><circle cx="499.87" cy="429.39" r="1.89"/></g><g id="_Powtarzanie_siatki_21" data-name="&lt;Powtarzanie siatki&gt;"><circle cx="513.66" cy="429.39" r="1.89"/></g><g id="_Powtarzanie_siatki_22" data-name="&lt;Powtarzanie siatki&gt;"><circle cx="527.44" cy="429.39" r="1.89"/></g><g id="_Powtarzanie_siatki_23" data-name="&lt;Powtarzanie siatki&gt;"><circle cx="389.61" cy="443.18" r="1.89"/></g><g id="_Powtarzanie_siatki_24" data-name="&lt;Powtarzanie siatki&gt;"><circle cx="403.4" cy="443.18" r="1.89"/></g><g id="_Powtarzanie_siatki_25" data-name="&lt;Powtarzanie siatki&gt;"><circle cx="417.18" cy="443.18" r="1.89"/></g><g id="_Powtarzanie_siatki_26" data-name="&lt;Powtarzanie siatki&gt;"><circle cx="430.96" cy="443.18" r="1.89"/></g><g id="_Powtarzanie_siatki_27" data-name="&lt;Powtarzanie siatki&gt;"><circle cx="444.74" cy="443.18" r="1.89"/></g><g id="_Powtarzanie_siatki_28" data-name="&lt;Powtarzanie siatki&gt;"><circle cx="458.53" cy="443.18" r="1.89"/></g><g id="_Powtarzanie_siatki_29" data-name="&lt;Powtarzanie siatki&gt;"><circle cx="472.31" cy="443.18" r="1.89"/></g><g id="_Powtarzanie_siatki_30" data-name="&lt;Powtarzanie siatki&gt;"><circle cx="486.09" cy="443.18" r="1.89"/></g><g id="_Powtarzanie_siatki_31" data-name="&lt;Powtarzanie siatki&gt;"><circle cx="499.87" cy="443.18" r="1.89"/></g><g id="_Powtarzanie_siatki_32" data-name="&lt;Powtarzanie siatki&gt;"><circle cx="513.66" cy="443.18" r="1.89"/></g><g id="_Powtarzanie_siatki_33" data-name="&lt;Powtarzanie siatki&gt;"><circle cx="527.44" cy="443.18" r="1.89"/></g><g id="_Powtarzanie_siatki_34" data-name="&lt;Powtarzanie siatki&gt;"><circle cx="389.61" cy="456.96" r="1.89"/></g><g id="_Powtarzanie_siatki_35" data-name="&lt;Powtarzanie siatki&gt;"><circle cx="403.4" cy="456.96" r="1.89"/></g><g id="_Powtarzanie_siatki_36" data-name="&lt;Powtarzanie siatki&gt;"><circle cx="417.18" cy="456.96" r="1.89"/></g><g id="_Powtarzanie_siatki_37" data-name="&lt;Powtarzanie siatki&gt;"><circle cx="430.96" cy="456.96" r="1.89"/></g><g id="_Powtarzanie_siatki_38" data-name="&lt;Powtarzanie siatki&gt;"><circle cx="444.74" cy="456.96" r="1.89"/></g><g id="_Powtarzanie_siatki_39" data-name="&lt;Powtarzanie siatki&gt;"><circle cx="458.53" cy="456.96" r="1.89"/></g><g id="_Powtarzanie_siatki_40" data-name="&lt;Powtarzanie siatki&gt;"><circle cx="472.31" cy="456.96" r="1.89"/></g><g id="_Powtarzanie_siatki_41" data-name="&lt;Powtarzanie siatki&gt;"><circle cx="486.09" cy="456.96" r="1.89"/></g><g id="_Powtarzanie_siatki_42" data-name="&lt;Powtarzanie siatki&gt;"><circle cx="499.87" cy="456.96" r="1.89"/></g><g id="_Powtarzanie_siatki_43" data-name="&lt;Powtarzanie siatki&gt;"><circle cx="513.66" cy="456.96" r="1.89"/></g><g id="_Powtarzanie_siatki_44" data-name="&lt;Powtarzanie siatki&gt;"><circle cx="527.44" cy="456.96" r="1.89"/></g><g id="_Powtarzanie_siatki_45" data-name="&lt;Powtarzanie siatki&gt;"><circle cx="389.61" cy="470.74" r="1.89"/></g><g id="_Powtarzanie_siatki_46" data-name="&lt;Powtarzanie siatki&gt;"><circle cx="403.4" cy="470.74" r="1.89"/></g><g id="_Powtarzanie_siatki_47" data-name="&lt;Powtarzanie siatki&gt;"><circle cx="417.18" cy="470.74" r="1.89"/></g><g id="_Powtarzanie_siatki_48" data-name="&lt;Powtarzanie siatki&gt;"><circle cx="430.96" cy="470.74" r="1.89"/></g><g id="_Powtarzanie_siatki_49" data-name="&lt;Powtarzanie siatki&gt;"><circle cx="444.74" cy="470.74" r="1.89"/></g><g id="_Powtarzanie_siatki_50" data-name="&lt;Powtarzanie siatki&gt;"><circle cx="458.53" cy="470.74" r="1.89"/></g><g id="_Powtarzanie_siatki_51" data-name="&lt;Powtarzanie siatki&gt;"><circle cx="472.31" cy="470.74" r="1.89"/></g><g id="_Powtarzanie_siatki_52" data-name="&lt;Powtarzanie siatki&gt;"><circle cx="486.09" cy="470.74" r="1.89"/></g><g id="_Powtarzanie_siatki_53" data-name="&lt;Powtarzanie siatki&gt;"><circle cx="499.87" cy="470.74" r="1.89"/></g><g id="_Powtarzanie_siatki_54" data-name="&lt;Powtarzanie siatki&gt;"><circle cx="513.66" cy="470.74" r="1.89"/></g><g id="_Powtarzanie_siatki_55" data-name="&lt;Powtarzanie siatki&gt;"><circle cx="527.44" cy="470.74" r="1.89"/></g><g id="_Powtarzanie_siatki_56" data-name="&lt;Powtarzanie siatki&gt;"><circle cx="472.31" cy="484.52" r="1.89"/></g><g id="_Powtarzanie_siatki_57" data-name="&lt;Powtarzanie siatki&gt;"><circle cx="486.09" cy="484.52" r="1.89"/></g><g id="_Powtarzanie_siatki_58" data-name="&lt;Powtarzanie siatki&gt;"><circle cx="499.87" cy="484.52" r="1.89"/></g><g id="_Powtarzanie_siatki_59" data-name="&lt;Powtarzanie siatki&gt;"><circle cx="513.66" cy="484.52" r="1.89"/></g><g id="_Powtarzanie_siatki_60" data-name="&lt;Powtarzanie siatki&gt;"><circle cx="527.44" cy="484.52" r="1.89"/></g><g id="_Powtarzanie_siatki_61" data-name="&lt;Powtarzanie siatki&gt;"><circle cx="472.31" cy="498.31" r="1.89"/></g><g id="_Powtarzanie_siatki_62" data-name="&lt;Powtarzanie siatki&gt;"><circle cx="486.09" cy="498.31" r="1.89"/></g><g id="_Powtarzanie_siatki_63" data-name="&lt;Powtarzanie siatki&gt;"><circle cx="499.87" cy="498.31" r="1.89"/></g><g id="_Powtarzanie_siatki_64" data-name="&lt;Powtarzanie siatki&gt;"><circle cx="513.66" cy="498.31" r="1.89"/></g><g id="_Powtarzanie_siatki_65" data-name="&lt;Powtarzanie siatki&gt;"><circle cx="527.44" cy="498.31" r="1.89"/></g></g><g class="cls-5"><circle cx="176.83" cy="245.5" r="1.89"/><circle cx="190.62" cy="245.5" r="1.89"/><circle cx="204.4" cy="245.5" r="1.89"/><circle cx="218.18" cy="245.5" r="1.89"/><circle cx="231.96" cy="245.5" r="1.89"/><circle cx="245.75" cy="245.5" r="1.89"/><circle cx="259.53" cy="245.5" r="1.89"/><circle cx="176.83" cy="259.28" r="1.89"/><circle cx="190.62" cy="259.28" r="1.89"/><circle cx="204.4" cy="259.28" r="1.89"/><circle cx="218.18" cy="259.28" r="1.89"/><circle cx="231.96" cy="259.28" r="1.89"/><circle cx="245.75" cy="259.28" r="1.89"/><circle cx="259.53" cy="259.28" r="1.89"/><circle cx="176.83" cy="273.06" r="1.89"/><circle cx="190.62" cy="273.06" r="1.89"/><circle cx="204.4" cy="273.06" r="1.89"/><circle cx="218.18" cy="273.06" r="1.89"/><circle cx="231.96" cy="273.06" r="1.89"/><circle cx="245.75" cy="273.06" r="1.89"/><circle cx="259.53" cy="273.06" r="1.89"/><circle cx="176.83" cy="286.84" r="1.89"/><circle cx="190.62" cy="286.84" r="1.89"/><circle cx="204.4" cy="286.84" r="1.89"/><circle cx="218.18" cy="286.84" r="1.89"/><circle cx="231.96" cy="286.84" r="1.89"/><circle cx="245.75" cy="286.84" r="1.89"/><circle cx="259.53" cy="286.84" r="1.89"/><circle cx="176.83" cy="300.63" r="1.89"/><circle cx="190.62" cy="300.63" r="1.89"/><circle cx="204.4" cy="300.63" r="1.89"/><circle cx="218.18" cy="300.63" r="1.89"/><circle cx="231.96" cy="300.63" r="1.89"/><circle cx="245.75" cy="300.63" r="1.89"/><circle cx="259.53" cy="300.63" r="1.89"/><circle cx="176.83" cy="314.41" r="1.89"/><circle cx="190.62" cy="314.41" r="1.89"/><circle cx="204.4" cy="314.41" r="1.89"/><circle cx="218.18" cy="314.41" r="1.89"/><circle cx="231.96" cy="314.41" r="1.89"/><circle cx="245.75" cy="314.41" r="1.89"/><circle cx="259.53" cy="314.41" r="1.89"/></g><circle class="cls-2" cx="282.56" cy="158.42" r="13.07"/><path d="M469.37,167.17a48.11,48.11,0,0,1-8.12-.61c-6.28-1.07-11.4-3.83-14.05-7.56a11.54,11.54,0,0,1,.79-14.29c3.14-3.62,8.54-5.67,13.88-5.38a5.61,5.61,0,0,1,.88-3.48,24.15,24.15,0,0,1,11.59-10.58c5.55-2.34,12.25-2.31,17.07.08,4,2,7.06,5.55,9.27,10.84l-1.85.77c-2-4.83-4.73-8-8.31-9.82-4.33-2.14-10.37-2.15-15.4,0a22.05,22.05,0,0,0-10.62,9.71c-.55,1-1,2.28-.27,2.94l2.68,2.3-3.49-.56c-5.17-.83-10.89,1-13.92,4.52a9.54,9.54,0,0,0-.67,11.82c2.35,3.31,7,5.76,12.75,6.75,5.31.9,10.84.57,16.19.24l11.63-.7.12,2-11.62.7C475.09,167,472.23,167.17,469.37,167.17Z"/><path d="M565.42,166.24h-1.83c-2.3,0-48.44,0-48.91,0v-2c1.9,0,46.63,0,49,0,15.93.3,25.89-3.23,28.81-10.17,3-7.09-2-16.44-8.17-22.57l1.4-1.42c6.7,6.6,12,16.81,8.61,24.77C592.07,160.09,585.25,166.24,565.42,166.24Z"/><path d="M549.77,134.45l-.43-2.29c-2.33-12.47-10.55-23-20.94-26.82-11.51-4.24-25.3.75-30.14,10.88a17.6,17.6,0,0,0-1.27,3.57l-1.95-.46a19.54,19.54,0,0,1,1.42-4c5.26-11,20.2-16.47,32.63-11.9,10.45,3.84,18.83,14,21.77,26.27,5.44-6,14.68-8.74,23.26-6.78a15.23,15.23,0,0,1,2.07.64l-.72,1.87a12.72,12.72,0,0,0-1.8-.56c-8.58-2-17.85,1.19-22.54,7.67Z"/><circle cx="497.29" cy="165.23" r="2.47"/><path class="cls-6" d="M509.54,121.56s7.06-11.59,23.25-3.19"/><path d="M510.4,122.08l-1.71-1c.07-.13,7.74-12.29,24.56-3.55l-.92,1.77C517.21,111.41,510.67,121.64,510.4,122.08Z"/><rect x="527.72" y="153.58" width="31" height="2"/><polygon class="cls-2" points="161.66 189.69 124.48 168.22 124.48 211.16 161.66 189.69"/><rect x="394.81" y="196.88" width="2" height="166.33" transform="translate(-33.47 505.46) rotate(-62.98)"/><path d="M193.22,339.64l-.54-.48-1.07-.69c.64-1,69.28-64.48,98.76-91.72l1.36,1.47C258.32,279.09,194.75,337.92,193.22,339.64Z"/><rect class="cls-6" x="214.15" y="270.78" width="238.88" height="166.79"/><path d="M454,438.57H213.15V269.78H454Zm-238.89-2H452V271.78H215.15Z"/><rect x="207.09" y="437.57" width="253.41" height="10.49"/><path d="M461.5,449.06H206.09V436.57H461.5Zm-253.41-2H459.5v-8.49H208.09Z"/><rect class="cls-2" x="221.53" y="278.56" width="224" height="150.78"/><path d="M446.52,430.34h-226V277.55h226Zm-224-2h222V279.55h-222Z"/><line class="cls-6" x1="173.94" y1="158.06" x2="157.72" y2="148.76"/><rect x="164.83" y="144.07" width="2" height="18.69" transform="translate(-49.75 220.95) rotate(-60.17)"/><path class="cls-6" d="M179.42,88.75l102.36,60.13a7.63,7.63,0,0,1,3.07,9.78h0a7.63,7.63,0,0,1-8.6,4.24l-37.94-8.49L227.54,188.8l-45.91-26.33"/><path d="M228.12,190.29l-47-26.95,1-1.73L227,187.31l10.67-34.08,38.84,8.7a6.63,6.63,0,0,0,4.81-12.19L178.91,89.62l1-1.73L282.29,148A8.63,8.63,0,0,1,276,163.88l-37-8.3Z"/><rect class="cls-6" x="221.6" y="172.11" width="11.59" height="20.33" rx="5.8" transform="translate(-46.29 282.41) rotate(-58.81)"/><path d="M231.12,191.33a6.8,6.8,0,0,1-3.51-1l-7.47-4.53a6.8,6.8,0,0,1-2.3-9.33,6.8,6.8,0,0,1,9.33-2.3l7.48,4.53a6.8,6.8,0,0,1-3.53,12.61Zm-7.46-16.12a4.82,4.82,0,0,0-4.11,2.31,4.81,4.81,0,0,0,1.62,6.59l7.48,4.53a4.8,4.8,0,0,0,5-8.21l-7.47-4.52A4.78,4.78,0,0,0,223.66,175.21Z"/><rect class="cls-6" x="226.96" y="156.98" width="11.59" height="29.97" rx="5.8" transform="translate(-34.89 282.03) rotate(-58.81)"/><path d="M240.6,183.52a6.77,6.77,0,0,1-3.5-1L221.38,173a6.79,6.79,0,1,1,7-11.62l15.72,9.51a6.8,6.8,0,0,1-3.54,12.61Zm-2.47-2.69a4.79,4.79,0,0,0,7.14-5.25,4.76,4.76,0,0,0-2.17-3l-15.72-9.51a4.71,4.71,0,0,0-3.63-.56,4.8,4.8,0,0,0-1.34,8.76Z"/><rect class="cls-6" x="233.58" y="152.31" width="11.59" height="20.33" rx="5.8" transform="translate(-23.58 283.12) rotate(-58.81)"/><path d="M243.1,171.53a6.74,6.74,0,0,1-3.5-1L232.12,166a6.8,6.8,0,1,1,7-11.63l7.47,4.52a6.79,6.79,0,0,1-3.53,12.61Zm-2.47-2.69a4.8,4.8,0,0,0,5-8.21l-7.48-4.52a4.79,4.79,0,1,0-5,8.2Z"/><path class="cls-6" d="M199.81,155.12s23.34-3.16,21.1-21.93-12.91-3.49-6.43,1.93c4.45,3.71,13.64,9.67,19,13a6.65,6.65,0,0,0,7.78-.47h0a6.67,6.67,0,0,0,1.41-8.75c-5.61-8.76-18.38-26.39-34-33"/><path d="M199.94,156.11l-.27-2c.78-.11,16.52-2.4,19.8-14-2.18-1.53-4.16-3-5.63-4.23-2.91-2.43-2.89-6.43-1.58-9.32,1.07-2.38,2.85-3.7,4.64-3.42s4.09,2.22,5,9.93a19.92,19.92,0,0,1-.18,6.18c4.24,2.95,9.06,6.05,12.26,8.07a5.66,5.66,0,0,0,7.81-7.83c-6-9.44-18.42-26.22-33.53-32.64l.79-1.84c15.59,6.63,28.26,23.77,34.43,33.4A7.67,7.67,0,0,1,232.92,149c-3.07-1.94-7.6-4.86-11.73-7.7C217.1,153.63,200.15,156.08,199.94,156.11Zm16.5-31c-.79,0-1.74.9-2.36,2.28-1,2.12-1.05,5.21,1,7,1.27,1.06,2.94,2.31,4.79,3.63a18.2,18.2,0,0,0,0-4.67c-.68-5.77-2.17-8-3.33-8.19Z"/><polygon class="cls-6" points="368.25 229.03 349.76 229.03 345.63 222.99 372.19 222.99 368.25 229.03"/><path d="M368.25,230H349.76l-.82-.43-4.13-6,.82-1.56h26.56l.84,1.55-3.95,6Zm-18-2H367.7l2.65-4H347.53Z"/><line class="cls-6" x1="326.15" y1="184.6" x2="308.87" y2="194.6"/><rect x="307.53" y="188.6" width="19.96" height="2" transform="translate(-52.27 184.62) rotate(-30.07)"/><line class="cls-6" x1="321.09" y1="165.79" x2="301.12" y2="165.81"/><rect x="301.12" y="164.8" width="19.96" height="2"/><line class="cls-6" x1="326.11" y1="146.96" x2="308.81" y2="137"/><rect x="316.46" y="132" width="2" height="19.96" transform="translate(36.01 346.25) rotate(-60.07)"/><line class="cls-6" x1="339.87" y1="133.17" x2="329.86" y2="115.89"/><rect x="333.86" y="114.55" width="2" height="19.96" transform="translate(-17.33 184.54) rotate(-30.07)"/><line class="cls-6" x1="358.68" y1="128.1" x2="358.65" y2="108.14"/><rect x="357.67" y="108.14" width="2" height="19.96" transform="translate(-0.14 0.42) rotate(-0.07)"/><line class="cls-6" x1="377.5" y1="133.12" x2="387.46" y2="115.82"/><rect x="372.5" y="123.47" width="19.97" height="2" transform="translate(83.7 393.76) rotate(-60.05)"/><line class="cls-6" x1="391.29" y1="146.88" x2="408.57" y2="136.88"/><rect x="389.95" y="140.88" width="19.96" height="2" transform="translate(-17.26 219.49) rotate(-30.07)"/><line class="cls-6" x1="396.36" y1="165.69" x2="416.32" y2="165.67"/><rect x="396.36" y="164.68" width="19.96" height="2"/><line class="cls-6" x1="391.34" y1="184.52" x2="408.64" y2="194.48"/><rect x="398.99" y="179.52" width="2" height="19.97" transform="translate(36.2 441.61) rotate(-60.07)"/><polygon points="363.64 202.41 361.64 202.41 361.64 184.76 355.81 184.76 355.81 202.41 353.81 202.41 353.81 182.76 363.64 182.76 363.64 202.41"/><path d="M355.81,184.76h-7a5.22,5.22,0,0,1-5.22-5.21v-1.77a5.22,5.22,0,0,1,5.22-5.22h1.76a5.22,5.22,0,0,1,5.22,5.22Zm-7-10.2a3.22,3.22,0,0,0-3.22,3.22v1.77a3.22,3.22,0,0,0,3.22,3.21h5v-5a3.22,3.22,0,0,0-3.22-3.22Z"/><path d="M368.62,184.76h-7v-7a5.22,5.22,0,0,1,5.21-5.22h1.77a5.22,5.22,0,0,1,5.22,5.22v1.77A5.22,5.22,0,0,1,368.62,184.76Zm-5-2h5a3.22,3.22,0,0,0,3.22-3.21v-1.77a3.23,3.23,0,0,0-3.22-3.22h-1.77a3.22,3.22,0,0,0-3.21,3.22Z"/><polyline class="cls-6" points="477.43 376.12 477.43 388.18 412.97 388.18 412.97 348.61 477.43 348.61 477.43 369.13"/><polygon points="478.43 389.18 411.97 389.18 411.97 347.61 478.43 347.61 478.43 369.13 476.43 369.13 476.43 349.61 413.97 349.61 413.97 387.18 476.43 387.18 476.43 376.12 478.43 376.12 478.43 389.18"/><polyline class="cls-6" points="435.07 356.68 423.78 367.97 435.3 379.49"/><polygon points="434.59 380.2 422.37 367.97 434.37 355.97 435.78 357.38 425.19 367.97 436.01 378.79 434.59 380.2"/><polyline class="cls-6" points="455.2 356.68 466.49 367.97 454.97 379.49"/><polygon points="455.68 380.2 454.26 378.79 465.08 367.97 454.49 357.38 455.9 355.97 467.91 367.97 455.68 380.2"/><path class="cls-3" d="M506.09,182.6l-1.54.79c-.75.37-1.54,1.06-2.25,1s-1.24-.95-1.81-1.52c-1.43-1.41-2.82-2.86-4.24-4.28a1.09,1.09,0,0,1-.2-1.54c.27-.42.48-.89.76-1.3a2.73,2.73,0,0,0,.24-3.2,2.28,2.28,0,0,0-1.65-1.41c-.49-.09-1-.27-1.45-.41-1.51-.41-1.56-.41-1.6-2-.06-2.32,0-4.64,0-7a1.15,1.15,0,0,1,1-1.29c.42-.08.82-.25,1.24-.31a3,3,0,0,0,2.71-2.27,1.91,1.91,0,0,0-.09-1.84c-.43-.64-.74-1.36-1.15-2a1,1,0,0,1,.12-1.45c1.9-1.91,3.78-3.85,5.71-5.74a1.17,1.17,0,0,1,1-.08,20.5,20.5,0,0,1,2.44,1.32,1.51,1.51,0,0,0,1.52.14c1.82-.72,1.82-.7,2.4-2.66.68-2.34.68-2.34,3.16-2.34,2,0,3.94,0,5.91,0,.83,0,1.29.24,1.44,1.12a10,10,0,0,0,.67,2.33,2.8,2.8,0,0,0,1,1c1.26.91,2.4.62,3.71-.15,2.2-1.31,1.5-1.49,3.53.41,1.52,1.42,2.88,3,4.37,4.46a1.25,1.25,0,0,1,.2,1.82,10.64,10.64,0,0,0-1.05,1.93,3.42,3.42,0,0,0-.11,1.53c.22,1.64,1.36,2.19,2.85,2.51,2.37.5,2,.15,2,2.5s0,4.41,0,6.61a1.06,1.06,0,0,1-1,1.26c-.79.17-1.56.44-2.35.62a1.66,1.66,0,0,0-1.15,1,2.94,2.94,0,0,0,.12,3.53,10.26,10.26,0,0,1,.82,1.4,1,1,0,0,1-.24,1.39c-1.88,1.77-3.7,3.61-5.5,5.46-.46.48-.83.58-1.39.19s-1-.45-1.41-.79a2.66,2.66,0,0,0-3.3-.18,2.11,2.11,0,0,0-1.22,1.41c-.19.75-.44,1.49-.59,2.24a1,1,0,0,1-1.1,1q-3.93,0-7.88,0a1,1,0,0,1-1.12-.93c-.15-.71-.38-1.41-.54-2.13a1.9,1.9,0,0,0-1.57-1.63A9.77,9.77,0,0,1,506.09,182.6Zm8.55-6.16a10.8,10.8,0,0,0,11-11,11,11,0,0,0-22,0C503.65,171.52,508.9,176.76,514.64,176.44Z"/><path d="M510.75,188.83a2,2,0,0,1-2.08-1.72c-.08-.36-.18-.71-.27-1.07s-.19-.7-.27-1c-.14-.62-.39-.78-.81-.87a6,6,0,0,1-1.17-.41h0l-.06,0-1.07.55a4.56,4.56,0,0,0-.6.34,3.57,3.57,0,0,1-2.21.74,3.4,3.4,0,0,1-2-1.38c-.13-.14-.26-.29-.39-.42-.72-.71-1.43-1.44-2.14-2.16s-1.39-1.42-2.1-2.12a2.08,2.08,0,0,1-.33-2.79c.1-.16.2-.34.29-.51a8.54,8.54,0,0,1,.5-.82,1.76,1.76,0,0,0,.17-2.15c-.37-.7-.58-.84-.95-.9a10,10,0,0,1-1-.28,4,4,0,0,0-.49-.15c-2-.54-2.29-.95-2.34-2.93,0-1.4,0-2.8,0-4.2,0-.92,0-1.85,0-2.77a2.15,2.15,0,0,1,1.85-2.28l.44-.12a5.76,5.76,0,0,1,.86-.2,2,2,0,0,0,1.88-1.56c.2-.68.18-.79,0-1a12.09,12.09,0,0,1-.71-1.23c-.15-.28-.29-.56-.46-.82a2,2,0,0,1,.26-2.68c.61-.61,1.22-1.23,1.82-1.85,1.3-1.31,2.59-2.62,3.9-3.9a2.07,2.07,0,0,1,2.12-.28,21.7,21.7,0,0,1,2.57,1.39.52.52,0,0,0,.61.05c1.38-.54,1.38-.54,1.81-2,.81-2.77,1.19-3.06,4.12-3.06h1.7c1.4,0,2.8,0,4.19,0a2.19,2.19,0,0,1,2.44,2,9,9,0,0,0,.61,2.11c0,.06.15.28.62.62.67.48,1.28.59,2.62-.2l.84-.53c1.46-1,2-.78,3.25.46l.63.61c.85.79,1.65,1.64,2.43,2.46s1.29,1.36,2,2a2.23,2.23,0,0,1,.35,3.07L534,155a8.84,8.84,0,0,0-.84,1.56,2.44,2.44,0,0,0-.06,1.05c.11.81.47,1.32,2.07,1.66l.65.13c1.73.35,2.19.7,2.15,2.52,0,.23,0,.5,0,.83v2.19c0,1.47,0,2.93,0,4.39a2,2,0,0,1-1.78,2.27c-.41.09-.81.2-1.21.32l-1.12.3c-.17,0-.29.08-.49.48-.57,1.11-.56,1.75,0,2.45a7.73,7.73,0,0,1,.69,1.12c.07.14.14.28.22.41a2,2,0,0,1-.42,2.62c-1.93,1.81-3.77,3.68-5.47,5.43a1.9,1.9,0,0,1-2.68.31c-.15-.1-.33-.18-.5-.27a4,4,0,0,1-1-.57,1.7,1.7,0,0,0-2.2-.07c-.52.28-.65.48-.72.77s-.17.64-.26,1-.24.83-.33,1.25a2,2,0,0,1-2.06,1.74h0c-2.62,0-5.25,0-7.87,0Zm-.08-2h.09q3.94,0,7.89,0h.07a1.27,1.27,0,0,0,0-.15,14,14,0,0,1,.36-1.38l.24-.89a3.11,3.11,0,0,1,1.72-2.05,3.65,3.65,0,0,1,4.41.29,3.71,3.71,0,0,0,.55.31,4.12,4.12,0,0,1,.79.43h0l.09-.08c1.71-1.76,3.57-3.64,5.53-5.48l.09-.1,0-.07-.26-.48a4.45,4.45,0,0,0-.46-.79,3.94,3.94,0,0,1-.24-4.62,2.62,2.62,0,0,1,1.81-1.52c.35-.08.69-.18,1-.28s.89-.25,1.34-.34l.2-.06a1.18,1.18,0,0,0,0-.2c0-1.49,0-3,0-4.45v-2.18c0-.35,0-.64,0-.88v-.4l-.54-.11-.68-.14c-1.53-.33-3.32-1-3.63-3.36a4.33,4.33,0,0,1,.16-2,10.32,10.32,0,0,1,1-1.92l.11-.19a.79.79,0,0,0,.15-.33h0a.7.7,0,0,0-.19-.25c-.69-.67-1.36-1.37-2-2.07s-1.54-1.62-2.35-2.38l-.66-.63-.44-.42-.32.2c-.24.16-.53.35-.91.57-1.26.76-3,1.45-4.81.12a3.69,3.69,0,0,1-1.29-1.47,11.29,11.29,0,0,1-.74-2.56.83.83,0,0,0-.08-.26,1.64,1.64,0,0,0-.31,0h0c-1.41,0-2.83,0-4.24,0h-1.69a6.37,6.37,0,0,0-1.66.1,6.32,6.32,0,0,0-.54,1.52c-.66,2.23-.88,2.48-2.94,3.29a2.54,2.54,0,0,1-2.47-.2,18.9,18.9,0,0,0-2.32-1.25h0c-1.27,1.24-2.51,2.5-3.75,3.76l-1.83,1.85-.06.07a1.29,1.29,0,0,0,.09.15c.18.3.35.62.51.93a10.36,10.36,0,0,0,.61,1,2.9,2.9,0,0,1,.22,2.68,4,4,0,0,1-3.54,3,4.92,4.92,0,0,0-.55.14,6.25,6.25,0,0,1-.62.16.6.6,0,0,0-.22.08,1,1,0,0,0,0,.22c0,.93,0,1.86,0,2.8,0,1.38,0,2.76,0,4.14a6.69,6.69,0,0,0,0,.8,7.23,7.23,0,0,0,.78.23l.62.19a7.27,7.27,0,0,0,.8.22,3.23,3.23,0,0,1,2.34,1.92,3.73,3.73,0,0,1-.3,4.25c-.14.2-.26.42-.38.63a6.44,6.44,0,0,1-.36.63.4.4,0,0,0-.07.14s0,.06.13.16c.71.7,1.41,1.41,2.12,2.13l2.12,2.14c.16.16.31.33.47.51a3.84,3.84,0,0,0,.77.73,3,3,0,0,0,.93-.47,8.38,8.38,0,0,1,.75-.43c.35-.17.69-.35,1-.53l.89-.46.42.17a4.4,4.4,0,0,1,.5.21,3.73,3.73,0,0,0,.78.28,2.88,2.88,0,0,1,2.35,2.39c.07.33.16.65.25,1s.21.78.29,1.17l0,.14Zm4.51-9.38h-.54a11.1,11.1,0,0,1-8.14-3.18,12.13,12.13,0,0,1-3.81-8.77,12.13,12.13,0,0,1,11.89-11.91h.16a12.08,12.08,0,0,1,11.93,11.88,11.92,11.92,0,0,1-3.75,8.81A11.35,11.35,0,0,1,515.18,177.45Zm-.53-2h.05a9.29,9.29,0,0,0,6.85-2.62,10,10,0,0,0-6.83-17.24h-.14a10.13,10.13,0,0,0-9.89,9.92,10.06,10.06,0,0,0,3.19,7.31,9.13,9.13,0,0,0,6.71,2.63Z"/><circle class="cls-2" cx="181.59" cy="350.1" r="7.34"/><path d="M181.59,358.44a8.34,8.34,0,1,1,8.34-8.34A8.35,8.35,0,0,1,181.59,358.44Zm0-14.67a6.34,6.34,0,1,0,6.34,6.33A6.34,6.34,0,0,0,181.59,343.77Z"/><circle class="cls-2" cx="305.21" cy="236.69" r="7.34"/><path d="M305.21,245a8.34,8.34,0,1,1,8.33-8.34A8.35,8.35,0,0,1,305.21,245Zm0-14.67a6.34,6.34,0,1,0,6.33,6.33A6.34,6.34,0,0,0,305.21,230.36Z"/><circle class="cls-2" cx="484.65" cy="325.16" r="7.34"/><path d="M484.65,333.5a8.34,8.34,0,1,1,8.34-8.34A8.35,8.35,0,0,1,484.65,333.5Zm0-14.67a6.34,6.34,0,1,0,6.34,6.33A6.34,6.34,0,0,0,484.65,318.83Z"/><circle class="cls-2" cx="541.39" cy="299.79" r="5.47"/><path d="M541.39,306.26a6.47,6.47,0,1,1,6.48-6.47A6.48,6.48,0,0,1,541.39,306.26Zm0-10.94a4.47,4.47,0,1,0,4.48,4.47A4.47,4.47,0,0,0,541.39,295.32Z"/><circle class="cls-2" cx="111.76" cy="356.67" r="5.47"/><path d="M111.76,363.15a6.48,6.48,0,1,1,6.47-6.48A6.48,6.48,0,0,1,111.76,363.15Zm0-10.95a4.48,4.48,0,1,0,4.47,4.47A4.47,4.47,0,0,0,111.76,352.2Z"/><rect x="499.03" y="311.35" width="31.33" height="2" transform="translate(-76.74 199.73) rotate(-20.47)"/><line class="cls-2" x1="127.79" y1="356.67" x2="165.85" y2="353.95"/><rect x="127.74" y="354.31" width="38.16" height="2" transform="matrix(1, -0.07, 0.07, 1, -24.97, 11.38)"/><path d="M115.85,225V185.7l34,19.64Zm2-35.81v32.35l28-16.18Z"/><rect class="cls-2" x="492.57" y="371.08" width="64.45" height="60.08"/><path d="M558,432.15H491.57V370.08H558Zm-64.45-2H556V372.08H493.57Z"/><polyline class="cls-2" points="514.67 389.33 503.38 400.63 514.9 412.15"/><polygon points="514.19 412.86 501.96 400.63 513.96 388.63 515.38 390.04 504.79 400.63 515.61 411.45 514.19 412.86"/><polyline class="cls-2" points="534.79 389.33 546.09 400.63 534.57 412.15"/><polygon points="535.27 412.86 533.86 411.45 544.67 400.63 534.09 390.04 535.5 388.63 547.5 400.63 535.27 412.86"/><line class="cls-6" x1="529.36" y1="382.54" x2="519.57" y2="421.52"/><rect x="504.37" y="401.03" width="40.19" height="2" transform="translate(6.55 812.48) rotate(-75.87)"/><path class="cls-6" d="M337.36,159.66s1.2-12.21,17.45-17"/><path d="M338.36,159.76l-2-.19c.05-.53,1.45-12.95,18.16-17.83l.56,1.92C339.67,148.17,338.37,159.65,338.36,159.76Z"/><rect class="cls-3" x="221.53" y="278.56" width="47.97" height="150.78"/><path d="M269.49,430.34h-48l-1-1V278.55l1-1h48l1,1V429.34Zm-47-2h46V279.55h-46Z"/><path class="cls-6" d="M151.43,475.92a64.27,64.27,0,0,0,104,54.1"/><path d="M215.59,544.89a65.3,65.3,0,0,1-65.16-69l2,.12a63.27,63.27,0,0,0,102.41,53.26l1.24,1.56a65.26,65.26,0,0,1-40.49,14.09Z"/><path class="cls-6" d="M155.38,457.23q-.34.91-.66,1.86"/><path d="M155.66,459.41l-1.89-.65c.21-.63.44-1.26.67-1.88l1.87.7C156.09,458.19,155.87,458.8,155.66,459.41Z"/><path class="cls-6" d="M268.74,515.7a64.23,64.23,0,1,0-113.36-58.47"/><path d="M269.57,516.26l-1.66-1.12a63.24,63.24,0,1,0-111.6-57.56l-1.87-.7a65.24,65.24,0,1,1,115.13,59.38Z"/><circle class="cls-2" cx="215.57" cy="479.65" r="44.07"/><path d="M215.58,524.73a45.09,45.09,0,1,1,11.47-1.49A45.14,45.14,0,0,1,215.58,524.73Zm-41.66-34.1A43.07,43.07,0,1,0,204.6,438,43.12,43.12,0,0,0,173.92,490.63Z"/><circle class="cls-6" cx="215.57" cy="479.65" r="23.39"/><path d="M215.53,504.05A24.42,24.42,0,0,1,192,485.87h0a24.39,24.39,0,1,1,29.8,17.37A24.78,24.78,0,0,1,215.53,504.05Zm0-46.79a22.4,22.4,0,0,0-21.65,28.1h0a22.39,22.39,0,1,0,21.65-28.1Z"/><circle class="cls-2" cx="215.57" cy="479.65" r="7.61"/><path d="M215.58,488.26a8.61,8.61,0,0,1-8.33-6.41h0a8.61,8.61,0,0,1,16.65-4.39A8.62,8.62,0,0,1,217.77,488,8.77,8.77,0,0,1,215.58,488.26Zm-6.4-6.92A6.61,6.61,0,1,0,222,478a6.61,6.61,0,0,0-12.79,3.37Z"/><path class="cls-2" d="M505.39,544.57h10.78a31.34,31.34,0,0,0,31.34-31.34h0a31.34,31.34,0,0,0-31.34-31.34H495c-.38,0-.77,0-1.15,0a29.75,29.75,0,0,0-15.13,4.94l-4.59,3a31.29,31.29,0,0,0-10.47,23.38h0c0,.56,0,1.11.07,1.66l-.07-.09v38.91l20.16-11.19A31.17,31.17,0,0,0,495,544.57h10.41Z"/><path d="M462.64,555.41V511.69l0,.05a32.36,32.36,0,0,1,10.77-22.63l.12-.09,4.59-3a30.75,30.75,0,0,1,15.64-5.1c.39,0,.78,0,1.18,0h21.19a32.34,32.34,0,0,1,0,64.68H495a32.15,32.15,0,0,1-11.1-2Zm2-37.5V552l19.08-10.59.44.17a30.15,30.15,0,0,0,10.82,2h21.19a30.34,30.34,0,0,0,0-60.68H495l-1.11,0a28.85,28.85,0,0,0-14.62,4.79l-4.53,2.95a30.37,30.37,0,0,0-10.08,22.58c0,.44,0,.88.05,1.31l.19,3.7Z"/><circle class="cls-6" cx="522.86" cy="514.39" r="5.65"/><path d="M522.86,521.05a6.66,6.66,0,1,1,6.66-6.66A6.66,6.66,0,0,1,522.86,521.05Zm0-11.31a4.66,4.66,0,1,0,4.66,4.65A4.66,4.66,0,0,0,522.86,509.74Z"/><circle class="cls-6" cx="507.33" cy="514.39" r="5.65"/><path d="M507.33,521.05a6.66,6.66,0,1,1,6.65-6.66A6.67,6.67,0,0,1,507.33,521.05Zm0-11.31a4.66,4.66,0,1,0,4.65,4.65A4.66,4.66,0,0,0,507.33,509.74Z"/><circle class="cls-6" cx="492.46" cy="514.39" r="5.65"/><path d="M492.46,521.05a6.66,6.66,0,1,1,6.65-6.66A6.66,6.66,0,0,1,492.46,521.05Zm0-11.31a4.66,4.66,0,1,0,4.65,4.65A4.66,4.66,0,0,0,492.46,509.74Z"/><path class="cls-6" d="M436.21,558.47h4.07a40.63,40.63,0,0,0,14.51-2.66L481,570.33,480.87,520c0-.71.08-1.42.08-2.15h0a40.57,40.57,0,0,0-13.59-30.34"/><path d="M482,572l-27.24-15.13a41.59,41.59,0,0,1-14.43,2.56h-4.07v-2h4.07a39.35,39.35,0,0,0,14.15-2.6l.44-.16L480,568.63,479.86,520l0-.45c0-.57.06-1.13.06-1.71a39.73,39.73,0,0,0-13.25-29.59l1.33-1.49A41.71,41.71,0,0,1,482,517.8c0,.61,0,1.22-.07,1.82l0,.39Z"/><path class="cls-6" d="M372.12,517.8h0a40.67,40.67,0,0,0,40.67,40.67h14"/><path d="M426.77,559.47h-14a41.71,41.71,0,0,1-41.67-41.67h2a39.71,39.71,0,0,0,39.67,39.67h14Z"/><path class="cls-6" d="M457.06,480.75a40.51,40.51,0,0,0-16.78-3.61H412.79a40.66,40.66,0,0,0-40.14,34.09"/><path d="M373.63,511.39l-2-.32a41.48,41.48,0,0,1,41.13-34.93h27.49a41.34,41.34,0,0,1,17.2,3.7l-.83,1.82a39.34,39.34,0,0,0-16.37-3.52H412.79A39.49,39.49,0,0,0,373.63,511.39Z"/><path d="M404.1,524a8.34,8.34,0,1,1,8.33-8.33A8.35,8.35,0,0,1,404.1,524Zm0-14.67a6.34,6.34,0,1,0,6.33,6.34A6.34,6.34,0,0,0,404.1,509.36Z"/><path d="M424.26,524a8.34,8.34,0,1,1,8.34-8.33A8.35,8.35,0,0,1,424.26,524Zm0-14.67a6.34,6.34,0,1,0,6.34,6.34A6.35,6.35,0,0,0,424.26,509.36Z"/><path d="M443.55,524a8.34,8.34,0,1,1,8.34-8.33A8.35,8.35,0,0,1,443.55,524Zm0-14.67a6.34,6.34,0,1,0,6.34,6.34A6.35,6.35,0,0,0,443.55,509.36Z"/><polygon class="cls-2" points="554.24 351.27 559.25 326.51 535.31 334.55 554.24 351.27"/><path d="M543.56,348.4l-18.38-16.24,23.25-7.81ZM529.1,333l13.19,11.65,3.49-17.25Z"/><path class="cls-2" d="M546.32,230c-.64.33-1.27.67-1.92,1-.94.46-1.94,1.33-2.82,1.24s-1.56-1.19-2.27-1.9c-1.79-1.77-3.53-3.59-5.31-5.36a1.37,1.37,0,0,1-.25-1.93c.34-.53.59-1.12,1-1.63a3.44,3.44,0,0,0,.3-4,2.84,2.84,0,0,0-2.07-1.76c-.62-.12-1.21-.35-1.81-.52-1.9-.51-2-.51-2-2.48-.06-2.91,0-5.81,0-8.71a1.44,1.44,0,0,1,1.3-1.62c.52-.1,1-.32,1.55-.39a3.69,3.69,0,0,0,3.4-2.85,2.41,2.41,0,0,0-.12-2.3c-.54-.8-.92-1.7-1.43-2.52a1.3,1.3,0,0,1,.14-1.82c2.39-2.4,4.74-4.83,7.16-7.19a1.41,1.41,0,0,1,1.26-.1,25,25,0,0,1,3.06,1.65,1.9,1.9,0,0,0,1.91.17c2.27-.89,2.28-.88,3-3.33.85-2.93.85-2.93,4-2.93,2.47,0,4.94,0,7.41,0,1,0,1.61.3,1.8,1.4a12.36,12.36,0,0,0,.84,2.92,3.42,3.42,0,0,0,1.2,1.31c1.58,1.13,3,.77,4.65-.2,2.75-1.64,1.88-1.87,4.42.51,1.9,1.78,3.61,3.77,5.48,5.59a1.58,1.58,0,0,1,.25,2.29,13.81,13.81,0,0,0-1.32,2.41,4,4,0,0,0-.13,1.91c.27,2.06,1.7,2.75,3.56,3.15,3,.63,2.49.19,2.5,3.14,0,2.75,0,5.51.05,8.27a1.36,1.36,0,0,1-1.24,1.59c-1,.21-2,.54-3,.77a2.09,2.09,0,0,0-1.44,1.26c-.79,1.54-1,3,.16,4.43a13.12,13.12,0,0,1,1,1.75,1.21,1.21,0,0,1-.3,1.74c-2.35,2.22-4.63,4.52-6.89,6.84a1.15,1.15,0,0,1-1.74.24c-.55-.39-1.25-.57-1.77-1a3.34,3.34,0,0,0-4.13-.23,2.64,2.64,0,0,0-1.53,1.77c-.23.94-.54,1.86-.74,2.8a1.27,1.27,0,0,1-1.37,1.19h-9.87a1.28,1.28,0,0,1-1.41-1.16c-.19-.9-.47-1.78-.67-2.67a2.39,2.39,0,0,0-2-2A13.38,13.38,0,0,1,546.32,230ZM557,222.24c6.94.41,13.84-5.51,13.81-13.74a13.77,13.77,0,0,0-27.53,0C543.26,216.08,549.84,222.65,557,222.24Z"/><path d="M552.16,237.51a2.26,2.26,0,0,1-2.36-1.95c-.1-.45-.22-.9-.34-1.35s-.24-.87-.34-1.31a1.4,1.4,0,0,0-1.2-1.28,7.57,7.57,0,0,1-1.41-.5l-.14-.06-.19.1-1.34.69c-.25.12-.5.28-.76.43a4.32,4.32,0,0,1-2.61.9,4,4,0,0,1-2.37-1.65c-.17-.18-.33-.37-.5-.53-.91-.91-1.81-1.82-2.71-2.74s-1.72-1.75-2.6-2.62a2.38,2.38,0,0,1-.39-3.18c.14-.21.26-.43.38-.65a8.22,8.22,0,0,1,.61-1,2.45,2.45,0,0,0,.24-3c-.47-.87-.78-1.15-1.37-1.26a10,10,0,0,1-1.28-.34l-.62-.19c-2.36-.65-2.69-1.06-2.75-3.43,0-1.75,0-3.53,0-5.24,0-1.17,0-2.33,0-3.49a2.42,2.42,0,0,1,2.11-2.6c.19,0,.38-.1.58-.16a6.52,6.52,0,0,1,1-.24,2.71,2.71,0,0,0,2.57-2.14c.24-.83.27-1.08,0-1.46a14.86,14.86,0,0,1-.88-1.52c-.19-.35-.37-.7-.58-1a2.27,2.27,0,0,1,.29-3l2.3-2.33c1.61-1.63,3.22-3.26,4.86-4.86a2.35,2.35,0,0,1,2.37-.3,25.48,25.48,0,0,1,3.18,1.72.94.94,0,0,0,1,.08c1.83-.72,1.83-.72,2.41-2.68,1-3.34,1.39-3.65,4.9-3.65h2.13c1.76,0,3.52,0,5.27,0h.09a2.45,2.45,0,0,1,2.71,2.24,12.47,12.47,0,0,0,.78,2.69,2.52,2.52,0,0,0,.86.89c1,.75,2,.69,3.56-.25.43-.26.78-.49,1.06-.67,1.73-1.13,2.26-.91,3.75.55l.8.76c1.06,1,2.06,2,3,3.07.8.85,1.63,1.72,2.47,2.53a2.55,2.55,0,0,1,.4,3.53l-.15.23a11.66,11.66,0,0,0-1.08,2,3.06,3.06,0,0,0-.08,1.43c.17,1.3.9,1.9,2.78,2.3l.82.17c2.06.41,2.53.73,2.48,2.9,0,.29,0,.63,0,1,0,.91,0,1.83,0,2.74,0,1.81,0,3.68.05,5.51a2.31,2.31,0,0,1-2,2.59c-.52.12-1,.26-1.54.4s-.92.26-1.39.37c-.32.08-.5.2-.78.75-.75,1.47-.74,2.37,0,3.34a7.25,7.25,0,0,1,.84,1.36c.09.18.18.35.28.52a2.19,2.19,0,0,1-.48,3c-2.42,2.28-4.73,4.62-6.86,6.81a2.14,2.14,0,0,1-3,.36,4.59,4.59,0,0,0-.67-.36,5.45,5.45,0,0,1-1.16-.68c-.93-.77-1.76-.8-3-.12-.65.35-.91.64-1,1.13s-.21.79-.32,1.19-.3,1.05-.42,1.58a2.22,2.22,0,0,1-2.33,2h-9.9Zm-5.9-8.65.42.16.63.27a5.79,5.79,0,0,0,1,.37,3.36,3.36,0,0,1,2.75,2.8c.1.41.21.82.32,1.22s.26,1,.36,1.46.14.37.42.37c3.29,0,6.59,0,9.88,0,.27,0,.3,0,.39-.4.12-.57.28-1.14.44-1.71.11-.37.22-.74.31-1.12a3.62,3.62,0,0,1,2-2.41,4.33,4.33,0,0,1,5.24.33,3.28,3.28,0,0,0,.75.42,6,6,0,0,1,.95.52,1.07,1.07,0,0,0,.21.12s.09-.07.24-.23c2.16-2.2,4.48-4.56,6.93-6.87a1.25,1.25,0,0,0,.23-.27,2.47,2.47,0,0,0-.12-.25c-.11-.19-.21-.39-.32-.59a5.5,5.5,0,0,0-.61-1,4.69,4.69,0,0,1-.27-5.51,3.09,3.09,0,0,1,2.1-1.78l1.3-.35c.56-.16,1.11-.31,1.67-.43s.46-.1.45-.58c-.05-1.86-.05-3.75-.05-5.58,0-.9,0-1.81,0-2.72,0-.43,0-.79,0-1.09s0-.53,0-.71l-.88-.19-.85-.17c-1.83-.39-4-1.2-4.35-4a5.22,5.22,0,0,1,.19-2.4,12.79,12.79,0,0,1,1.27-2.37l.14-.22c.32-.52.31-.65-.1-1-.87-.85-1.71-1.73-2.52-2.59s-1.93-2-3-3l-.82-.79c-.27-.26-.54-.52-.71-.66l-.56.36c-.3.19-.66.43-1.13.71-1.51.9-3.54,1.73-5.74.15a4.22,4.22,0,0,1-1.54-1.73,13.49,13.49,0,0,1-.91-3.15c-.08-.46-.07-.58-.79-.56-1.77,0-3.54,0-5.31,0h-2.12a6.41,6.41,0,0,0-2.22.17,6,6,0,0,0-.77,2c-.8,2.71-1,3-3.54,4a3,3,0,0,1-2.87-.23,23.54,23.54,0,0,0-2.93-1.59h-.24c-1.6,1.56-3.17,3.16-4.75,4.75l-2.31,2.33c-.18.19-.22.23,0,.59s.44.77.64,1.16.49.92.77,1.33a3.35,3.35,0,0,1,.25,3.14,4.66,4.66,0,0,1-4.23,3.56,4.73,4.73,0,0,0-.72.18,6.53,6.53,0,0,1-.76.2c-.43.09-.51.18-.5.63,0,1.16,0,2.33,0,3.5,0,1.7,0,3.47,0,5.19a6.1,6.1,0,0,0,.1,1.2c.09,0,.61.19,1.11.33l.77.23a9.54,9.54,0,0,0,1,.29,3.81,3.81,0,0,1,2.77,2.27,4.39,4.39,0,0,1-.37,5.06c-.18.26-.33.54-.49.82s-.28.52-.44.77-.21.36.11.68c.88.87,1.75,1.76,2.62,2.64s1.79,1.82,2.69,2.72c.19.19.39.4.58.62s.86,1,1.09,1a3.62,3.62,0,0,0,1.36-.62c.31-.19.62-.37.92-.52l1.29-.66Zm-4.48-42.94Zm15.93,37.34H557a13.73,13.73,0,0,1-10-3.92,14.86,14.86,0,0,1-4.7-10.8,14.66,14.66,0,0,1,4.48-10.41,14.71,14.71,0,0,1,25.05,10.38,14.67,14.67,0,0,1-4.61,10.84A14,14,0,0,1,557.71,223.26Zm-.67-2h.06a11.88,11.88,0,0,0,8.76-3.36,12.69,12.69,0,0,0,4-9.39,12.85,12.85,0,0,0-12.72-12.63,12.91,12.91,0,0,0-12.81,12.67,12.86,12.86,0,0,0,4.07,9.34,11.74,11.74,0,0,0,8.59,3.37Z"/><path d="M557.61,294.06l-1.17-1.62c.16-.12,16.42-12.3,17.06-45l2,0C574.83,281.26,558.31,293.55,557.61,294.06Z"/><rect class="cls-2" x="306.73" y="468.23" width="32.92" height="32.92"/><path d="M340.66,502.15H305.73V467.23h34.93Zm-32.93-2h30.93V469.23H307.73Z"/><rect x="322.2" y="461.41" width="2" height="46.56" transform="translate(-248.06 370.49) rotate(-45)"/><rect x="299.91" y="483.69" width="46.56" height="2" transform="translate(-248.07 370.5) rotate(-45)"/><path d="M340.66,542.77H305.73V507.85h34.93Zm-32.93-2h30.93V509.85H307.73Z"/><rect x="322.2" y="502.03" width="2" height="46.56" transform="translate(-276.79 382.39) rotate(-45)"/><rect x="299.92" y="524.31" width="46.56" height="2" transform="translate(-276.79 382.39) rotate(-45)"/><rect class="cls-6" x="306.73" y="549.47" width="32.92" height="32.92"/><path d="M340.66,583.4H305.73V548.47h34.93Zm-32.93-2h30.93V550.47H307.73Z"/><rect x="322.2" y="542.66" width="2" height="46.56" transform="translate(-305.52 394.29) rotate(-45)"/><rect x="299.92" y="564.94" width="46.56" height="2" transform="translate(-305.52 394.29) rotate(-45)"/><polygon class="cls-2" points="142.28 542.82 130.65 508.16 106.45 535.56 142.28 542.82"/><path d="M126.15,546.35l-33.28-6.74,22.48-25.45Zm-29.49-8,26.49,5.36-8.6-25.62Z"/><path d="M110.21,504.64c-5.69-5.88-8.73-14.35-8.7-23.66a20.49,20.49,0,0,1-5.24,2.57c-4.72,1.48-9.8.59-13-2.26-4.66-4.23-4.57-11.25-4-16.89a157.26,157.26,0,0,1,16-54.38l1.78.9a155.65,155.65,0,0,0-15.83,53.69c-.55,5.17-.67,11.57,3.32,15.19,2.64,2.4,7,3.12,11,1.84a19.49,19.49,0,0,0,5.92-3.17,45.81,45.81,0,0,1,.82-6.17c2.34-11.61,8.61-21.9,14.31-30.64a4.72,4.72,0,0,1,2.28-2.1,2.7,2.7,0,0,1,2.75.55c1.44,1.29,1.87,4.12,1.45,6.11a61.37,61.37,0,0,1-16.09,30,41.16,41.16,0,0,1-3.55,3.25c-.33,9.33,2.55,18.06,8.08,23.78Zm9.73-63.24a1,1,0,0,0-.31.06c-.46.15-.84.7-1.23,1.3-5.6,8.58-11.76,18.68-14,29.93-.27,1.33-.47,2.66-.61,4,.63-.57,1.27-1.19,1.93-1.85a59.39,59.39,0,0,0,15.55-29c.33-1.52-.07-3.53-.83-4.2A.64.64,0,0,0,119.94,441.4Z"/><path d="M211.69,581.16h-.26a96.34,96.34,0,0,1-56.71-18.82l1.19-1.61a94.26,94.26,0,0,0,55.53,18.43h.25A94.3,94.3,0,0,0,267.06,561l1.18,1.61A96.31,96.31,0,0,1,211.69,581.16Z"/><circle cx="233.84" cy="293.25" r="4.7"/><rect x="243.58" y="291.25" width="16.97" height="4"/><circle cx="232.62" cy="312.95" r="2.81"/><rect x="237.7" y="311.95" width="23.52" height="2"/><circle cx="232.62" cy="326.75" r="2.81"/><rect x="237.7" y="325.75" width="23.52" height="2"/><rect x="229.31" y="345.41" width="32.4" height="2"/><rect x="229.31" y="351.51" width="32.4" height="2"/><rect x="229.31" y="357.85" width="32.4" height="2"/><rect class="cls-2" x="291.05" y="293.25" width="140.55" height="6.54"/><path d="M431.6,300.79H291.05l-1-1v-6.54l1-1H431.6l1,1v6.54Zm-139.55-2H430.6v-4.54H292.05Z"/><rect x="291.05" y="328.56" width="140.55" height="2"/><rect class="cls-2" x="291.05" y="305.26" width="71.86" height="6.54"/><path d="M362.91,312.8H291.05l-1-1v-6.54l1-1h71.86l1,1v6.54Zm-70.86-2h69.86v-4.54H292.05Z"/><rect class="cls-3" x="291.84" y="343.23" width="101.47" height="6.54"/><path d="M393.31,350.77H291.84l-1-1v-6.54l1-1H393.31l1,1v6.54Zm-100.47-2h99.47v-4.54H292.84Z"/><rect class="cls-3" x="291.84" y="355.24" width="51.88" height="6.54"/><path d="M343.73,362.78H291.84l-1-1v-6.54l1-1h51.89l1,1v6.54Zm-50.89-2h49.89v-4.54H292.84Z"/><rect class="cls-3" x="349.71" y="355.24" width="51.88" height="6.54"/><path d="M401.59,362.78H349.71l-1-1v-6.54l1-1h51.88l1,1v6.54Zm-50.88-2h49.88v-4.54H350.71Z"/><rect x="291.05" y="381.54" width="68.21" height="2"/><rect class="cls-2" x="291.05" y="402.45" width="140.55" height="6.54"/><path d="M431.6,410H291.05l-1-1v-6.55l1-1H431.6l1,1V409Zm-139.55-2H430.6v-4.55H292.05Z"/><path class="cls-3" d="M493.75,372.11s.11,58.13,0,57.78,7.22-50.4,7.22-50.4l54.92-7.38Z"/><path d="M358.94,207.94c-6.74,0-13.69-1.85-14.6-6.21-.64-3-5.18-10.2-8.83-15.94-1.79-2.83-3.48-5.49-4.56-7.42a21.92,21.92,0,0,1-1.49-3.25l1.88-.69a20.51,20.51,0,0,0,1.35,3c1.05,1.88,2.73,4.53,4.51,7.32,3.93,6.19,8.38,13.2,9.1,16.61s8,4.93,14.58,4.56c5.84-.32,10.22-2.1,10.43-4.23s3.57-7.68,8.69-16c2-3.24,3.9-6.3,5-8.33,2.06-3.76,2.94-8.45,2.61-13.93a29,29,0,0,0-57.35-3.57l-2-.37a30.95,30.95,0,0,1,61.3,3.82c.36,5.86-.6,10.91-2.85,15-1.13,2.07-3,5.16-5.06,8.42-3.47,5.62-8.23,13.32-8.4,15.11-.38,4-6.61,5.72-12.31,6C360.31,207.92,359.63,207.94,358.94,207.94Z"/><path class="cls-3" d="M473,492.19A39.54,39.54,0,0,1,481,508.74L515,482.92H493a28.6,28.6,0,0,0-12.9,4.18C473.37,491.17,473,492.19,473,492.19Z"/><path class="cls-3" d="M181.56,479.65a43,43,0,0,1,38.61-42.73,45.24,45.24,0,0,0-4.83-.27,43,43,0,0,0,0,85.9c1.47,0,2.92-.08,4.34-.22A43,43,0,0,1,181.56,479.65Z"/><polygon class="cls-2" points="159.34 408.35 165.23 392.54 180.31 411.37 175.91 429.05 157.69 429.47 142.62 410.64 159.34 408.35"/><path d="M157.22,430.48l-16.49-20.59,17.88-2.45,6.3-16.9,16.49,20.59L176.69,430ZM144.5,411.39l13.66,17.07,17-.39,4.1-16.46-13.67-17.07-5.48,14.72Z"/><polyline class="cls-2" points="169.71 410.43 166.71 417.56 150.48 420.47"/><polygon points="150.66 421.45 150.31 419.48 166 416.67 168.78 410.04 170.63 410.82 167.42 418.45 150.66 421.45"/><line class="cls-2" x1="175.91" y1="429.05" x2="215.57" y2="478.61"/><rect x="194.74" y="422.09" width="2" height="63.48" transform="translate(-240.67 221.83) rotate(-38.67)"/><polygon class="cls-3" points="165.56 394.64 164.07 398.71 175.37 412.47 175.08 428 179.38 411.32 165.56 394.64"/><circle cx="501.22" cy="84.5" r="5.4"/><circle cx="365.48" cy="565.94" r="7.86"/><circle cx="106.29" cy="428" r="4.46"/><circle cx="84.53" cy="274.1" r="4.46"/><circle cx="584.97" cy="278.56" r="4.46"/><circle cx="152.73" cy="467.41" r="1.3"/><circle cx="329.29" cy="167.69" r="1.3"/><polygon class="cls-6" points="372.19 223.69 345.63 223.69 345.63 206.93 345.63 202.41 372.19 202.41 372.19 223.69"/><path d="M372.19,224.69H345.63l-1-1V202.41l1-1h26.56l1,1v21.28Zm-25.56-2h24.56V203.41H346.63Z"/><rect x="346.31" y="205.93" width="19.03" height="2"/><rect x="346.31" y="210.55" width="25.89" height="2"/><rect x="346.31" y="214.96" width="25.89" height="2"/><circle cx="436.36" cy="72.87" r="1.3"/><polygon class="cls-2" points="265.65 201.27 269.07 188.19 253.83 186.73 265.65 201.27"/><circle cx="241.56" cy="214.88" r="1.48"/><polygon class="cls-2" points="208 227.13 218.69 224.8 220.1 208.8 208 227.13"/><line class="cls-2" x1="247.81" y1="195.74" x2="258.82" y2="215.22"/><rect x="252.31" y="194.29" width="2" height="22.38" transform="translate(-68.31 151.2) rotate(-29.47)"/><line class="cls-2" x1="230.19" y1="203.1" x2="229.47" y2="221.71"/><rect x="220.52" y="211.4" width="18.63" height="2" transform="translate(8.61 433.76) rotate(-87.76)"/><circle cx="231.4" cy="85.86" r="4.03"/></svg>