<?xml version="1.0" encoding="UTF-8" standalone="no"?>
<svg
   xmlns:dc="http://purl.org/dc/elements/1.1/"
   xmlns:cc="http://creativecommons.org/ns#"
   xmlns:rdf="http://www.w3.org/1999/02/22-rdf-syntax-ns#"
   xmlns:svg="http://www.w3.org/2000/svg"
   xmlns="http://www.w3.org/2000/svg"
   xmlns:sodipodi="http://sodipodi.sourceforge.net/DTD/sodipodi-0.dtd"
   xmlns:inkscape="http://www.inkscape.org/namespaces/inkscape"
   id="Niezaleznosc"
   viewBox="80 30 600 700"
   version="1.1"
   sodipodi:docname="header_oczekiwania2.svg"
   width="600"
   height="700"
   inkscape:version="0.92.5 (2060ec1f9f, 2020-04-08)">
  <metadata
     id="metadata6527">
    <rdf:RDF>
      <cc:Work
         rdf:about="">
        <dc:format>image/svg+xml</dc:format>
        <dc:type
           rdf:resource="http://purl.org/dc/dcmitype/StillImage" />
        <dc:title></dc:title>
      </cc:Work>
    </rdf:RDF>
  </metadata>
  <sodipodi:namedview
     pagecolor="#ffffff"
     bordercolor="#000000"
     borderopacity="0.25"
     objecttolerance="10"
     gridtolerance="10"
     guidetolerance="10"
     inkscape:pageopacity="0"
     inkscape:pageshadow="2"
     inkscape:window-width="1848"
     inkscape:window-height="1136"
     id="namedview6525"
     showgrid="false"
     inkscape:zoom="1.3171429"
     inkscape:cx="300.27115"
     inkscape:cy="380.36876"
     inkscape:window-x="72"
     inkscape:window-y="27"
     inkscape:window-maximized="1"
     inkscape:current-layer="Niezaleznosc" />
  <defs
     id="defs5495">
    <style
       id="style5487">
            .cls-1{fill:none;}.cls-2{clip-path:url(#clip-path);}.cls-3{clip-path:url(#clip-path-2);}.cls-4{fill:#c21333;}.cls-5{fill:#fff;}.cls-6{fill:#030303;}.cls-7{fill:#961430;}
        </style>
    <clipPath
       id="clip-path">
      <rect
         class="cls-1"
         x="92.089996"
         y="308.10999"
         width="64.260002"
         height="51.32"
         id="rect5489"
         style="fill:none" />
    </clipPath>
    <clipPath
       id="clip-path-2">
      <rect
         class="cls-1"
         x="577.06"
         y="454.73001"
         width="64.260002"
         height="51.32"
         id="rect5492"
         style="fill:none" />
    </clipPath>
  </defs>
  <g
     class="cls-2"
     clip-path="url(#clip-path)"
     id="g5581">
    <circle
       cx="93.400002"
       cy="309.42001"
       r="1.3099999"
       id="circle5497" />
    <circle
       cx="102.95"
       cy="309.42001"
       r="1.3099999"
       id="circle5499" />
    <circle
       cx="112.5"
       cy="309.42001"
       r="1.3099999"
       id="circle5501" />
    <circle
       cx="122.05"
       cy="309.42001"
       r="1.3099999"
       id="circle5503" />
    <circle
       cx="131.60001"
       cy="309.42001"
       r="1.3099999"
       id="circle5505" />
    <circle
       cx="141.16"
       cy="309.42001"
       r="1.3099999"
       id="circle5507" />
    <circle
       cx="150.71001"
       cy="309.42001"
       r="1.3099999"
       id="circle5509" />
    <circle
       cx="93.400002"
       cy="318.97"
       r="1.3099999"
       id="circle5511" />
    <circle
       cx="102.95"
       cy="318.97"
       r="1.3099999"
       id="circle5513" />
    <circle
       cx="112.5"
       cy="318.97"
       r="1.3099999"
       id="circle5515" />
    <circle
       cx="122.05"
       cy="318.97"
       r="1.3099999"
       id="circle5517" />
    <circle
       cx="131.60001"
       cy="318.97"
       r="1.3099999"
       id="circle5519" />
    <circle
       cx="141.16"
       cy="318.97"
       r="1.3099999"
       id="circle5521" />
    <circle
       cx="150.71001"
       cy="318.97"
       r="1.3099999"
       id="circle5523" />
    <circle
       cx="93.400002"
       cy="328.51999"
       r="1.3099999"
       id="circle5525" />
    <circle
       cx="102.95"
       cy="328.51999"
       r="1.3099999"
       id="circle5527" />
    <circle
       cx="112.5"
       cy="328.51999"
       r="1.3099999"
       id="circle5529" />
    <circle
       cx="122.05"
       cy="328.51999"
       r="1.3099999"
       id="circle5531" />
    <circle
       cx="131.60001"
       cy="328.51999"
       r="1.3099999"
       id="circle5533" />
    <circle
       cx="141.16"
       cy="328.51999"
       r="1.3099999"
       id="circle5535" />
    <circle
       cx="150.71001"
       cy="328.51999"
       r="1.3099999"
       id="circle5537" />
    <circle
       cx="93.400002"
       cy="338.07001"
       r="1.3099999"
       id="circle5539" />
    <circle
       cx="102.95"
       cy="338.07001"
       r="1.3099999"
       id="circle5541" />
    <circle
       cx="112.5"
       cy="338.07001"
       r="1.3099999"
       id="circle5543" />
    <circle
       cx="122.05"
       cy="338.07001"
       r="1.3099999"
       id="circle5545" />
    <circle
       cx="131.60001"
       cy="338.07001"
       r="1.3099999"
       id="circle5547" />
    <circle
       cx="141.16"
       cy="338.07001"
       r="1.3099999"
       id="circle5549" />
    <circle
       cx="150.71001"
       cy="338.07001"
       r="1.3099999"
       id="circle5551" />
    <circle
       cx="93.400002"
       cy="347.63"
       r="1.3099999"
       id="circle5553" />
    <circle
       cx="102.95"
       cy="347.63"
       r="1.3099999"
       id="circle5555" />
    <circle
       cx="112.5"
       cy="347.63"
       r="1.3099999"
       id="circle5557" />
    <circle
       cx="122.05"
       cy="347.63"
       r="1.3099999"
       id="circle5559" />
    <circle
       cx="131.60001"
       cy="347.63"
       r="1.3099999"
       id="circle5561" />
    <circle
       cx="141.16"
       cy="347.63"
       r="1.3099999"
       id="circle5563" />
    <circle
       cx="150.71001"
       cy="347.63"
       r="1.3099999"
       id="circle5565" />
    <circle
       cx="93.400002"
       cy="357.17999"
       r="1.3099999"
       id="circle5567" />
    <circle
       cx="102.95"
       cy="357.17999"
       r="1.3099999"
       id="circle5569" />
    <circle
       cx="112.5"
       cy="357.17999"
       r="1.3099999"
       id="circle5571" />
    <circle
       cx="122.05"
       cy="357.17999"
       r="1.3099999"
       id="circle5573" />
    <circle
       cx="131.60001"
       cy="357.17999"
       r="1.3099999"
       id="circle5575" />
    <circle
       cx="141.16"
       cy="357.17999"
       r="1.3099999"
       id="circle5577" />
    <circle
       cx="150.71001"
       cy="357.17999"
       r="1.3099999"
       id="circle5579" />
  </g>
  <g
     class="cls-3"
     clip-path="url(#clip-path-2)"
     id="g5667">
    <circle
       cx="578.37"
       cy="456.04001"
       r="1.3099999"
       id="circle5583" />
    <circle
       cx="587.91998"
       cy="456.04001"
       r="1.3099999"
       id="circle5585" />
    <circle
       cx="597.46997"
       cy="456.04001"
       r="1.3099999"
       id="circle5587" />
    <circle
       cx="607.03003"
       cy="456.04001"
       r="1.3099999"
       id="circle5589" />
    <circle
       cx="616.58002"
       cy="456.04001"
       r="1.3099999"
       id="circle5591" />
    <circle
       cx="626.13"
       cy="456.04001"
       r="1.3099999"
       id="circle5593" />
    <circle
       cx="635.67999"
       cy="456.04001"
       r="1.3099999"
       id="circle5595" />
    <circle
       cx="578.37"
       cy="465.59"
       r="1.3099999"
       id="circle5597" />
    <circle
       cx="587.91998"
       cy="465.59"
       r="1.3099999"
       id="circle5599" />
    <circle
       cx="597.46997"
       cy="465.59"
       r="1.3099999"
       id="circle5601" />
    <circle
       cx="607.03003"
       cy="465.59"
       r="1.3099999"
       id="circle5603" />
    <circle
       cx="616.58002"
       cy="465.59"
       r="1.3099999"
       id="circle5605" />
    <circle
       cx="626.13"
       cy="465.59"
       r="1.3099999"
       id="circle5607" />
    <circle
       cx="635.67999"
       cy="465.59"
       r="1.3099999"
       id="circle5609" />
    <circle
       cx="578.37"
       cy="475.14001"
       r="1.3099999"
       id="circle5611" />
    <circle
       cx="587.91998"
       cy="475.14001"
       r="1.3099999"
       id="circle5613" />
    <circle
       cx="597.46997"
       cy="475.14001"
       r="1.3099999"
       id="circle5615" />
    <circle
       cx="607.03003"
       cy="475.14001"
       r="1.3099999"
       id="circle5617" />
    <circle
       cx="616.58002"
       cy="475.14001"
       r="1.3099999"
       id="circle5619" />
    <circle
       cx="626.13"
       cy="475.14001"
       r="1.3099999"
       id="circle5621" />
    <circle
       cx="635.67999"
       cy="475.14001"
       r="1.3099999"
       id="circle5623" />
    <circle
       cx="578.37"
       cy="484.70001"
       r="1.3099999"
       id="circle5625" />
    <circle
       cx="587.91998"
       cy="484.70001"
       r="1.3099999"
       id="circle5627" />
    <circle
       cx="597.46997"
       cy="484.70001"
       r="1.3099999"
       id="circle5629" />
    <circle
       cx="607.03003"
       cy="484.70001"
       r="1.3099999"
       id="circle5631" />
    <circle
       cx="616.58002"
       cy="484.70001"
       r="1.3099999"
       id="circle5633" />
    <circle
       cx="626.13"
       cy="484.70001"
       r="1.3099999"
       id="circle5635" />
    <circle
       cx="635.67999"
       cy="484.70001"
       r="1.3099999"
       id="circle5637" />
    <circle
       cx="578.37"
       cy="494.25"
       r="1.3099999"
       id="circle5639" />
    <circle
       cx="587.91998"
       cy="494.25"
       r="1.3099999"
       id="circle5641" />
    <circle
       cx="597.46997"
       cy="494.25"
       r="1.3099999"
       id="circle5643" />
    <circle
       cx="607.03003"
       cy="494.25"
       r="1.3099999"
       id="circle5645" />
    <circle
       cx="616.58002"
       cy="494.25"
       r="1.3099999"
       id="circle5647" />
    <circle
       cx="626.13"
       cy="494.25"
       r="1.3099999"
       id="circle5649" />
    <circle
       cx="635.67999"
       cy="494.25"
       r="1.3099999"
       id="circle5651" />
    <circle
       cx="578.37"
       cy="503.79999"
       r="1.3099999"
       id="circle5653" />
    <circle
       cx="587.91998"
       cy="503.79999"
       r="1.3099999"
       id="circle5655" />
    <circle
       cx="597.46997"
       cy="503.79999"
       r="1.3099999"
       id="circle5657" />
    <circle
       cx="607.03003"
       cy="503.79999"
       r="1.3099999"
       id="circle5659" />
    <circle
       cx="616.58002"
       cy="503.79999"
       r="1.3099999"
       id="circle5661" />
    <circle
       cx="626.13"
       cy="503.79999"
       r="1.3099999"
       id="circle5663" />
    <circle
       cx="635.67999"
       cy="503.79999"
       r="1.3099999"
       id="circle5665" />
  </g>
  <circle
     class="cls-4"
     cx="493.54001"
     cy="183.58"
     r="88.18"
     id="circle5669"
     style="fill:#c21333" />
  <path
     d="M 367.7,724.86 82,559.89 l 1,-1.73 285.72,165 z m 86,-49.64 -67.7,-39.07 a 32.82,32.82 0 0 1 0,-56.85 L 542.35,489 640,424.73 641.1,426.4 543.4,490.72 387,581 a 30.83,30.83 0 0 0 0,53.39 l 67.67,39.07 z M 252.8,548.83 a 67.06,67.06 0 0 1 -33.56,-9 L 82,460.61 l 1,-1.73 137.26,79.25 a 65.28,65.28 0 0 0 65.12,0 l 18.05,-10.42 a 40.13,40.13 0 0 0 0,-69.5 l -84.86,-49 a 60.65,60.65 0 0 1 0,-105 l 44.08,-25.41 1,1.73 -44.08,25.41 a 58.65,58.65 0 0 0 0,101.59 l 84.86,49 a 42.13,42.13 0 0 1 0,73 l -18.05,10.42 a 67.08,67.08 0 0 1 -33.58,8.88 z M 451.56,435.9 a 55.34,55.34 0 0 1 -27.65,-7.39 l -96.74,-55.86 a 18.42,18.42 0 0 1 0,-31.92 l 307.43,-176.62 1,1.74 -307.41,176.62 a 16.42,16.42 0 0 0 0,28.45 l 96.74,55.86 a 53.45,53.45 0 0 0 53.3,0 L 640,333.35 l 1,1.74 -161.8,93.42 a 55.34,55.34 0 0 1 -27.64,7.39 z m -135.71,-185.51 -1,-1.73 245.72,-141.66 1,1.73 z"
     id="path5671"
     inkscape:connector-curvature="0" />
  <rect
     x="163.68781"
     y="698.29376"
     width="61.66"
     height="2"
     transform="rotate(-29.99)"
     id="rect5673" />
  <path
     d="M 457.27,673.15 387.8,633 a 29.24,29.24 0 0 1 0,-50.63 l 64.34,-37.14 1,1.73 -64.34,37.19 a 27.22,27.22 0 0 0 0,47.15 l 69.47,40.11 z"
     id="path5675"
     inkscape:connector-curvature="0" />
  <rect
     x="-447.47672"
     y="630.93469"
     width="2"
     height="47.84"
     transform="rotate(-60)"
     id="rect5677" />
  <rect
     x="-447.4675"
     y="353.10333"
     width="2"
     height="244.56"
     transform="rotate(-60)"
     id="rect5679" />
  <rect
     x="-354.29968"
     y="299.21957"
     width="2"
     height="48.189999"
     transform="rotate(-60)"
     id="rect5681" />
  <path
     d="M 252.8,545.23 A 63.58,63.58 0 0 1 221,536.75 l -76.12,-44 1,-1.73 L 222,535 a 61.66,61.66 0 0 0 61.52,0 l 18.05,-10.42 a 36.52,36.52 0 0 0 0,-63.26 l -13.3,-7.68 1,-1.73 13.3,7.68 a 38.52,38.52 0 0 1 0,66.72 l -18.05,10.43 a 63.58,63.58 0 0 1 -31.72,8.49 z"
     id="path5683"
     inkscape:connector-curvature="0" />
  <path
     d="m 270.77,443.52 -54,-31.19 a 64.25,64.25 0 0 1 0,-111.29 l 339.9,-195 1,1.74 -339.89,195 a 62.26,62.26 0 0 0 0,107.83 l 54,31.19 z"
     id="path5685"
     inkscape:connector-curvature="0" />
  <rect
     x="374.90198"
     y="462.21313"
     width="94.309998"
     height="2"
     transform="rotate(-29.99)"
     id="rect5687" />
  <path
     d="m 451.56,432.3 a 51.61,51.61 0 0 1 -25.85,-6.91 L 329,369.53 a 14.82,14.82 0 0 1 0,-25.68 l 179.21,-103.51 1,1.73 L 330,345.58 a 12.83,12.83 0 0 0 0,22.22 l 96.74,55.86 a 49.84,49.84 0 0 0 49.7,0 l 167.2,-96.54 1,1.73 -167.2,96.54 a 51.61,51.61 0 0 1 -25.88,6.91 z"
     id="path5689"
     inkscape:connector-curvature="0" />
  <rect
     x="183.86526"
     y="710.31689"
     width="119"
     height="2"
     transform="rotate(-33.36)"
     id="rect5691" />
  <path
     d="M 533.93,91.3 533,88 c -1.74,-6.49 -5.26,-9.91 -11.76,-11.44 l -4.57,-1.08 4.61,-0.88 c 6.7,-1.28 10.33,-4.75 12.14,-11.61 l 1.15,-4.37 0.8,4.45 c 1.17,6.51 4.62,10.09 11.53,12 l 4.1,1.06 -4.15,0.83 c -6.44,1.28 -9.89,4.47 -11.9,11 z m -8.86,-15.69 a 15.37,15.37 0 0 1 9,9 14.92,14.92 0 0 1 9.19,-8.78 14.85,14.85 0 0 1 -8.94,-9.16 14.94,14.94 0 0 1 -9.25,8.94 z"
     id="path5693"
     inkscape:connector-curvature="0" />
  <path
     class="cls-5"
     d="m 452.3,141.25 c 1.83,-5.95 5,-9.42 11.6,-10.72 -6.65,-1.83 -10.07,-5.32 -11.22,-11.7 -1.65,6.27 -4.95,10 -11.82,11.29 6.43,1.52 9.79,4.98 11.44,11.13 z"
     id="path5695"
     inkscape:connector-curvature="0"
     style="fill:#ffffff" />
  <path
     d="m 452.24,144.86 -0.9,-3.35 c -1.59,-5.9 -4.79,-9 -10.71,-10.41 l -4.56,-1.1 4.6,-0.88 c 6.1,-1.16 9.4,-4.32 11.05,-10.56 l 1.15,-4.38 0.8,4.45 c 1.06,5.92 4.2,9.19 10.49,10.91 l 4.08,1.12 -4.15,0.83 c -5.86,1.16 -9,4.07 -10.83,10 z m -7.86,-14.66 a 14,14 0 0 1 8,8.05 13.7,13.7 0 0 1 8.18,-7.83 13.63,13.63 0 0 1 -8,-8.14 13.68,13.68 0 0 1 -8.18,7.92 z"
     id="path5697"
     inkscape:connector-curvature="0" />
  <rect
     x="26.273066"
     y="648.45465"
     width="63.48"
     height="2"
     transform="rotate(-29.99)"
     id="rect5699" />
  <path
     d="m 366,670.44 -27.81,-16.19 a 58.31,58.31 0 0 1 0.18,-100.87 l 1,1.73 a 56.3,56.3 0 0 0 -0.17,97.41 l 27.8,16.19 z"
     id="path5701"
     inkscape:connector-curvature="0" />
  <rect
     x="-395.22849"
     y="665.58508"
     width="2"
     height="43.349998"
     transform="rotate(-59.79)"
     id="rect5703" />
  <rect
     x="-397.77863"
     y="506.06113"
     width="2"
     height="65.129997"
     transform="rotate(-60)"
     id="rect5705" />
  <rect
     x="-199.00481"
     y="413.39966"
     width="2"
     height="12.87"
     transform="rotate(-60)"
     id="rect5707" />
  <rect
     x="-199.00522"
     y="466.76099"
     width="2"
     height="57.57"
     transform="rotate(-60)"
     id="rect5709" />
  <path
     d="m 420.49,508.47 -1,-1.73 a 20.06,20.06 0 0 0 0,-34.73 l -39.1,-22.58 1,-1.73 39.1,22.58 a 22.05,22.05 0 0 1 0,38.19 z"
     id="path5711"
     inkscape:connector-curvature="0" />
  <rect
     x="160.79707"
     y="648.59131"
     width="179.31"
     height="2"
     transform="rotate(-29.99)"
     id="rect5713" />
  <polygon
     class="cls-5"
     points="298.36,304.07 295.75,286.94 280.32,289.87 293.36,325.58 "
     id="polygon5715"
     style="fill:#ffffff" />
  <path
     d="M 293.57,329.08 279,289.1 l 17.6,-3.33 2.8,18.33 z m -11.91,-38.45 11.48,31.46 4.21,-18.09 -2.43,-15.91 z"
     id="path5717"
     inkscape:connector-curvature="0" />
  <path
     class="cls-5"
     d="m 354.85,261.09 3.51,-15.8 c 0,0 9.51,0.28 9.08,-8.82 -0.43,-9.1 -6.54,-27.64 -6.54,-27.64 l -25.49,1.38 -1.84,17 6.85,13 -10,21.66 z"
     id="path5719"
     inkscape:connector-curvature="0"
     style="fill:#ffffff" />
  <path
     class="cls-6"
     d="m 328.87,262.85 10.43,-22.68 -6.76,-12.8 2,-18.11 27.11,-1.47 0.24,0.73 c 0.25,0.76 6.15,18.78 6.59,27.91 a 9,9 0 0 1 -2.33,7 11,11 0 0 1 -6.94,2.87 l -3.51,15.8 z m 5.72,-35.85 6.94,13.13 -9.53,20.63 22,-0.65 3.52,-15.85 h 0.83 c 0,0 4,0.07 6.3,-2.31 a 7,7 0 0 0 1.75,-5.46 c -0.38,-7.85 -5.14,-23.14 -6.26,-26.65 l -23.87,1.29 z"
     id="path5721"
     inkscape:connector-curvature="0"
     style="fill:#030303" />
  <polygon
     points="356.39,253.35 358.1,244.42 352.29,242.96 "
     id="polygon5723" />
  <path
     d="m 362.25,192.68 c 0,0 11.35,7.86 -2.7,17.19 l -7.37,4.87 c 0,0 -0.15,9.88 -1.22,13.82 0,0 -1.58,-5.56 -5.55,-5.44 -3.97,0.12 -4.09,3.52 -3.88,5.29 0.21,1.77 4.4,4.84 4.4,4.84 l -0.54,13.44 c 0,0 -25.73,-7.06 -24.11,-29.11 1.62,-22.05 24.27,-19.71 28.33,-20.78 4.06,-1.07 12.64,-4.12 12.64,-4.12 z"
     id="path5725"
     inkscape:connector-curvature="0" />
  <ellipse
     cx="295.2305"
     cy="303.0499"
     rx="1.09"
     ry="1.65"
     transform="rotate(-14.07)"
     id="ellipse5727" />
  <path
     d="m 355.91,221.44 c 0,0 -0.57,-5.16 2,-5.83 2.57,-0.67 2.28,2.14 2.28,2.14 z"
     id="path5729"
     inkscape:connector-curvature="0" />
  <polygon
     class="cls-5"
     points="221.18,380.34 243.74,384.18 240.59,398.48 218.26,393.56 "
     id="polygon5731"
     style="fill:#ffffff" />
  <path
     d="m 241.35,399.67 -24.28,-5.34 3.33,-15.13 24.54,4.17 z m -21.9,-6.87 20.37,4.49 2.71,-12.3 -20.53,-3.5 z"
     id="path5733"
     inkscape:connector-curvature="0" />
  <path
     class="cls-4"
     d="m 224.5,397.43 -8.07,8.46 c 0,0 -6.14,6.7 -10.2,8.23 v 0 c -1.61,0.22 -3.06,-1.07 -2.76,-2.44 l 7.8,-35.41 a 2.79,2.79 0 0 1 3.47,-1.83 l 11.57,2.56 a 1.84,1.84 0 0 1 1.4,2.19 l -0.11,0.47 a 5.11,5.11 0 0 1 -1.92,3 l -4.68,3.59 a 2.73,2.73 0 0 0 -0.69,3.63 l 3.66,4 a 2.39,2.39 0 0 1 0.52,3.58 z"
     id="path5735"
     inkscape:connector-curvature="0"
     style="fill:#c21333" />
  <path
     d="m 205.88,415.14 a 3.62,3.62 0 0 1 -2.66,-1.14 2.81,2.81 0 0 1 -0.73,-2.53 l 7.81,-35.42 a 3.79,3.79 0 0 1 4.65,-2.59 l 11.58,2.54 a 2.8,2.8 0 0 1 1.78,1.24 2.84,2.84 0 0 1 0.38,2.13 l -0.11,0.48 a 6.18,6.18 0 0 1 -2.28,3.54 l -4.68,3.61 a 1.72,1.72 0 0 0 -0.49,2.25 l 3.54,3.83 a 3.84,3.84 0 0 1 1.42,2.53 3.26,3.26 0 0 1 -0.83,2.43 v 0 l -8.07,8.46 c -0.24,0.26 -6.34,6.88 -10.57,8.47 l -0.22,0.06 z M 214,375.36 a 1.68,1.68 0 0 0 -1.74,1.12 l -7.81,35.42 a 0.9,0.9 0 0 0 0.25,0.75 1.68,1.68 0 0 0 1.3,0.49 c 3.79,-1.51 9.64,-7.86 9.7,-7.93 l 8.06,-8.45 a 1.23,1.23 0 0 0 0.35,-0.93 1.92,1.92 0 0 0 -0.75,-1.2 l -0.1,-0.1 -3.8,-4.14 a 3.74,3.74 0 0 1 0.94,-4.93 l 4.68,-3.63 a 4.2,4.2 0 0 0 1.56,-2.39 l 0.1,-0.48 a 0.82,0.82 0 0 0 -0.11,-0.63 0.84,0.84 0 0 0 -0.52,-0.36 l -11.58,-2.55 A 2.39,2.39 0 0 0 214,375.36 Z"
     id="path5737"
     inkscape:connector-curvature="0" />
  <path
     class="cls-4"
     d="m 216.07,406.07 a 6.28,6.28 0 0 0 -2.41,-5"
     id="path5739"
     inkscape:connector-curvature="0"
     style="fill:#c21333" />
  <path
     d="m 217.07,406.12 -2,-0.11 a 5.24,5.24 0 0 0 -2,-4.16 l 1.2,-1.6 a 7.27,7.27 0 0 1 2.8,5.87 z"
     id="path5741"
     inkscape:connector-curvature="0" />
  <path
     class="cls-4"
     d="m 219.81,402.41 a 6.28,6.28 0 0 0 -2.41,-5"
     id="path5743"
     inkscape:connector-curvature="0"
     style="fill:#c21333" />
  <path
     d="m 220.8,402.46 -2,-0.11 a 5.24,5.24 0 0 0 -2,-4.16 l 1.2,-1.6 a 7.25,7.25 0 0 1 2.8,5.87 z"
     id="path5745"
     inkscape:connector-curvature="0" />
  <line
     class="cls-4"
     x1="205.95"
     y1="413.63"
     x2="213.83"
     y2="377.84"
     id="line5747"
     style="fill:#c21333" />
  <rect
     x="-359.72516"
     y="289.04697"
     width="36.650002"
     height="2"
     transform="rotate(-77.59)"
     id="rect5749" />
  <circle
     class="cls-5"
     cx="218.78999"
     cy="380.94"
     r="2.2"
     id="circle5751"
     style="fill:#ffffff" />
  <path
     d="m 218.8,384.14 a 3.26,3.26 0 0 1 -0.7,-0.07 3.21,3.21 0 0 1 -2.44,-3.82 3.15,3.15 0 0 1 1.4,-2 3.22,3.22 0 0 1 2.42,-0.43 3.18,3.18 0 0 1 2,1.4 3.2,3.2 0 0 1 -1,4.43 3.18,3.18 0 0 1 -1.68,0.49 z m 0,-4.41 a 1.26,1.26 0 0 0 -0.65,0.19 1.24,1.24 0 0 0 -0.53,0.76 1.2,1.2 0 0 0 0.92,1.43 1.16,1.16 0 0 0 0.91,-0.16 1.15,1.15 0 0 0 0.52,-0.75 1.16,1.16 0 0 0 -0.16,-0.91 1.2,1.2 0 0 0 -0.75,-0.53 z"
     id="path5753"
     inkscape:connector-curvature="0" />
  <polygon
     class="cls-5"
     points="337.95,485.03 334.99,460.67 350.65,459.53 352.43,483.98 "
     id="polygon5755"
     style="fill:#ffffff" />
  <path
     d="m 337.08,486.1 -3.21,-26.35 17.71,-1.29 1.92,26.44 z m -1,-24.51 2.75,22.41 12.53,-0.91 -1.63,-22.45 z"
     id="path5757"
     inkscape:connector-curvature="0" />
  <path
     class="cls-4"
     d="m 354.5,476.39 11.16,5.7 c 0,0 8.77,4.26 11.58,8 v 0 c 0.72,1.59 -0.16,3.48 -1.65,3.59 l -38.79,2.82 a 3,3 0 0 1 -2.94,-3 l -0.92,-12.68 a 2,2 0 0 1 1.81,-2.1 h 0.52 a 5.53,5.53 0 0 1 3.64,1.06 l 5.17,3.7 A 2.93,2.93 0 0 0 348,483 l 3,-5 c 0.5,-1.19 1.71,-2.43 3.53,-1.62 z"
     id="path5759"
     inkscape:connector-curvature="0"
     style="fill:#c21333" />
  <path
     d="m 336.63,497.46 a 4,4 0 0 1 -3.77,-3.93 l -0.92,-12.68 a 3,3 0 0 1 2.74,-3.17 h 0.52 a 6.41,6.41 0 0 1 4.29,1.25 l 5.17,3.69 a 1.91,1.91 0 0 0 2.56,-0.2 l 2.86,-4.82 a 4.05,4.05 0 0 1 2.12,-2.2 3.4,3.4 0 0 1 2.7,0.11 h 0.05 l 11.16,5.7 c 0.35,0.17 9,4.4 11.93,8.25 l 0.11,0.19 a 3.82,3.82 0 0 1 -0.17,3.5 2.94,2.94 0 0 1 -2.32,1.49 l -38.79,2.83 z m -1,-17.84 h -0.31 -0.53 a 1,1 0 0 0 -0.89,1 l 0.93,12.68 a 2,2 0 0 0 1.86,2.08 l 38.79,-2.82 a 1,1 0 0 0 0.75,-0.52 1.81,1.81 0 0 0 0.11,-1.56 c -2.72,-3.45 -11.06,-7.53 -11.15,-7.57 l -11.15,-5.7 a 1.49,1.49 0 0 0 -1.12,-0.08 2.13,2.13 0 0 0 -1.05,1.19 l -0.06,0.12 -3.09,5.16 a 3.92,3.92 0 0 1 -5.25,0.53 l -5.17,-3.69 a 4.56,4.56 0 0 0 -2.64,-0.82 z"
     id="path5761"
     inkscape:connector-curvature="0" />
  <path
     class="cls-4"
     d="m 366,482.4 a 6.71,6.71 0 0 0 -4.41,4"
     id="path5763"
     inkscape:connector-curvature="0"
     style="fill:#c21333" />
  <path
     d="m 362.48,486.76 -1.88,-0.69 a 7.7,7.7 0 0 1 5.12,-4.64 l 0.46,1.95 -0.23,-1 0.24,1 a 5.61,5.61 0 0 0 -3.71,3.38 z"
     id="path5765"
     inkscape:connector-curvature="0" />
  <path
     class="cls-4"
     d="m 361.05,479.68 a 6.74,6.74 0 0 0 -4.42,4"
     id="path5767"
     inkscape:connector-curvature="0"
     style="fill:#c21333" />
  <path
     d="m 357.57,484 -1.88,-0.69 a 7.7,7.7 0 0 1 5.13,-4.64 l 0.46,2 -0.23,-1 0.23,1 a 5.69,5.69 0 0 0 -3.71,3.33 z"
     id="path5769"
     inkscape:connector-curvature="0" />
  <line
     class="cls-4"
     x1="376.82999"
     y1="490.48999"
     x2="337.63"
     y2="493.34"
     id="line5771"
     style="fill:#c21333" />
  <rect
     x="301.07889"
     y="515.45282"
     width="39.299999"
     height="2"
     transform="rotate(-4.15)"
     id="rect5773" />
  <circle
     class="cls-5"
     cx="339.29999"
     cy="487.29999"
     r="2.3599999"
     id="circle5775"
     style="fill:#ffffff" />
  <path
     d="m 339.29,490.67 a 3.37,3.37 0 0 1 -2.54,-5.57 3.31,3.31 0 0 1 2.3,-1.15 3.3639337,3.3639337 0 1 1 0.49,6.71 z m 0,-4.73 h -0.1 a 1.36,1.36 0 0 0 -1.26,1.46 v 0 a 1.33,1.33 0 0 0 0.46,0.93 1.36,1.36 0 1 0 0.9,-2.39 z"
     id="path5777"
     inkscape:connector-curvature="0" />
  <polyline
     class="cls-5"
     points="334.36 349.08 338.35 341.38 293.36 325.58 284.34 386.46 241.89 382.15 239.28 401.44 268.29 408.41"
     id="polyline5779"
     style="fill:#ffffff" />
  <polygon
     points="241.03,381.06 283.49,385.37 292.54,324.24 339.76,340.82 335.25,349.54 333.48,348.62 336.93,341.95 294.17,326.93 285.19,387.55 242.75,383.24 240.39,400.68 268.52,407.44 268.06,409.38 238.17,402.2 "
     id="polygon5781" />
  <path
     class="cls-5"
     d="m 280.77,411.4 10.6,2.55 a 11,11 0 0 0 12.37,-5.66 L 324.05,369"
     id="path5783"
     inkscape:connector-curvature="0"
     style="fill:#ffffff" />
  <path
     d="m 294,415.26 a 12,12 0 0 1 -2.83,-0.34 l -10.6,-2.54 0.47,-1.95 10.56,2.57 a 10,10 0 0 0 11.25,-5.14 l 20.31,-39.27 1.78,0.91 -20.31,39.27 A 12,12 0 0 1 294,415.26 Z"
     id="path5785"
     inkscape:connector-curvature="0" />
  <polyline
     class="cls-5"
     points="353 364.9 348.31 333.67 305.45 328.38"
     id="polyline5787"
     style="fill:#ffffff" />
  <polygon
     points="305.33,329.37 305.58,327.39 349.19,332.77 353.99,364.75 352.01,365.05 347.43,334.57 "
     id="polygon5789" />
  <path
     class="cls-5"
     d="m 308.45,347.27 1,6.45 a 31.09,31.09 0 0 0 1.65,6.21 l 14.59,38.22 7.36,67.79 c 0,0 8.8,3.71 20.37,-0.46 L 357,393.72 a 15.81,15.81 0 0 0 -0.15,-3.15 l -2.32,-15.46"
     id="path5791"
     inkscape:connector-curvature="0"
     style="fill:#ffffff" />
  <path
     d="m 342.3,468.47 a 26.61,26.61 0 0 1 -9.61,-1.61 l -0.54,-0.23 -7.41,-68.24 -14.54,-38.11 a 31.67,31.67 0 0 1 -1.71,-6.4 l -1,-6.46 2,-0.31 1,6.45 a 30.48,30.48 0 0 0 1.61,6 l 14.63,38.34 v 0.1 l 7.3,67.17 a 29.7,29.7 0 0 0 18.48,-0.46 L 356,393.67 a 16.28,16.28 0 0 0 -0.15,-3 l -2.32,-15.45 2,-0.3 2.33,15.46 a 17,17 0 0 1 0.16,3.35 l -3.59,72.42 -0.63,0.23 a 33.83,33.83 0 0 1 -11.5,2.09 z"
     id="path5793"
     inkscape:connector-curvature="0" />
  <path
     class="cls-4"
     d="m 330.31,253.42 a 29.81,29.81 0 0 0 -5.64,-0.57 c -0.3,0 -0.61,0 -0.95,-0.06 a 17.53,17.53 0 0 0 -3,0.27 21.19,21.19 0 0 0 -3.94,0.79 v 0 A 115.4,115.4 0 0 0 284,267.45 c 0,0 -4.83,2.89 -5.95,3.85 -1.12,0.96 0.05,20.37 0.05,20.37 l 18.73,-4.35 0.19,-6.61 6.47,0.12 -12.85,58 a 189.12,189.12 0 0 0 58.29,0.93 c 0,0 16.08,-52.7 16.4,-62.66 0.32,-9.96 -13.8,-19.3 -35.02,-23.68 z"
     id="path5795"
     inkscape:connector-curvature="0"
     style="fill:#c21333" />
  <path
     d="m 323,342.53 a 181.66,181.66 0 0 1 -32.56,-2.73 l -1,-0.21 12.8,-57.78 -4.26,-0.09 -0.18,6.4 -20.64,4.79 -0.07,-1.18 c -1.21,-19.9 -0.11,-20.83 0.3,-21.19 1.15,-1 5.58,-3.65 6.08,-4 11,-7 24.61,-11.73 33,-13.7 a 22.2,22.2 0 0 1 4.11,-0.82 18,18 0 0 1 3.16,-0.28 c 0.38,0 0.71,0 1,0.06 a 30.68,30.68 0 0 1 5.74,0.59 v 0 c 22.11,4.57 36.18,14.25 35.84,24.68 -0.32,10 -15.78,60.76 -16.44,62.92 l -0.19,0.61 -0.63,0.09 A 186.21,186.21 0 0 1 323,342.53 Z M 291.86,338 a 191.83,191.83 0 0 0 56.32,0.83 c 1.79,-5.91 15.87,-52.64 16.17,-61.79 0.3,-9.15 -13.46,-18.37 -34.24,-22.66 a 28.51,28.51 0 0 0 -5.45,-0.55 l -1,-0.06 a 15.58,15.58 0 0 0 -2.84,0.26 22,22 0 0 0 -3.39,0.63 v 0 l -0.46,0.11 a 115.43,115.43 0 0 0 -32.43,13.47 c -1.29,0.77 -4.66,2.84 -5.71,3.67 -0.46,1.47 -0.26,10.23 0.21,18.47 l 16.83,-3.91 0.19,-6.83 8.69,0.16 z"
     id="path5797"
     inkscape:connector-curvature="0" />
  <path
     class="cls-4"
     d="m 358.81,265.33 c 0,0 8.95,5 10.8,26.87 l 2.49,13.18 9.26,-3.05 5.33,17.41 c 0,0 -23.59,9.75 -25.2,9.11 -1.61,-0.64 -15.75,-33.53 -15.75,-33.53"
     id="path5799"
     inkscape:connector-curvature="0"
     style="fill:#c21333" />
  <path
     d="m 361.53,329.83 a 1.11,1.11 0 0 1 -0.41,-0.06 c -1.32,-0.52 -6.81,-12 -16.3,-34 l 1.84,-0.79 c 5,11.71 13.45,30.58 15.25,32.94 2.3,-0.27 14.68,-5.06 23.55,-8.71 l -4.76,-15.61 -9.37,3.09 -2.72,-14.41 c -1.77,-20.93 -10.21,-26 -10.3,-26.08 l 1,-1.74 c 0.38,0.21 9.42,5.51 11.3,27.6 l 2.27,12 9.14,-3 5.9,19.26 -0.84,0.35 c -14.75,6.08 -23.33,9.16 -25.55,9.16 z"
     id="path5801"
     inkscape:connector-curvature="0" />
  <path
     class="cls-5"
     d="m 403.62,312.15 10.47,-4.35 a 37.91,37.91 0 0 0 7,-3.33 c 3.86,-2.32 3.81,-4.27 3.81,-4.27 0.75,-9 -6.18,-11.86 -6.18,-11.86 l -5.21,4.89 c -1.37,-0.77 -5,-2.59 -7.21,-1.82 -2.77,1 -4.26,7.68 -4.26,7.68 l -19.74,4.25 3,16.4 10,-4.16"
     id="path5803"
     inkscape:connector-curvature="0"
     style="fill:#ffffff" />
  <path
     d="m 384.56,321.14 -3.43,-18.58 20.08,-4.32 c 0.48,-1.85 2,-6.81 4.75,-7.77 2.24,-0.78 5.37,0.49 7.38,1.54 l 5.16,-4.84 0.6,0.25 c 0.07,0 7.57,3.23 6.79,12.83 0,0.5 -0.35,2.71 -4.3,5.08 a 39.4,39.4 0 0 1 -7.18,3.42 l -10.41,4.32 -0.77,-1.85 10.48,-4.34 a 37.92,37.92 0 0 0 6.85,-3.27 c 3.18,-1.91 3.33,-3.42 3.33,-3.44 0.56,-6.8 -3.48,-9.76 -5,-10.62 l -5.24,4.91 -0.64,-0.36 c -2.11,-1.18 -4.9,-2.26 -6.39,-1.74 -1.49,0.52 -3,4.38 -3.61,6.94 l -0.14,0.63 -19.42,4.18 2.62,14.23 8.89,-3.68 0.77,1.84 z"
     id="path5805"
     inkscape:connector-curvature="0" />
  <path
     class="cls-6"
     d="m 344.33,463.73 h -2 v -6 h 2 z m 0,-12 h -2 v -6 h 2 z m 0,-12 h -2 v -6 h 2 z m 0,-12 h -2 v -6 h 2 z m 0,-12 h -2 v -6 h 2 z m 0,-12 h -2 v -6 h 2 z m -1.94,-11.88 v -0.12 0 -0.05 c -0.21,-0.57 -0.93,-2.5 -1.95,-5.28 l 1.88,-0.69 c 1.21,3.32 2,5.44 2,5.44 l 0.07,0.17 v 0.41 h -1.64 z m -4.06,-11.12 c -0.64,-1.77 -1.32,-3.69 -2,-5.67 l 1.89,-0.66 c 0.69,2 1.37,3.88 2,5.66 z m -4,-11.35 c -0.66,-1.91 -1.31,-3.83 -1.94,-5.7 l 1.9,-0.64 c 0.62,1.87 1.27,3.78 1.93,5.69 z m -3.81,-11.44 c -0.7,-2.22 -1.29,-4.16 -1.74,-5.79 l 1.92,-0.54 c 0.45,1.6 1,3.53 1.73,5.73 z"
     id="path5807"
     inkscape:connector-curvature="0"
     style="fill:#030303" />
  <path
     d="m 348.69,358.76 a 25,25 0 0 1 -13.78,-17.3 l 2,-0.31 A 23.38,23.38 0 0 0 349.58,357 Z"
     id="path5809"
     inkscape:connector-curvature="0" />
  <line
     class="cls-5"
     x1="413.5"
     y1="293.23001"
     x2="409.10999"
     y2="297.82001"
     id="line5811"
     style="fill:#ffffff" />
  <rect
     x="66.913673"
     y="500.56137"
     width="6.3600001"
     height="2"
     transform="rotate(-46.35)"
     id="rect5813" />
  <line
     class="cls-4"
     x1="303.51001"
     y1="280.82999"
     x2="306.20001"
     y2="267.75"
     id="line5815"
     style="fill:#c21333" />
  <rect
     x="-214.02075"
     y="352.83737"
     width="13.36"
     height="2"
     transform="rotate(-78.39)"
     id="rect5817" />
  <polygon
     class="cls-7"
     points="354.54,317.38 344.57,295.95 348.08,338.81 "
     id="polygon5819"
     style="fill:#961430" />
  <polygon
     class="cls-7"
     points="295.84,286.56 296.48,279.62 302.78,279.81 305.11,267.75 288.67,276.59 "
     id="polygon5821"
     style="fill:#961430" />
  <path
     class="cls-7"
     d="m 307.26,268.73 -15.44,69.55 a 54.61,54.61 0 0 0 8.1,0.93 z"
     id="path5823"
     inkscape:connector-curvature="0"
     style="fill:#961430" />
  <path
     class="cls-7"
     d="m 365.63,277.52 c 0,0 3.21,10 3.52,18.08 l 2.18,11.15 9.4,-3.15 -12.47,9.26 z"
     id="path5825"
     inkscape:connector-curvature="0"
     style="fill:#961430" />
  <line
     class="cls-7"
     x1="281.92999"
     y1="285.60999"
     x2="296.89001"
     y2="282.91"
     id="line5827"
     style="fill:#961430" />
  <rect
     x="226.70296"
     y="330.16873"
     width="15.21"
     height="2"
     transform="rotate(-10.23)"
     id="rect5829" />
  <line
     class="cls-7"
     x1="380.73001"
     y1="321.98001"
     x2="378.01001"
     y2="310.44"
     id="line5831"
     style="fill:#961430" />
  <rect
     x="295.71848"
     y="388.87766"
     width="2"
     height="11.86"
     transform="rotate(-13.26)"
     id="rect5833" />
  <path
     class="cls-7"
     d="m 360.91,320.2 c 0,0 1.92,5 5.71,3.5"
     id="path5835"
     inkscape:connector-curvature="0"
     style="fill:#961430" />
  <path
     d="m 365.25,325 c -2.77,0 -4.61,-2.7 -5.27,-4.41 l 1.86,-0.72 c 0.07,0.16 1.61,4 4.43,2.93 l 0.71,1.86 a 4.7,4.7 0 0 1 -1.73,0.34 z"
     id="path5837"
     inkscape:connector-curvature="0" />
  <path
     class="cls-6"
     d="m 287.77,398.23 -5.95,-0.82 0.28,-2 5.94,0.82 z m 6.41,-0.82 -1.84,-0.79 2.38,-5.51 1.84,0.79 z m -18.3,-0.82 -5.94,-0.82 0.27,-2 5.94,0.82 z M 264,395 l -5.94,-0.82 0.27,-2 5.95,0.82 z m -11.88,-1.64 -6,-0.82 0.28,-2 5.94,0.82 z m 46.82,-6.92 -1.83,-0.79 2.37,-5.51 1.84,0.79 z m 4.76,-11 -1.84,-0.79 2.38,-5.51 1.83,0.79 z"
     id="path5839"
     inkscape:connector-curvature="0"
     style="fill:#030303" />
  <path
     class="cls-7"
     d="m 383.24,371 62.11,35.87 c 0,0 6,-18 -11.88,-21.21 0,0 3.91,-19.26 -16.57,-23.91 a 43.49,43.49 0 0 0 -22.53,3.1 c -3.72,1.64 -11.13,6.15 -11.13,6.15 z"
     id="path5841"
     inkscape:connector-curvature="0"
     style="fill:#961430" />
  <path
     class="cls-7"
     d="m 414.58,612.27 61.66,-36.63 c 0,0 -12.76,-14.09 -24.3,0 0,0 -14.89,-12.83 -29,2.75 a 43.59,43.59 0 0 0 -8.32,21.17 c -0.37,4.03 -0.04,12.71 -0.04,12.71 z"
     id="path5843"
     inkscape:connector-curvature="0"
     style="fill:#961430" />
  <circle
     cx="569.58002"
     cy="289.70999"
     r="5.1900001"
     id="circle5845" />
  <path
     class="cls-4"
     d="m 561.8,538.72 0.23,-0.13 -6.52,-8.8 v -6 l -8.51,-4.51 -7.45,-9.17 -0.19,0.1 -3.26,1.7 -15,7.78 v 0 l -0.2,0.1 -0.32,1.7 0.25,6.6 -11.47,6.31 v 16.34 l 13.81,7.86 v -0.12 l 0.85,-15.17 4.41,-2.62 7.9,10.42 -12.7,7.53 0.12,0.22 12.53,-7 7.48,9.81 -0.16,-1.05 v 0 -5.95 l -0.24,4.84 -1.53,-2 v 0 l -4.09,-7.29 -1,0.6 -7.91,-10.43 -6.95,-9.15 -0.22,-3.36 -0.45,-7 0.36,0.44 v 0 0 0 l 2.76,4.93 0.76,-0.44 8.91,11.51 v 0 l 8.08,10.3 1.46,1.85 v 5.26 l 0.27,-5.38 v 0 L 562,539 Z m -6.74,-8.55 -2.9,-3.69 2.9,-1.72 z m -11.24,19.16 -0.25,0.14 v 5.26 l 0.27,-5.38 z m 0,0 -0.25,0.14 v 5.26 l 0.27,-5.38 z m 0,0 -0.25,0.14 v 5.26 l 0.27,-5.38 z m 18.24,-10.7 -0.64,11.17 -17.1,10.83 1,-0.08 16.69,-10.71 0.3,-10.8 z m -18.49,10.84 v 5.26 l 0.27,-5.38 v 0 z m 0.25,-0.14 -0.25,0.14 v 5.26 l 0.27,-5.38 z m 0,0 -0.25,0.14 v 5.26 l 0.27,-5.38 z m 0,0 -0.25,0.14 v 5.26 l 0.27,-5.38 z"
     id="path5847"
     inkscape:connector-curvature="0"
     style="fill:#c21333" />
  <path
     d="m 523.48,544.2 -14.83,-8.29 v -1.75 l 0.23,-0.13 12.25,-7 1.5,0.8 0.19,3.06 6.78,8.91 -0.27,1.46 -0.43,0.26 -4.42,2.63 z m -12.31,-9.2 12.83,7.17 3.38,-2 -6.28,-8.26 -0.2,-0.54 -0.12,-1.76 z"
     id="path5849"
     inkscape:connector-curvature="0" />
  <path
     d="m 534,538.32 -0.79,-0.38 -8.92,-11.37 0.29,-1.48 0.56,-0.32 15.76,-9 h 1 l 14.1,7.85 v 1.72 l -21.47,12.83 z m -7.42,-12.07 7.66,9.76 19.23,-11.49 -12.07,-6.71 z"
     id="path5851"
     inkscape:connector-curvature="0" />
  <polygon
     class="cls-7"
     points="523.11,558.73 523.12,558.49 523.97,543.32 528.38,540.7 536.28,551.12 523.65,558.62 "
     id="polygon5853"
     style="fill:#961430" />
  <path
     d="m 523.31,559.71 -1.2,-1 v -0.25 l 0.85,-15.18 0.49,-0.81 4.41,-2.62 1.31,0.25 7.9,10.42 -0.29,1.47 -12.63,7.5 -0.3,0.11 z m 1.63,-15.8 -0.75,13.22 10.62,-6.3 -6.69,-8.83 z"
     id="path5855"
     inkscape:connector-curvature="0" />
  <polygon
     points="522.88,557.58 523.14,557.49 523.39,558.19 523.68,557.63 523.94,557.77 523.53,558.56 523.82,559.37 523.57,559.46 523.36,558.89 523.02,559.54 522.76,559.41 "
     id="polygon5857" />
  <polygon
     class="cls-7"
     points="552.16,526.49 555.06,524.76 555.06,530.17 "
     id="polygon5859"
     style="fill:#961430" />
  <path
     d="m 554.27,530.78 -2.9,-3.68 0.28,-1.47 2.89,-1.73 1.52,0.86 v 5.41 z m -0.62,-4 0.41,0.52 v -0.76 z"
     id="path5861"
     inkscape:connector-curvature="0" />
  <rect
     x="554.06"
     y="523.78998"
     width="2"
     height="0.95999998"
     id="rect5863" />
  <rect
     x="174.55605"
     y="747.89905"
     width="0.50999999"
     height="2"
     transform="rotate(-31.1)"
     id="rect5865" />
  <polygon
     points="554.06,539.3 554.06,530.17 556.06,530.17 556.06,539.87 555.57,540.73 542.63,548.48 541.6,546.76 "
     id="polygon5867" />
  <polygon
     points="508.61,550.73 508.61,535.04 510.61,535.04 510.61,550.15 523.89,557.78 522.89,559.52 509.11,551.59 "
     id="polygon5869" />
  <polygon
     class="cls-4"
     points="542.11,547.62 534.03,537.32 534.02,537.32 525.1,525.95 524.34,526.39 521.58,521.46 521.56,521.44 521.56,521.43 521.54,521.4 521.18,520.96 521.17,520.75 521.16,520.73 521.16,520.73 521.14,520.33 521.1,519.7 521.46,520.16 525.65,525.64 525.66,525.64 534.43,537.08 542.38,547.46 543.82,549.33 543.84,549.35 543.57,554.73 543.57,549.47 "
     id="polygon5871"
     style="fill:#c21333" />
  <polygon
     class="cls-7"
     points="544.32,560.63 544.31,560.63 543.57,560.68 543.57,554.73 543.84,549.35 543.82,549.33 562,538.98 561.8,538.73 562.03,538.59 562.06,538.63 561.42,549.8 "
     id="polygon5873"
     style="fill:#961430" />
  <path
     d="m 543.64,561.68 -1.07,-1 v -5.95 l 0.27,-5.43 h 0.31 l 0.18,-0.86 17.89,-10.19 0.08,-0.41 0.23,-0.14 1.3,0.27 0.23,0.69 -0.64,11.18 -0.47,0.79 -17.1,10.83 -0.53,0.15 z m 1.17,-11.77 -0.24,4.87 v 4.51 l 15.88,-10.06 0.49,-8.5 z"
     id="path5875"
     inkscape:connector-curvature="0" />
  <polygon
     class="cls-4"
     points="543.57,549.47 543.82,549.33 543.84,549.35 543.57,554.73 "
     id="polygon5877"
     style="fill:#c21333" />
  <polygon
     points="542.57,549.47 543.08,548.6 543.33,548.46 544.64,548.75 544.84,549.4 544.57,554.78 542.57,554.73 "
     id="polygon5879" />
  <polygon
     class="cls-4"
     points="542.88,561.32 543.57,560.68 544.31,560.63 "
     id="polygon5881"
     style="fill:#c21333" />
  <polygon
     points="542.89,559.95 543.5,559.69 544.24,559.63 544.74,561.53 543.32,562.22 542.21,560.58 "
     id="polygon5883" />
  <polygon
     class="cls-4"
     points="543.82,549.33 561.8,538.73 562,538.98 "
     id="polygon5885"
     style="fill:#c21333" />
  <polygon
     points="561.29,537.86 562.58,538.11 562.78,538.36 562.49,539.85 544.32,550.2 543.32,548.47 "
     id="polygon5887" />
  <polygon
     class="cls-4"
     points="562.03,538.59 562.06,538.57 562.06,538.63 "
     id="polygon5889"
     style="fill:#c21333" />
  <polygon
     points="561.26,539.23 561.35,538.63 561.06,538.63 561.35,538.61 561.47,537.76 562.46,538.27 562.83,537.99 562.48,538.28 563.06,538.63 562.27,538.89 562.62,539.4 562.59,539.42 562.24,538.9 "
     id="polygon5891" />
  <polygon
     class="cls-4"
     points="543.55,560.68 543.57,560.72 543.54,560.68 "
     id="polygon5893"
     style="fill:#c21333" />
  <polygon
     points="542.76,561.31 542.74,561.27 542.84,561.08 542.67,561.16 542.65,561.12 542.87,561.02 543.54,559.68 544.29,560.14 544.35,560.1 544.29,560.15 544.45,560.25 543.55,560.81 543.55,561.68 543.55,560.82 "
     id="polygon5895" />
  <polygon
     class="cls-4"
     points="543.57,549.47 542.11,547.62 534.03,537.32 534.02,537.32 525.1,525.95 521.58,521.46 521.56,521.44 521.56,521.43 521.54,521.4 521.18,520.96 521.1,520.85 520.83,520.51 521.14,520.33 521.46,520.16 536.09,511.9 539.27,510.11 539.35,510.21 546.77,519.64 552.16,526.49 555.06,530.17 561.8,538.73 562,538.98 543.82,549.33 "
     id="polygon5897"
     style="fill:#c21333" />
  <path
     d="M 544.07,550.34 542.79,550.09 520.72,522 v 0 l -0.68,-0.84 0.29,-1.49 0.65,-0.36 17.8,-10 1.26,0.24 0.08,0.1 22.66,28.78 -0.29,1.49 z M 534.8,536.7 v 0 l 9,11.48 16.66,-9.5 -21.46,-27.27 -16.68,9.4 v 0.07 z"
     id="path5899"
     inkscape:connector-curvature="0" />
  <polygon
     class="cls-7"
     points="543.57,561.1 543.82,549.33 521.18,520.96 521.85,531.28 "
     id="polygon5901"
     style="fill:#961430" />
  <path
     d="M 542.76,561.69 521,531.87 l -0.19,-0.52 -0.63,-10.35 1.78,-0.68 22.65,28.36 0.21,0.65 -0.25,11.77 z m -19.93,-30.76 19.81,27.19 0.18,-8.45 -20.44,-25.6 z"
     id="path5903"
     inkscape:connector-curvature="0" />
  <path
     class="cls-4"
     d="m 184,406.1 v 0.09 l -6.29,-9 v -6 l -8.51,-4.52 -7.45,-9.16 -0.19,0.1 -3.26,1.69 -15,7.79 v 0 l -0.2,0.1 -0.33,1.7 0.26,6.59 -11.47,6.32 v 16.34 l 13.81,7.86 -0.06,-0.12 0.86,-15.17 4.41,-2.63 7.9,10.43 -12.7,7.49 0.11,0.21 12.54,-6.94 7.47,9.81 -0.16,-1.05 v 0 -6 l -0.24,4.85 -1.53,-2 v 0 l -4.09,-7.29 -1,0.59 -7.88,-10.37 -7,-9.15 -0.21,-3.36 -0.45,-7 0.36,0.44 v 0 0 0 l 2.77,4.92 0.76,-0.43 8.92,11.37 v 0 l 8.16,10.4 1.46,1.86 v 5.25 l 0.27,-5.37 v 0 l 18.17,-10.35 z m -6.74,-8.56 -2.89,-3.68 2.89,-1.73 z M 166,416.7 l -0.25,0.15 v 5.25 l 0.27,-5.37 z m 0,0 -0.25,0.15 v 5.25 l 0.27,-5.37 z m 0,0 -0.25,0.15 v 5.25 l 0.27,-5.37 z m 18,-10.6 -0.44,11.08 -17.04,10.82 1,-0.08 16.69,-10.71 -0.11,-10.84 z m -18.29,10.75 v 5.25 l 0.27,-5.37 v 0 z m 0.25,-0.15 -0.25,0.15 v 5.25 l 0.27,-5.37 z m 0,0 -0.25,0.15 v 5.25 l 0.27,-5.37 z m 0,0 -0.25,0.15 v 5.25 l 0.27,-5.37 z"
     id="path5905"
     inkscape:connector-curvature="0"
     style="fill:#c21333" />
  <path
     d="m 145.68,411.58 -14.83,-8.3 v -1.74 l 0.23,-0.13 12.25,-7 1.5,0.8 0.19,3.05 6.78,8.92 -0.28,1.45 -0.42,0.26 -4.42,2.64 z m -12.31,-9.17 12.78,7.14 3.38,-2 -6.28,-8.27 -0.2,-0.54 -0.12,-1.75 z"
     id="path5907"
     inkscape:connector-curvature="0" />
  <path
     d="m 156.23,405.7 -0.8,-0.38 -8.92,-11.32 0.29,-1.49 0.57,-0.32 15.75,-9 h 1 l 14.07,7.81 v 1.73 l -21.47,12.83 z m -7.42,-12.07 7.65,9.76 19.24,-11.49 -12.08,-6.71 z"
     id="path5909"
     inkscape:connector-curvature="0" />
  <polygon
     class="cls-7"
     points="145.3,426.11 145.31,425.87 146.17,410.7 150.58,408.07 158.48,418.5 145.85,425.99 "
     id="polygon5911"
     style="fill:#961430" />
  <path
     d="m 145.51,427.09 -1.21,-1 v -0.24 l 0.86,-15.18 0.49,-0.81 4.41,-2.63 1.3,0.26 7.91,10.42 -0.29,1.47 -12.63,7.49 -0.31,0.12 z m 1.63,-15.8 -0.75,13.22 10.62,-6.3 -6.69,-8.82 z"
     id="path5913"
     inkscape:connector-curvature="0" />
  <polygon
     points="145.08,424.96 145.33,424.87 145.59,425.57 145.88,425.01 146.14,425.14 145.72,425.94 146.02,426.74 145.76,426.84 145.55,426.26 145.21,426.92 144.96,426.78 "
     id="polygon5915" />
  <polygon
     class="cls-7"
     points="174.35,393.86 177.25,392.13 177.25,397.54 "
     id="polygon5917"
     style="fill:#961430" />
  <path
     d="m 176.47,398.16 -2.9,-3.68 0.27,-1.48 2.9,-1.72 1.51,0.85 v 5.41 z m -0.62,-4 0.4,0.52 v -0.77 z"
     id="path5919"
     inkscape:connector-curvature="0" />
  <rect
     x="176.25"
     y="391.17001"
     width="2"
     height="0.95999998"
     id="rect5921" />
  <rect
     x="-80.453522"
     y="439.19141"
     width="0.50999999"
     height="2"
     transform="rotate(-31.1)"
     id="rect5923" />
  <polygon
     points="176.25,406.68 176.25,397.54 178.25,397.54 178.25,407.25 177.77,408.11 164.82,415.85 163.8,414.13 "
     id="polygon5925" />
  <polygon
     points="130.81,418.1 130.81,402.42 132.81,402.42 132.81,417.52 146.09,425.16 145.09,426.9 131.31,418.97 "
     id="polygon5927" />
  <polygon
     class="cls-4"
     points="164.31,415 156.23,404.7 156.22,404.7 147.3,393.33 146.54,393.76 143.77,388.84 143.76,388.81 143.76,388.81 143.74,388.78 143.38,388.34 143.37,388.13 143.36,388.11 143.36,388.1 143.34,387.71 143.3,387.08 143.66,387.54 147.85,393.02 147.86,393.02 156.63,404.46 164.58,414.83 166.02,416.7 166.04,416.73 165.77,422.11 165.77,416.85 "
     id="polygon5929"
     style="fill:#c21333" />
  <polygon
     class="cls-7"
     points="166.52,428.01 166.51,428.01 165.77,428.06 165.77,422.11 166.04,416.73 166.02,416.7 184.19,406.36 183.99,406.1 184.23,405.97 184.07,405.95 183.62,417.2 "
     id="polygon5931"
     style="fill:#961430" />
  <path
     d="m 165.84,429.06 -1.07,-1 v -6 l 0.27,-5.42 h 0.31 l 0.18,-0.86 17.89,-10.23 0.08,-0.37 0.23,-0.14 0.09,0.16 0.36,-0.3 h 0.16 l 0.15,0.74 0.29,-0.23 0.2,0.26 v 0.25 h 0.14 l -0.46,11.25 -0.46,0.81 -17.1,10.8 -0.53,0.16 z m 1.16,-11.77 -0.24,4.86 v 4.52 l 15.87,-10 0.34,-8.44 z"
     id="path5933"
     inkscape:connector-curvature="0" />
  <polygon
     class="cls-4"
     points="165.77,416.85 166.02,416.7 166.04,416.73 165.77,422.11 "
     id="polygon5935"
     style="fill:#c21333" />
  <polygon
     points="164.77,416.85 165.27,415.98 165.53,415.84 166.84,416.13 167.04,416.78 166.77,422.15 164.77,422.11 "
     id="polygon5937" />
  <polygon
     class="cls-4"
     points="165.08,428.69 165.77,428.06 166.51,428.01 "
     id="polygon5939"
     style="fill:#c21333" />
  <polygon
     points="165.09,427.33 165.7,427.07 166.44,427.01 166.94,428.91 165.52,429.6 164.41,427.96 "
     id="polygon5941" />
  <polygon
     class="cls-4"
     points="166.02,416.7 183.99,406.1 184.19,406.36 "
     id="polygon5943"
     style="fill:#c21333" />
  <polygon
     points="183.49,405.24 184.78,405.49 184.98,405.74 184.69,407.22 166.52,417.57 165.51,415.84 "
     id="polygon5945" />
  <polygon
     class="cls-4"
     points="183.99,405.79 183.99,406 183.85,406.27 "
     id="polygon5947"
     style="fill:#c21333" />
  <polygon
     points="183.03,405.51 184.99,405.79 184.99,406 184.88,406.47 184.73,406.74 182.89,405.99 "
     id="polygon5949" />
  <polygon
     class="cls-4"
     points="165.75,428.06 165.77,428.1 165.74,428.06 "
     id="polygon5951"
     style="fill:#c21333" />
  <polygon
     points="164.96,428.69 164.94,428.65 165.03,428.46 164.87,428.54 164.85,428.5 165.06,428.4 165.74,427.06 166.48,427.52 166.55,427.47 166.49,427.52 166.65,427.63 165.75,428.19 165.75,429.06 165.74,428.19 "
     id="polygon5953" />
  <polygon
     class="cls-4"
     points="165.77,416.85 164.31,415 156.23,404.7 156.22,404.7 147.3,393.33 143.77,388.84 143.76,388.81 143.76,388.81 143.74,388.78 143.38,388.34 143.3,388.23 143.03,387.89 143.34,387.71 143.66,387.54 158.29,379.28 161.47,377.49 161.55,377.59 168.96,387.01 174.35,393.86 177.25,397.54 183.99,406.1 184.19,406.36 166.02,416.7 "
     id="polygon5955"
     style="fill:#c21333" />
  <path
     d="m 166.26,417.72 -1.28,-0.25 -22.06,-28.13 v 0 l -0.67,-0.84 0.29,-1.49 0.65,-0.36 17.8,-10 1.26,0.24 0.08,0.1 22.67,28.75 -0.29,1.48 z M 157,404.07 v 0 l 9,11.47 16.67,-9.49 -21.48,-27.28 -16.67,9.41 v 0.06 z"
     id="path5957"
     inkscape:connector-curvature="0" />
  <polygon
     class="cls-7"
     points="165.77,428.48 166.02,416.7 143.38,388.34 144.04,398.66 "
     id="polygon5959"
     style="fill:#961430" />
  <path
     d="m 165,429.07 -21.73,-29.82 -0.18,-0.53 -0.67,-10.32 1.78,-0.69 22.64,28.37 0.22,0.65 -0.25,11.77 z m -20,-30.77 19.81,27.19 0.18,-8.44 -20.43,-25.6 z"
     id="path5961"
     inkscape:connector-curvature="0" />
  <path
     class="cls-4"
     d="m 589.84,439.91 13.72,-7.59 V 432 Z M 494,384.8 l 0.21,76.6 0.33,0.93 0.5,1.43 0.11,0.3 93.31,54.34 h 1.68 L 590,502.76 v -15.82 l -0.06,-15.72 V 455.58 439.91 L 559.51,422.15 526.58,403 v 0 l -31.65,-18.5 13.2,-7.62 32,18.4 32.87,18.92 31,17.85 v -0.35 l -95.78,-55 -13.56,7.69 -0.21,0.12 z m 109.56,47.2 -13.72,7.93 13.72,-7.59 z m -13.72,7.93 13.72,-7.59 V 432 Z m 0.29,78.49 h 0.67 l 13.2,-7.97 0.09,-78.4 -0.49,0.27 v 78.32 z"
     id="path5963"
     inkscape:connector-curvature="0"
     style="fill:#c21333" />
  <polygon
     class="cls-7"
     points="603.56,431.98 603.56,432.32 604.05,432.05 573.02,414.2 572.98,414.28 559.41,422.15 589.84,439.91 "
     id="polygon5965"
     style="fill:#961430" />
  <path
     d="m 590.34,440.78 h -1 L 558.9,423 v -1.73 l 13.58,-7.86 0.12,0.21 0.92,-0.3 31,17.85 v 0.83 0 0.94 l -0.49,0.27 -0.28,-0.17 z m -28.94,-18.63 28.44,16.61 11.91,-6.88 -28.68,-16.5 z"
     id="path5967"
     inkscape:connector-curvature="0" />
  <polygon
     points="603.06,431.12 604.56,431.98 604.56,432.32 604.04,433.19 590.32,440.79 589.34,439.05 "
     id="polygon5969" />
  <polygon
     class="cls-7"
     points="572.98,414.28 573.02,414.2 540.14,395.28 540.12,395.31 526.58,402.97 559.41,422.15 "
     id="polygon5971"
     style="fill:#961430" />
  <path
     d="m 559.91,423 h -1 l -32.83,-19.18 v -1.72 l 13.55,-7.66 0.11,0.19 0.9,-0.21 32.88,18.91 0.38,1.35 -0.42,0.47 z m -31.33,-20 30.83,18 11.66,-6.76 -30.92,-17.79 z"
     id="path5973"
     inkscape:connector-curvature="0" />
  <polygon
     class="cls-7"
     points="526.58,402.97 540.12,395.31 540.14,395.28 508.13,376.88 494.93,384.5 526.57,402.97 "
     id="polygon5975"
     style="fill:#961430" />
  <path
     d="m 526.57,404 -0.51,-0.14 -31.63,-18.47 v -1.73 l 13.2,-7.62 h 1 l 32,18.41 0.32,1.44 -0.35,0.32 -13.54,7.66 z m -29.65,-19.46 29.66,17.31 11.55,-6.54 -30,-17.25 z"
     id="path5977"
     inkscape:connector-curvature="0" />
  <polygon
     points="494,383.89 494.43,383.64 495.44,383.64 590.34,439.05 589.34,440.78 494,385.62 "
     id="polygon5979" />
  <polygon
     class="cls-7"
     points="589.92,455.6 603.56,447.73 603.56,432.32 589.84,439.91 589.89,455.58 "
     id="polygon5981"
     style="fill:#961430" />
  <path
     d="m 589.47,456.49 -0.58,-0.9 v -15.67 l 0.51,-0.88 13.73,-7.6 1.48,0.88 v 15.4 l -0.5,0.87 -13.63,7.88 z m 1.37,-16 v 13.39 l 11.68,-6.74 V 434 Z"
     id="path5983"
     inkscape:connector-curvature="0" />
  <polygon
     points="603.06,431.12 604.56,431.98 604.56,432.32 604.04,433.19 590.32,440.79 589.34,439.05 "
     id="polygon5985" />
  <polygon
     class="cls-7"
     points="590.13,518.4 603.56,510.64 603.56,494.96 590.04,502.76 590.1,518.4 "
     id="polygon5987"
     style="fill:#961430" />
  <path
     d="m 590.13,519.4 -1,-1 -0.13,-15.64 0.5,-0.87 13.52,-7.8 1.5,0.87 v 15.68 l -0.5,0.87 -13.43,7.76 z m 0.91,-16.06 0.05,13.35 11.47,-6.62 v -13.38 z"
     id="path5989"
     inkscape:connector-curvature="0" />
  <polygon
     points="588.92,518.52 588.84,439.91 590.84,439.91 591.1,518.4 590.92,518.4 590.92,518.52 590.39,518.52 590.59,519.29 590.42,519.38 590.13,519.22 590.13,519.4 589.65,518.94 "
     id="polygon5991" />
  <path
     d="M 589.59,519.81 494,464.33 l -0.49,-0.87 v -79.21 l 1.52,-0.86 0.4,0.24 94.92,55.42 0.5,0.86 0.26,79 z M 495.5,462.89 v 0 L 589.08,517.2 588.83,440.48 495.5,386 Z"
     id="path5993"
     inkscape:connector-curvature="0" />
  <polygon
     points="495,400.17 590.44,454.75 589.3,456.39 494,401.9 "
     id="polygon5995" />
  <polygon
     class="cls-7"
     points="603.56,463.46 603.56,447.73 589.92,455.6 589.89,455.58 589.93,471.22 "
     id="polygon5997"
     style="fill:#961430" />
  <path
     d="m 588.94,472.94 -0.06,-19 1,0.52 14.68,-8.46 v 18.06 z m 1.95,-16.74 v 13.31 l 11.63,-6.63 v -13.42 z"
     id="path5999"
     inkscape:connector-curvature="0" />
  <polygon
     points="494,417.11 495,415.38 590.34,470.42 589.88,471.21 590.52,472.04 590.31,472.17 589.83,472.4 589.34,472.15 "
     id="polygon6001" />
  <polygon
     class="cls-7"
     points="603.56,479.21 603.56,463.46 589.93,471.22 589.99,486.94 "
     id="polygon6003"
     style="fill:#961430" />
  <path
     d="m 589,488.65 -0.06,-18 15.63,-8.89 v 18.04 z m 2,-16.85 v 13.42 l 11.58,-6.59 v -13.45 z"
     id="path6005"
     inkscape:connector-curvature="0" />
  <polygon
     points="495,431.12 590.34,486.16 589.93,486.86 590.52,487.78 590.29,487.92 589.8,488.17 494,432.85 "
     id="polygon6007" />
  <polygon
     class="cls-7"
     points="603.56,494.96 603.56,479.21 589.99,486.94 590.04,502.76 "
     id="polygon6009"
     style="fill:#961430" />
  <path
     d="M 589.05,504.49 589,486.36 604.57,477.5 v 18 z m 1.94,-17 0.01,13.51 11.52,-6.65 v -13.42 z"
     id="path6011"
     inkscape:connector-curvature="0" />
  <polygon
     points="494,448.59 495,446.86 590.41,501.96 590,502.69 590.57,503.61 589.99,503.97 589.41,503.69 "
     id="polygon6013" />
  <rect
     x="511.67999"
     y="411.29001"
     width="2"
     height="15.44"
     id="rect6015" />
  <polygon
     points="525.3,402.58 526.06,402.11 526.66,403.12 527.3,403.12 527.3,419.07 525.3,419.07 "
     id="polygon6017" />
  <polygon
     points="557.39,422.17 558.89,421.29 559.92,423 559.39,423.32 559.39,437.51 557.39,437.51 "
     id="polygon6019" />
  <rect
     x="524.21997"
     y="434.60999"
     width="2"
     height="15.12"
     id="rect6021" />
  <rect
     x="556.22998"
     y="452.45999"
     width="2"
     height="15.94"
     id="rect6023" />
  <rect
     x="523.12"
     y="464.94"
     width="2"
     height="15.11"
     id="rect6025" />
  <rect
     x="555.13"
     y="482.79001"
     width="2"
     height="15.94"
     id="rect6027" />
  <rect
     x="537.71002"
     y="426.32999"
     width="2"
     height="15.64"
     id="rect6029" />
  <rect
     x="564.67999"
     y="441.47"
     width="2"
     height="15.64"
     id="rect6031" />
  <rect
     x="511.20001"
     y="442.39001"
     width="2"
     height="15.44"
     id="rect6033" />
  <rect
     x="537.23999"
     y="457.42999"
     width="2"
     height="15.64"
     id="rect6035" />
  <rect
     x="564.21002"
     y="472.57001"
     width="2"
     height="15.64"
     id="rect6037" />
  <path
     d="m 504,363.66 a 19.5,19.5 0 0 1 -7.25,-1.37 c -10.09,-4 -13.49,-15.67 -11.58,-24.59 2.07,-9.61 8.94,-17.47 15.38,-23.9 a 191,191 0 0 1 37.57,-29 c -8,-2 -16.86,-1.56 -24,-0.87 a 76.71,76.71 0 0 1 -10.35,0.34 l 0.07,-2 a 74.5,74.5 0 0 0 10.09,-0.33 c 7.83,-0.77 17.81,-1.19 26.56,1.45 a 206.93,206.93 0 0 1 48.45,-20 l 0.52,1.93 a 205,205 0 0 0 -46.44,19 27.11,27.11 0 0 1 10.34,6.82 c 10.35,11.18 3.48,27.08 0,33.4 -5.48,10.07 -13.06,18.87 -23.19,26.91 -7.46,5.91 -16.82,12.21 -26.17,12.21 z m 36.78,-78.1 a 189.53,189.53 0 0 0 -38.82,29.66 c -6.23,6.22 -12.87,13.8 -14.83,22.9 -1.77,8.23 1.62,18.83 10.36,22.31 10.73,4.27 22.49,-3.42 31.54,-10.61 9.91,-7.86 17.32,-16.47 22.67,-26.3 3.23,-5.93 9.71,-20.85 0.24,-31.08 a 26,26 0 0 0 -11.2,-6.88 z"
     id="path6039"
     inkscape:connector-curvature="0" />
  <path
     d="m 602.4,262.22 -0.4,-2 a 204,204 0 0 1 37.28,-4.14 v 2 a 202.71,202.71 0 0 0 -36.88,4.14 z"
     id="path6041"
     inkscape:connector-curvature="0" />
  <ellipse
     cx="162.00999"
     cy="145.67999"
     rx="5.6300001"
     ry="5.3099999"
     id="ellipse6043" />
  <path
     class="cls-4"
     d="M 130.45,289.71 V 290 l 13.72,7.6 z m 109.06,-47.5 -0.21,-0.11 -13.56,-7.7 -95.78,55 v 0.34 l 31,-17.85 32.91,-18.89 32,-18.41 13.2,7.62 -31.64,18.47 v 0 l -32.83,19.19 -30.43,17.77 v 15.66 15.65 L 144,344.66 v 15.82 l -0.06,15.64 h 1.68 l 93.31,-54.34 0.11,-0.29 0.5,-1.44 0.33,-0.93 0.21,-76.6 z M 130.45,290 l 13.72,7.6 -13.72,-7.93 z m 0,-0.33 V 290 l 13.72,7.6 z m 0,78.66 V 290 l -0.49,-0.27 0.09,78.41 13.16,7.94 h 0.67 z"
     id="path6045"
     inkscape:connector-curvature="0"
     style="fill:#c21333" />
  <polygon
     class="cls-7"
     points="130.45,289.71 130.45,290.04 129.96,289.77 160.99,271.92 161.03,272 174.6,279.87 144.18,297.64 "
     id="polygon6047"
     style="fill:#961430" />
  <path
     d="m 143.67,298.5 -13.42,-7.75 -0.29,0.16 -0.48,-0.27 v -0.93 0 -0.79 l 31,-17.84 0.94,0.26 0.1,-0.18 13.59,7.84 v 1.72 l -30.43,17.78 z m -11.41,-8.9 11.91,6.88 28.44,-16.61 -11.67,-6.76 z"
     id="path6049"
     inkscape:connector-curvature="0" />
  <polygon
     points="129.45,290.04 129.45,289.71 130.95,288.84 144.67,296.77 143.69,298.51 129.97,290.92 "
     id="polygon6051" />
  <polygon
     class="cls-7"
     points="161.03,272 160.99,271.92 193.87,253 193.89,253.03 207.44,260.69 174.6,279.87 "
     id="polygon6053"
     style="fill:#961430" />
  <path
     d="m 174.1,280.74 -13.57,-7.87 -0.37,-0.38 0.33,-1.43 32.88,-18.92 0.9,0.22 0.11,-0.2 13.55,7.66 v 1.73 l -32.83,19.18 z m -11.16,-8.74 11.66,6.76 30.83,-18 -11.57,-6.54 z"
     id="path6055"
     inkscape:connector-curvature="0" />
  <polygon
     class="cls-7"
     points="207.44,260.69 193.89,253.03 193.87,253 225.88,234.6 239.08,242.22 207.44,260.69 "
     id="polygon6057"
     style="fill:#961430" />
  <path
     d="m 207.44,261.69 -0.5,-0.13 -13.54,-7.66 -0.35,-0.33 0.32,-1.43 32,-18.41 h 1 l 13.2,7.63 v 1.73 L 208,261.55 Z m -11.56,-8.69 11.55,6.53 29.66,-17.31 -11.22,-6.47 z"
     id="path6059"
     inkscape:connector-curvature="0" />
  <polygon
     points="238.57,241.36 239.58,241.36 240.01,241.61 240.01,243.34 144.68,298.5 143.67,296.77 "
     id="polygon6061" />
  <polygon
     class="cls-7"
     points="144.09,313.32 130.45,305.45 130.45,290.04 144.18,297.64 144.12,313.31 "
     id="polygon6063"
     style="fill:#961430" />
  <path
     d="m 144.56,314.2 h -1 L 130,306.31 129.5,305.45 V 290 l 1.48,-0.87 13.73,7.59 0.51,0.88 v 15.67 z m -13.11,-9.33 11.68,6.74 v -13.39 l -11.72,-6.48 z"
     id="path6065"
     inkscape:connector-curvature="0" />
  <polygon
     points="129.45,290.04 129.45,289.71 130.95,288.84 144.67,296.77 143.69,298.51 129.97,290.92 "
     id="polygon6067" />
  <polygon
     class="cls-7"
     points="143.88,376.12 130.45,368.37 130.45,352.68 143.97,360.48 143.91,376.12 "
     id="polygon6069"
     style="fill:#961430" />
  <path
     d="m 143.91,377.12 -0.53,-0.13 -13.38,-7.76 -0.5,-0.86 v -15.69 l 1.5,-0.87 13.52,7.81 0.5,0.87 -0.06,15.64 z m -12.46,-9.33 11.47,6.63 0.05,-13.36 -11.52,-6.65 z"
     id="path6071"
     inkscape:connector-curvature="0" />
  <polygon
     points="143.59,377.11 143.41,377.01 143.6,376.24 143.09,376.24 143.09,376.12 142.91,376.12 143.17,297.63 145.17,297.64 145.09,376.24 144.41,376.63 143.91,377.12 143.91,376.92 "
     id="polygon6073" />
  <path
     d="m 144.42,377.54 -1.51,-0.87 v -0.55 l 0.26,-78.49 0.5,-0.86 95.33,-55.65 1.52,0.85 v 79.22 l -0.49,0.86 -0.51,0.3 z m 0.75,-79.33 -0.25,76.72 93.59,-54.31 v -76.91 z"
     id="path6075"
     inkscape:connector-curvature="0" />
  <polygon
     points="143.52,312.51 143.66,312.41 239.01,257.89 240.01,259.62 144.65,314.15 144.23,313.41 "
     id="polygon6077" />
  <polygon
     class="cls-7"
     points="130.45,321.19 130.45,305.45 144.09,313.32 144.12,313.31 144.08,328.95 "
     id="polygon6079"
     style="fill:#961430" />
  <path
     d="m 145.07,330.66 -15.62,-8.89 v -18.06 l 14.67,8.48 1,-0.47 v 1.59 z m -13.62,-10.05 11.63,6.62 v -13.31 l -11.67,-6.74 z"
     id="path6081"
     inkscape:connector-curvature="0" />
  <polygon
     points="144.13,328.93 143.67,328.14 239.01,273.1 240.01,274.83 144.21,330.14 143.56,329.81 "
     id="polygon6083" />
  <polygon
     class="cls-7"
     points="130.45,336.94 130.45,321.19 144.08,328.95 144.02,344.66 "
     id="polygon6085"
     style="fill:#961430" />
  <path
     d="m 145,346.38 -15.57,-8.86 v -18 l 15.63,8.9 z m -13.57,-10 11.57,6.56 v -13.41 l -11.62,-6.62 z"
     id="path6087"
     inkscape:connector-curvature="0" />
  <polygon
     points="144.07,344.58 143.67,343.88 239.01,288.84 240.01,290.57 144.21,345.89 143.49,345.5 "
     id="polygon6089" />
  <polygon
     class="cls-7"
     points="130.45,352.68 130.45,336.94 144.02,344.66 143.97,360.48 "
     id="polygon6091"
     style="fill:#961430" />
  <path
     d="m 145,362.21 -15.51,-8.95 v -18 l 15.51,8.82 z m -13.55,-10.11 11.55,6.65 0.05,-13.51 -11.57,-6.58 z"
     id="path6093"
     inkscape:connector-curvature="0" />
  <polygon
     points="144.01,360.4 143.66,359.65 239.01,304.58 240.01,306.31 144.02,361.69 143.44,361.33 "
     id="polygon6095" />
  <rect
     x="220.33"
     y="269.01999"
     width="2"
     height="15.44"
     id="rect6097" />
  <polygon
     points="206.71,260.88 207.35,260.86 207.95,259.83 208.71,260.27 208.71,276.79 206.71,276.79 "
     id="polygon6099" />
  <polygon
     points="174.62,281.04 174.09,280.73 175.12,279.01 176.62,279.89 176.62,295.23 174.62,295.23 "
     id="polygon6101" />
  <rect
     x="207.78999"
     y="292.32999"
     width="2"
     height="15.12"
     id="rect6103" />
  <rect
     x="175.78"
     y="310.17999"
     width="2"
     height="15.94"
     id="rect6105" />
  <rect
     x="208.89"
     y="322.66"
     width="2"
     height="15.12"
     id="rect6107" />
  <rect
     x="176.88"
     y="340.51001"
     width="2"
     height="15.94"
     id="rect6109" />
  <rect
     x="194.3"
     y="284.04999"
     width="2"
     height="15.64"
     id="rect6111" />
  <rect
     x="167.33"
     y="299.19"
     width="2"
     height="15.64"
     id="rect6113" />
  <rect
     x="220.81"
     y="300.10999"
     width="2"
     height="15.44"
     id="rect6115" />
  <rect
     x="194.77"
     y="315.14999"
     width="2"
     height="15.64"
     id="rect6117" />
  <rect
     x="167.8"
     y="330.29001"
     width="2"
     height="15.64"
     id="rect6119" />
  <path
     d="m 147.5,256 c -9,-10.34 -9.72,-27.1 -1.93,-46 l 1.85,0.76 c -3.55,8.6 -10.49,30.1 1.58,43.93 z"
     id="path6121"
     inkscape:connector-curvature="0" />
  <path
     d="m 152.71,199.74 -1.76,-1 a 139.93,139.93 0 0 1 11.51,-17.85 c -11.15,-1.1 -19.08,-4.48 -24.13,-10.3 -9.13,-10.49 -6.88,-26.4 -0.6,-37.51 8.66,-15.34 24.18,-25.62 39.66,-34.44 a 349.59,349.59 0 0 1 46.41,-22.5 l 0.72,1.87 a 346.72,346.72 0 0 0 -46.14,22.37 c -15.23,8.68 -30.48,18.76 -38.91,33.68 -5.93,10.5 -8.12,25.47 0.37,35.22 4.89,5.62 12.79,8.82 24.07,9.73 22.73,-29 56.62,-49.28 92.81,-54.62 4.52,-0.66 10.93,-1 14.51,3.22 a 8.67,8.67 0 0 1 2,6.53 c -0.48,5.22 -4.83,10.57 -8.76,13.83 a 146.22,146.22 0 0 1 -96.23,33.28 c -1.16,0 -2.3,-0.09 -3.4,-0.17 a 138.07,138.07 0 0 0 -12.13,18.66 z m 13.62,-20.52 2,0.08 a 144,144 0 0 0 94.9,-32.82 c 3.44,-2.87 7.62,-7.85 8,-12.47 a 6.66,6.66 0 0 0 -1.53,-5.06 c -2.93,-3.51 -8.64,-3.12 -12.68,-2.53 -35.25,5.2 -68.28,24.76 -90.69,52.8 z"
     id="path6123"
     inkscape:connector-curvature="0" />
  <path
     d="m 367.34,84.17 c -25.77,-17.29 -59.78,-24 -95.76,-18.82 a 196.86,196.86 0 0 0 -26.8,5.83 l -0.55,-1.92 a 200.85,200.85 0 0 1 27.07,-5.89 c 36.47,-5.22 71,1.57 97.16,19.14 z"
     id="path6125"
     inkscape:connector-curvature="0" />
  <path
     d="m 439.86,714.81 -0.16,-2 a 116,116 0 0 0 101.51,-79.93 149.24,149.24 0 0 1 -37.21,9.6 c -10.15,1.25 -21.91,-0.71 -24.5,-9.9 -2.81,-9.94 8.28,-17.93 13.18,-20.9 a 167.9,167.9 0 0 1 30,-14.36 c 5.8,-2.09 14.19,-4.32 20,0.42 4.53,3.66 6,10.33 4.31,19.82 a 114.44,114.44 0 0 1 -2.73,11.86 c 30.54,-13.18 56.84,-36.31 73,-65.42 l 1.75,1 c -16.66,30 -43.92,53.7 -75.51,66.93 a 118,118 0 0 1 -103.76,82.91 z m 94.26,-117.88 a 32.41,32.41 0 0 0 -10.71,2.28 164.5,164.5 0 0 0 -29.67,14.17 c -4.51,2.74 -14.73,10 -12.3,18.66 2.25,8 13,9.6 22.34,8.46 a 147.57,147.57 0 0 0 38.22,-10.08 112.24,112.24 0 0 0 3.14,-13.21 c 1.54,-8.72 0.33,-14.75 -3.6,-17.92 a 11.36,11.36 0 0 0 -7.42,-2.36 z"
     id="path6127"
     inkscape:connector-curvature="0" />
  <path
     class="cls-4"
     d="m 161.53,541.41 v 0.33 l 13.72,7.6 z m 109.06,-47.49 -0.21,-0.12 -13.56,-7.7 -95.78,55 v 0.34 l 31,-17.85 32.96,-18.88 32,-18.41 13.21,7.62 -31.64,18.47 v 0 l -32.83,19.18 -30.43,17.77 -0.11,15.66 v 15.64 l -0.05,15.71 -0.15,15.83 v 15.65 h 1.67 l 93.33,-54.35 0.1,-0.29 0.51,-1.43 0.33,-0.94 0.21,-76.6 z m -109.06,47.82 13.72,7.6 -13.72,-7.93 z m 0,-0.33 v 0.33 l 13.72,7.6 z m 0,78.66 v -78.33 l -0.49,-0.27 0.09,78.41 13.16,8 H 175 Z"
     id="path6129"
     inkscape:connector-curvature="0"
     style="fill:#c21333" />
  <polygon
     class="cls-7"
     points="161.53,541.41 161.53,541.74 161.04,541.47 192.06,523.63 192.11,523.71 205.68,531.57 175.25,549.34 "
     id="polygon6131"
     style="fill:#961430" />
  <path
     d="m 174.75,550.2 -13.42,-7.75 -0.29,0.17 -0.48,-0.27 v -0.94 0 -0.8 l 31,-17.84 0.95,0.26 0.1,-0.18 13.57,7.87 v 1.72 l -30.42,17.76 z m -11.41,-8.9 11.91,6.88 28.44,-16.61 -11.69,-6.76 z"
     id="path6133"
     inkscape:connector-curvature="0" />
  <polygon
     points="160.53,541.74 160.53,541.41 162.03,540.54 175.75,548.47 174.77,550.21 161.04,542.62 "
     id="polygon6135" />
  <polygon
     class="cls-7"
     points="192.11,523.71 192.06,523.63 224.95,504.71 224.97,504.73 238.51,512.39 205.68,531.57 "
     id="polygon6137"
     style="fill:#961430" />
  <path
     d="m 205.18,532.44 -13.57,-7.87 -0.38,-0.38 0.33,-1.43 32.89,-18.92 0.91,0.2 0.1,-0.18 13.54,7.66 v 1.74 l -32.83,19.17 z m -11.18,-8.79 11.66,6.76 30.82,-18 -11.56,-6.54 z"
     id="path6139"
     inkscape:connector-curvature="0" />
  <polygon
     class="cls-7"
     points="238.51,512.39 224.97,504.73 224.95,504.71 256.95,486.3 270.15,493.93 238.52,512.39 "
     id="polygon6141"
     style="fill:#961430" />
  <path
     d="m 238.52,513.39 -0.5,-0.13 -13.54,-7.66 -0.33,-0.29 0.3,-1.47 32,-18.41 h 1 l 13.2,7.62 v 1.73 L 239,513.26 Z m -11.52,-8.68 11.56,6.53 29.65,-17.31 -11.21,-6.47 z"
     id="path6143"
     inkscape:connector-curvature="0" />
  <polygon
     points="269.65,493.06 270.66,493.06 271.09,493.31 271.09,495.04 175.75,550.2 174.75,548.47 "
     id="polygon6145" />
  <polygon
     class="cls-7"
     points="175.16,565.02 161.53,557.15 161.53,541.74 175.25,549.34 175.2,565.01 "
     id="polygon6147"
     style="fill:#961430" />
  <path
     d="m 175.65,565.9 h -1 L 161,558 l -0.5,-0.87 v -15.39 l 1.48,-0.87 13.73,7.59 0.51,0.88 -0.02,15.66 z m -13.12,-9.33 11.67,6.75 0.05,-13.4 -11.72,-6.48 z"
     id="path6149"
     inkscape:connector-curvature="0" />
  <polygon
     points="160.53,541.74 160.53,541.41 162.03,540.54 175.75,548.47 174.77,550.21 161.04,542.62 "
     id="polygon6151" />
  <polygon
     class="cls-7"
     points="174.95,627.83 161.53,620.07 161.53,604.38 175.04,612.18 174.99,627.83 "
     id="polygon6153"
     style="fill:#961430" />
  <path
     d="m 175,628.83 -0.54,-0.14 -13.46,-7.76 -0.5,-0.86 v -15.69 l 1.5,-0.87 13.51,7.81 0.5,0.87 v 15.64 z m -12.46,-9.34 11.46,6.63 v -13.36 l -11.51,-6.65 z"
     id="path6155"
     inkscape:connector-curvature="0" />
  <polygon
     points="174.66,628.81 174.49,628.71 174.68,627.94 174.16,627.94 174.16,627.82 173.99,627.82 174.25,549.33 176.25,549.34 176.16,627.94 175.49,628.33 174.99,628.83 174.98,628.62 "
     id="polygon6157" />
  <path
     d="m 175.49,629.24 -1.5,-0.87 v -0.54 l 0.26,-78.5 0.5,-0.86 95.32,-55.65 1.52,0.85 v 79.22 l -0.49,0.86 -0.51,0.3 z m 0.76,-79.33 -0.25,76.72 93.6,-54.31 v -76.91 z"
     id="path6159"
     inkscape:connector-curvature="0" />
  <polygon
     points="174.58,564.22 174.74,564.11 270.09,509.59 271.08,511.32 175.73,565.85 175.3,565.1 "
     id="polygon6161" />
  <polygon
     class="cls-7"
     points="161.53,572.89 161.53,557.15 175.16,565.02 175.2,565.01 175.15,580.65 "
     id="polygon6163"
     style="fill:#961430" />
  <path
     d="m 176.15,582.36 -15.62,-8.89 v -18.05 l 14.66,8.47 1,-0.51 v 1.63 z m -13.62,-10.05 11.63,6.62 v -13.31 l -11.67,-6.74 z"
     id="path6165"
     inkscape:connector-curvature="0" />
  <polygon
     points="175.21,580.63 174.75,579.85 270.09,524.8 271.09,526.53 175.28,581.85 174.63,581.5 "
     id="polygon6167" />
  <polygon
     class="cls-7"
     points="161.53,588.64 161.53,572.89 175.15,580.65 175.1,596.36 "
     id="polygon6169"
     style="fill:#961430" />
  <path
     d="m 176.09,598.08 -15.56,-8.86 v -18.05 l 15.62,8.9 z m -13.56,-10 11.57,6.59 0.05,-13.42 -11.62,-6.62 z"
     id="path6171"
     inkscape:connector-curvature="0" />
  <polygon
     points="175.15,596.28 174.75,595.59 270.09,540.54 271.09,542.27 175.29,597.58 174.56,597.21 "
     id="polygon6173" />
  <polygon
     class="cls-7"
     points="161.53,604.38 161.53,588.64 175.1,596.36 175.04,612.18 "
     id="polygon6175"
     style="fill:#961430" />
  <path
     d="M 176,613.91 160.53,605 v -18 l 15.57,8.86 z m -13.47,-10.11 11.52,6.66 v -13.52 l -11.57,-6.58 z"
     id="path6177"
     inkscape:connector-curvature="0" />
  <polygon
     points="175.09,612.11 174.71,611.36 270.09,556.28 271.09,558.02 175.17,613.41 174.53,613.04 "
     id="polygon6179" />
  <rect
     x="251.41"
     y="520.71997"
     width="2"
     height="15.44"
     id="rect6181" />
  <polygon
     points="237.78,512.58 238.42,512.56 239.03,511.53 239.78,511.97 239.78,528.49 237.78,528.49 "
     id="polygon6183" />
  <polygon
     points="205.7,532.74 205.16,532.43 206.2,530.71 207.7,531.59 207.7,546.93 205.7,546.93 "
     id="polygon6185" />
  <rect
     x="238.87"
     y="544.03003"
     width="2"
     height="15.12"
     id="rect6187" />
  <rect
     x="206.86"
     y="561.88"
     width="2"
     height="15.94"
     id="rect6189" />
  <rect
     x="239.97"
     y="574.35999"
     width="2"
     height="15.12"
     id="rect6191" />
  <rect
     x="207.96001"
     y="592.21997"
     width="2"
     height="15.94"
     id="rect6193" />
  <rect
     x="225.38"
     y="535.76001"
     width="2"
     height="15.64"
     id="rect6195" />
  <rect
     x="198.39999"
     y="550.89001"
     width="2"
     height="15.64"
     id="rect6197" />
  <rect
     x="251.88"
     y="551.81"
     width="2"
     height="15.44"
     id="rect6199" />
  <rect
     x="225.85001"
     y="566.84998"
     width="2"
     height="15.64"
     id="rect6201" />
  <rect
     x="198.87"
     y="581.98999"
     width="2"
     height="15.64"
     id="rect6203" />
  <path
     class="cls-4"
     d="m 214.57,646.82 18.17,10.35 v 0 l 0.27,5.37 v -5.25 l 1.46,-1.86 8.08,-10.29 v 0 l 8.92,-11.37 0.77,0.43 2.76,-4.92 v 0 0 0 l 0.36,-0.44 -0.45,7 -0.22,3.36 -7,9.15 -7.91,10.42 -1,-0.59 -4.08,7.29 v 0 l -1.53,2 -0.25,-4.84 v 6 0 l -0.16,1.05 7.48,-9.82 12.53,7 0.11,-0.21 -12.6,-7.65 7.91,-10.42 4.41,2.63 0.85,15.16 -0.06,0.13 13.81,-7.86 v -16.38 l -11.46,-6.32 0.25,-6.59 -0.33,-1.71 -0.19,-0.09 v 0 l -15,-7.79 -3.26,-1.69 -0.21,-0.07 -7.46,9.16 -8.51,4.52 v 6 l -6.29,9 v -0.09 z m 6.94,-14.22 2.9,1.73 -2.9,3.68 z m 11.21,24.6 0.27,5.37 v -5.25 l -0.25,-0.15 z m 0,0 0.27,5.37 v -5.25 l -0.25,-0.15 z m 0,0 0.27,5.37 v -5.25 l -0.25,-0.15 z m -18.11,-10.35 -0.1,10.84 16.68,10.71 1.06,0.08 -17.1,-10.83 -0.45,-11.08 z m 18.13,10.32 v 0 l 0.27,5.37 v -5.25 z m 0,0 0.27,5.37 v -5.25 l -0.25,-0.15 z m 0,0 0.27,5.37 v -5.25 l -0.25,-0.15 z m 0,0 0.27,5.37 v -5.25 l -0.25,-0.15 z"
     id="path6205"
     inkscape:connector-curvature="0"
     style="fill:#c21333" />
  <path
     d="m 253.08,652 h -1 l -4.84,-2.9 -0.27,-1.46 6.77,-8.91 0.2,-3 1.5,-0.8 0.53,0.3 12,6.8 v 1.74 z m -3.85,-4 3.38,2 12.78,-7.14 -9.56,-5.45 -0.11,1.76 -0.2,0.54 z"
     id="path6207"
     inkscape:connector-curvature="0" />
  <path
     d="M 242.54,646.17 242,646 l -0.4,-0.24 -21.06,-12.59 v -1.73 l 14.09,-7.82 h 1 l 16.37,9.31 0.29,1.49 -8.92,11.36 z m -19.48,-13.81 19.24,11.5 7.7,-9.76 -14.82,-8.44 z"
     id="path6209"
     inkscape:connector-curvature="0" />
  <polygon
     class="cls-7"
     points="253.46,666.58 253.45,666.34 252.6,651.17 248.19,648.54 240.28,658.96 252.92,666.46 "
     id="polygon6211"
     style="fill:#961430" />
  <path
     d="m 253.25,667.56 -0.54,-0.12 -0.3,-0.12 -12.64,-7.5 -0.28,-1.46 7.9,-10.42 1.31,-0.26 4.41,2.63 0.48,0.8 0.87,15.43 z m -11.49,-8.88 10.61,6.3 -0.74,-13.22 -3.19,-1.9 z"
     id="path6213"
     inkscape:connector-curvature="0" />
  <polygon
     points="253,667.31 252.75,667.21 253.04,666.41 252.62,665.61 252.88,665.48 253.17,666.04 253.43,665.33 253.68,665.42 253.81,667.25 253.55,667.38 253.21,666.73 "
     id="polygon6215" />
  <polygon
     class="cls-7"
     points="224.41,634.33 221.51,632.6 221.51,638.01 "
     id="polygon6217"
     style="fill:#961430" />
  <path
     d="m 222.3,638.63 -1.79,-0.62 v -5.41 l 1.51,-0.86 2.9,1.73 0.27,1.48 z m 0.21,-4.27 v 0.77 l 0.41,-0.52 z"
     id="path6219"
     inkscape:connector-curvature="0" />
  <rect
     x="220.50999"
     y="631.64001"
     width="2"
     height="0.95999998"
     id="rect6221" />
  <rect
     x="-440.81195"
     y="545.94855"
     width="2"
     height="0.5"
     transform="rotate(-58.86)"
     id="rect6223" />
  <polygon
     points="220.51,647.71 220.51,638.01 222.51,638.01 222.51,647.15 234.97,654.61 233.94,656.32 221,648.57 "
     id="polygon6225" />
  <polygon
     points="265.95,657.99 265.95,642.88 267.95,642.88 267.95,658.57 267.45,659.44 253.67,667.37 252.68,665.63 "
     id="polygon6227" />
  <polygon
     class="cls-4"
     points="234.45,655.46 242.53,645.17 242.54,645.17 251.46,633.8 252.23,634.23 254.99,629.31 255.01,629.28 255.01,629.27 255.03,629.25 255.39,628.8 255.4,628.6 255.4,628.58 255.4,628.57 255.42,628.17 255.47,627.54 255.11,628 250.91,633.49 250.9,633.49 242.14,644.92 234.18,655.3 232.74,657.17 232.72,657.2 232.99,662.57 232.99,657.32 "
     id="polygon6229"
     style="fill:#c21333" />
  <polygon
     class="cls-7"
     points="232.25,668.48 232.26,668.48 232.99,668.53 232.99,662.57 232.72,657.2 232.74,657.17 214.57,646.82 214.77,646.57 214.53,646.44 214.69,646.42 215.15,657.67 "
     id="polygon6231"
     style="fill:#961430" />
  <path
     d="m 232.92,669.53 -0.74,-0.06 -0.47,-0.15 -17.1,-10.81 -0.46,-0.8 -0.46,-11.25 h 0.14 l -0.05,-0.24 0.2,-0.26 0.29,0.23 0.15,-0.74 h 0.16 l 0.36,0.31 0.09,-0.16 0.24,0.13 0.07,0.38 0.12,0.1 17.78,10.12 0.2,0.86 h 0.28 l 0.27,5.37 v 6 z m -16.79,-12.43 15.86,10 v -4.56 l -0.24,-4.81 -16,-9.09 z"
     id="path6233"
     inkscape:connector-curvature="0" />
  <polygon
     class="cls-4"
     points="232.99,657.32 232.74,657.17 232.72,657.2 232.99,662.57 "
     id="polygon6235"
     style="fill:#c21333" />
  <polygon
     points="231.91,656.62 233.24,656.3 233.49,656.45 233.99,657.32 233.99,662.57 232,662.62 231.72,657.25 "
     id="polygon6237" />
  <polygon
     class="cls-4"
     points="233.68,669.16 232.99,668.53 232.26,668.48 "
     id="polygon6239"
     style="fill:#c21333" />
  <polygon
     points="232.33,667.48 233.07,667.53 233.67,667.79 234.36,668.43 233.25,670.06 231.82,669.38 "
     id="polygon6241" />
  <polygon
     class="cls-4"
     points="232.74,657.17 214.77,646.57 214.57,646.82 "
     id="polygon6243"
     style="fill:#c21333" />
  <polygon
     points="213.78,646.21 213.98,645.95 215.28,645.71 233.25,656.31 232.25,658.04 214.08,647.69 "
     id="polygon6245" />
  <polygon
     class="cls-4"
     points="214.77,646.26 214.77,646.47 214.91,646.74 "
     id="polygon6247"
     style="fill:#c21333" />
  <polygon
     points="213.77,646.47 213.77,646.26 215.73,645.98 215.87,646.46 214.03,647.21 213.89,646.94 "
     id="polygon6249" />
  <polygon
     class="cls-4"
     points="233.01,668.53 232.99,668.57 233.02,668.53 "
     id="polygon6251"
     style="fill:#c21333" />
  <polygon
     points="232.1,668.11 232.12,668.07 232.25,668 232.2,667.96 232.22,667.93 232.29,667.97 233.01,667.53 233.69,668.88 233.9,668.99 233.7,668.89 233.82,669.13 233.02,668.66 233.02,669.53 233.01,668.65 "
     id="polygon6253" />
  <polygon
     class="cls-4"
     points="232.99,657.32 234.45,655.46 242.53,645.17 242.54,645.17 251.46,633.8 254.99,629.31 255.01,629.28 255.01,629.27 255.03,629.25 255.39,628.8 255.47,628.7 255.74,628.36 255.42,628.17 255.11,628 240.47,619.75 237.3,617.96 237.22,618.06 229.8,627.48 224.41,634.33 221.51,638.01 214.77,646.57 214.57,646.82 232.74,657.17 "
     id="polygon6255"
     style="fill:#c21333" />
  <path
     d="m 232.5,658.19 -18.42,-10.5 -0.3,-1.48 22.74,-28.88 1.27,-0.24 18.44,10.4 0.29,1.49 -4.27,5.44 -18.47,23.51 z m -16.43,-11.66 16.67,9.47 21.48,-27.37 -16.67,-9.4 z"
     id="path6257"
     inkscape:connector-curvature="0" />
  <polygon
     class="cls-7"
     points="232.99,668.95 232.74,657.17 255.39,628.8 254.72,639.13 "
     id="polygon6259"
     style="fill:#961430" />
  <path
     d="M 233.8,669.53 232,669 l -0.25,-11.78 0.22,-0.64 22.64,-28.37 1.78,0.69 -0.66,10.32 -0.19,0.53 z m -0.05,-12 0.18,8.45 19.81,-27.19 0.44,-6.86 z"
     id="path6261"
     inkscape:connector-curvature="0" />
  <path
     d="m 252.37,366.38 a 22.4,22.4 0 0 1 0.33,-38.7 l 30.66,-17.53 1,1.73 -30.66,17.54 a 20.4,20.4 0 0 0 -0.3,35.24 z"
     id="path6263"
     inkscape:connector-curvature="0" />
  <rect
     x="212.41321"
     y="409.80667"
     width="216.05"
     height="2"
     transform="rotate(-29.74)"
     id="rect6265" />
  <circle
     cx="501.25"
     cy="662.13"
     r="5.1900001"
     id="circle6267" />
  <polyline
     class="cls-5"
     points="447.03 156.4 447.03 199.21 496.74 227.68 496.74 185.34"
     id="polyline6269"
     style="fill:#ffffff" />
  <polygon
     points="446.03,199.21 446.03,156.4 448.03,156.4 448.03,198.63 495.74,225.95 495.74,185.34 497.74,185.34 497.74,227.68 496.24,228.55 446.53,200.07 "
     id="polygon6271" />
  <polyline
     class="cls-5"
     points="546.45 156.17 546.45 199.21 497.05 226.91 496.28 185.34 546.45 156.17"
     id="polyline6273"
     style="fill:#ffffff" />
  <path
     d="m 496.09,228.6 -0.82,-43.83 52.18,-30.34 v 45.36 z m 1.2,-42.69 0.73,39.31 47.43,-26.6 v -40.71 z"
     id="path6275"
     inkscape:connector-curvature="0" />
  <polygon
     class="cls-5"
     points="546.93,156.11 496.28,185.34 446.56,156.4 497.12,127.48 "
     id="polygon6277"
     style="fill:#ffffff" />
  <path
     d="m 496.78,186.21 h -1 l -49.72,-29 v -1.73 l 50.56,-28.92 h 1 l 49.82,28.63 V 157 Z m -48.22,-29.8 47.72,27.78 48.65,-28.08 -47.82,-27.48 z"
     id="path6279"
     inkscape:connector-curvature="0" />
  <g
     id="_Powtarzanie_promieniowe_"
     data-name="&lt;Powtarzanie promieniowe&gt;">
    <line
       class="cls-5"
       x1="146.50999"
       y1="507.19"
       x2="160.33"
       y2="529.09003"
       id="line6281"
       style="fill:#ffffff" />
    <rect
       class="cls-6"
       x="152.42"
       y="505.19"
       width="2"
       height="25.9"
       transform="rotate(-32.24,153.44136,518.19043)"
       id="rect6283"
       style="fill:#030303" />
  </g>
  <g
     id="_Powtarzanie_promieniowe_2"
     data-name="&lt;Powtarzanie promieniowe&gt;">
    <line
       class="cls-5"
       x1="121.64"
       y1="535.46997"
       x2="144.45"
       y2="547.73999"
       id="line6286"
       style="fill:#ffffff" />
    <rect
       class="cls-6"
       x="132.03999"
       y="528.65002"
       width="2"
       height="25.9"
       transform="rotate(-61.72,133.03812,541.60122)"
       id="rect6288"
       style="fill:#030303" />
  </g>
  <polygon
     class="cls-4"
     points="142.72,558.51 125.44,558.68 132.91,568.67 "
     id="polygon6291"
     style="fill:#c21333" />
  <polygon
     class="cls-4"
     points="151.88,536.21 108.04,512.07 121.9,510.94 "
     id="polygon6293"
     style="fill:#c21333" />
  <polygon
     class="cls-4"
     points="170.41,519.89 174.3,494.47 164.08,502.19 "
     id="polygon6295"
     style="fill:#c21333" />
  <g
     id="_Powtarzanie_promieniowe_3"
     data-name="&lt;Powtarzanie promieniowe&gt;">
    <line
       class="cls-5"
       x1="456.76999"
       y1="451.85999"
       x2="482.67001"
       y2="452.01999"
       id="line6297"
       style="fill:#ffffff" />
    <rect
       class="cls-6"
       x="468.72"
       y="438.98999"
       width="2"
       height="25.9"
       transform="rotate(-89.66,469.70973,451.94039)"
       id="rect6299"
       style="fill:#030303" />
  </g>
  <polygon
     class="cls-4"
     points="491.77,476.37 482.61,491.02 495.05,490.11 "
     id="polygon6302"
     style="fill:#c21333" />
  <polygon
     class="cls-4"
     points="484.12,462.97 440.16,486.91 446.67,474.62 "
     id="polygon6304"
     style="fill:#c21333" />
  <polygon
     class="cls-4"
     points="480.34,438.57 461.02,421.6 462.02,434.37 "
     id="polygon6306"
     style="fill:#c21333" />
  <g
     id="_Powtarzanie_promieniowe_4"
     data-name="&lt;Powtarzanie promieniowe&gt;">
    <line
       class="cls-5"
       x1="247.73"
       y1="212.16"
       x2="237.92999"
       y2="228.14"
       id="line6308"
       style="fill:#ffffff" />
    <rect
       class="cls-6"
       x="233.45"
       y="219.14999"
       width="18.75"
       height="2"
       transform="rotate(-58.5,242.82089,220.14835)"
       id="rect6310"
       style="fill:#030303" />
  </g>
  <g
     id="_Powtarzanie_promieniowe_5"
     data-name="&lt;Powtarzanie promieniowe&gt;">
    <line
       class="cls-5"
       x1="221.39999"
       y1="205.06"
       x2="220.74001"
       y2="223.8"
       id="line6313"
       style="fill:#ffffff" />
    <rect
       class="cls-6"
       x="211.69"
       y="213.42999"
       width="18.75"
       height="2"
       transform="rotate(-87.98,221.08767,214.42795)"
       id="rect6315"
       style="fill:#030303" />
  </g>
  <polygon
     class="cls-4"
     points="213.19,226.13 207.55,214.96 203.45,223.01 "
     id="polygon6318"
     style="fill:#c21333" />
  <polygon
     class="cls-4"
     points="230.6,224.94 232.24,188.74 237.41,197.37 "
     id="polygon6320"
     style="fill:#c21333" />
  <polygon
     class="cls-4"
     points="247.13,231.74 264.88,226.13 256.6,221.96 "
     id="polygon6322"
     style="fill:#c21333" />
  <circle
     class="cls-7"
     cx="286.97"
     cy="565.26001"
     r="4.5100002"
     id="circle6324"
     style="fill:#961430" />
  <circle
     cx="278.32001"
     cy="582.94"
     r="2.0999999"
     id="circle6326" />
  <circle
     class="cls-7"
     cx="618.28003"
     cy="421.89999"
     r="4.5100002"
     id="circle6328"
     style="fill:#961430" />
  <circle
     cx="575.78998"
     cy="530.16998"
     r="2.0999999"
     id="circle6330" />
  <circle
     class="cls-7"
     cx="125.44"
     cy="271.92001"
     r="4.5100002"
     id="circle6332"
     style="fill:#961430" />
  <circle
     cx="249.82001"
     cy="264.34"
     r="2.0999999"
     id="circle6334" />
  <circle
     class="cls-7"
     cx="477.5"
     cy="65.849998"
     r="4.5100002"
     id="circle6336"
     style="fill:#961430" />
  <circle
     cx="538.52002"
     cy="99.059998"
     r="2.0999999"
     id="circle6338" />
  <path
     d="m 425.11,100 c -0.6,3.19 -1.83,4.36 -5.18,5 a 5.32,5.32 0 0 1 5.07,4.79 5.29,5.29 0 0 1 5,-4.66 c -2.86,-0.46 -4.49,-2.13 -4.89,-5.13 z"
     id="path6340"
     inkscape:connector-curvature="0" />
  <path
     d="m 555.06,60.48 c -0.6,3.2 -1.83,4.36 -5.18,5 a 5.3,5.3 0 0 1 5.12,4.83 5.28,5.28 0 0 1 5,-4.66 c -2.91,-0.48 -4.54,-2.12 -4.94,-5.17 z"
     id="path6342"
     inkscape:connector-curvature="0" />
  <circle
     class="cls-7"
     cx="564.39001"
     cy="121.29"
     r="3.51"
     id="circle6344"
     style="fill:#961430" />
  <polygon
     class="cls-4"
     points="494.17,62.21 502.5,41.68 493.8,45.3 "
     id="polygon6346"
     style="fill:#c21333" />
  <path
     d="m 461.53,72.32 c 0.39,3.3 -0.45,4.81 -3.51,6.5 a 5.41,5.41 0 0 1 6.41,3.11 5.39,5.39 0 0 1 3.4,-6.06 c -2.89,0.39 -4.98,-0.71 -6.3,-3.55 z"
     id="path6348"
     inkscape:connector-curvature="0" />
  <polygon
     class="cls-4"
     points="453.69,84.34 436.8,78.69 443.56,75.27 "
     id="polygon6350"
     style="fill:#c21333" />
  <circle
     class="cls-7"
     cx="183.36"
     cy="435.95001"
     r="3.5899999"
     id="circle6352"
     style="fill:#961430" />
  <circle
     cx="459.92999"
     cy="56.529999"
     r="2.3299999"
     id="circle6354" />
  <polygon
     class="cls-4"
     points="546.45,93.63 563.34,87.98 556.58,84.57 "
     id="polygon6356"
     style="fill:#c21333" />
  <path
     d="m 510.36,66.26 -1,-1.73 0.5,0.87 -0.61,-0.79 c 0.84,-0.78 7.44,-10.42 11.41,-16.32 l 1.66,1.12 C 515.06,60.2 511,65.87 510.36,66.26 Z"
     id="path6358"
     inkscape:connector-curvature="0" />
  <rect
     x="28.061205"
     y="437.38312"
     width="1.9944924"
     height="15.547069"
     transform="rotate(-74.291362)"
     id="rect6360"
     style="stroke-width:0.99724621" />
  <path
     d="m 543.09,129 c -1.81,4.64 -4,6.06 -9.23,6.14 4.32,1.34 6.36,4.21 6.31,8.65 1.58,-4 4.44,-5.9 8.78,-5.65 -4.11,-1.5 -6.11,-4.43 -5.86,-9.14 z"
     id="path6362"
     inkscape:connector-curvature="0" />
  <line
     class="cls-5"
     x1="521.46002"
     y1="104.95"
     x2="521.15002"
     y2="110.86"
     id="line6364"
     style="fill:#ffffff" />
  <rect
     x="-82.703804"
     y="525.36926"
     width="5.9200001"
     height="2"
     transform="rotate(-86.92)"
     id="rect6366" />
  <ellipse
     cx="499.19"
     cy="156.53"
     rx="12.97"
     ry="7.6100001"
     id="ellipse6368" />
  <path
     class="cls-7"
     d="m 482.89,130 c -0.33,-0.25 -11.05,-6.46 -16.21,-14.63 -4.88,-7.72 -8.35,-18.58 -4.44,-24.17 a 6.55,6.55 0 0 1 4.47,-2.86 c 3.57,-0.52 6.9,2 7.27,2.28 l -3.33,4.25 a 5.39,5.39 0 0 0 -3.16,-1.18 1.15,1.15 0 0 0 -0.82,0.6 c -1.76,2.51 -0.34,10.42 4.57,18.2 a 55.94,55.94 0 0 0 12,12.85 z"
     id="path6370"
     inkscape:connector-curvature="0"
     style="fill:#961430" />
  <path
     d="m 483.77,131.94 -1.46,-1.09 -0.23,-0.14 c -4.26,-2.65 -12,-8.08 -16.25,-14.76 -5.22,-8.26 -8.6,-19.28 -4.41,-25.29 a 7.57,7.57 0 0 1 5.14,-3.27 c 4,-0.58 7.64,2.17 8,2.48 l 0.78,0.62 -4.55,5.82 -0.79,-0.6 a 4.86,4.86 0 0 0 -2.4,-1 c 0,0 -0.06,0.06 -0.15,0.19 -1.36,1.95 -0.27,9.39 4.6,17.09 a 54.78,54.78 0 0 0 11.72,12.59 l 0.43,0.32 z M 467.7,89.31 a 6.18,6.18 0 0 0 -0.85,0.06 5.56,5.56 0 0 0 -3.79,2.44 c -3.49,5 -0.39,15.38 4.46,23.07 3.67,5.8 10.25,10.67 14.49,13.42 l 0.17,-2.46 A 56.43,56.43 0 0 1 470.4,113.06 c -4.73,-7.47 -6.77,-16.14 -4.55,-19.3 a 2.14,2.14 0 0 1 1.49,-1 5.38,5.38 0 0 1 3.09,0.84 l 2.11,-2.7 a 9.7,9.7 0 0 0 -4.84,-1.59 z"
     id="path6372"
     inkscape:connector-curvature="0" />
  <path
     class="cls-4"
     d="m 499.6,137.08 c 19.81,-6.92 20.59,-42.25 20.59,-42.25 l -48.94,2.24 c 0.2,4.86 0.91,14.5 3.45,20.92 4.13,10.45 16.06,19.09 16.06,19.09 v 11.83 c -4.2,0.89 -7.21,3.28 -7.21,6.1 0,3.58 4.85,6.48 10.83,6.48 5.98,0 10.82,-2.9 10.82,-6.48 0,-2.54 -2.45,-4.74 -6,-5.8 v -12.13 z"
     id="path6374"
     inkscape:connector-curvature="0"
     style="fill:#c21333" />
  <path
     d="m 494.38,162.49 c -6.63,0 -11.83,-3.29 -11.83,-7.48 0,-3 2.87,-5.75 7.21,-6.89 v -10.54 c -2.19,-1.66 -12.19,-9.6 -16,-19.22 -2.57,-6.5 -3.31,-16.1 -3.52,-21.25 v -1 l 51,-2.34 v 1.07 c 0,1.46 -1,35.82 -21,43.08 v 10.55 c 3.73,1.31 6,3.77 6,6.53 -0.04,4.2 -5.24,7.49 -11.86,7.49 z M 472.3,98 c 0.25,5.19 1,13.77 3.33,19.6 4,10.06 15.6,18.56 15.72,18.65 l 0.41,0.3 v 13.14 l -0.79,0.17 c -3.78,0.81 -6.42,2.91 -6.42,5.13 0,3 4.5,5.48 9.83,5.48 5.33,0 9.82,-2.47 9.82,-5.47 0,-2 -2.08,-3.88 -5.3,-4.84 l -0.71,-0.22 v -13.86 h 1.24 c 16.88,-6.07 19.37,-34.32 19.71,-40.2 z"
     id="path6376"
     inkscape:connector-curvature="0" />
  <path
     class="cls-4"
     d="m 471.17,97.08 h 0.08 c -0.08,-1.87 -0.08,-3 -0.08,-3 z"
     id="path6378"
     inkscape:connector-curvature="0"
     style="fill:#c21333" />
  <path
     d="m 470.25,98.12 -0.08,-1 V 94 h 2 c 0,0 0,1.16 0.08,3 v 1 z"
     id="path6380"
     inkscape:connector-curvature="0" />
  <rect
     x="489.76001"
     y="148.91"
     width="2"
     height="4.7199998"
     id="rect6382" />
  <rect
     x="498.19"
     y="149.21001"
     width="2"
     height="4.4200001"
     id="rect6384" />
  <path
     class="cls-4"
     d="m 495.68,109 c -13.74,0 -24.51,-6.23 -24.51,-14.18 0,-7.95 10.77,-14.18 24.51,-14.18 13.74,0 24.51,6.23 24.51,14.18 0,7.95 -10.77,14.18 -24.51,14.18 z"
     id="path6386"
     inkscape:connector-curvature="0"
     style="fill:#c21333" />
  <path
     d="m 495.68,110 c -14.3,0 -25.51,-6.67 -25.51,-15.18 0,-8.51 11.21,-15.18 25.51,-15.18 14.3,0 25.51,6.67 25.51,15.18 0,8.51 -11.19,15.18 -25.51,15.18 z m 0,-28.36 c -13.18,0 -23.51,5.79 -23.51,13.18 0,7.39 10.33,13.18 23.51,13.18 13.18,0 23.51,-5.79 23.51,-13.18 0,-7.39 -10.33,-13.17 -23.51,-13.17 z"
     id="path6388"
     inkscape:connector-curvature="0" />
  <ellipse
     class="cls-7"
     cx="495.67999"
     cy="94.830002"
     rx="21.809999"
     ry="11.48"
     id="ellipse6390"
     style="fill:#961430" />
  <path
     d="m 495.68,107.31 c -12.79,0 -22.81,-5.48 -22.81,-12.48 0,-7 10,-12.48 22.81,-12.48 12.81,0 22.8,5.48 22.8,12.48 0,7 -10.01,12.48 -22.8,12.48 z m 0,-23 c -11.28,0 -20.81,4.8 -20.81,10.48 0,5.68 9.53,10.48 20.81,10.48 11.28,0 20.8,-4.8 20.8,-10.48 0,-5.68 -9.48,-10.44 -20.8,-10.44 z"
     id="path6392"
     inkscape:connector-curvature="0" />
  <path
     class="cls-4"
     d="m 504.27,131.27 c 2.54,-0.06 5,-0.3 7,-0.52 a 22.44,22.44 0 0 0 10.93,-4.22 15.8,15.8 0 0 0 6.27,-9.11 c 0.72,-3.06 -0.29,-4.26 -0.62,-4.65 -2,-2.32 -8.23,-1.93 -9.86,-1.83 l 0.8,-6 c 0.19,0 0.71,0 1.45,0 2.74,0 8.5,0.57 11.72,4.37 1.42,1.67 2.88,4.66 1.77,9.39 a 21.11,21.11 0 0 1 -8.28,12.19 28,28 0 0 1 -13.56,5.27 96.17,96.17 0 0 1 -13.55,0.49"
     id="path6394"
     inkscape:connector-curvature="0"
     style="fill:#c21333" />
  <path
     d="m 501.27,137.69 c -1.07,0 -2.1,0 -3,-0.08 l 0.12,-2 a 95.5,95.5 0 0 0 13.38,-0.49 26.8,26.8 0 0 0 13.06,-5.07 20.07,20.07 0 0 0 7.91,-11.62 c 1,-4.33 -0.28,-7 -1.55,-8.51 -3,-3.55 -8.68,-4 -11,-4 h -0.55 l -0.53,4 c 4.88,-0.18 8.06,0.57 9.48,2.25 0.41,0.48 1.66,2 0.83,5.52 a 16.82,16.82 0 0 1 -6.65,9.68 23.5,23.5 0 0 1 -11.41,4.42 c -2.51,0.29 -4.88,0.46 -7,0.52 l -0.06,-2 c 2.63,-0.07 5.18,-0.31 6.86,-0.51 a 21.53,21.53 0 0 0 10.45,-4 14.86,14.86 0 0 0 5.9,-8.53 c 0.6,-2.58 -0.16,-3.49 -0.41,-3.78 -0.5,-0.59 -2.37,-1.91 -9,-1.48 l -1.22,0.08 1.06,-8 h 0.82 c 0.21,0 0.75,0 1.53,0 3.19,0 9,0.69 12.47,4.72 1.57,1.85 3.19,5.13 2,10.27 a 22.08,22.08 0 0 1 -8.76,12.57 29,29 0 0 1 -14,5.46 107.05,107.05 0 0 1 -10.73,0.58 z"
     id="path6396"
     inkscape:connector-curvature="0" />
  <line
     class="cls-5"
     x1="521.15002"
     y1="110.86"
     x2="515.67999"
     y2="111.43"
     id="line6398"
     style="fill:#ffffff" />
  <rect
     x="501.37469"
     y="163.17642"
     width="5.5"
     height="2"
     transform="rotate(-5.94)"
     id="rect6400" />
  <path
     class="cls-5"
     d="m 516.37,105.2 a 33.82,33.82 0 0 1 5.09,-0.25"
     id="path6402"
     inkscape:connector-curvature="0"
     style="fill:#ffffff" />
  <path
     d="m 516.49,106.19 -0.24,-2 a 32.51,32.51 0 0 1 5.31,-0.25 l -0.19,2 a 33.69,33.69 0 0 0 -4.88,0.25 z"
     id="path6404"
     inkscape:connector-curvature="0" />
  <path
     class="cls-4"
     d="m 516.37,106 c 0,0 4.81,-0.49 6.41,0 1.6,0.49 1,4.23 1,4.23 0,0 -6.79,0 -8.36,0.41 -1.57,0.41 0.95,-4.64 0.95,-4.64 z"
     id="path6406"
     inkscape:connector-curvature="0"
     style="fill:#c21333" />
  <path
     d="M 475.57,97.72 473.72,97 c 4,-9.7 21.2,-10.31 21.93,-10.33 l 0.06,2 c -0.17,-0.04 -16.65,0.54 -20.14,9.05 z"
     id="path6408"
     inkscape:connector-curvature="0" />
  <path
     d="m 477.86,101.36 -1.64,-1.14 a 22.6,22.6 0 0 1 18.08,-8.77 h 1.24 l -0.1,2 a 21,21 0 0 0 -17.58,7.91 z"
     id="path6410"
     inkscape:connector-curvature="0" />
  <path
     class="cls-7"
     d="m 500,150.45 c 0,0 4.92,1.77 4.16,5.35 -0.76,3.58 -7.45,4.64 -7.45,4.64 0,0 4.23,-3.17 3.34,-6.81 z"
     id="path6412"
     inkscape:connector-curvature="0"
     style="fill:#961430" />
  <path
     class="cls-7"
     d="m 516.59,112.2 c 0,0 -1.68,7.25 -3.92,11 -2.24,3.75 -4.57,6.89 -4.57,6.89 l -3.79,0.26 c 0,0 8.81,-10.09 11.45,-18.19 z"
     id="path6414"
     inkscape:connector-curvature="0"
     style="fill:#961430" />
  <circle
     cx="498.29001"
     cy="87.690002"
     r="1.0599999"
     id="circle6416" />
  <polygon
     class="cls-5"
     points="467.72,321.78 472.19,319.27 472.16,225.72 466.06,228.64 460.26,226.02 459.93,319.27 465.53,322.31 "
     id="polygon6418"
     style="fill:#ffffff" />
  <polygon
     class="cls-5"
     points="308.35,87.25 471.71,182.42 471.88,226.34 465.5,229.98 301.76,133.78 302.13,90.74 "
     id="polygon6420"
     style="fill:#ffffff" />
  <path
     d="m 466,230.51 h -1 l -163.37,-95.81 -0.5,-0.86 V 91.21 l 0.5,-0.86 6.22,-3.59 h 1 l 163.36,95.4 0.5,0.86 v 43 l -0.5,0.86 z m -162.87,-97.24 162.37,95.22 5.21,-3 v -41.9 l -162.37,-94.81 -5.21,3 z"
     id="path6422"
     inkscape:connector-curvature="0" />
  <polygon
     points="301.13,226.63 301.13,134.81 303.13,134.81 303.13,226.01 307.35,228.14 307.35,138.4 309.35,138.4 309.35,229.77 307.89,230.66 301.68,227.52 "
     id="polygon6424" />
  <polygon
     points="312.58,226.17 312.58,141.55 314.58,141.55 314.58,226.75 314.08,227.61 308.85,230.64 307.85,228.9 "
     id="polygon6426" />
  <polygon
     points="459.26,319.13 459.26,226.57 461.26,226.57 461.26,318.51 465.48,320.64 465.48,228.7 465.2,186.65 467.2,186.64 467.48,228.7 467.48,322.27 466.02,323.16 459.81,320.02 "
     id="polygon6428" />
  <polygon
     points="470.71,318.63 470.71,225.88 472.71,225.88 472.71,319.25 472.16,320.14 466.14,323.17 465.24,321.38 "
     id="polygon6430" />
  <rect
     x="58.65078"
     y="314.41977"
     width="2"
     height="188.64"
     transform="rotate(-60)"
     id="rect6432" />
  <rect
     x="46.226372"
     y="321.59006"
     width="2"
     height="188.64"
     transform="rotate(-60)"
     id="rect6434" />
  <rect
     x="450.84"
     y="178.72"
     width="2"
     height="43.23"
     id="rect6436" />
  <rect
     x="437.78"
     y="171.81"
     width="2"
     height="41.959999"
     id="rect6438" />
  <rect
     x="425.35999"
     y="163.87"
     width="2"
     height="42.889999"
     id="rect6440" />
  <rect
     x="412.94"
     y="156.53"
     width="2"
     height="43.16"
     id="rect6442" />
  <rect
     x="399.81"
     y="149.25999"
     width="2"
     height="43.169998"
     id="rect6444" />
  <rect
     x="387.26001"
     y="141.98"
     width="2"
     height="42.48"
     id="rect6446" />
  <rect
     x="375.17999"
     y="134.81"
     width="2"
     height="43.169998"
     id="rect6448" />
  <rect
     x="363.25"
     y="127.74"
     width="2"
     height="42.77"
     id="rect6450" />
  <rect
     x="350.32999"
     y="119.51"
     width="2"
     height="43.43"
     id="rect6452" />
  <rect
     x="337.42001"
     y="113.23"
     width="2"
     height="42.099998"
     id="rect6454" />
  <rect
     x="325.98001"
     y="106.09"
     width="2"
     height="43.169998"
     id="rect6456" />
  <rect
     x="313.07001"
     y="97.919998"
     width="2"
     height="43.169998"
     id="rect6458" />
  <polygon
     points="302.64,90.35 465.82,185.69 471.16,182.18 472.26,183.86 466.4,187.7 465.35,187.73 301.63,92.08 "
     id="polygon6460" />
  <polygon
     points="314.56,112.73 314.56,98.47 302.45,92.14 302.45,105.74 "
     id="polygon6462" />
  <polygon
     points="338.42,126.61 338.42,112.35 326.31,106.02 326.31,119.62 "
     id="polygon6464" />
  <polygon
     points="326.58,133.78 326.58,119.52 314.47,113.2 314.47,126.79 "
     id="polygon6466" />
  <polygon
     points="314.24,140.49 314.24,126.23 302.13,119.9 302.13,133.5 "
     id="polygon6468" />
  <polygon
     points="338.11,154.37 338.11,140.11 326,133.78 326,147.38 "
     id="polygon6470" />
  <polygon
     points="364.07,141.66 364.07,127.39 351.96,121.07 351.96,134.66 "
     id="polygon6472" />
  <polygon
     points="387.94,155.53 387.94,141.27 375.83,134.95 375.83,148.54 "
     id="polygon6474" />
  <polygon
     points="376.1,162.71 376.1,148.45 363.99,142.12 363.99,155.72 "
     id="polygon6476" />
  <polygon
     points="363.76,169.41 363.76,155.15 351.65,148.83 351.65,162.42 "
     id="polygon6478" />
  <polygon
     points="387.63,183.29 387.63,169.03 375.52,162.71 375.52,176.3 "
     id="polygon6480" />
  <polygon
     points="350.53,147.66 350.53,133.4 338.42,127.08 338.42,140.67 "
     id="polygon6482" />
  <polygon
     points="413.73,170.35 413.73,156.09 401.62,149.76 401.62,163.35 "
     id="polygon6484" />
  <polygon
     points="438.11,184.46 438.11,170.2 426,163.87 426,177.47 "
     id="polygon6486" />
  <polygon
     points="425.75,191.4 425.75,177.14 413.64,170.81 413.64,184.41 "
     id="polygon6488" />
  <polygon
     points="413.42,198.1 413.42,183.84 401.31,177.52 401.31,191.11 "
     id="polygon6490" />
  <polygon
     points="438.11,212.68 438.11,198.42 426,192.1 426,205.69 "
     id="polygon6492" />
  <polygon
     points="400.59,176.28 400.59,162.02 388.48,155.7 388.48,169.29 "
     id="polygon6494" />
  <polygon
     points="465.91,199.51 465.85,186.87 451.45,179.08 451.45,192.57 "
     id="polygon6496" />
  <polygon
     points="451.2,205.87 451.2,191.61 439.1,185.29 439.1,198.88 "
     id="polygon6498" />
  <polygon
     points="465.8,229.47 465.8,214.14 452.38,207.35 452.38,221.95 "
     id="polygon6500" />
  <polygon
     points="276.22,575.44 180.57,631.94 174.95,628.79 271.43,572.66 "
     id="polygon6502" />
  <polygon
     points="488.83,466.11 584.48,522.6 590.1,519.45 493.63,463.32 "
     id="polygon6504" />
  <polygon
     points="244.51,323.35 148.86,379.85 143.24,376.7 239.71,320.57 "
     id="polygon6506" />
  <polygon
     class="cls-4"
     points="593.42,313.33 625.66,319.87 615.2,288.67 "
     id="polygon6508"
     style="fill:#c21333" />
  <path
     d="M 611.3,323.18 581,317 601.46,293.84 Z m -26.5,-7.41 23.5,4.76 -7.63,-22.73 z"
     id="path6510"
     inkscape:connector-curvature="0" />
  <polygon
     class="cls-4"
     points="138.83,660.04 167.32,643.59 138.83,627.14 "
     id="polygon6512"
     style="fill:#c21333" />
  <path
     d="m 132,671 v -30.9 l 26.76,15.45 z m 2,-27.44 v 24 l 20.76,-12 z"
     id="path6514"
     inkscape:connector-curvature="0" />
  <polygon
     class="cls-4"
     points="338.99,174.17 321.47,164.05 321.47,184.28 "
     id="polygon6516"
     style="fill:#c21333" />
  <path
     d="m 330.11,184.61 v -20.35 l 17.62,10.17 z m 2,-16.89 v 13.42 l 11.62,-6.71 z"
     id="path6518"
     inkscape:connector-curvature="0" />
  <polygon
     class="cls-4"
     points="401.98,273.97 377.8,260 377.8,287.93 "
     id="polygon6520"
     style="fill:#c21333" />
  <path
     d="M 390.1,287.71 V 261 l 23.17,13.37 z m 2,-23.29 v 19.83 l 17.17,-9.92 z"
     id="path6522"
     inkscape:connector-curvature="0" />
</svg>
