<svg id="Niezaleznosc" xmlns="http://www.w3.org/2000/svg" viewBox="0 0 662.06 662.06"><defs><style>.cls-1{fill:#961430;}.cls-2{fill:#fff;}.cls-3{fill:#c21333;}.cls-4{fill:#030303;}</style></defs><path class="cls-1" d="M473.56,497.29s-.81-16.58,20.62-13.34c0,0,23.34-28.1,40.68-1.22,0,0,13.94-2.22,13.94,13.19Z"/><path d="M473.58,498.29l-1-1a14.87,14.87,0,0,1,4.55-10.94c3.71-3.35,9.31-4.54,16.67-3.52,2.1-2.39,12.57-13.46,24.46-12.76,6.53.4,12.28,4.28,17.12,11.55,1.72-.14,6.48-.21,10.11,2.89,2.87,2.45,4.33,6.28,4.33,11.36l-1,1ZM489,484.53c-4.5,0-8,1.11-10.49,3.34a12.73,12.73,0,0,0-3.88,8.4l73.19-1.34c-.17-4-1.38-6.95-3.61-8.85-3.73-3.18-9.1-2.37-9.16-2.36l-1-.44c-4.54-7-9.89-10.79-15.9-11.16-12-.75-23.06,12.34-23.17,12.47l-.92.35A33.2,33.2,0,0,0,489,484.53Z"/><rect x="301.46" y="448.54" width="266.81" height="2"/><path d="M70.85,412.83c-2.34-14.27,5-30.55,18.6-41.48,6.09-4.88,15.62-10.53,26.51-9.77a23.85,23.85,0,0,1,17.81,9.82c12.33-4.18,26.35-4.21,40-4.24,4.45,0,9.05,0,13.45-.17a162.44,162.44,0,0,0,55.48-11.92c16.61-6.77,28.6-15.1,36.66-25.48,9.95-12.81,13.16-28.88,8.37-42a30.15,30.15,0,0,0-2.25-4.81,54.23,54.23,0,0,1-25.92,10.9c-7.3.88-16.92-.76-20-8.32a11.54,11.54,0,0,1,.56-9.58,20,20,0,0,1,12-9.83c12.21-3.52,26.22,2.65,33.79,13.9A75.6,75.6,0,0,0,308.61,248c8.45-22.16,8.44-47,8.42-69h2c0,22.13,0,47.22-8.55,69.72a77.46,77.46,0,0,1-23.36,32.83,32.61,32.61,0,0,1,2.54,5.37c5,13.71,1.7,30.52-8.67,43.87-8.28,10.66-20.55,19.2-37.49,26.1A164.17,164.17,0,0,1,187.35,369c-4.44.16-9.06.17-13.52.18-13.36,0-27,.06-39,4a17.64,17.64,0,0,1,2,6,16.65,16.65,0,0,1-5.69,14.47c-3.69,3.3-8.22,4.56-12.43,3.46a8.53,8.53,0,0,1-3.69-1.88,6.6,6.6,0,0,1-2.15-5.2c.11-4,3-8.11,5.89-10.45a46.42,46.42,0,0,1,13-7.44,22.63,22.63,0,0,0-16-8.53c-10.26-.73-19.31,4.68-25.12,9.33-13.09,10.48-20.1,26-17.87,39.59Zm62.09-39a44.52,44.52,0,0,0-12.86,7.27c-3,2.42-5.08,6.11-5.16,8.95a4.62,4.62,0,0,0,1.5,3.68,6.76,6.76,0,0,0,2.84,1.42c3.55.93,7.42-.18,10.6-3a14.83,14.83,0,0,0,5-12.7A15.57,15.57,0,0,0,132.94,373.83ZM259.4,267a23.78,23.78,0,0,0-6.59.92A17.9,17.9,0,0,0,242,276.7a9.65,9.65,0,0,0-.5,8c2.44,6.09,10.72,7.95,17.85,7.08a52.38,52.38,0,0,0,25.11-10.62C278.73,272.48,269,267,259.4,267Z"/><path d="M103.36,331.05a48.12,48.12,0,0,1-8.12-.62c-6.28-1.07-11.4-3.82-14-7.55A11.54,11.54,0,0,1,82,308.59c3.14-3.62,8.55-5.67,13.88-5.38a5.61,5.61,0,0,1,.88-3.48,24.1,24.1,0,0,1,11.59-10.58c5.54-2.34,12.24-2.31,17.07.08,4,2,7.06,5.55,9.27,10.84l-1.85.77c-2-4.83-4.73-8-8.31-9.82-4.33-2.14-10.37-2.16-15.4,0a22.05,22.05,0,0,0-10.62,9.71c-.54,1-1,2.28-.27,2.93l2.68,2.3-3.49-.55c-5.17-.83-10.89,1-13.92,4.52a9.55,9.55,0,0,0-.67,11.82c2.35,3.3,7,5.76,12.76,6.74,5.3.91,10.83.57,16.19.25l11.62-.7.13,2-11.63.71C109.08,330.88,106.23,331.05,103.36,331.05Z"/><path d="M216.27,330.14c-29.43,0-71.36,0-74,0v-2c1,0,100.25.09,102.54,0a11.49,11.49,0,0,0,9.22-5.85c2.39-4.15,2.14-9.36-.69-14.65-6.19-11.56-22.6-5.74-22.76-5.68l-.6.22-.45-.45c-7.18-7.14-14.51-11.49-21.81-12.9-8.92-1.74-18,1.34-22.57,7.65l-1.36,1.89-.43-2.29c-2.33-12.48-10.55-23-20.94-26.83-11.5-4.23-25.3.76-30.14,10.88a18.08,18.08,0,0,0-1.27,3.58l-1.95-.46a20.24,20.24,0,0,1,1.42-4c5.26-11,20.2-16.47,32.63-11.89,10.46,3.84,18.83,14,21.77,26.27,5.32-5.8,14.36-8.51,23.23-6.79,7.54,1.47,15.07,5.85,22.39,13,3.23-1,18.33-4.91,24.6,6.81,3.17,5.93,3.41,11.82.67,16.6a13.56,13.56,0,0,1-10.88,6.85C244.05,330.13,231.92,330.14,216.27,330.14Z"/><circle cx="131.28" cy="329.1" r="2.47"/><polygon class="cls-2" points="333.36 549 333.36 582.48 353.18 582.48 354.81 549 333.36 549"/><path d="M354.14,583.48H332.35V548h23.51Zm-19.79-2h17.88L353.76,550H334.35Z"/><polygon class="cls-2" points="393.3 549 393.3 582.48 413.13 582.48 414.75 549 393.3 549"/><path d="M414.08,583.48H392.3V548h23.5Zm-19.78-2h17.87L413.7,550H394.3Z"/><circle cx="541.63" cy="195.52" r="5.48"/><polygon class="cls-2" points="65.14 202.86 36.4 178.32 63.02 151.5 189.74 146.26 191.87 197.63 65.14 202.86"/><path d="M64.79,203.88l-29.86-25.5,27.65-27.87H63l127.72-5.28,2.2,53.36ZM37.87,178.26l27.62,23.58,125.33-5.17-2-49.37L63.45,152.48Z"/><polygon class="cls-2" points="317.4 98.55 340.62 126.27 313.15 149.78 197.12 140.14 201.38 88.91 317.4 98.55"/><path d="M313.48,150.81l-.42,0-117-9.71,4.41-53.23L317.9,97.59,342,126.38ZM198.2,139.23l114.61,9.52,26.4-22.6L316.9,99.51,202.29,90Z"/><polygon class="cls-3" points="109.27 120.24 86.59 90.23 116.45 76.7 193.96 99.02 187.75 142.27 109.27 120.24"/><path d="M188.58,143.54l-79.91-22.42L85,89.83l31.33-14.19.35.1L195.07,98.3Zm-78.72-24.17L186.92,141l5.93-41.26-76.33-22L88.14,90.62Z"/><polygon class="cls-2" points="206.02 442.49 201.78 50.27 186.37 50.27 181.9 442.49 206.02 442.49"/><path d="M206,443.49H181.9a1,1,0,0,1-.71-.3,1,1,0,0,1-.29-.72l4.47-392.21a1,1,0,0,1,1-1h15.41a1,1,0,0,1,1,1L207,442.47a1,1,0,0,1-1,1Zm-23.11-2H205L200.79,51.27H187.35Z"/><path class="cls-2" d="M225.39,195c-8.11-.84-16-3.57-14.59-11.18l1.92-5.71s-17.61-9.52-16.73-13.64c0,0,0-2.06,2.54-1.18s16.59,8.69,18.72,9,10.81-.68,13.84,1.08,14,12.3,14,12.3l-3.57,9.15a86.11,86.11,0,0,1-10.93.49"/><path d="M232.23,196.32H230.6l0-2a89.73,89.73,0,0,0,10.2-.41l3.11-8c-3.92-3.73-11.15-10.41-13.37-11.69-1.85-1.08-6.66-1-9.85-.91a27.84,27.84,0,0,1-3.62-.05c-1.3-.19-5.39-2.26-11.47-5.39-3.32-1.7-6.45-3.32-7.44-3.66-.59-.21-.93-.18-1-.1s-.16.34-.16.36l0,.19c-.44,2,8,8.12,16.23,12.55l.74.4-2.17,6.44a6.24,6.24,0,0,0,1,5.05c1.91,2.54,6.3,4.23,12.68,4.89l-.2,2c-7.06-.73-11.79-2.64-14.08-5.68a8.29,8.29,0,0,1-1.4-6.68l0-.14,1.66-4.92c-4.92-2.7-17.25-10-16.51-14.23a2.49,2.49,0,0,1,1-1.86,3,3,0,0,1,2.85-.15c1.12.39,4.16,2,7.69,3.77,4.13,2.13,9.78,5,10.85,5.19a29.62,29.62,0,0,0,3.29,0c3.81-.08,8.55-.18,10.9,1.18,3.09,1.79,13.77,12,14.22,12.44l.49.46-4,10.34-.59.07A88.14,88.14,0,0,1,232.23,196.32Z"/><path class="cls-2" d="M385.52,492.92l5.2,75.21L420,565.2,424,399a133.89,133.89,0,0,0-2.19-27.55l-7-37.61L340,340.93l-8.53,62.52"/><path d="M389.8,569.23,384.52,493l2-.13L391.65,567,419,564.3,423,399a133.35,133.35,0,0,0-2.17-27.34L414,335l-73.1,6.89-8.42,61.73-2-.27,8.63-63.3,76.5-7.21,7.12,38.51A135.19,135.19,0,0,1,425,399.06l-4,167.05Z"/><path class="cls-3" d="M422.56,307.59l4,28.33s28-82.89,2.62-95.78c-7.51-3.81-25.69-4-25.69-4l-6-2-21-3.38H356.49a56.61,56.61,0,0,1-23.11-4.93L300.56,210,243,179.2l-4.71,21.33,56.72,47,27.58,22.83a18.49,18.49,0,0,1,6.69,13.57l3.42,94L423,375.56l8.78-96.16Z"/><path d="M332.73,378.92l-1-1-3.42-94A17.51,17.51,0,0,0,322,271.1l-84.3-69.8-.34-1L242,179l1.45-.66L301,209.14,333.81,225a55.3,55.3,0,0,0,22.68,4.83h20.25l21.13,3.42,5.81,1.9c1.85,0,18.6.38,26,4.13,25.61,13-.49,92.15-2.08,96.88L424,375.66l-1,.9ZM239.4,200.15l83.83,69.41a19.48,19.48,0,0,1,7,14.3l3.38,93,88.39-2.3L425.58,336l-4-28.22,0-.45,9.19-28.19,1.95.4-4.29,47c6.33-21.77,19.69-75.57.3-85.43-7.23-3.67-25.08-3.91-25.25-3.91l-.31-.05-5.88-1.93-20.82-3.35h-20a57.41,57.41,0,0,1-23.52-5l-32.85-15.86L243.7,180.7ZM423.58,307.68l2.79,19.63L430,288.15Z"/><path class="cls-2" d="M367.37,173.43v57.44s15.09,12.19,26.86,5.79l3.33-2.49-4.15-14.25,15.08,2.27s2.07-50.41,0-59.09-32.44-5.79-32.44-5.79Z"/><path class="cls-4" d="M386.57,239.54c-9.93,0-19.33-7.49-19.83-7.89l-.37-.3V173.18l9.05-16.81.54-.05c3.19-.31,31.3-2.71,33.5,6.55,2.08,8.71.11,57.3,0,59.37l-.05,1.11-14.63-2.21,3.91,13.41-4,3A16.84,16.84,0,0,1,386.57,239.54Zm-18.2-9.16c2.34,1.76,15.27,10.83,25.32,5.43l2.72-2L392,218.7,407.54,221c.28-7.46,1.82-50,0-57.71-1.34-5.62-19.4-6.09-30.84-5.07l-8.31,15.42Z"/><path d="M373.16,143.68s-12.61-.42-11,16.32,4.13,50.83,4.13,50.83l5.16-25.62s-7.23-8.89,1.66-12.61,6,17.36,6,17.36-3.23,23.76.45,26.86,25.56,11.79,29.81,11.17,4.45-30.59,1.56-31.42-7.85-2.27-15.08,5-8.68-.62-9.72-11.57,1.31-26.24,1.31-26.24,38.57,5.37,29.69-16.12a28.55,28.55,0,0,1-16.32,2.69C391.55,149.05,381.84,141.4,373.16,143.68Z"/><path class="cls-4" d="M409,229c-5.77,0-26.44-8.43-30-11.42-3.91-3.29-1.35-23.71-.8-27.76.71-5.2.85-14.21-1.8-16.25-.26-.19-1-.8-2.82-.05-2.05.85-3.28,2.07-3.67,3.61-.85,3.36,2.38,7.4,2.41,7.44l.3.36-.1.47-6.61,32.79-.53-7.3c0-.34-2.5-34.27-4.13-50.8-.6-6.08.55-10.71,3.41-13.76a12.11,12.11,0,0,1,8.41-3.67c5.53-1.38,11.37,1,17,3.21,3.62,1.45,7.36,2.94,10.92,3.42a27.87,27.87,0,0,0,15.7-2.57l1-.55.43,1c2,4.9,1.86,8.92-.48,11.95-6,7.78-24.7,6.18-29.28,5.66-.48,3.51-2,15.9-1.16,25,.41,4.37,1.18,12.51,3.58,13.38,1,.35,2.5-.49,4.43-2.43,7.62-7.62,13.09-6.06,16-5.22,3.65,1.05,2.49,20.1,2.48,20.29-.83,12.6-3.33,13-4.15,13.08A3.54,3.54,0,0,1,409,229Zm-33.86-57.84a4,4,0,0,1,2.49.83c4.43,3.41,2.76,16.6,2.56,18.1-1.31,9.64-2.15,24.06.1,26,3.64,3.06,25.13,11.5,29,10.94,0,0,.68-.3,1.38-3.19,2-8.35,1.41-24.55-.06-26.31-2.76-.79-7.29-2-14,4.74-2.59,2.59-4.71,3.54-6.52,2.89-3-1.09-4.05-6.14-4.89-15.08-1-10.94,1.22-25.85,1.31-26.48l.15-1,1,.14c.22,0,22.38,3,28.41-4.79,1.72-2.23,1.92-5.24.6-9a29.84,29.84,0,0,1-15.92,2.3c-3.81-.51-7.66-2.05-11.4-3.54-5.64-2.26-11-4.39-15.9-3.1l-.14,0h-.14a10.08,10.08,0,0,0-7.07,3c-2.44,2.61-3.4,6.71-2.86,12.17,1.17,11.86,2.77,32.63,3.6,43.6l3.63-18.05c-.89-1.22-3.42-5.12-2.5-8.79.55-2.19,2.17-3.86,4.84-5A6,6,0,0,1,375.09,171.17Z"/><path d="M389.53,178.46s2.42-6.41,5.86-5.66,1.41,3.88,1.41,3.88Z"/><ellipse cx="396.22" cy="181.61" rx="1.97" ry="1.3" transform="translate(192.92 567.15) rotate(-86.82)"/><ellipse cx="405.42" cy="181.66" rx="1.97" ry="1.3" transform="translate(201.57 576.39) rotate(-86.82)"/><path d="M410.74,177.66s-3.17-5.79-5.89-4.57-.45,3.91-.45,3.91Z"/><path class="cls-1" d="M105.48,449.47s-1.18-24.09,30-19.39c0,0,19.25-47.16,59.13-1.76,0,0,14.29-3.82,19.18,11.24,0,0,11.24-11.24,30-4.19,0,0,11.68-16.75,28-1.54,0,0,7.93-.67,13.44,8.15s3.09,7.49,3.09,7.49Z"/><path d="M288.51,450.54a1.33,1.33,0,0,1-.45-.07H105.48l-1-1c0-.38-.38-9.36,6.45-15.54,5.3-4.78,13.34-6.46,23.91-5,1.6-3.55,9.24-18.67,23.53-21.08C169.6,406,181.9,412.51,195,427.22c2.81-.52,14.4-1.82,19.26,10.64,3.37-2.61,13.86-9.14,29.17-3.68,1.44-1.81,6.1-6.92,13-7.65,5.24-.55,10.53,1.56,15.72,6.28,1.9,0,8.85.54,13.91,8.64,4.28,6.85,4.08,8,3.41,8.71A1.24,1.24,0,0,1,288.51,450.54Zm0-2,.21,0A.8.8,0,0,0,288.52,448.54Zm-182-.07h181.1a38.37,38.37,0,0,0-3.28-6c-5.09-8.15-12.21-7.71-12.51-7.69l-.76-.26c-4.84-4.51-9.7-6.54-14.44-6-7.31.77-12,7.36-12.05,7.42l-1.17.36c-17.92-6.74-28.81,3.85-28.92,4l-1.65-.4c-4.55-14-17.42-10.72-18-10.58l-1-.3c-12.7-14.46-24.52-20.89-35.12-19.1-14.79,2.48-22.26,20.4-22.34,20.58l-1.07.61c-10.32-1.56-18.07-.08-23,4.4S106.6,446.12,106.49,448.47Z"/><polygon class="cls-1" points="88.18 90.67 92.1 88.78 111.47 116.16 184.38 135.75 184.38 140.43 109.19 119.35 88.18 90.67"/><circle cx="121.84" cy="94.07" r="2.47"/><line class="cls-3" x1="128.37" y1="95.52" x2="175.09" y2="107.28"/><rect x="150.73" y="77.31" width="2" height="48.17" transform="translate(16.38 223.81) rotate(-75.88)"/><line class="cls-3" x1="127" y1="104.62" x2="173.71" y2="116.38"/><rect x="149.35" y="86.41" width="2" height="48.17" transform="translate(6.51 229.35) rotate(-75.88)"/><line class="cls-3" x1="202.69" y1="134.6" x2="308.43" y2="143.26"/><rect x="254.56" y="85.89" width="2" height="106.09" transform="translate(96.24 382.3) rotate(-85.32)"/><line class="cls-3" x1="312.78" y1="142.27" x2="331.93" y2="126.93"/><rect x="310.09" y="133.6" width="24.53" height="2" transform="translate(-13.39 231.07) rotate(-38.69)"/><circle cx="308.43" cy="113.01" r="2.47"/><line class="cls-3" x1="301.46" y1="111.7" x2="223.77" y2="104.62"/><rect x="261.61" y="69.15" width="2" height="78.02" transform="translate(131.08 359.88) rotate(-84.8)"/><line class="cls-3" x1="300.56" y1="122.64" x2="222.86" y2="115.56"/><rect x="260.71" y="80.09" width="2" height="78.02" transform="translate(119.36 368.92) rotate(-84.79)"/><line class="cls-3" x1="184.03" y1="191.49" x2="74.55" y2="197.57"/><rect x="74.46" y="193.53" width="109.65" height="2" transform="translate(-10.63 7.5) rotate(-3.19)"/><line class="cls-3" x1="67.94" y1="196.65" x2="48.16" y2="181.98"/><rect x="57.05" y="177" width="2" height="24.63" transform="translate(-128.61 123.21) rotate(-53.45)"/><circle cx="62.58" cy="166.91" r="2.47"/><line class="cls-3" x1="73.24" y1="166.91" x2="167.84" y2="162.84"/><rect x="73.2" y="163.87" width="94.68" height="2" transform="translate(-6.97 5.33) rotate(-2.46)"/><line class="cls-3" x1="74.55" y1="175.22" x2="169.14" y2="171.16"/><rect x="74.5" y="172.19" width="94.68" height="2" transform="translate(-7.33 5.4) rotate(-2.46)"/><path d="M411.36,131.34a48.15,48.15,0,0,1-8.13-.61c-6.27-1.07-11.39-3.82-14.05-7.55a11.56,11.56,0,0,1,.79-14.3c3.15-3.62,8.54-5.65,13.88-5.38a5.67,5.67,0,0,1,.88-3.47,24.17,24.17,0,0,1,11.59-10.59c5.55-2.34,12.25-2.31,17.07.09,4,2,7.07,5.54,9.27,10.84l-1.85.77c-2-4.83-4.73-8-8.31-9.82-4.32-2.14-10.36-2.16-15.4,0A22.14,22.14,0,0,0,406.48,101c-.54,1-1,2.27-.26,2.93l2.67,2.3-3.48-.56c-5.17-.82-10.9,1-13.93,4.52a9.56,9.56,0,0,0-.67,11.83c2.35,3.3,7,5.76,12.76,6.74,5.3.9,10.84.57,16.19.25l11.63-.71.12,2-11.63.7C417.07,131.17,414.22,131.34,411.36,131.34Z"/><path d="M524.61,130.44c-29.45,0-71.69,0-74.38,0v-2c1,0,100.24.08,102.53,0a11.54,11.54,0,0,0,9.23-5.85c2.38-4.16,2.13-9.36-.7-14.66-6.18-11.56-22.6-5.73-22.76-5.67l-.6.22-.45-.45c-7.17-7.15-14.51-11.49-21.8-12.91-8.92-1.73-18,1.34-22.58,7.66l-1.36,1.88-.43-2.28c-2.33-12.48-10.55-23-20.94-26.83-11.5-4.23-25.3.75-30.13,10.88A18.28,18.28,0,0,0,439,84L437,83.51a19.36,19.36,0,0,1,1.41-4c5.26-11,20.21-16.47,32.63-11.9,10.46,3.85,18.84,14,21.78,26.28,5.32-5.81,14.36-8.52,23.22-6.79,7.54,1.47,15.07,5.84,22.4,13,3.22-1,18.32-4.91,24.59,6.81,3.17,5.93,3.41,11.82.67,16.59a13.55,13.55,0,0,1-10.88,6.86C552.05,130.43,540.09,130.44,524.61,130.44Z"/><circle cx="439.27" cy="129.4" r="2.47"/><path class="cls-3" d="M389.78,572.35l-15.25,14.31s-10.92,1.23-14.39,6.56h0c-.81,2.23.57,4.71,2.62,4.71h53.12c2,0,3.7-2,3.7-4.38V576.19a2.68,2.68,0,0,0-2.68-2.68h-.72a7.58,7.58,0,0,0-4.85,1.81l-6.67,5.55a4,4,0,0,1-5.41-.16l-3.76-3.47-.76-3c-.63-2.52-3.21-3.49-5-1.87Z"/><path d="M415.88,598.93H362.76a3.68,3.68,0,0,1-3-1.64,4.88,4.88,0,0,1-.53-4.41l.1-.2c3.36-5.18,12.83-6.71,14.77-7l15-14.09a3.7,3.7,0,0,1,3.67-.91A4.37,4.37,0,0,1,395.7,574l.69,2.74,3.54,3.26a3,3,0,0,0,4.09.13l6.67-5.55a8.57,8.57,0,0,1,5.49-2h.72a3.68,3.68,0,0,1,3.68,3.68v17.36C420.58,596.52,418.47,598.93,415.88,598.93Zm-54.83-5.26a2.82,2.82,0,0,0,.33,2.47,1.71,1.71,0,0,0,1.38.79h53.12c1.49,0,2.7-1.51,2.7-3.38V576.19a1.68,1.68,0,0,0-1.68-1.68h-.72a6.58,6.58,0,0,0-4.21,1.58l-6.67,5.54a5,5,0,0,1-6.73-.19l-4-3.67-.84-3.31a2.42,2.42,0,0,0-1.56-1.83,1.74,1.74,0,0,0-1.74.45L375,587.62l-.33,0C374.54,587.67,364.29,588.88,361.05,593.67Z"/><path class="cls-3" d="M377.64,583.74a9.17,9.17,0,0,1,6.42,5"/><path d="M383.15,589.18a8.14,8.14,0,0,0-5.67-4.46l.32-2a10.14,10.14,0,0,1,7.17,5.6Z"/><path class="cls-3" d="M383,578.71a9.19,9.19,0,0,1,6.41,5"/><path d="M388.48,584.15a8.08,8.08,0,0,0-5.66-4.45l.32-2a10.1,10.1,0,0,1,7.16,5.6Z"/><circle class="cls-2" cx="411.68" cy="584.61" r="2.75"/><path d="M411.68,588.36a3.75,3.75,0,1,1,3.75-3.75A3.76,3.76,0,0,1,411.68,588.36Zm0-5.5a1.75,1.75,0,1,0,1.75,1.75A1.75,1.75,0,0,0,411.68,582.86Z"/><rect x="360.76" y="592.78" width="53.67" height="2"/><line class="cls-3" x1="395.49" y1="577.24" x2="382.98" y2="588.62"/><rect x="380.78" y="581.93" width="16.92" height="2" transform="translate(-291 413.83) rotate(-42.31)"/><path class="cls-3" d="M328,572.22,312.7,586.53s-10.91,1.23-14.38,6.56h0c-.82,2.22.56,4.71,2.61,4.71h53.12c2.05,0,3.71-2,3.71-4.38V576.06a2.69,2.69,0,0,0-2.69-2.68h-.71a7.56,7.56,0,0,0-4.85,1.81l-6.68,5.54a4,4,0,0,1-5.4-.16l-3.76-3.46-.76-3c-.63-2.51-3.21-3.48-5-1.86Z"/><path d="M354.05,598.8H300.93a3.67,3.67,0,0,1-3-1.65,4.88,4.88,0,0,1-.54-4.41l.1-.2c3.37-5.17,12.83-6.7,14.78-7l15-14.1a3.72,3.72,0,0,1,3.67-.9,4.4,4.4,0,0,1,2.94,3.26l.69,2.73,3.53,3.27a3,3,0,0,0,4.1.12l6.67-5.54a8.51,8.51,0,0,1,5.49-2h.71a3.69,3.69,0,0,1,3.69,3.68v17.36C358.76,596.39,356.65,598.8,354.05,598.8Zm-54.83-5.26a2.82,2.82,0,0,0,.34,2.47,1.71,1.71,0,0,0,1.37.79h53.12c1.49,0,2.71-1.51,2.71-3.38V576.06a1.69,1.69,0,0,0-1.69-1.68h-.71a6.51,6.51,0,0,0-4.21,1.58l-6.68,5.54a5,5,0,0,1-6.72-.19l-4-3.67-.83-3.31a2.43,2.43,0,0,0-1.57-1.84,1.76,1.76,0,0,0-1.74.46l-15.49,14.54-.33,0C312.71,587.54,302.46,588.75,299.22,593.54Z"/><path class="cls-3" d="M315.82,583.61a9.16,9.16,0,0,1,6.41,5"/><path d="M321.32,589.05a8.11,8.11,0,0,0-5.66-4.46l.32-2a10.1,10.1,0,0,1,7.16,5.6Z"/><path class="cls-3" d="M321.15,578.58a9.17,9.17,0,0,1,6.42,5"/><path d="M326.66,584a8.08,8.08,0,0,0-5.67-4.45l.32-2a10.17,10.17,0,0,1,7.17,5.6Z"/><circle class="cls-2" cx="349.85" cy="584.48" r="2.75"/><path d="M349.85,588.23a3.76,3.76,0,1,1,3.76-3.75A3.75,3.75,0,0,1,349.85,588.23Zm0-5.51a1.76,1.76,0,1,0,1.76,1.76A1.76,1.76,0,0,0,349.85,582.72Z"/><rect x="298.93" y="592.64" width="53.67" height="2"/><line class="cls-3" x1="333.67" y1="577.11" x2="321.15" y2="588.49"/><rect x="318.95" y="581.8" width="16.92" height="2" transform="translate(-307.01 372.18) rotate(-42.31)"/><rect x="49.63" y="448.54" width="40.4" height="2"/><polyline class="cls-2" points="186.49 528.59 205.4 535 153.34 598.07"/><polygon points="154.11 598.7 152.57 597.43 203.71 535.49 186.16 529.53 186.81 527.64 207.1 534.52 154.11 598.7"/><line class="cls-2" x1="43.33" y1="476.66" x2="169.94" y2="522.97"/><rect x="105.63" y="432.41" width="2" height="134.82" transform="translate(-399.4 428.28) rotate(-69.91)"/><polyline class="cls-2" points="73.24 469.38 244.01 489.29 266.64 465.35"/><polygon points="244.39 490.34 243.89 490.28 73.12 470.37 73.36 468.38 243.63 488.24 265.91 464.66 267.37 466.04 244.39 490.34"/><circle cx="238.29" cy="389.09" r="8.11"/><circle cx="215.46" cy="273.81" r="4.14"/><path class="cls-4" d="M415.32,555h-2l0-6h2Zm0-12h-2l0-6h2Zm0-12h-2l0-6h2Zm0-12h-2l0-6h2Zm0-12h-2v-6h2Zm0-12h-2l0-6h2Zm0-12h-2l0-6h2Zm0-12h-2l0-6h2Zm0-12h-2l0-6h2Zm0-12h-2v-6h2Zm0-12h-2l0-6h2Zm0-12h-2l0-6h2Zm0-12h-2l0-6h2Zm0-12h-2l0-6h2Zm0-12h-2v-6h2Z"/><line class="cls-3" x1="335.66" y1="369.29" x2="392.2" y2="367.45"/><rect x="335.64" y="367.37" width="56.58" height="2" transform="translate(-11.69 11.93) rotate(-1.85)"/><circle cx="397.36" cy="366.97" r="1.4"/><path class="cls-1" d="M239.5,200.06l101.12,72.4L333.82,377l-3.41-93.16A18.85,18.85,0,0,0,323.62,270Z"/><line class="cls-3" x1="249.21" y1="181.66" x2="245.12" y2="200.98"/><rect x="237.29" y="190.32" width="19.75" height="2" transform="translate(8.83 393.53) rotate(-78.05)"/><path class="cls-3" d="M360.19,230.79s7.11,17,24.54,15.27"/><path d="M382.28,247.18c-16.12,0-22.94-15.83-23-16l1.84-.77c.28.66,7.08,16.29,23.52,14.65l.2,2A25,25,0,0,1,382.28,247.18Z"/><path class="cls-3" d="M403.52,236.12s-5.67,7.13-11.32,8"/><path d="M392.36,245.15l-.32-2c5.2-.85,10.64-7.61,10.69-7.68l1.57,1.24C404.06,237.05,398.32,244.18,392.36,245.15Z"/><g id="_Powtarzanie_promieniowe_" data-name="&lt;Powtarzanie promieniowe&gt;"><line class="cls-2" x1="190.94" y1="142.27" x2="196.22" y2="160.4"/><rect class="cls-4" x="192.58" y="141.89" width="2" height="18.89" transform="translate(-34.62 60.23) rotate(-16.25)"/></g><g id="_Powtarzanie_promieniowe_2" data-name="&lt;Powtarzanie promieniowe&gt;"><line class="cls-2" x1="229.23" y1="136.3" x2="223.28" y2="161.08"/><rect class="cls-4" x="213.52" y="147.69" width="25.48" height="2" transform="translate(28.88 334) rotate(-76.51)"/></g><polygon class="cls-3" points="243.77 154.3 246.21 166.33 232.32 166.87 243.77 154.3"/><polygon class="cls-3" points="220.97 110.98 211.06 120.41 209.96 158.98 220.97 110.98"/><polygon class="cls-3" points="165.84 152.4 178.2 149.96 187.04 166.21 165.84 152.4"/><g id="_Powtarzanie_promieniowe_3" data-name="&lt;Powtarzanie promieniowe&gt;"><line class="cls-2" x1="196.2" y1="219.39" x2="203.87" y2="204.04"/><rect class="cls-4" x="191.46" y="210.71" width="17.15" height="2" transform="translate(-78.79 295.95) rotate(-63.43)"/></g><polygon class="cls-3" points="165.96 186.97 168.79 176.18 180.33 181.31 165.96 186.97"/><polygon class="cls-3" points="160.72 220.7 173.14 220.53 197.67 195.52 160.72 220.7"/><polygon class="cls-3" points="223.01 227.12 213.27 221.11 217.4 204.84 223.01 227.12"/><polygon class="cls-3" points="503.84 59.05 494.42 68.76 506.98 77.52 503.84 59.05"/><circle class="cls-1" cx="550.61" cy="85.73" r="3.18"/><circle cx="531.5" cy="59.06" r="1.48"/><polygon class="cls-3" points="566.75 64.9 556.3 61.67 547.2 74.91 566.75 64.9"/><rect x="515.65" y="50.27" width="2" height="22.38"/><line class="cls-3" x1="535.6" y1="74.9" x2="545.39" y2="59.06"/><rect x="531.18" y="65.98" width="18.63" height="2" transform="translate(199.47 491.63) rotate(-58.3)"/><polygon class="cls-3" points="51.25 314.05 55.29 326.95 68.98 320.09 51.25 314.05"/><circle class="cls-1" cx="100.59" cy="278.66" r="3.18"/><circle cx="64.44" cy="289.73" r="1.48"/><polygon class="cls-3" points="86.37 261.52 78.56 269.18 85.85 283.49 86.37 261.52"/><line class="cls-3" x1="69.3" y1="309.26" x2="49.63" y2="298.6"/><rect x="58.47" y="292.74" width="2" height="22.38" transform="translate(-236.06 211.33) rotate(-61.53)"/><line class="cls-3" x1="80.32" y1="293.68" x2="71.05" y2="277.52"/><rect x="74.69" y="276.28" width="2" height="18.63" transform="translate(-132.09 75.54) rotate(-29.84)"/><path class="cls-2" d="M451.53,85.73s7.06-11.59,23.25-3.18"/><path d="M452.38,86.25l-1.7-1c.07-.12,7.74-12.28,24.56-3.55l-.92,1.78C459.2,75.59,452.65,85.81,452.38,86.25Z"/><path class="cls-2" d="M145.45,285.45s11-10.94,24.42,3.28"/><path d="M169.15,289.41c-4.31-4.55-8.78-6.9-13.28-7h-.21a14.75,14.75,0,0,0-9.51,3.73l-1.41-1.41a16.38,16.38,0,0,1,11.13-4.32c5.07.08,10,2.63,14.73,7.61Z"/><rect x="469.7" y="121.64" width="80.14" height="2"/><rect x="169.87" y="319.5" width="54.48" height="2"/><path class="cls-2" d="M186.36,50.62a9.56,9.56,0,0,0,10.76,4l1.82-.68"/><path d="M194.32,55.93a10.62,10.62,0,0,1-8.82-4.81l1.73-1c.12.21,3.06,5.08,9.6,3.5l1.75-.67.71,1.87-1.93.72A12.61,12.61,0,0,1,194.32,55.93Z"/><line class="cls-2" x1="190.94" y1="422.14" x2="191.86" y2="247.38"/><rect x="104.02" y="333.76" width="174.77" height="2" transform="translate(-144.29 524.52) rotate(-89.72)"/><rect x="191.65" y="65.01" width="2" height="65.34"/><path d="M335.79,399.63l-.27-2c.17,0,16.82-2.33,19.58-11.68l1.92.57C353.89,397.13,336.52,399.53,335.79,399.63Z"/><path d="M408.82,398.2c-.73-.1-18.1-2.5-21.23-13.09l1.92-.57c2.76,9.36,19.41,11.66,19.58,11.68Z"/><polygon points="313.64 525.06 278.79 525.06 277.94 523.53 312.8 468.08 314.49 469.14 280.6 523.06 313.64 523.06 313.64 525.06"/><polygon points="230.99 598.39 229.37 597.22 269.26 541.82 270.08 541.41 313.64 541.41 313.64 543.41 270.59 543.41 230.99 598.39"/><path class="cls-1" d="M80.07,562.1s-.81-16.57,20.61-13.34c0,0,23.34-28.1,40.68-1.21,0,0,13.95-2.22,13.95,13.18Z"/><path d="M80.09,563.1l-1-1a14.81,14.81,0,0,1,4.54-10.93c3.71-3.36,9.32-4.54,16.67-3.53,2.11-2.38,12.52-13.47,24.46-12.75,6.53.39,12.29,4.28,17.12,11.55,1.72-.15,6.48-.21,10.11,2.89,2.88,2.45,4.34,6.27,4.34,11.35l-1,1Zm15.37-13.76c-4.5,0-8,1.12-10.49,3.35a12.64,12.64,0,0,0-3.87,8.39l73.19-1.33c-.17-4-1.38-6.94-3.61-8.84-3.7-3.18-9.11-2.38-9.16-2.37l-1-.45c-4.54-7-9.88-10.79-15.89-11.15-12.06-.77-23.07,12.33-23.18,12.46l-.92.35A34.42,34.42,0,0,0,95.46,549.34Z"/><path class="cls-2" d="M329.91,415.08,323,465.51a39,39,0,0,0-.25,8.29l6.51,86.53h29.26V468.67L379,399l5.42,78.39"/><path d="M359.55,561.33H328.36l-6.58-87.45a40.94,40.94,0,0,1,.26-8.5L328.91,415l2,.27L324,465.65a38.22,38.22,0,0,0-.24,8.07l6.44,85.61h27.33V468.52l0-.14,22.05-75.07,5.8,84-2,.14-5-72.83-18.86,64.23Z"/><path class="cls-4" d="M350.85,547.89h-2v-6h2Zm0-12h-2v-6h2Zm0-12h-2v-6h2Zm0-12h-2v-6h2Zm0-12h-2v-6h2Zm0-12h-2v-6h2Zm0-12h-2v-6h2Zm.27-11.67-1.92-.57,1.73-5.75,1.92.58Zm3.46-11.48-1.91-.58,1.73-5.75,1.91.58Zm3.47-11.49-1.92-.58,1.73-5.75,1.92.58Zm3.46-11.49-1.91-.58,1.73-5.74,1.91.57ZM365,418.27l-1.92-.58,1.73-5.74,1.92.58Zm3.46-11.49-1.91-.58,1.73-5.74,1.91.58Z"/><polyline class="cls-3" points="409.55 275.48 410.79 340.78 395.96 380.98 413.04 391.02 439.84 334.76 439.83 266.79"/><polygon points="412.54 391.88 395.45 381.84 395.02 380.63 409.79 340.61 408.55 275.5 410.55 275.46 411.79 340.76 411.73 341.12 397.19 380.54 412.61 389.6 438.84 334.53 438.83 266.79 440.83 266.79 440.84 334.76 440.75 335.19 413.94 391.45 412.54 391.88"/><path class="cls-2" d="M593,420.1a67.42,67.42,0,0,0,1.19-25.43L591,372.2l-37.68-.53"/><path d="M594,420.33l-2-.47a66.19,66.19,0,0,0,1.17-25l-3.1-21.63-36.83-.52,0-2,38.54.54,3.34,23.32A68.33,68.33,0,0,1,594,420.33Z"/><polygon class="cls-2" points="542.99 541.7 554.97 572.96 573.48 565.87 563.02 534.03 542.99 541.7"/><path d="M554.39,574.26l-12.7-33.13,21.95-8.41,11.09,33.74Zm-10.11-32,11.26,29.39,16.69-6.39-9.83-29.94Z"/><path class="cls-2" d="M527.56,517.69l19.5,40.54,16-4.31-9.39-180.59-42-1.66h0a136.74,136.74,0,0,0-4.92,38.86l1.09,61.37a23.17,23.17,0,0,0,2.3,9.67l12.9,26.82"/><path d="M546.52,559.41l-19.86-41.28,1.8-.87,19.14,39.79L562,553.17,552.72,374.3l-40.26-1.59a135.85,135.85,0,0,0-4.67,37.8l1.09,61.37a22.18,22.18,0,0,0,2.2,9.26L524,508l-1.8.87L509.28,482a24,24,0,0,1-2.4-10.09l-1.09-61.37a138,138,0,0,1,4.95-39.14l.21-.77,43.67,1.73,0,.91,9.43,181.4Z"/><path class="cls-3" d="M544.83,562.72l-14.29,9.43s-11.27,7.11-14.52,12.56h0c-.74,2.26.74,4.69,2.79,4.61l53.08-2c2-.08,3.62-2.1,3.53-4.52l-.66-17.35a2.68,2.68,0,0,0-2.79-2.57l-.71,0a7.63,7.63,0,0,0-4.78,2L560,570.66a4,4,0,0,1-5.41.05l-4.77-6.31c-.85-1.54-2.69-3-5-1.68Z"/><path d="M518.71,590.32a3.68,3.68,0,0,1-2.94-1.53,4.89,4.89,0,0,1-.71-4.39l.1-.2c3.34-5.6,14.37-12.6,14.84-12.89l14.32-9.45a4.31,4.31,0,0,1,3.37-.53,5.19,5.19,0,0,1,3,2.52l4.65,6.17a3,3,0,0,0,4-.1l6.45-5.79a8.56,8.56,0,0,1,5.41-2.26l.72,0a3.6,3.6,0,0,1,2.64,1,3.65,3.65,0,0,1,1.18,2.56l.66,17.35c.11,3-1.9,5.45-4.5,5.55l-53.08,2Zm-1.78-5.2a2.84,2.84,0,0,0,.43,2.46,1.72,1.72,0,0,0,1.41.74l53.08-2c1.49,0,2.64-1.62,2.57-3.48l-.66-17.35a1.69,1.69,0,0,0-.54-1.17,1.75,1.75,0,0,0-1.21-.45l-.71,0a6.58,6.58,0,0,0-4.15,1.74l-6.46,5.8a5,5,0,0,1-6.72.06l-.15-.16L549,564.88a3.29,3.29,0,0,0-1.83-1.62,2.28,2.28,0,0,0-1.8.31L531.09,573C531,573.07,520.11,580,516.93,585.12Z"/><path class="cls-3" d="M530.18,572.62a9.18,9.18,0,0,1,6.61,4.78"/><path d="M535.89,577.85a8.11,8.11,0,0,0-5.83-4.24l.25-2a10.12,10.12,0,0,1,7.37,5.32Z"/><path class="cls-3" d="M536.43,568.19A9.16,9.16,0,0,1,543,573"/><path d="M542.14,573.41a8.1,8.1,0,0,0-5.83-4.23l.25-2a10.15,10.15,0,0,1,7.37,5.33Z"/><line class="cls-3" x1="516.65" y1="585.24" x2="570.28" y2="583.19"/><rect x="516.63" y="583.22" width="53.67" height="2" transform="translate(-21.86 21.13) rotate(-2.18)"/><polygon class="cls-2" points="564.7 549 564.7 582.48 584.52 582.48 586.15 549 564.7 549"/><path d="M585.48,583.48H563.7V548h23.5Zm-19.78-2h17.87L585.1,550H565.7Z"/><path class="cls-2" d="M542.41,397.52v72.35a23.92,23.92,0,0,0,.42,4.47l17.47,91.2,28.67-.73-6.74-99.76,7.41-30.82"/><path d="M559.47,566.57l-.16-.84-17.47-91.2a23.51,23.51,0,0,1-.44-4.66V397.52h2v72.35a22,22,0,0,0,.4,4.28l17.31,90.37,26.78-.69L581.21,465l0-.15L588.66,434l1.94.47-7.37,30.66L590,565.78Z"/><path class="cls-3" d="M561.13,572.35l-14.64,8.88s-11.52,6.66-15,12h0c-.82,2.23.56,4.71,2.62,4.71h53.11c2,0,3.71-2,3.71-4.38V576.19a2.68,2.68,0,0,0-2.68-2.68h-.72a7.56,7.56,0,0,0-4.85,1.81L576,580.87a4,4,0,0,1-5.41-.16l-4.52-6.49c-.79-1.58-2.57-3.14-5-1.87Z"/><path d="M587.23,598.93H534.12a3.68,3.68,0,0,1-3-1.64,4.88,4.88,0,0,1-.54-4.41l.11-.2c3.55-5.47,14.84-12,15.32-12.32l14.67-8.89a4.26,4.26,0,0,1,3.38-.4A5.15,5.15,0,0,1,567,573.7l4.41,6.34a3,3,0,0,0,4,.06l6.67-5.55a8.57,8.57,0,0,1,5.49-2h.72a3.68,3.68,0,0,1,3.68,3.68v17.36C591.94,596.52,589.83,598.93,587.23,598.93Zm-54.82-5.26a2.82,2.82,0,0,0,.33,2.47,1.71,1.71,0,0,0,1.38.79h53.11c1.5,0,2.71-1.51,2.71-3.38V576.19a1.68,1.68,0,0,0-1.68-1.68h-.72a6.58,6.58,0,0,0-4.21,1.58l-6.67,5.54a5,5,0,0,1-6.73-.19l-.14-.16-4.59-6.62a3.27,3.27,0,0,0-1.76-1.69,2.35,2.35,0,0,0-1.81.25L547,582.08C546.88,582.16,535.78,588.62,532.41,593.67Z"/><path class="cls-3" d="M546.12,581.68a9.17,9.17,0,0,1,6.42,5"/><path d="M551.63,587.12a8.11,8.11,0,0,0-5.67-4.45l.32-2a10.17,10.17,0,0,1,7.17,5.61Z"/><path class="cls-3" d="M552.54,577.49a9.16,9.16,0,0,1,6.41,5"/><path d="M558,582.93a8.1,8.1,0,0,0-5.67-4.46l.33-2a10.13,10.13,0,0,1,7.16,5.6Z"/><rect x="532.11" y="592.78" width="53.67" height="2"/><path class="cls-1" d="M520.25,241.59c-.09-1.46-.1-6.58,3.56-9s46.88-9.26,73.79,4.51a13.06,13.06,0,0,1,7.64,9c1.64,6.82,5.12,104.74,1.22,112.54s-54.29,7.32-54.29,7.32Z"/><path d="M554.79,366.93h-2.63l-1-.75L519.28,241.84l0-.19c-.1-1.64-.09-7.19,4-9.91,3.58-2.38,47.33-9.57,74.74,4.42a14,14,0,0,1,8.21,9.66c1.27,5.28,5.48,104.57,1.14,113.23C603.69,366.38,566,366.93,554.79,366.93Zm-1.84-2c19.28.14,50-1.56,52.62-6.76,3.59-7.19.57-104.07-1.3-111.87a12,12,0,0,0-7-8.27l-.12-.05c-26.78-13.71-69.32-6.87-72.77-4.57-3.14,2.09-3.2,6.56-3.13,8Z"/><path class="cls-3" d="M493.54,282.54s-.18-20.42,7.09-26,34.78-18,34.78-18l33.23-.54s29.82,4.21,41.29,18,18.73,64.28,18.73,64.28l-31.15-6.33-3-27.75,3.35,92.19-89.27-.89-2.11-41.55Z"/><path d="M597.81,379.36l-89.27-.89-1-1-2.1-41.45-12.88-53.3,0-.22c0-.86-.1-21,7.48-26.82,7.28-5.6,33.85-17.65,35-18.17l.39-.08,33.24-.54h.15c1.24.17,30.33,4.43,41.91,18.39s18.66,62.69,19,64.76l-1.19,1.13-31.15-6.33-.79-.87,0-.46,2.35,64.76Zm-88.31-2.88,87.29.87-3.32-91.15,2-.14,3,27,29,5.9c-1.28-8.24-8.21-50.2-18.3-62.37-10.81-13-38.92-17.42-40.58-17.67l-32.94.53c-2.44,1.11-27.62,12.62-34.4,17.85-6.53,5-6.7,23.49-6.7,25.1l12.9,53.45Z"/><path class="cls-2" d="M562.61,212.86a74,74,0,0,1,.22-9.28s7.45-4,3.95-12.05-11.47-3-11.48,1.28l-4.8-17.44-30.91-2.73s-7.68,36.62,4.1,52.41l9.76.19,11.9.23"/><path d="M545.33,226.46,523.18,226l-.29-.39c-11.91-16-4.59-51.7-4.27-53.21l.18-.87,32.48,2.87,4.15,15.09a7.87,7.87,0,0,1,4.74-3.16c1.51-.31,5.26-.47,7.52,4.76,3.28,7.56-2.2,11.91-3.91,13a77.24,77.24,0,0,0-.17,8.66l-2,.06a73.21,73.21,0,0,1,.23-9.42l0-.52.47-.25c.27-.15,6.58-3.64,3.5-10.78-1.2-2.77-3.08-4-5.29-3.59s-4.27,2.59-4.27,4.48l0,7.33-6.55-23.83-29.32-2.59c-1,5.56-6.19,36.24,3.8,50.34l21.17.4Z"/><path class="cls-2" d="M534.53,225.26l-4.14,20s.42,8.76,13.35,9.18,25.06-14.57,25.06-14.57a55.94,55.94,0,0,1-5.21-16.65"/><path d="M544.28,255.49h-.57c-13.69-.44-14.31-10-14.32-10.13v-.12l4.16-20.17,2,.4-4.11,19.91c.11,1,1.22,7.75,12.37,8.11,11,.31,21.63-11.18,23.83-13.71a57.69,57.69,0,0,1-5-16.35l2-.32a54.62,54.62,0,0,0,5.1,16.35l.3.58-.41.51C569.07,241.15,557.32,255.49,544.28,255.49Z"/><path d="M519.92,189.43s2.19-5.81,5.31-5.13,1.28,3.52,1.28,3.52Z"/><ellipse cx="523.77" cy="192.76" rx="1.97" ry="1.3" transform="translate(252.57 680.56) rotate(-81.13)"/><ellipse cx="533.32" cy="194.26" rx="1.97" ry="1.3" transform="translate(259.18 691.26) rotate(-81.13)"/><polyline class="cls-2" points="528.04 194.76 524.19 205.05 528.36 205.28"/><polygon points="528.3 206.28 522.78 205.97 527.1 194.41 528.98 195.11 525.61 204.12 528.41 204.28 528.3 206.28"/><path d="M565.79,170.58s-22,11.42-42,4.67l-4.18-2.61-.33,6.08s-9.66-3-2.9-8.86c0,0-12.46-4.87-1.58-10.93,0,0-5.41-15.77,12.4-5.86,0,0-1.63-10.37,4.72-9.79s7,9.54,7,9.54l27.48,7.85Z"/><rect class="cls-4" x="551.58" y="173.63" width="27.97" height="2" transform="matrix(0.06, -1, 1, 0.06, 359.72, 729.59)"/><path d="M538.78,190.25s-1.88-5.91-5-5.39-1.45,3.44-1.45,3.44Z"/><path d="M545.35,224.42s-15.48,23-14.86,21.57,4-20.73,4-20.73Z"/><path d="M530.39,214.9s7.2,1,9.88-4.88"/><path class="cls-1" d="M524.19,241.59s-9.39,1.62-14.27,4.47-10.72,57.27-10.72,57.27l13.65-2,11.36-57.64Z"/><path d="M499.34,304.32l-1.14-1.09c1-9.18,6.16-55.09,11.22-58s14.21-4.52,14.6-4.59l1.17,1,0,2.13,0,.2-11.36,57.64-.84.8ZM523.2,242.8c-2.63.53-9.1,2-12.77,4.12-2.74,1.6-7.24,29.11-10.1,55.24L512,300.47l11.2-56.84Z"/><path class="cls-2" d="M447.56,320.6s37.92,35.27,48.41,33.82c8.42-1.17,1.59-32.06,1.59-32.06Z"/><path d="M495.37,355.46c-11.66,0-47-32.7-48.5-34.13l.72-1.73,50,1.76.94.78c.22,1,5.34,24.52.63,31.28a4.36,4.36,0,0,1-3.07,2A5.71,5.71,0,0,1,495.37,355.46ZM450.22,321.7c11.74,10.68,37.88,32.79,45.61,31.73a2.44,2.44,0,0,0,1.7-1.15c3.37-4.84.71-21.85-.78-28.95Z"/><path class="cls-1" d="M579,237.94s9.29,2.13,14,5.25S597.6,301,597.6,301H580.36l-1.47-60.91Z"/><path d="M597.6,302H580.36l-1-1-1.47-60.92.13-2.21,1.23-.91c.38.09,9.52,2.22,14.32,5.39s5,49.4,5,58.62Zm-16.27-2H596.6c0-26.32-1.5-54.21-4.13-56-3.55-2.34-9.93-4.15-12.53-4.82l-.06.92Z"/><path class="cls-1" d="M581.88,322.77s7.91,31.25,15,34.59l1.78-57.17-25.92-22.52-5.65,38.85Z"/><path d="M596.46,358.27c-7-3.32-14.16-29.85-15.43-34.77l-14.33-6.06-.6-1.07,5.65-38.84,1.65-.62,25.92,22.52.34.79-1.78,57.17ZM568.19,315.9l14.08,6,.58.67c2,7.87,7.9,27.72,13.09,32.92l1.7-54.81-24.17-21Z"/><polygon class="cls-2" points="457.43 338.55 451.31 273.02 485.39 277.22 491.45 342.16 457.43 338.55"/><path d="M491.34,343.15l-34-3.61-.89-.9-6.12-65.52,1.12-1.09,34.08,4.2.87.9,6.06,64.93Zm-33-5.51,32,3.39-5.87-62.92-32.05-3.94Z"/><polyline class="cls-2" points="486.44 288.52 491.45 342.16 524.21 332.31 518.1 266.79 485.39 277.22 486.44 288.52"/><path d="M491.74,343.12l-1.29-.87-6.06-64.94.69-1,32.71-10.43,1.3.86,6.12,65.52-.71,1Zm-4.3-54.7,4.89,52.43,30.81-9.26-5.92-63.47-30.76,9.81Z"/><polygon class="cls-2" points="524.21 332.31 518.1 266.79 552.17 270.99 558.23 335.92 524.21 332.31"/><path d="M558.13,336.92l-34-3.61-.89-.9-6.12-65.53,1.12-1.08L552.3,270l.87.9,6.06,64.94Zm-33-5.52,32,3.4-5.87-62.92-32-3.95Z"/><polygon class="cls-2" points="591 326.08 584.88 260.56 552.17 270.99 558.23 335.92 591 326.08"/><path d="M558.52,336.88l-1.28-.86-6.06-64.94.69-1.05,32.71-10.43,1.3.86L592,326l-.7,1.05Zm-5.28-65.19,5.88,62.92,30.81-9.25L584,261.89Z"/><path class="cls-2" d="M615.35,332a24.5,24.5,0,0,1-7.23-2.21c-6.71-3.49-16.54-20.26-16.54-20.26l-3-1.09s-11.43,1.56-13.52.84-2.22-1.71-2.22-1.71-4.83-1.31-3.78-3.38c0,0-4-2.26-1.93-5.44,0,0-1-3.12,1.88-7.09s8.45-9.13,9.75-9.09a15.46,15.46,0,0,1,10.34,6.67,63.57,63.57,0,0,0,4.8,6.71s25.6,7.24,31.39,13.79,3,22.06,2,22.51a23.36,23.36,0,0,1-5.84.32"/><path d="M622.77,333.62l-1.42,0,.06-2a31.78,31.78,0,0,0,5.21-.19c.88-2.07,2.87-15.34-2.12-21-5.53-6.25-30.66-13.41-30.91-13.49l-.47-.29a64.15,64.15,0,0,1-4.9-6.83,14.63,14.63,0,0,0-9.54-6.22c-1,.23-6,4.78-8.91,8.68-2.52,3.46-1.76,6.09-1.72,6.2l-.12.85a2.18,2.18,0,0,0-.38,1.73,4.45,4.45,0,0,0,2,2.29l.4,1.32c-.06.12,0,.16,0,.23.29.65,2,1.43,3.17,1.74l.73.83a.65.65,0,0,0,0-.1s.22.52,1.57,1,8.42-.25,13.07-.88l.47,0,3,1.09.52.44c.1.16,9.77,16.56,16.14,19.87a23.44,23.44,0,0,0,6.94,2.12l-.33,2a25.46,25.46,0,0,1-7.53-2.31c-6.45-3.35-15.32-17.93-16.76-20.33l-2.47-.89c-2.41.33-11.62,1.49-13.74.76a4.67,4.67,0,0,1-2.62-1.82c-1.07-.34-3.34-1.22-4-2.72a2.29,2.29,0,0,1-.19-1.06,6,6,0,0,1-2.26-3.11,4,4,0,0,1,.42-2.92c-.21-1.12-.4-4.06,2.13-7.52s8.44-9.5,10.56-9.5h0a16.34,16.34,0,0,1,11.13,7.12,76.67,76.67,0,0,0,4.54,6.38c3,.87,25.93,7.63,31.57,14,4.78,5.41,4.08,16.12,3,21-.53,2.47-1,2.87-1.4,3.06A17.94,17.94,0,0,1,622.77,333.62Zm3.76-2Z"/><path class="cls-2" d="M567.09,298.78s5.65-5.73,9.14-7.89"/><path d="M567.81,299.48l-1.43-1.4c.23-.24,5.78-5.85,9.33-8l1,1.7C573.41,293.81,567.86,299.43,567.81,299.48Z"/><path class="cls-2" d="M569,304.22c.27-.39,11.34-8.06,11.34-8.06"/><path d="M569.73,304.91l-.47-.52-1-.76c.12-.17.37-.52,11.58-8.29l1.14,1.64C576.89,299.78,570.27,304.42,569.73,304.91Z"/><path class="cls-2" d="M572.74,307.6s7.4-2.45,9.14-3.19"/><path d="M573.06,308.55l-.63-1.9c.07,0,7.38-2.45,9.06-3.16l.78,1.84C580.52,306.07,573.36,308.45,573.06,308.55Z"/><path class="cls-2" d="M462.67,303.89s-12.6-6.94-14.05-7.32-5.49,3.55-1.86,6.76c0,0-3.48,4.76-1.8,6.45s-1,9.88,2.65,10.82,13.35-.91,14.54-1.76c.55-.4,1.72-3.11,1.37-4.35-.54-1.88.9-.87,1.13-2.4.34-2.34-1.59-2.9-1.14-3.24C465.64,307.27,464.1,304.78,462.67,303.89Z"/><path d="M450.31,321.85a12.31,12.31,0,0,1-2.94-.28c-3-.76-2.89-4.49-2.82-7.49,0-1.28.07-3.22-.3-3.6-1.83-1.83.14-5.4,1.22-7a4.51,4.51,0,0,1-.6-5.25c.82-1.53,2.58-3,4-2.59S461,301.85,463.16,303l0,0a5,5,0,0,1,2.36,3.75,3.12,3.12,0,0,1-.79,2.24,3.86,3.86,0,0,1,.87,3.2,2.11,2.11,0,0,1-1.22,1.72,2.23,2.23,0,0,0,.06.26c.46,1.59-.82,4.76-1.75,5.43C461.52,320.52,454.88,321.85,450.31,321.85Zm-1.94-24.31a3.33,3.33,0,0,0-1.9,2,2.63,2.63,0,0,0,.95,3.09l.14,1.33c-1.4,1.93-2.51,4.54-1.9,5.15,1,1,.94,2.87.89,5.06-.07,2.91,0,5.17,1.31,5.5,3.53.91,12.74-1,13.71-1.61a6.12,6.12,0,0,0,1-3.25c-.37-1.29-.1-2,.89-2.56l.17-.09s0-.06,0-.17a2,2,0,0,0-.67-1.9,1.49,1.49,0,0,1-.54-1.18,1.11,1.11,0,0,1,.47-.82,1.31,1.31,0,0,0,.64-1.17,3.05,3.05,0,0,0-1.39-2.12C456.13,301.43,449.25,297.77,448.37,297.54Z"/><line class="cls-2" x1="463.51" y1="308.85" x2="454.44" y2="305.8"/><rect x="457.97" y="302.54" width="2" height="9.58" transform="translate(21.37 644.39) rotate(-71.41)"/><line class="cls-2" x1="464.15" y1="313.54" x2="453.14" y2="311.44"/><rect x="457.64" y="306.89" width="2" height="11.2" transform="translate(65.94 704.65) rotate(-79.23)"/><line class="cls-2" x1="462.78" y1="317.18" x2="453.55" y2="315.85"/><rect x="457.17" y="311.86" width="2" height="9.32" transform="translate(79.53 724.85) rotate(-81.8)"/><path class="cls-4" d="M580.24,552.53l-.66-6,2-.22.66,6Zm-1.32-11.93-.66-6,2-.22.66,6Zm-1.32-11.93-.67-6,2-.22.66,6Zm-1.33-11.92-.66-6,2-.22.66,6ZM575,504.82l-.66-6,2-.22.66,6Zm-1.32-11.93-.66-6,2-.22.66,6ZM572.31,481l-.66-6,2-.22.66,6ZM571,469l-.42-3.76.64-2.51,1.94.5-.55,2.15.38,3.4Zm3.65-11.58-1.94-.5,1.5-5.81,1.93.5Zm3-11.62-1.93-.5,1.49-5.81,1.94.49Zm3-11.63-1.94-.49,1.49-5.82,1.94.5Zm3-11.62-1.94-.5,1.49-5.81,1.94.5Zm3-11.62-1.94-.5.51-2-.43-3.59,2-.23.46,3.95ZM584,399l-.7-6,2-.24.71,6Zm-1.41-11.91-.71-6,2-.24.71,6Z"/><path class="cls-4" d="M548.38,524.39l-1.93-5.72,1.9-.64c1,3.06,1.75,5.18,1.93,5.71ZM544.52,513l-1.92-5.7,1.9-.63,1.92,5.7Zm-3.84-11.39-1.92-5.7,1.89-.64,1.92,5.7Zm-3.85-11.4-1.92-5.71,1.89-.63,1.93,5.7ZM533,478.76l-.37-1.1-.13-.13.08-5,2,0-.07,4.46c0,.16.13.38.23.69l.16.46Zm1.69-12.25-2,0,.1-6,2,0Zm.21-12-2,0,.1-6,2,0Zm.21-12-2,0,.1-6,2,0Zm.2-12-2,0,.11-6,2,0Zm.21-12-2,0,.11-6,2,0Zm.21-12-2,0,0-2.14,2,0Z"/><circle class="cls-2" cx="582.92" cy="585.71" r="3.23"/><path d="M582.92,589.94a4.23,4.23,0,1,1,4.23-4.23A4.24,4.24,0,0,1,582.92,589.94Zm0-6.46a2.23,2.23,0,1,0,2.23,2.23A2.23,2.23,0,0,0,582.92,583.48Z"/><line class="cls-2" x1="508.09" y1="368.37" x2="574.69" y2="369.29"/><rect x="540.39" y="335.53" width="2" height="66.6" transform="translate(165.14 905.09) rotate(-89.21)"/><circle cx="580.36" cy="369.29" r="1.4"/><path class="cls-3" d="M524.19,247.38s2.5,15,15.18,14.17"/><path d="M538.32,262.59c-12.47,0-15.09-14.9-15.11-15l2-.33c.1.58,2.48,14.16,14.13,13.34l.13,2C539.06,262.57,538.69,262.59,538.32,262.59Z"/><path class="cls-3" d="M577.31,240.14s-7.59,13.12-22,18.74"/><path d="M555.64,259.81l-.73-1.86c13.93-5.42,21.46-18.18,21.53-18.31l1.73,1C577.86,241.19,570.24,254.13,555.64,259.81Z"/><path d="M556.74,317h-.12l-.85-.07-.08-.93a3.75,3.75,0,0,1,.15-1.1c-.28-.22-1.09-.59-3.36-.76l-1-.06a10,10,0,0,1-4.4-.9,11.2,11.2,0,0,1-1-.66,3.63,3.63,0,0,0-2-.89c-.24-.06-.49-.11-.73-.18a10.48,10.48,0,0,1-4.33-3l-9.74-9.79a19.52,19.52,0,0,0-3.76-3.19c-.41-.24-.84-.45-1.27-.66a13.71,13.71,0,0,1-2.12-1.21,15,15,0,0,1-2.88-2.91c-.72-.24-2.25-.53-3.41-.75s-1.92-.37-2.37-.52a7,7,0,0,0-4.12,0c-3.12.95-5.08,4.06-7,7.06-.45.71-.89,1.41-1.35,2.08a35.34,35.34,0,0,1-13.22,11.24l-.69.34L479,300.74c-1.86-2.13-4-4.56-6.66-5.77a21.25,21.25,0,0,0-4.32-1.23c-1-.2-2-.41-2.93-.7-7.25-2.17-14.08-10.43-14.6-17.68l2-.15c.47,6.52,6.63,14,13.18,15.91.9.27,1.81.46,2.78.67a22.85,22.85,0,0,1,4.73,1.36c3.07,1.39,5.34,4,7.34,6.28l7.07,8.1a33.18,33.18,0,0,0,11.77-10.22c.44-.65.87-1.34,1.3-2,2.09-3.31,4.26-6.73,8.09-7.9a8.91,8.91,0,0,1,5.31.06c.33.11,1.25.28,2.14.45a23.24,23.24,0,0,1,4.12,1l.29.13.16.29a12.2,12.2,0,0,0,2.51,2.59,11.56,11.56,0,0,0,1.84,1c.47.23.94.47,1.39.73a20.85,20.85,0,0,1,4.16,3.51l9.75,9.79a8.87,8.87,0,0,0,3.46,2.52,5.82,5.82,0,0,0,.6.14,7.26,7.26,0,0,1,1.14.31,7.43,7.43,0,0,1,1.55.9,8.92,8.92,0,0,0,.82.54,8.29,8.29,0,0,0,3.54.66c.36,0,.72,0,1.07.06,2.35.18,3.81.59,4.62,1.3l.49-.18a6.78,6.78,0,0,1,1-.32,6.42,6.42,0,0,1,4,.81,11.24,11.24,0,0,0,1.61.62c1.83.49,3.94-.19,5.64-.73a9.89,9.89,0,0,0,1.45-.53c.21-.1.42-.22.62-.34s.54-.3.82-.43a11.45,11.45,0,0,1,1.84-.63c3.2-.9,6.82-1.92,10.45-1.5.35,0,1,.06,1.64.08a17.3,17.3,0,0,1,3,.23l-.46,1.95a18.73,18.73,0,0,0-2.61-.18c-.71,0-1.37,0-1.81-.09-3.25-.38-6.66.58-9.68,1.43a10.16,10.16,0,0,0-1.53.52c-.23.11-.46.24-.68.36s-.49.28-.74.4a12.84,12.84,0,0,1-1.71.64c-1.95.62-4.38,1.39-6.76.75a12.39,12.39,0,0,1-1.91-.73,4.92,4.92,0,0,0-2.81-.68,4.86,4.86,0,0,0-.7.24l-.49.18a1.42,1.42,0,0,1-.05.22C557.77,316.11,557.57,317,556.74,317Z"/><path d="M459.12,338.91l-1.91-.57c1.2-4,6-8.56,10.08-9.63l.19,0c3.57-.93,7.26-1.9,8.94-4.76a12.62,12.62,0,0,0,1.26-4.34c.12-.7.25-1.42.42-2.13a16.92,16.92,0,0,1,7.72-10.56l1,1.71a15.19,15.19,0,0,0-6.81,9.31c-.15.65-.27,1.31-.39,2a14.2,14.2,0,0,1-1.5,5c-2.1,3.57-6.39,4.7-10.17,5.69l-.19,0C464.41,331.54,460.12,335.63,459.12,338.91Z"/><path d="M529.19,297.52l-.14,0-.69-.22,0-1.44.69-.24.29.85-.25-.86c.09,0,8.92-2.89,11.56-6.53l.31-.43a8.12,8.12,0,0,1,1.67-1.92,10.15,10.15,0,0,1,1-.63,4.84,4.84,0,0,0,.9-.59,5,5,0,0,0,.81-1.08,8.63,8.63,0,0,1,.78-1.11,5.23,5.23,0,0,1,6.67-.87c1-.08,3-1.22,4.28-2a20.35,20.35,0,0,1,2.43-1.3c3.34-1.31,7.12-2.8,9.4-5.76.27-.36.52-.73.77-1.1a9.6,9.6,0,0,1,2.45-2.77,9.75,9.75,0,0,1,3.89-1.33,17.87,17.87,0,0,1,9.8,1.78l-.93,1.77a15.82,15.82,0,0,0-8.52-1.58,7.92,7.92,0,0,0-3.11,1,8.07,8.07,0,0,0-1.93,2.24c-.27.41-.54.81-.84,1.19-2.61,3.4-6.84,5.07-10.24,6.41a19.31,19.31,0,0,0-2.16,1.17c-2,1.19-4.18,2.42-5.74,2.24l-.29,0-.22-.18a3.18,3.18,0,0,0-4.19.4,6.66,6.66,0,0,0-.61.87,5.29,5.29,0,0,1-2.41,2.35,4.73,4.73,0,0,0-2,2l-.32.45c-2.43,3.34-10.2,6.72-12.58,7.22v0A2,2,0,0,1,529.19,297.52Z"/><circle cx="497.24" cy="314.52" r="2.67"/><circle cx="531.29" cy="287.27" r="1.94"/><circle cx="565.15" cy="322.8" r="1.94"/><path d="M511.86,398.91l-.31-2c.14,0,14.24-2.31,16.59-11.63l1.94.49C527.41,396.4,512.49,398.81,511.86,398.91Z"/><path d="M581.62,397.49c-.73-.1-17.9-2.5-21-13.1l1.92-.56c2.73,9.35,19.17,11.65,19.34,11.67Z"/><path class="cls-2" d="M397.41,381.83l-6.49,5.91s-1,2.81,9.23,7.17l7.13,2,2.27-8Z"/><path d="M407,397.88l-7.25-2.05c-10.27-4.39-10.09-7.55-9.79-8.41l.27-.41,6.5-5.92,1.18-.12,12.14,7.13.45,1.14-2.27,8ZM400.48,394l6.11,1.73,1.78-6.26-10.83-6.36-5.6,5.09C392.18,388.82,393.46,391,400.48,394Z"/><line class="cls-3" x1="398.75" y1="373.8" x2="411.32" y2="380.98"/><rect x="404.04" y="370.15" width="2" height="14.48" transform="translate(-123.58 541.83) rotate(-60.26)"/><polygon class="cls-1" points="408.57 275.28 409.77 341.14 400.7 365.16 408.57 275.28"/></svg>