<svg id="Niezaleznosc" xmlns="http://www.w3.org/2000/svg" xmlns:xlink="http://www.w3.org/1999/xlink" viewBox="0 0 662.06 662.06"><defs><style>.cls-1{fill:none;}.cls-2{fill:#c21333;}.cls-3{fill:#030303;}.cls-4{clip-path:url(#clip-path);}.cls-5{fill:#fff;}.cls-6{fill:#961430;}</style><clipPath id="clip-path"><rect class="cls-1" x="20.85" y="-28.44" width="620.36" height="636.32"/></clipPath></defs><path class="cls-2" d="M56.11,460.47c1.74-.12,39.76-11.92,90.75-27.94"/><path class="cls-3" d="M56.17,461.46l-.13-2,.07,1-.08-1c1.29-.15,18-5.12,90.53-27.89l.6,1.91C67.81,458.42,57.23,461.4,56.17,461.46Z"/><circle cx="146.83" cy="473.26" r="10.6"/><g class="cls-4"><circle class="cls-2" cx="367.12" cy="332.76" r="35.9"/><polygon class="cls-5" points="487.95 551.13 492.01 568.63 497.73 577.23 508.1 570.76 507.47 559.2 487.95 551.13"/><path class="cls-3" d="M497.43,578.59,491.08,569l0-.18-4.5-19.39,21.9,9,.69,12.79ZM493,568.22l5.07,7.65,9.05-5.65-.56-10.34-17.14-7.08Z"/><path class="cls-5" d="M411.78,440.92,389.5,452.64a16.52,16.52,0,0,0-7.19,9.13L356.58,545l20.91,3.3,18.24-35.49"/><path class="cls-3" d="M378.05,549.38l-22.77-3.59.35-1.1,25.72-83.22a17.56,17.56,0,0,1,7.63-9.68L411.32,440l.93,1.77L390,453.53a15.51,15.51,0,0,0-6.71,8.53l-25.38,82.11,19.05,3,17.91-34.85,1.78.92Z"/><polyline class="cls-5" points="403.02 498.61 413.3 478.61 474.65 460.61 503.08 437.39 454.02 418.7 421.8 435.65"/><polygon class="cls-3" points="403.91 499.07 402.13 498.15 412.6 477.77 474.17 459.71 501.11 437.71 454.09 419.8 422.26 436.54 421.33 434.77 453.96 417.61 454.38 417.77 505.05 437.07 475.13 461.51 474.93 461.57 413.99 479.45 403.91 499.07"/><line class="cls-5" x1="395.73" y1="512.79" x2="397.51" y2="509.32"/><rect class="cls-3" x="394.67" y="510.05" width="3.9" height="2" transform="translate(-239.19 630.32) rotate(-62.81)"/><path class="cls-5" d="M456.9,446l8.94-45.15,43.47,17.63h0c-1.56,22.24-6.27,40.3-7.6,42.39L485.52,485,513,559.2H486.68l-33.9-67.06a23,23,0,0,1-2.07-14.92L456.9,446"/><path class="cls-3" d="M514.47,560.2h-28.4l-34.18-67.61A23.9,23.9,0,0,1,449.72,477l6.2-31.25,1,.2-1-.2,9.18-46.33,45.26,18.36-.05.72c-1.51,21.46-6.13,40.3-7.75,42.86l-15.92,23.74Zm-27.17-2h24.3l-27.19-73.34,16.47-24.57c1.23-1.94,5.79-19.59,7.39-41.18l-41.68-16.9-14.9,75.2a21.92,21.92,0,0,0,2,14.28Z"/><polygon class="cls-2" points="457.15 341.69 453.49 418.67 508.32 422.42 526.29 355.61 457.15 341.69"/><path class="cls-3" d="M509.07,423.47l-56.63-3.87,3.76-79.12,71.33,14.36Zm-54.54-5.73,53,3.63,17.48-65-67-13.48Z"/><path class="cls-2" d="M533.1,357.27s0-18.14-20.25-30.66l-14.62.59-10.51-5.56a33.11,33.11,0,0,0-21.35,2.84l-20.3,29"/><path class="cls-3" d="M532.1,357.27c0-.17-.28-17.6-19.52-29.65l-14.58.59-10.64-5.63A32.52,32.52,0,0,0,467,325.27l-20.15,28.8-1.64-1.14L465.7,323.7l.23-.11a33.81,33.81,0,0,1,22-2.92l.22.09,10.27,5.43,14.65-.59.26.16c20.49,12.66,20.73,30.75,20.73,31.51Z"/><path class="cls-5" d="M514,309.1a50.11,50.11,0,0,1,1.91-5.9,6.13,6.13,0,0,0,4.81-7c-.7-5.85-6.76-4.1-7.59-1.36l.25-12.07-19.26-7.62s-11.87,22-7.34,34.32l6.22,2,7.57,2.41"/><path d="M500.27,314.84,486,310.31l-.17-.46c-4.63-12.61,6.9-34.22,7.4-35.13l.42-.78,20.73,8.2-.2,10a5.58,5.58,0,0,1,3.32-.82c2.3.2,3.87,2,4.21,4.77a7,7,0,0,1-5.07,7.93,52.34,52.34,0,0,0-1.68,5.3l-1.93-.51a49.87,49.87,0,0,1,2-6l.2-.49.52-.11a5.06,5.06,0,0,0,4-5.86c-.16-1.3-.7-2.87-2.4-3a3.32,3.32,0,0,0-3.24,1.83l-2.11,7,.38-18.7-17.77-7c-2,3.93-10.48,21.69-7,32.25l13.31,4.22Z"/><path class="cls-5" d="M493.68,311.7l-6.45,12s-1.4,5.69,6.8,8.41,18.8-4.57,18.8-4.57a37.37,37.37,0,0,1-.17-11.64"/><path d="M498,333.76a13.88,13.88,0,0,1-4.33-.66c-9-3-7.47-9.53-7.45-9.6l.09-.23,6.45-12,1.76.94-6.38,11.91c-.12.73-.49,4.91,6.16,7.12s15.18-2.72,17.39-4.1a38.64,38.64,0,0,1-.06-11.29l2,.26a36,36,0,0,0,.16,11.32l.12.65-.54.37C513,328.66,505.5,333.76,498,333.76Z"/><path d="M490.34,287s3.66-2,4.92-.23-.91,2.32-.91,2.32Z"/><ellipse cx="492.02" cy="292.15" rx="1.32" ry="0.87" transform="translate(51.06 656.83) rotate(-70.29)"/><ellipse cx="498.1" cy="294.33" rx="1.32" ry="0.87" transform="translate(53.04 663.99) rotate(-70.29)"/><polyline class="cls-5" points="495.06 293.24 491.73 299.77 494.48 300.24"/><polygon points="494.31 301.23 490.22 300.53 494.17 292.79 495.95 293.69 493.24 299.02 494.65 299.26 494.31 301.23"/><path d="M524.07,282.65s-16.27,3.12-27.77-5l-2.18-2.46L492.75,279s-5.61-3.77-.17-6.22c0,0-7.05-5.48,1.06-7.29,0,0-.46-11.12,9.05-1.4,0,0,.92-6.94,4.88-5.37s2.64,7.43,2.64,7.43l16.1,10.24Z"/><rect class="cls-3" x="513.83" y="284.2" width="18.67" height="2" transform="translate(78.36 681.66) rotate(-70.31)"/><path d="M503.77,290.89s-2.16-3.54-4.12-2.71-.4,2.46-.4,2.46Z"/><path d="M500.76,313.22s-14.27,11.79-13.6,11,6.52-12.5,6.52-12.5Z"/><path class="cls-5" d="M508.16,571.41l.94,16.07a3.77,3.77,0,0,1-3.33,3.65c-10,1.22-39.68,1.5-52.43-2.65-1.43-.47-2-2.2-1.79-3.69l.38-2.34s1.31-2.16,5.3-2.77,7.46-.61,8.17-1,22.91-13.08,22.91-13.08a7.24,7.24,0,0,1,2.84-.16c1.76.2,3.53,4.57,3.53,4.57s1.06,3.69,3.7,4c1.6.18,3.37-4.18,6-5.27A2.77,2.77,0,0,1,508.16,571.41Z"/><path d="M487.68,592.92c-12.14,0-26.55-.85-34.65-3.49-2-.65-2.76-3-2.47-4.8l.41-2.53.1-.17c.07-.1,1.61-2.56,6-3.24,2-.3,3.8-.45,5.27-.58a19.42,19.42,0,0,0,2.61-.3c.59-.31,16.7-9.52,22.85-13l.18-.08a8.06,8.06,0,0,1,3.28-.2c2.18.25,3.87,4,4.34,5.19l0,.1s.95,3.05,2.85,3.27c.33-.07,1.21-1.16,1.73-1.81a10.68,10.68,0,0,1,3.73-3.39,3.77,3.77,0,0,1,5.21,3.55l.93,16a4.76,4.76,0,0,1-4.2,4.7A174.77,174.77,0,0,1,487.68,592.92Zm-34.8-10.07-.34,2.1c-.17,1,.2,2.28,1.11,2.58,12.44,4.05,42.23,3.8,52,2.61a2.77,2.77,0,0,0,2.45-2.68l-.94-16v0a1.76,1.76,0,0,0-.77-1.52,1.72,1.72,0,0,0-1.67-.17,9.37,9.37,0,0,0-2.94,2.79c-1.16,1.45-2.18,2.7-3.51,2.54-3.1-.35-4.36-4.11-4.53-4.64-.81-2-2.1-3.85-2.7-3.92a6.86,6.86,0,0,0-2.34.1c-2.73,1.56-22.15,12.68-22.85,13a10.91,10.91,0,0,1-3.33.51c-1.44.12-3.23.27-5.14.56A6.92,6.92,0,0,0,452.88,582.85Z"/><path d="M480.7,586.46a128,128,0,0,1-29-3l.46-1.95c26.46,6.26,56.56.75,56.86.69l.37,2A175.07,175.07,0,0,1,480.7,586.46Z"/><path d="M467.69,582.92,467,581c9.55-3.41,24.22-8.73,25.46-9.4a4.09,4.09,0,0,0,1.67-1.34l1.83.81a5.39,5.39,0,0,1-2.54,2.28C491.66,574.36,470.14,582.05,467.69,582.92Z"/><path d="M467.6,585c-1.35-4.47-3-5.41-3-5.42l.87-1.8c.24.11,2.42,1.26,4,6.64Z"/><path d="M473.92,585.62c-1.34,0-2.8-.07-4.4-.21a1.5,1.5,0,1,1,.27-3c11.51,1,15.1-2.14,17.72-4.45a12,12,0,0,1,2.47-1.83c2.61-1.3,3.87-.86,5.86,0a22.27,22.27,0,0,0,3.41,1.25,1.67,1.67,0,0,0,1.38-.21c1.92-1.12,3.58-5.25,4.17-7.59a1.5,1.5,0,0,1,2.91.74c-.19.74-1.94,7.32-5.57,9.44a4.69,4.69,0,0,1-3.68.51,26.66,26.66,0,0,1-3.83-1.39c-1.55-.68-1.83-.81-3.32-.07a9.68,9.68,0,0,0-1.82,1.39C487,582.43,483.37,585.62,473.92,585.62Z"/><path d="M493.15,569.73a2.94,2.94,0,0,1,.61,1,1.25,1.25,0,0,1-.12,1.11,1.37,1.37,0,0,1-1.69.28,5.2,5.2,0,0,1-1.39-1.22,12.31,12.31,0,0,0-2.5-2c-.49-.31-2.27-.88-2.06-1.67.39-1.49,4,.16,4.64.54A9.26,9.26,0,0,1,493.15,569.73Z"/><path d="M490.78,572.42a2.93,2.93,0,0,1,.24,1.12,1.28,1.28,0,0,1-.48,1,1.38,1.38,0,0,1-1.69-.3,5.35,5.35,0,0,1-.9-1.62,12.63,12.63,0,0,0-1.66-2.78c-.36-.45-1.84-1.59-1.38-2.27.87-1.27,3.68,1.49,4.19,2.07A9.34,9.34,0,0,1,490.78,572.42Z"/><path d="M488.11,572.57a3.31,3.31,0,0,1,.53,1,1.32,1.32,0,0,1-.12,1.09,1.1,1.1,0,0,1-1.5.13,5.19,5.19,0,0,1-1.22-1.33,13.33,13.33,0,0,0-2.2-2.24c-.43-.34-2-1.06-1.81-1.83.37-1.43,3.52.51,4.12.94A9.47,9.47,0,0,1,488.11,572.57Z"/><path d="M485.32,574.18a2.39,2.39,0,0,1,.17,1,1.07,1.07,0,0,1-.46.85,1.22,1.22,0,0,1-1.47-.33,4.45,4.45,0,0,1-.73-1.42,10.76,10.76,0,0,0-1.35-2.44c-.31-.41-1.56-1.44-1.13-2,.81-1.07,3.17,1.41,3.59,1.93A7.72,7.72,0,0,1,485.32,574.18Z"/><path d="M483.17,574.59a2.3,2.3,0,0,1,.32.82,1,1,0,0,1-.24.82,1,1,0,0,1-1.3,0,4,4,0,0,1-.88-1.11,9.44,9.44,0,0,0-1.58-1.88c-.33-.3-1.58-1-1.31-1.54.5-1.06,2.94.68,3.39,1.05A7,7,0,0,1,483.17,574.59Z"/><path d="M481,576.28a2.13,2.13,0,0,1,0,.87,1,1,0,0,1-.5.69,1,1,0,0,1-1.22-.46,3.86,3.86,0,0,1-.45-1.34,9.2,9.2,0,0,0-.86-2.31c-.21-.39-1.16-1.45-.72-1.89.83-.83,2.55,1.63,2.85,2.13A7,7,0,0,1,481,576.28Z"/><path d="M479.05,576.19a2.4,2.4,0,0,1,.26.81,1,1,0,0,1-.25.78.84.84,0,0,1-1.14-.11,3.74,3.74,0,0,1-.73-1.12,9.21,9.21,0,0,0-1.32-1.92c-.28-.31-1.35-1-1.1-1.57.48-1,2.56.83,3,1.22A6.9,6.9,0,0,1,479.05,576.19Z"/><path d="M476.94,577.53a1.89,1.89,0,0,1,0,.75.82.82,0,0,1-.47.57.93.93,0,0,1-1.05-.45,3.26,3.26,0,0,1-.35-1.16,8.43,8.43,0,0,0-.68-2c-.17-.35-1-1.29-.57-1.66.76-.68,2.18,1.51,2.43,2A5.84,5.84,0,0,1,476.94,577.53Z"/><path d="M475.42,577.53a1.74,1.74,0,0,1,.2.66.86.86,0,0,1-.29.66.91.91,0,0,1-1.11,0,2.6,2.6,0,0,1-.64-.89,6.8,6.8,0,0,0-1.17-1.51c-.26-.24-1.26-.78-1-1.23.53-.86,2.45.53,2.8.83A4.65,4.65,0,0,1,475.42,577.53Z"/><path d="M473.27,578.77a1.35,1.35,0,0,1,0,.63.86.86,0,0,1-.49.5.88.88,0,0,1-1-.3,2.22,2.22,0,0,1-.27-1,5.22,5.22,0,0,0-.54-1.63c-.14-.28-.86-1-.45-1.34.78-.62,2,1.11,2.25,1.46A4,4,0,0,1,473.27,578.77Z"/><path d="M472.05,578.81a1.42,1.42,0,0,1,.36.56.7.7,0,0,1-.19.66,1.25,1.25,0,0,1-1.25.19,2.81,2.81,0,0,1-.9-.69,7.13,7.13,0,0,0-1.63-1.15c-.34-.17-1.58-.47-1.36-.94.42-.88,2.87,0,3.32.23A5.22,5.22,0,0,1,472.05,578.81Z"/><path d="M470,580.73a.52.52,0,0,1,0,.38c0,.11-.2.18-.44.16a2.18,2.18,0,0,1-1.15-.52,2.06,2.06,0,0,1-.45-.7,5.65,5.65,0,0,0-.85-1.22c-.2-.22-1.11-.93-.71-1,.74-.13,2.4,1.38,2.69,1.68A4,4,0,0,1,470,580.73Z"/><path d="M469.4,579.53a2.7,2.7,0,0,1,.62.77,1,1,0,0,1-.94,1.47,2.39,2.39,0,0,1-1.09-.33A6.63,6.63,0,0,1,466.1,580a1.39,1.39,0,0,1-.43-1.42C466.46,576.88,468.73,578.9,469.4,579.53Z"/><path d="M490.23,572.74a13.68,13.68,0,0,0,4.39-2.18.66.66,0,0,1,.42.81,1.63,1.63,0,0,1-.59.81c-2.6,2.31-6.7,3.46-10,4.55-9.85,3.24-18.8,6.92-16.86,4.66a33.25,33.25,0,0,1,3.87-1.68c1.78-.82,3.64-1.48,5.49-2.13l14.27-5"/><polyline class="cls-2" points="470.92 322.64 433.79 339.13 385.68 339.27 380.62 351.21 423.83 360.16 455.98 357.9"/><polygon class="cls-3" points="423.76 361.17 423.63 361.14 379.22 351.94 385.01 338.27 433.58 338.13 470.52 321.72 471.33 323.55 434.01 340.13 433.8 340.13 386.34 340.27 382.01 350.48 423.9 359.15 455.91 356.91 456.05 358.9 423.76 361.17"/><path class="cls-5" d="M378.3,554.33l4.19,16.15c0,1.87.43,3.34-1.42,3.65-9.9,1.67-43.84,3.32-56.76-.25-1.45-.4-2.13-2.11-2-3.6l.27-2.36s1.22-2.22,5.17-3,7.43-.95,8.12-1.34,22.29-14.11,22.29-14.11a7.25,7.25,0,0,1,2.84-.29c1.76.12,3.73,4.41,3.73,4.41s1.23,3.63,3.87,3.81c1.61.11,3.18-4.33,5.72-5.53A2.77,2.77,0,0,1,378.3,554.33Z"/><path d="M349.76,577c-10.12,0-20-.58-25.72-2.16-2-.56-2.89-2.83-2.68-4.68l.29-2.55.09-.17c.06-.1,1.5-2.64,5.86-3.51,2-.39,3.78-.63,5.24-.82a20.12,20.12,0,0,0,2.59-.42c.58-.33,16.25-10.27,22.23-14.07l.18-.09a8.23,8.23,0,0,1,3.26-.36c2.19.15,4.06,3.86,4.58,5l0,.1s1.08,3,3,3.13c.32-.07,1.15-1.2,1.65-1.88a10.45,10.45,0,0,1,3.57-3.55,3.72,3.72,0,0,1,3.57.2,3.77,3.77,0,0,1,1.79,3l4.2,16.28c0,.26,0,.52,0,.76.07,1.47.17,3.49-2.28,3.9C375.46,576.1,362.41,577,349.76,577Zm-26.17-8.73-.24,2.12c-.12,1,.31,2.27,1.23,2.52,12.64,3.49,46.05,2,56.33.24.59-.1.7-.12.61-1.83,0-.22,0-.46,0-.7l-4.19-16.27a1.81,1.81,0,0,0-.85-1.49,1.74,1.74,0,0,0-1.67-.1,9.43,9.43,0,0,0-2.81,2.93c-1.09,1.5-2,2.8-3.4,2.7-3.1-.22-4.54-3.91-4.73-4.43-.9-2-2.27-3.75-2.87-3.79a6.87,6.87,0,0,0-2.34.2c-2.65,1.68-21.54,13.68-22.23,14.06a10.7,10.7,0,0,1-3.3.67c-1.43.18-3.21.41-5.11.79A7,7,0,0,0,323.59,568.27Z"/><path d="M344.32,570.79a119.36,119.36,0,0,1-21.88-1.88l.37-2c26.7,5,56.54-1.83,56.84-1.9l.45,2A176.62,176.62,0,0,1,344.32,570.79Z"/><path d="M338.39,567.67l-.76-1.85c9.39-3.84,23.8-9.82,25-10.55a4.09,4.09,0,0,0,1.61-1.41l1.87.72a5.46,5.46,0,0,1-2.44,2.4C362,558,340.79,566.69,338.39,567.67Z"/><path d="M338.39,569.75c-1.55-4.4-3.22-5.27-3.24-5.28l.79-1.83c.25.1,2.47,1.14,4.34,6.45Z"/><path d="M342.65,570.13c-.74,0-1.51,0-2.32,0a1.51,1.51,0,0,1-1.43-1.57,1.49,1.49,0,0,1,1.56-1.43c11.56.5,15-2.83,17.5-5.25a12,12,0,0,1,2.39-2c2.55-1.41,3.82-1,5.86-.25a22.17,22.17,0,0,0,3.46,1.09,1.67,1.67,0,0,0,1.37-.27c2.1-1.36,3.49-6.19,3.81-7.77a1.5,1.5,0,0,1,2.94.6c-.15.75-1.59,7.4-5.12,9.69a4.69,4.69,0,0,1-3.66.67,26.88,26.88,0,0,1-3.89-1.21c-1.58-.61-1.87-.73-3.32.08a9.78,9.78,0,0,0-1.75,1.47C357.48,566.46,353.69,570.13,342.65,570.13Z"/><path d="M363.22,553.33a3.07,3.07,0,0,1,.66.95,1.29,1.29,0,0,1-.07,1.12,1.37,1.37,0,0,1-1.67.36,5.08,5.08,0,0,1-1.45-1.16,12.56,12.56,0,0,0-2.59-1.93c-.51-.29-2.31-.78-2.14-1.58.32-1.51,4,0,4.66.33A9.25,9.25,0,0,1,363.22,553.33Z"/><path d="M361,556.13a2.87,2.87,0,0,1,.3,1.11,1.25,1.25,0,0,1-.44,1,1.38,1.38,0,0,1-1.7-.23,5.29,5.29,0,0,1-1-1.58,12.31,12.31,0,0,0-1.78-2.69c-.38-.44-1.91-1.51-1.48-2.2.81-1.31,3.74,1.32,4.27,1.87A9.07,9.07,0,0,1,361,556.13Z"/><path d="M358.32,556.4a3.44,3.44,0,0,1,.58,1,1.37,1.37,0,0,1-.07,1.09,1.11,1.11,0,0,1-1.5.2,5.51,5.51,0,0,1-1.28-1.27,13.28,13.28,0,0,0-2.3-2.14c-.45-.32-2.05-1-1.89-1.74.3-1.46,3.54.34,4.15.74A9.47,9.47,0,0,1,358.32,556.4Z"/><path d="M355.6,558.14a2.33,2.33,0,0,1,.22,1,1.09,1.09,0,0,1-.42.87,1.23,1.23,0,0,1-1.48-.26,4.28,4.28,0,0,1-.8-1.39,10.79,10.79,0,0,0-1.46-2.38c-.32-.39-1.63-1.36-1.22-2,.76-1.09,3.23,1.27,3.68,1.77A7.81,7.81,0,0,1,355.6,558.14Z"/><path d="M353.48,558.65a2.2,2.2,0,0,1,.35.8,1,1,0,0,1-.2.83,1,1,0,0,1-1.3,0,3.84,3.84,0,0,1-.93-1.07,9.15,9.15,0,0,0-1.66-1.8c-.35-.29-1.63-.91-1.39-1.48.45-1.08,3,.54,3.44.89A7.06,7.06,0,0,1,353.48,558.65Z"/><path d="M351.41,560.43a2.32,2.32,0,0,1,.06.87,1,1,0,0,1-.47.71,1,1,0,0,1-1.24-.41,4,4,0,0,1-.51-1.31,9.44,9.44,0,0,0-1-2.27c-.22-.38-1.22-1.39-.8-1.85.79-.87,2.61,1.51,2.94,2A7.12,7.12,0,0,1,351.41,560.43Z"/><path d="M349.44,560.43a2.56,2.56,0,0,1,.29.8,1,1,0,0,1-.21.79.86.86,0,0,1-1.15-.06,3.93,3.93,0,0,1-.78-1.09,9.14,9.14,0,0,0-1.41-1.85c-.29-.3-1.4-1-1.17-1.52.44-1,2.6.72,3,1.09A6.8,6.8,0,0,1,349.44,560.43Z"/><path d="M347.39,561.86a2,2,0,0,1,0,.76.84.84,0,0,1-.43.59.94.94,0,0,1-1.08-.4,3.58,3.58,0,0,1-.4-1.15,7.67,7.67,0,0,0-.77-2c-.18-.33-1-1.24-.64-1.62.72-.72,2.25,1.4,2.51,1.83A6,6,0,0,1,347.39,561.86Z"/><path d="M345.87,561.94a1.63,1.63,0,0,1,.23.65.88.88,0,0,1-.26.67.93.93,0,0,1-1.11,0,2.6,2.6,0,0,1-.68-.86A6.4,6.4,0,0,0,342.8,561c-.26-.23-1.29-.73-1-1.19.49-.88,2.48.42,2.84.7A4.72,4.72,0,0,1,345.87,561.94Z"/><path d="M343.78,563.27a1.49,1.49,0,0,1,0,.63.85.85,0,0,1-1.49.27,2.32,2.32,0,0,1-.31-.94,5.1,5.1,0,0,0-.61-1.6c-.15-.27-.91-1-.51-1.32.75-.65,2.08,1,2.31,1.36A3.89,3.89,0,0,1,343.78,563.27Z"/><path d="M342.56,563.37a1.33,1.33,0,0,1,.38.54.68.68,0,0,1-.15.66,1.27,1.27,0,0,1-1.25.26,2.94,2.94,0,0,1-.93-.65,6.91,6.91,0,0,0-1.68-1.08c-.34-.15-1.59-.4-1.39-.88.37-.89,2.86-.1,3.32.08A5.08,5.08,0,0,1,342.56,563.37Z"/><path d="M340.58,565.38a.5.5,0,0,1,.07.38c0,.11-.2.19-.44.18a2.22,2.22,0,0,1-1.17-.47,2.13,2.13,0,0,1-.48-.68,5.36,5.36,0,0,0-.91-1.18c-.21-.21-1.15-.88-.75-1,.74-.16,2.45,1.27,2.76,1.56A3.88,3.88,0,0,1,340.58,565.38Z"/><path d="M340,564.21a2.86,2.86,0,0,1,.65.74,1,1,0,0,1-.87,1.51,2.36,2.36,0,0,1-1.1-.28,6.47,6.47,0,0,1-2-1.39,1.4,1.4,0,0,1-.5-1.4C336.88,561.7,339.24,563.6,340,564.21Z"/><path d="M360.44,556.47a13.56,13.56,0,0,0,4.29-2.37.66.66,0,0,1,.46.79,1.79,1.79,0,0,1-.55.84c-2.5,2.42-6.55,3.76-9.8,5-9.7,3.69-18.47,7.78-16.63,5.43A32.39,32.39,0,0,1,342,564.3c1.74-.91,3.57-1.65,5.38-2.38l14-5.66"/><line class="cls-2" x1="455.98" y1="366.32" x2="457.82" y2="344.77"/><rect class="cls-3" x="446.08" y="354.54" width="21.63" height="2" transform="translate(63.81 780.57) rotate(-85.12)"/><polygon class="cls-3" points="514 279.85 513.14 294.33 515.66 292.58 520.41 292.88 523.83 279.85 514 279.85"/><path class="cls-2" d="M58.9,267.31c4.92-.35,337.54-112.18,337.54-112.18"/><path class="cls-3" d="M59,268.3l-.14-2,.07,1-.1-1c5.1-.7,222.88-73.65,337.32-112.13l.64,1.9C383.17,160.64,64,268,59,268.3Z"/><path class="cls-2" d="M138.14,260c4.93-.35,331.6-111.5,331.6-111.5"/><path class="cls-3" d="M138.21,261l-.14-2,.07,1-.09-1c5.09-.7,219-73.21,331.37-111.45l.64,1.9C456.72,154,143.21,260.62,138.21,261Z"/><path class="cls-2" d="M384.36,243.09C505.7,202.55,590.23,174.2,590.23,174.2"/><path class="cls-3" d="M384.68,244l-.63-1.9c119.94-40.08,205-68.61,205.86-68.89l.64,1.89C589.7,175.43,504.63,204,384.68,244Z"/><path class="cls-2" d="M148,319.44c2.79-.19,57.84-17.95,119.5-38.06"/><path class="cls-3" d="M148.1,320.44l-.14-2,.07,1-.07-1c1.67-.14,23.72-6.85,119.26-38l.62,1.9C151.81,320.18,149,320.37,148.1,320.44Z"/><path class="cls-2" d="M335.08,212.66S257.82,162.27,350.36,104L182.13,150.15l-7.08,92.06,35.62,25.1,43.69-45.52,61.38,5.94Z"/><path d="M210.1,268.12,174.47,243l-.42-.9,7.08-92.06.73-.89,168.23-46.11.8,1.81c-29.71,18.7-44.86,38.46-45,58.72-.23,28.32,29.47,48,29.77,48.22l.06,1.63-19.34,15.07-.71.21-60.89-5.9L211.39,268Zm-34-26.4L210.54,266l43.1-44.89.82-.3,61,5.9,18-14c-5.58-4-29.75-23-29.54-49.11.16-19.71,13.81-38.83,40.58-56.89L183.07,150.93Z"/><path class="cls-2" d="M152.58,181.42C140.51,205.78,120,210.35,120,210.35l53.52,32.12C180.76,221,171.65,194.21,152.58,181.42Z"/><path d="M152.58,181.42c19.07,12.79,28.18,39.62,21,61.05L120,210.35s20.47-4.57,32.54-28.93m1.11-1.66-2.9.78c-11.51,23.22-31,27.82-31.18,27.86l-.59,3.67,53.51,32.11,2.93-1.07c7.49-22.32-2.07-50.15-21.77-63.35Z"/><path d="M181.66,183.2l-28.33-3.31c-.25.53-.5,1-.75,1.53,19.07,12.79,28.18,39.62,21,61.05l24.15,15.32,5.9-10.15C227.92,199.25,181.66,183.2,181.66,183.2Z"/><path d="M153.33,179.89l28.33,3.31s46.26,16.05,22,64.44l-5.9,10.15-24.15-15.32c7.2-21.43-1.91-48.26-21-61.05.25-.5.5-1,.75-1.53m-1.2-2.15-.61,1.3c-.2.41-.39.81-.59,1.21l-.14.29-.78,1.57,1.46,1c18.27,12.24,27.15,38,20.2,58.74l-.5,1.49,1.32.84,24.15,15.32,1.75,1.11,1.05-1.79,5.9-10.15,0-.06,0-.05c7.86-15.65,9.36-29.71,4.46-41.78-7.42-18.29-26.73-25.17-27.55-25.45l-.21-.08-.21,0-28.33-3.31-1.43-.16Z"/><polygon class="cls-2" points="120.04 210.11 120.04 223.33 198.88 274.94 198.87 257.96 120.04 210.11"/><path d="M198.34,275.78,119.5,224.16l-.46-.83V210.11l1.52-.86,78.83,47.85.48.86,0,17Zm-77.3-53,76.84,50.31V258.52L121,211.88Z"/><polygon class="cls-2" points="223.08 266.69 198.89 275.31 198.77 257.79 226.03 248.82 226.03 265.7 223.08 266.69"/><path d="M199.22,276.26l-1.33-.94-.12-17.52.69-1,27.26-9,1.31.95V265.7l-.68.95-2.95,1Zm.55-17.75.11,15.39,22.88-8.16L225,265V250.2Z"/><path d="M225.72,248l.79,18.37s30.21-61.76,82.62-28.94l.21-16.45S252.16,174.1,225.72,248Z"/><polygon class="cls-2" points="308.85 236.51 308.85 221.14 335.15 212.17 335.15 227.33 308.85 236.51"/><path d="M309.18,237.45l-1.33-.94V221.14l.67-.95,26.3-9,1.33.95v15.16l-.67.94Zm.67-15.6V235.1l24.3-8.48V213.57Z"/><polygon class="cls-2" points="182.11 151.31 136.33 122.77 145.77 108.44 191.41 133.31 182.11 151.31"/><path d="M182.5,152.73l-47.57-29.66,10.52-15.94,47.3,25.77Zm-44.77-30.27,44,27.43,8.35-16.17-44-24Z"/><polyline class="cls-2" points="182.11 151.31 191.41 133.31 370.5 83.89 370.5 99.32 182.11 151.31"/><path d="M180.17,152.88l10.55-20.42.43-.12L371.5,82.58v17.5l-.73.2Zm11.93-18.72-8,15.58L369.5,98.55V85.21Z"/><polygon class="cls-2" points="145.59 108.29 191.41 133.31 370.98 83.78 327.18 57.9 145.59 108.29"/><path d="M191.68,134.27l-.75-.08-45.82-25,.21-1.84L326.91,56.94l.78.1,43.8,25.88-.24,1.83ZM148.23,108.6l43.31,23.64,176.91-48.8L327,59Z"/><polygon points="183.31 163.6 183.31 151.31 345 107.53 327.19 120.88 323.06 124.95 183.31 163.6"/><path d="M182.31,164.92V150.54l.74-.2L349.78,105.2l-21.94,16.44-4.27,4.2-.25.07Zm2-12.84v10.21l138.23-38.24,4-4,13.64-10.22Z"/><line x1="311.03" y1="141.34" x2="251.06" y2="158.65"/><rect x="249.83" y="148.99" width="62.42" height="2" transform="translate(-30.57 83.82) rotate(-16.1)"/><line x1="281.04" y1="160.06" x2="236.18" y2="174.2"/><rect x="235.1" y="166.13" width="47.03" height="2" transform="translate(-38.28 85.49) rotate(-17.5)"/><line x1="155.11" y1="113.53" x2="243.03" y2="90.19"/><rect x="153.58" y="100.86" width="90.97" height="2" transform="translate(-19.48 54.53) rotate(-14.88)"/><line x1="165.3" y1="119.08" x2="201.25" y2="109.55"/><rect x="164.67" y="113.31" width="37.2" height="2" transform="translate(-23.21 50.89) rotate(-14.88)"/><polygon class="cls-6" points="327.11 59.02 368.45 83.49 303.7 101.16 327.11 59.02"/><path class="cls-5" d="M218.09,201.3c-6,0-11.68-.26-16.92-.68-3.78-.29-7.42-.68-10.9-1.12a146.54,146.54,0,0,1-43.07-9.19,2.76,2.76,0,0,1-1.58-3.56h0a2.74,2.74,0,0,1,3.26-1.64c1.15.32,4.48-1.89,4.48-1.89.2.07,20.34,6.41,48.81,6.86,20.37.32,48.36-2.4,76.86-15.1,9.81-4.64,21.19-11,25-13.36a2.54,2.54,0,0,1,3.44.73h0a2.55,2.55,0,0,1-.8,3.62c-4.8,2.87-18.57,10.54-24.47,13.22a181,181,0,0,1-26.4,10.68c-7.35,2.19-19.8,4.39-26.74,6,21.21-2.05,53-9.24,74.89-23.08a2.54,2.54,0,0,1,3.47.71l.06.09a2.52,2.52,0,0,1-.71,3.52C277.88,195.7,244.24,201.3,218.09,201.3Z"/><path d="M218.09,202.3h0c-5.6,0-11.32-.23-17-.68-3.63-.29-7.31-.67-11-1.12a147.48,147.48,0,0,1-43.3-9.26,3.76,3.76,0,0,1-2.09-2,3.73,3.73,0,0,1,4.4-5.09,10.89,10.89,0,0,0,3.66-1.76,1,1,0,0,1,.86-.12c.2.06,20.14,6.36,48.52,6.81,18.87.3,47.39-2.07,76.43-15C288.7,169.3,300,163,303.51,160.77a3.54,3.54,0,0,1,4.8,1,3.54,3.54,0,0,1-1.12,5c-4.51,2.69-18.46,10.5-24.56,13.27a214.17,214.17,0,0,1-19.77,8.5c14.27-3.82,28.91-9.31,40.57-16.68a3.52,3.52,0,0,1,4.83,1l.06.09a3.55,3.55,0,0,1,.53,2.69,3.47,3.47,0,0,1-1.53,2.23C274.39,199.13,237.28,202.3,218.09,202.3ZM148.16,186a1.74,1.74,0,0,0-1.58,2.42,1.75,1.75,0,0,0,1,.93,145.32,145.32,0,0,0,42.76,9.14c3.68.46,7.33.83,10.92,1.12,5.64.45,11.3.67,16.85.67,19,0,55.65-3.13,88.15-24.06a1.52,1.52,0,0,0,.65-1,1.58,1.58,0,0,0-.23-1.18l-.06-.09a1.55,1.55,0,0,0-2.11-.41c-22,13.9-54.31,21.2-75.33,23.23a1,1,0,0,1-1.08-.84,1,1,0,0,1,.77-1.13c2.28-.52,5.18-1.11,8.25-1.74,6.34-1.29,13.53-2.76,18.43-4.22a179.91,179.91,0,0,0,26.25-10.62c6.06-2.75,19.91-10.5,24.39-13.18a1.5,1.5,0,0,0,.71-1,1.54,1.54,0,0,0-2.31-1.65c-3.56,2.2-14.94,8.6-25.11,13.41-29.4,13.1-58.24,15.5-77.3,15.2-26.43-.42-45.49-5.82-48.64-6.77-1.44.91-3.65,2.11-4.9,1.77A1.82,1.82,0,0,0,148.16,186Z"/><polygon class="cls-6" points="136.33 124.03 179.75 151.02 125.47 129.15 136.33 124.03"/><polygon class="cls-6" points="320.06 127.02 182.75 181.38 182.95 164.76 320.06 127.02"/><path class="cls-2" d="M182.11,151.31l0-1.16-45.8-27.39-99.39,50.6C86.62,177.21,135.62,167.39,182.11,151.31Z"/><path d="M58.9,175.21c-7.43,0-14.76-.29-22-.85l-3.55-.27,103.05-52.47,46.77,28,0,2.44-.66.23C138,167.63,97.32,175.21,58.9,175.21Zm-18.29-2.59c43.34,2.79,89.32-4.41,140.39-22l-44.71-26.73Z"/><path class="cls-6" d="M36.94,173.36l-4.47,2.28c12,21.56,149.2,6.85,149.2,6.85l.44-31.18C135.62,167.39,86.62,177.21,36.94,173.36Z"/><path d="M95.56,188.4c-30.53,0-58.68-2.73-64-12.27l-.5-.91,5.65-2.88.28,0c44.61,3.45,92-3.74,144.76-22l1.35-.46-.48,33.49-.88.09C178.6,183.82,135.08,188.4,95.56,188.4ZM33.91,176c14.15,18.62,135.18,6.74,146.77,5.55l.41-28.86c-52.4,18-99.51,25.06-143.94,21.66Z"/><path d="M56.77,170.49l-.14-2c.63,0,63.59-4.68,102-24.11l.9,1.78C120.76,165.78,57.41,170.44,56.77,170.49Z"/><path class="cls-5" d="M703.15,607.88c-113.06-44-195.61-113.6-245-164.21-50.29-51.59-77.31-94.57-80.57-99.89-8.14-6-111.63-82.21-159.13-139.78l-2-2.42,7-5.63,3.86,4.82-2.13,1.71c49.62,58.76,155.4,135.89,156.48,136.67l.51.38.33.54c.26.44,27.13,45.07,80.16,99.43,48.9,50.13,130.69,119,242.64,162.62Z"/><path class="cls-3" d="M703.72,609.17l-.93-.36c-113.23-44.09-195.9-113.76-245.31-164.44-50-51.31-77.19-94.35-80.61-99.89-12.08-8.86-112.15-82.88-159.15-139.84l-2.64-3.21,8.61-6.89,5.11,6.39-2.11,1.68c49.88,58.63,154.59,135,155.65,135.74l.68.49.43.72c.26.44,27.18,45.08,80,99.24C512.3,488.86,594,557.66,705.75,601.19l.93.36ZM217.92,201.73l1.35,1.63c47.86,58,154.43,136.31,158.94,139.62l.16.11.1.17c2.92,4.76,30,48,80.44,99.71,49.14,50.4,131.26,119.63,243.67,163.61l1.52-3.89C592.45,559,510.87,490.26,462,440.2c-53-54.33-80-99.17-80.31-99.62l-.22-.37-.35-.25c-1.06-.77-106.9-77.92-156.66-136.84l-.66-.78,2.15-1.72-2.61-3.27Z"/><path class="cls-5" d="M219.69,184.47c-3,.65-5.25,1.46-8.28,2.11a10.28,10.28,0,0,0-4.71,1.88,6.61,6.61,0,0,0-2,5.39c0,.25,0,.5.08.75a10.75,10.75,0,0,0,6.82,8.24,12.83,12.83,0,0,0,10.8-1.07,15.87,15.87,0,0,0,6.81-8.62c.67-2,.94-4.29-.23-6s-3.61-2.37-5.76-2.79c-1.27-.24-2.68-.45-3.76.25-1.91,1.25-1.36,4.27-2.64,6.15-.76,1.13-2.11,1.74-2.9,2.85-1.36,1.93-.61,4.57.2,6.79a7.73,7.73,0,0,0,1.54,2.9"/><path class="cls-3" d="M215.77,204.58a12.82,12.82,0,0,1-4.52-.81,11.68,11.68,0,0,1-7.46-9q-.06-.42-.09-.84a7.51,7.51,0,0,1,2.35-6.2,11.18,11.18,0,0,1,5.15-2.1c1.49-.32,2.81-.69,4.09-1s2.57-.71,4.06-1a6.5,6.5,0,0,1,4.05-.15c2.47.47,5,1.11,6.41,3.21s1,4.95.35,6.89a17,17,0,0,1-7.26,9.16A14.17,14.17,0,0,1,215.77,204.58Zm5.53-19.46a2.34,2.34,0,0,0-1.29.32c-.76.49-1,1.54-1.25,2.75a8.4,8.4,0,0,1-1.11,3.13A8,8,0,0,1,216,193a6.78,6.78,0,0,0-1.24,1.2c-1.05,1.48-.47,3.7.32,5.87a7.07,7.07,0,0,0,1.29,2.52,12.26,12.26,0,0,0,5.54-1.67,14.88,14.88,0,0,0,6.37-8.07c.51-1.51.91-3.63-.11-5.13s-3.07-2-5.12-2.36A9.31,9.31,0,0,0,221.3,185.12Zm-4.06,1-1.42.39c-1.31.36-2.66.73-4.2,1.07a9.44,9.44,0,0,0-4.26,1.65,5.64,5.64,0,0,0-1.66,4.58,4.9,4.9,0,0,0,.07.67A9.77,9.77,0,0,0,212,201.9a10.59,10.59,0,0,0,1.91.52,14.92,14.92,0,0,1-.68-1.69c-1-2.68-1.66-5.47-.08-7.7a8.17,8.17,0,0,1,1.62-1.6,6,6,0,0,0,1.27-1.24,7,7,0,0,0,.82-2.42A14.63,14.63,0,0,1,217.24,186.1Z"/><path class="cls-5" d="M169.84,191.76s25.34,4.19,35.09,3.65"/><path class="cls-3" d="M203,196.46c-10.73,0-32.35-3.56-33.33-3.72l.33-2c.25,0,25.34,4.15,34.87,3.65l.11,2C204.38,196.45,203.72,196.46,203,196.46Z"/><circle class="cls-3" cx="405.61" cy="151.57" r="1.95"/><circle class="cls-3" cx="130.97" cy="262.07" r="1.95"/><circle class="cls-3" cx="140.09" cy="321.39" r="1.95"/><path class="cls-2" d="M147.67,514c2.34-.17,101.15-34.82,175.6-61"/><path class="cls-3" d="M147.74,515l-.14-2,.07,1-.11-1c2.57-.42,64.85-22.08,175.38-61l.66,1.89C208.84,494.33,149.68,514.88,147.74,515Z"/><path class="cls-2" d="M208.07,508.15c2-.14,70.46-24.36,135.64-47.53"/><path class="cls-3" d="M208.14,509.15l-.19-2c1.58-.26,26.36-8.71,135.42-47.48l.67,1.89C210.7,509,208.77,509.1,208.14,509.15Z"/><circle class="cls-3" cx="376.91" cy="407.56" r="1.95"/><g id="_Powtarzanie_promieniowe_" data-name="&lt;Powtarzanie promieniowe&gt;"><line class="cls-5" x1="308.38" y1="411.87" x2="338.1" y2="370.79"/><rect class="cls-3" x="297.89" y="390.33" width="50.7" height="2" transform="translate(-183.27 424.03) rotate(-54.14)"/></g><g id="_Powtarzanie_promieniowe_2" data-name="&lt;Powtarzanie promieniowe&gt;"><line class="cls-5" x1="272.81" y1="363.12" x2="321" y2="347.35"/><rect class="cls-3" x="271.56" y="354.24" width="50.7" height="2" transform="matrix(0.95, -0.31, 0.31, 0.95, -95.67, 109.81)"/></g><g id="_Powtarzanie_promieniowe_3" data-name="&lt;Powtarzanie promieniowe&gt;"><line class="cls-5" x1="272.69" y1="302.78" x2="320.94" y2="318.34"/><rect class="cls-3" x="295.81" y="285.21" width="2" height="50.7" transform="translate(-89.88 497.67) rotate(-72.12)"/></g><g id="_Powtarzanie_promieniowe_4" data-name="&lt;Powtarzanie promieniowe&gt;"><line class="cls-5" x1="308.06" y1="253.88" x2="337.94" y2="294.84"/><rect class="cls-3" x="322" y="249.01" width="2" height="50.7" transform="translate(-99.64 243.12) rotate(-36.12)"/></g><g id="_Powtarzanie_promieniowe_5" data-name="&lt;Powtarzanie promieniowe&gt;"><line class="cls-5" x1="365.41" y1="235.12" x2="365.52" y2="285.81"/><rect class="cls-3" x="364.46" y="235.12" width="2" height="50.7" transform="translate(-0.54 0.75) rotate(-0.12)"/></g><g id="_Powtarzanie_promieniowe_6" data-name="&lt;Powtarzanie promieniowe&gt;"><line class="cls-5" x1="422.84" y1="253.65" x2="393.13" y2="294.72"/><rect class="cls-3" x="382.64" y="273.18" width="50.7" height="2" transform="translate(-53.24 444.19) rotate(-54.14)"/></g><g id="_Powtarzanie_promieniowe_7" data-name="&lt;Powtarzanie promieniowe&gt;"><line class="cls-5" x1="458.41" y1="302.39" x2="410.23" y2="318.16"/><rect class="cls-3" x="408.97" y="309.28" width="50.7" height="2" transform="matrix(0.95, -0.31, 0.31, 0.95, -74.9, 150.27)"/></g><g id="_Powtarzanie_promieniowe_8" data-name="&lt;Powtarzanie promieniowe&gt;"><line class="cls-5" x1="365.81" y1="430.4" x2="365.71" y2="379.7"/><rect class="cls-3" x="364.76" y="379.7" width="2" height="50.7" transform="translate(-0.83 0.75) rotate(-0.12)"/></g><polygon class="cls-6" points="357.77 259.26 344.03 270.38 358.95 283.72 357.77 259.26"/><polygon class="cls-2" points="405.98 207.04 412.87 230.24 386.36 284.16 405.98 207.04"/><circle cx="315.71" cy="368.93" r="1.93"/><circle class="cls-6" cx="419.34" cy="294.05" r="4.16"/><polygon class="cls-2" points="334.58 446.06 327.61 422.88 353.93 368.87 334.58 446.06"/><polygon class="cls-6" points="379.69 397.31 393.74 386.58 379.19 372.83 379.69 397.31"/><circle class="cls-6" cx="277.15" cy="333.94" r="4.16"/><circle cx="455.42" cy="284.93" r="1.93"/><circle cx="393.74" cy="416" r="4.16"/><circle cx="363.53" cy="217.19" r="4.16"/><circle cx="293.05" cy="389.4" r="4.16"/><polygon class="cls-2" points="452.45 273.24 439.39 267.42 425.5 283.16 452.45 273.24"/><path class="cls-5" d="M570.59,400.21l2.91-17.4s-13.12-1.21-10.81-10.48,12.38-27.09,12.38-27.09L601,351.87l-1.58,17.83-5,10,1.09,26.23Z"/><path class="cls-3" d="M596.59,407.21,569.45,401l2.9-17.32c-2.2-.37-7.17-1.54-9.58-4.94a7.74,7.74,0,0,1-1.06-6.63c2.32-9.3,12.07-26.61,12.48-27.34l.38-.67,27.5,7L600.4,370l-5,9.95Zm-24.86-7.76,22.75,5.23-1.05-25.19,5-10.07,1.49-16.79-24.37-6.23c-1.83,3.31-9.9,18.14-11.9,26.17a5.75,5.75,0,0,0,.74,5c2.55,3.6,9.13,4.24,9.19,4.25l1.08.1Z"/><polygon class="cls-5" points="519.19 575.88 514.67 561.27 528 561.53 534.1 585.09 522.61 584.73 519.19 575.88"/><path class="cls-3" d="M535.4,586.13l-13.48-.42-3.68-9.53-4.93-15.94,15.47.31Zm-12.09-2.38,9.48.3-5.57-21.53L516,562.3l4.11,13.25Z"/><polygon class="cls-5" points="409.4 572.31 422.07 563.74 425.69 576.58 404.91 589.24 401.93 578.15 409.4 572.31"/><path class="cls-3" d="M404.29,590.79l-3.5-13,8-6.29,13.82-9.34,4.2,14.9Zm-1.23-12.26,2.47,9.17,19-11.58-3-10.77L410,573.12Z"/><path class="cls-2" d="M579.78,479.42s1.4,3.59-1.93,9.69"/><path d="M578.73,489.59l-1.76-1c3-5.54,1.88-8.82,1.87-8.85l1.87-.72C580.77,479.22,582.24,483.16,578.73,489.59Z"/><path class="cls-5" d="M446.07,537.53l38.6-35.07,90.95,5.26s11.88,18.73-32.72,23.41c-44.09,4.63-49.07,4.17-49.07,4.17l-74.95,48.58-6.23-16,25-22.72"/><path class="cls-3" d="M418.39,585.39l-6.92-17.77L437,544.44l1.35,1.48-24.5,22.25,5.53,14.2,74.22-48.09.34,0c.21,0,5.89.34,48.88-4.17,22.68-2.38,30.1-8.38,32.33-13a9.7,9.7,0,0,0-.12-8.47l-90-5.2-38.29,34.79-1.35-1.48,38.92-35.35,91.88,5.31.27.43a11.65,11.65,0,0,1,.47,10.84c-3.57,7.37-15,12.12-33.93,14.11-38.3,4-47.14,4.21-48.89,4.18Z"/><path class="cls-5" d="M535.8,486.23l19.07,2,33,12.87s-3.16,25.13-26.19,30.27-55.44-19-55.44-19,9,4.55,18.46,21.28,12.68,42.66,12.68,42.66H517.21l-37.38-65.47a19.08,19.08,0,0,1,7.15-26h0a19.09,19.09,0,0,1,11.39-2.39l30.48,3.17"/><path class="cls-3" d="M538.5,577.25H516.63l-37.67-66a20.07,20.07,0,0,1,19.51-29.92L529,484.51l-.21,2-30.47-3.16a18.07,18.07,0,0,0-17.57,26.94l37.09,65h18.44c-.75-5.14-4.24-26.76-12.41-41.17-5.76-10.17-11.37-15.78-14.76-18.56-2-1.33-3.19-2.23-3.43-2.41l1.05-1.69a22.06,22.06,0,0,1,3.58,2.47c8.88,5.91,33.18,20.5,51.19,16.49,19.83-4.43,24.52-24.49,25.29-28.67l-32.11-12.52-18.93-2,.2-2,19.33,2L589,500.43l-.1.77c0,.26-3.52,25.89-27,31.13-15,3.34-33.5-5.21-45.11-12a81.65,81.65,0,0,1,8.78,12.74c9.47,16.71,12.77,42.78,12.8,43Z"/><polygon points="572.9 382.05 579.17 381.75 572.82 391.58 572.9 382.05"/><ellipse cx="573.21" cy="359.16" rx="1.73" ry="1.14" transform="translate(3.4 723.7) rotate(-64.68)"/><path d="M579.56,357.87s-1.7-5.17-4.47-4.68-1.24,3-1.24,3Z"/><polygon class="cls-6" points="593.59 433.26 586.02 484.81 594.43 472.1 593.59 433.26"/><path class="cls-2" d="M601,429.7c-.26,26-17.12,86.41-17.12,86.41L547,487.94l13.72-79.88S601.69,359.78,601,429.7Z"/><path class="cls-3" d="M584.45,517.81,546,488.37l13.87-80.75.17-.2c.72-.84,17.59-20.52,30-15.9,8.18,3.05,12.22,15.9,12,38.19-.26,25.85-17,86.07-17.15,86.67Zm-36.32-30.3,35.18,26.91c2.53-9.29,16.46-61.35,16.69-84.73.21-21.36-3.39-33.57-10.7-36.3-10.49-3.9-25.8,13.05-27.61,15.12Z"/><path class="cls-6" d="M569.53,398.89l-40,28.34L480.2,450.9l11,5.48s57.9-18.08,58.31-18.69,23.06-22.86,23.06-22.86Z"/><path class="cls-3" d="M491.08,457.46l-13.16-6.58,51.14-24.52,41.16-29.18,3.4,18-.38.38c-8.88,8.71-22.32,22-23,22.75-.21.33-.56.85-58.8,19Zm-8.61-6.54,8.79,4.39c22.13-6.91,55.1-17.33,57.6-18.42,1.84-2,14.58-14.53,22.6-22.39l-2.62-13.89L530,428.13Z"/><path class="cls-5" d="M409.55,588.74l-13.76,6.76a3.59,3.59,0,0,1-4.43-1.56c-4.75-8.29-16-34.25-17.06-47-.12-1.43,1.18-2.6,2.57-2.94l2.19-.53s2.38.35,4.39,3.62,3.29,6.32,3.88,6.81,19.94,15.25,19.94,15.25a6.82,6.82,0,0,1,1.19,2.44c.48,1.61-2.7,4.78-2.7,4.78s-2.84,2.3-2.13,4.72c.43,1.47,4.92,1.41,6.82,3.28A2.64,2.64,0,0,1,409.55,588.74Z"/><path d="M394.46,596.74a4.54,4.54,0,0,1-4-2.3c-4.5-7.84-16.08-34.14-17.2-47.38-.17-2,1.59-3.56,3.33-4l2.38-.58.19,0c.12,0,2.87.46,5.1,4.09,1,1.63,1.81,3.17,2.46,4.41a18.49,18.49,0,0,0,1.23,2.17c.48.4,14.52,11.11,19.88,15.2l.15.14a7.74,7.74,0,0,1,1.4,2.81c.6,2-2.11,4.94-3,5.78l-.07.07s-2.3,1.94-1.8,3.66a7.86,7.86,0,0,0,2.19.81,10.17,10.17,0,0,1,4.37,2,3.63,3.63,0,0,1-1.2,6l-13.71,6.75A4.89,4.89,0,0,1,394.46,596.74Zm-15.4-52.2-2,.48c-.92.22-1.88,1-1.81,1.88,1,12.4,12.28,38.41,16.94,46.54a2.58,2.58,0,0,0,3.2,1.13l13.75-6.76a1.65,1.65,0,0,0,1-1.21,1.59,1.59,0,0,0-.45-1.48,8.76,8.76,0,0,0-3.52-1.53c-1.71-.49-3.19-.91-3.56-2.18-.84-2.87,2-5.38,2.41-5.74,1.41-1.41,2.58-3.23,2.42-3.76a6,6,0,0,0-.94-2c-2.39-1.83-19.3-14.73-19.88-15.21A10.24,10.24,0,0,1,385,552c-.64-1.21-1.43-2.73-2.39-4.29A6.62,6.62,0,0,0,379.06,544.54Z"/><path d="M398.8,594.55c-.17-.25-16.36-24.95-20.73-50.88l2-.33c4.3,25.5,20.26,49.87,20.42,50.11Z"/><path d="M405.3,578a5.14,5.14,0,0,1-3-1.39c-1.51-1.21-16.22-17.24-17.89-19.06l1.48-1.36c6.52,7.12,16.61,18,17.66,18.85a3.78,3.78,0,0,0,1.76,1l0,2Z"/><path d="M383.87,559.7l-1.28-1.54c3.4-2.82,3.63-4.59,3.63-4.61l2,.11C388.21,553.92,388,556.26,383.87,559.7Z"/><path d="M406.73,588.27c-2.25,0-5-.32-6.8-1.65a4.57,4.57,0,0,1-1.84-3.1,25.78,25.78,0,0,1-.19-3.88c0-1.62,0-1.87-1.14-2.88a9.41,9.41,0,0,0-1.88-1.07c-3.28-1.57-8.22-4-12-15.63a1.5,1.5,0,0,1,2.86-.92c3.36,10.45,7.44,12.41,10.42,13.85a11.34,11.34,0,0,1,2.54,1.5c2.12,1.83,2.21,3.17,2.18,5.2a21.79,21.79,0,0,0,.17,3.44,1.5,1.5,0,0,0,.66,1.08c1.68,1.26,5.89,1.18,8.14.84a1.5,1.5,0,1,1,.46,3A25,25,0,0,1,406.73,588.27Z"/><path d="M405.47,575a2.89,2.89,0,0,1-.64.9,1.2,1.2,0,0,1-1,.31,1.32,1.32,0,0,1-.87-1.38,4.85,4.85,0,0,1,.56-1.67,11.76,11.76,0,0,0,.87-3c.09-.55-.07-2.32.71-2.43,1.45-.21,1.32,3.53,1.24,4.26A8.92,8.92,0,0,1,405.47,575Z"/><path d="M402.23,573.87a2.86,2.86,0,0,1-.9.63,1.23,1.23,0,0,1-1.06,0,1.33,1.33,0,0,1-.36-1.6,4.82,4.82,0,0,1,1.09-1.38,12.27,12.27,0,0,0,1.82-2.48c.27-.49.72-2.21,1.48-2,1.44.29.05,3.77-.27,4.43A8.9,8.9,0,0,1,402.23,573.87Z"/><path d="M401.11,571.59a3.14,3.14,0,0,1-.7.84,1.26,1.26,0,0,1-1,.3,1.07,1.07,0,0,1-.67-1.28,5.46,5.46,0,0,1,.71-1.56,12.46,12.46,0,0,0,1.16-2.75c.14-.51.19-2.16.93-2.27,1.4-.21.86,3.28.7,4A8.89,8.89,0,0,1,401.11,571.59Z"/><path d="M398.66,569.73a2.47,2.47,0,0,1-.79.52,1,1,0,0,1-.91-.09,1.16,1.16,0,0,1-.26-1.41,4.05,4.05,0,0,1,1-1.17,10.73,10.73,0,0,0,1.64-2.09c.24-.42.68-1.9,1.33-1.73,1.23.31-.06,3.3-.36,3.87A7.24,7.24,0,0,1,398.66,569.73Z"/><path d="M397.51,568a2.24,2.24,0,0,1-.6.59.93.93,0,0,1-.81.09,1,1,0,0,1-.46-1.16,3.85,3.85,0,0,1,.65-1.17,8.78,8.78,0,0,0,1.07-2.09c.14-.4.27-1.74.86-1.72,1.12.05.5,2.83.34,3.37A6.85,6.85,0,0,1,397.51,568Z"/><path d="M395.24,566.74a2.49,2.49,0,0,1-.76.35.93.93,0,0,1-.79-.19,1,1,0,0,1-.05-1.24,3.92,3.92,0,0,1,1-.89,9.28,9.28,0,0,0,1.71-1.6c.26-.33.84-1.55,1.39-1.33,1,.42-.49,2.83-.82,3.28A6.67,6.67,0,0,1,395.24,566.74Z"/><path d="M394.58,565a2.16,2.16,0,0,1-.61.52.92.92,0,0,1-.77.08.82.82,0,0,1-.33-1.05,3.61,3.61,0,0,1,.71-1,8.82,8.82,0,0,0,1.19-1.87c.17-.36.42-1.57,1-1.54,1.05,0,.21,2.55,0,3A6.4,6.4,0,0,1,394.58,565Z"/><path d="M392.63,563.62a1.76,1.76,0,0,1-.66.28.81.81,0,0,1-.68-.2.89.89,0,0,1,0-1.09,3.2,3.2,0,0,1,.89-.74,7.17,7.17,0,0,0,1.52-1.34c.24-.27.78-1.32,1.24-1.11.88.41-.51,2.47-.81,2.85A5.55,5.55,0,0,1,392.63,563.62Z"/><path d="M392.06,562.29a1.44,1.44,0,0,1-.5.42.77.77,0,0,1-.68,0,.87.87,0,0,1-.4-1,2.63,2.63,0,0,1,.54-.89,6.36,6.36,0,0,0,.89-1.59c.12-.31.22-1.39.72-1.31.95.15.44,2.35.31,2.77A4.36,4.36,0,0,1,392.06,562.29Z"/><path d="M390.18,560.87a1.36,1.36,0,0,1-.57.18.8.8,0,0,1-.62-.24.84.84,0,0,1-.1-1,2.11,2.11,0,0,1,.73-.59,5,5,0,0,0,1.23-1.07c.19-.23.57-1.14,1-.89.83.45-.22,2.19-.45,2.51A3.78,3.78,0,0,1,390.18,560.87Z"/><path d="M389.69,559.81a1.28,1.28,0,0,1-.36.52.63.63,0,0,1-.64.08,1.2,1.2,0,0,1-.63-1,2.58,2.58,0,0,1,.27-1,6.63,6.63,0,0,0,.41-1.86c0-.36-.17-1.55.32-1.53.93,0,1,2.52,1,3A5,5,0,0,1,389.69,559.81Z"/><path d="M387.25,558.71a.46.46,0,0,1-.32.18c-.11,0-.23-.11-.31-.33a2.21,2.21,0,0,1,0-1.2,2,2,0,0,1,.45-.65,5.38,5.38,0,0,0,.75-1.2c.12-.26.41-1.32.62-1,.39.61-.33,2.62-.48,3A3.87,3.87,0,0,1,387.25,558.71Z"/><path d="M388.08,557.76a2.6,2.6,0,0,1-.44.82,1,1,0,0,1-.83.37,1,1,0,0,1-.81-.65,2.27,2.27,0,0,1-.11-1.07,6.06,6.06,0,0,1,.6-2.21c.22-.45.58-.93,1.08-.91C389.32,554.19,388.39,556.93,388.08,557.76Z"/><path d="M401.74,573.5a13.08,13.08,0,0,0,3.54,3,.62.62,0,0,1-.55.67,1.62,1.62,0,0,1-.93-.22c-3-1.42-5.52-4.6-7.69-7.09-6.49-7.45-13-13.93-10.33-13.06a28.05,28.05,0,0,1,2.9,2.77c1.39,1.25,2.64,2.64,3.9,4l9.68,10.66"/><path class="cls-5" d="M536.85,581.6l.89,15.3a3.59,3.59,0,0,1-3.16,3.47c-9.49,1.16-37.78,1.43-49.9-2.52a3.09,3.09,0,0,1-1.71-3.51l.36-2.23s1.25-2.06,5.05-2.64,7.09-.58,7.77-.92S518,576.1,518,576.1a6.73,6.73,0,0,1,2.71-.15c1.68.19,3.36,4.35,3.36,4.35s1,3.5,3.52,3.79c1.52.18,3.21-4,5.67-5A2.64,2.64,0,0,1,536.85,581.6Z"/><path d="M517.36,602.12c-11.56,0-25.28-.81-33-3.32-1.93-.63-2.67-2.85-2.39-4.62l.39-2.42.1-.17c.06-.1,1.55-2.46,5.75-3.11,1.89-.28,3.63-.43,5-.55a16.73,16.73,0,0,0,2.48-.29c.56-.29,15.88-9.06,21.74-12.41l.18-.08a7.81,7.81,0,0,1,3.14-.2c2.1.24,3.72,3.87,4.17,5l0,.1s.89,2.87,2.67,3.08c.3-.07,1.09-1.05,1.61-1.7a10.14,10.14,0,0,1,3.57-3.24,3.57,3.57,0,0,1,3.43.36,3.6,3.6,0,0,1,1.59,3.06l.89,15.26a4.66,4.66,0,0,1-4,4.53A166.49,166.49,0,0,1,517.36,602.12Zm-33.08-9.61-.32,2c-.15.94.19,2.12,1,2.39,11.84,3.86,40.17,3.63,49.48,2.49a2.57,2.57,0,0,0,2.28-2.51l-.89-15.26v0a1.6,1.6,0,0,0-.72-1.4,1.56,1.56,0,0,0-1.53-.16,8.71,8.71,0,0,0-2.78,2.64c-1.12,1.39-2.08,2.59-3.39,2.44-3-.34-4.19-3.93-4.35-4.46-.76-1.84-2-3.63-2.53-3.69a6.57,6.57,0,0,0-2.21.09c-2.61,1.5-21.07,12.06-21.74,12.4a10.3,10.3,0,0,1-3.19.5c-1.37.11-3.07.25-4.88.53A6.62,6.62,0,0,0,484.28,592.51Z"/><path d="M510.71,596a121.88,121.88,0,0,1-27.61-2.89l.46-2c25.16,6,53.81.71,54.1.66l.37,2A165.78,165.78,0,0,1,510.71,596Z"/><path d="M498.34,592.6l-.67-1.88c9.1-3.25,23.06-8.31,24.23-9a3.82,3.82,0,0,0,1.57-1.25l1.83.81a5.06,5.06,0,0,1-2.44,2.2C521.17,584.45,500.68,591.77,498.34,592.6Z"/><path d="M498.2,594.55c-1.28-4.23-2.82-5.13-2.84-5.13l.88-1.8c.23.11,2.32,1.2,3.87,6.35Z"/><path d="M504.27,595.19c-1.29,0-2.68-.06-4.2-.19a1.5,1.5,0,0,1,.26-3c10.94,1,14.34-2,16.82-4.22a11,11,0,0,1,2.36-1.75c2.52-1.25,3.79-.81,5.64,0a21.35,21.35,0,0,0,3.24,1.18,1.55,1.55,0,0,0,1.26-.19c1.8-1,3.37-5,3.93-7.18a1.5,1.5,0,0,1,2.91.74c-.18.71-1.85,7-5.33,9a4.54,4.54,0,0,1-3.57.49A25.36,25.36,0,0,1,524,588.8c-1.49-.66-1.72-.76-3.11-.07a9.42,9.42,0,0,0-1.71,1.31C516.74,592.15,513.29,595.19,504.27,595.19Z"/><path d="M522.56,580a2.75,2.75,0,0,1,.58.93A1.17,1.17,0,0,1,523,582a1.32,1.32,0,0,1-1.61.27,4.74,4.74,0,0,1-1.32-1.17,11.79,11.79,0,0,0-2.38-2c-.47-.29-2.16-.83-2-1.59.37-1.42,3.77.16,4.41.51A8.78,8.78,0,0,1,522.56,580Z"/><path d="M520.3,582.56a2.65,2.65,0,0,1,.24,1.07,1.2,1.2,0,0,1-.46,1,1.31,1.31,0,0,1-1.61-.29,4.82,4.82,0,0,1-.85-1.54,11.77,11.77,0,0,0-1.58-2.64c-.35-.43-1.76-1.52-1.32-2.16.83-1.21,3.5,1.42,4,2A8.53,8.53,0,0,1,520.3,582.56Z"/><path d="M517.77,582.71a2.89,2.89,0,0,1,.5,1,1.26,1.26,0,0,1-.11,1,1,1,0,0,1-1.43.12,5,5,0,0,1-1.17-1.26,12.35,12.35,0,0,0-2.08-2.13c-.42-.33-1.92-1-1.73-1.74.35-1.37,3.35.48,3.92.89A9.19,9.19,0,0,1,517.77,582.71Z"/><path d="M515.11,584.24a2.47,2.47,0,0,1,.17.93,1.07,1.07,0,0,1-.44.81,1.18,1.18,0,0,1-1.4-.31,4.18,4.18,0,0,1-.7-1.36,10,10,0,0,0-1.29-2.32c-.29-.39-1.48-1.37-1.07-1.91.77-1,3,1.35,3.42,1.84A7.51,7.51,0,0,1,515.11,584.24Z"/><path d="M513.07,584.63a2.18,2.18,0,0,1,.3.78.92.92,0,0,1-.23.78,1,1,0,0,1-1.24,0,3.57,3.57,0,0,1-.83-1,8.64,8.64,0,0,0-1.51-1.79c-.31-.29-1.5-.93-1.25-1.47.48-1,2.8.64,3.23,1A6.69,6.69,0,0,1,513.07,584.63Z"/><path d="M511,586.23a2.38,2.38,0,0,1,0,.84.92.92,0,0,1-.48.65,1,1,0,0,1-1.16-.44A3.48,3.48,0,0,1,509,586a8.57,8.57,0,0,0-.82-2.2c-.19-.37-1.1-1.38-.68-1.8.79-.79,2.42,1.55,2.71,2A6.62,6.62,0,0,1,511,586.23Z"/><path d="M509.15,586.15a2.38,2.38,0,0,1,.24.77,1,1,0,0,1-.23.74.81.81,0,0,1-1.09-.1,3.74,3.74,0,0,1-.7-1.07,8.9,8.9,0,0,0-1.25-1.82c-.27-.3-1.29-1-1.05-1.5.46-.95,2.44.79,2.81,1.17A6.63,6.63,0,0,1,509.15,586.15Z"/><path d="M507.14,587.42a1.93,1.93,0,0,1,0,.72.78.78,0,0,1-.44.54.87.87,0,0,1-1-.42,3.26,3.26,0,0,1-.34-1.11,7.61,7.61,0,0,0-.64-1.92c-.16-.33-.92-1.23-.54-1.58.72-.65,2.07,1.43,2.31,1.85A5.76,5.76,0,0,1,507.14,587.42Z"/><path d="M505.69,587.43a1.5,1.5,0,0,1,.19.62.81.81,0,0,1-.27.63.88.88,0,0,1-1.06,0,2.56,2.56,0,0,1-.61-.85,6.49,6.49,0,0,0-1.12-1.44c-.24-.23-1.2-.74-.93-1.17.5-.82,2.33.5,2.67.79A4.48,4.48,0,0,1,505.69,587.43Z"/><path d="M503.65,588.61a1.32,1.32,0,0,1,0,.59.85.85,0,0,1-.47.48.82.82,0,0,1-.95-.29,2,2,0,0,1-.26-.9,5,5,0,0,0-.51-1.55c-.14-.27-.83-1-.43-1.28.74-.58,1.94,1.06,2.14,1.4A3.72,3.72,0,0,1,503.65,588.61Z"/><path d="M502.48,588.65a1.27,1.27,0,0,1,.34.53.65.65,0,0,1-.17.62,1.21,1.21,0,0,1-1.2.19,2.67,2.67,0,0,1-.86-.66,6.85,6.85,0,0,0-1.55-1.1c-.32-.16-1.5-.45-1.29-.89.4-.84,2.73,0,3.16.22A4.8,4.8,0,0,1,502.48,588.65Z"/><path d="M500.52,590.47a.49.49,0,0,1,0,.37c-.05.1-.19.17-.43.15a2.12,2.12,0,0,1-1.08-.5,1.81,1.81,0,0,1-.43-.66,5,5,0,0,0-.81-1.16c-.2-.22-1.06-.89-.68-1,.71-.13,2.28,1.32,2.56,1.6A4,4,0,0,1,500.52,590.47Z"/><path d="M500,589.33a2.75,2.75,0,0,1,.59.73,1,1,0,0,1,0,.91,1,1,0,0,1-.91.49,2.25,2.25,0,0,1-1-.31,6.19,6.19,0,0,1-1.8-1.41c-.33-.38-.63-.9-.41-1.35C497.16,586.81,499.32,588.73,500,589.33Z"/><path d="M519.78,582.87a13.1,13.1,0,0,0,4.18-2.08.64.64,0,0,1,.41.77,1.62,1.62,0,0,1-.57.78c-2.47,2.19-6.38,3.29-9.52,4.32-9.39,3.09-17.9,6.59-16,4.44a31.71,31.71,0,0,1,3.68-1.6c1.7-.78,3.46-1.4,5.22-2l13.59-4.78"/><path class="cls-5" d="M490.36,450.67s-14.73-6.22-18.38-3.35l3.81,2.82s-8.18-.34-10.59-.27-.19,6.27,7.32,11.33,16.28.61,16.28.61Z"/><path d="M480.72,464.64A15.38,15.38,0,0,1,472,462c-6.21-4.18-9.29-9.37-8.59-11.78a1.85,1.85,0,0,1,1.8-1.38c1.44,0,4.85.06,7.43.15l-2.26-1.68,1-.81c3.9-3.07,16.83,2.14,19.38,3.22l.71.3-1.74,12.42-.46.23A20.39,20.39,0,0,1,480.72,464.64Zm-15.45-13.77c-.26,1,1.85,5.48,7.81,9.5s13,1.54,14.81.76l1.37-9.83c-4.72-1.92-11.82-4.14-15.22-3.7l5,3.67-3.25-.13C475.67,451.13,467.66,450.81,465.27,450.87Z"/><path d="M603.53,338.22s10.29,3.26,5.16,14.25-14,27.36-14,27.36l0-13s7-4.31,1.9-9-8.24,10.37-8.24,10.37-3.49,16.93-6.74,18.16-20.21,1.89-23,.45,4.3-21.87,6.47-21.74,5.88.34,9.07,7,6,1.65,9.38-5.55S589,348.42,589,348.42s-27.52-5.58-16.33-18.07a20.65,20.65,0,0,0,10.46,5.74C589.73,337.47,598.17,334.6,603.53,338.22Z"/><path class="cls-3" d="M567,388.69c-4,0-7.59-.27-8.83-.93-.64-.33-2.34-1.23.17-10.21.16-.55,3.79-13.41,6.76-13.41h.06c2.28.14,6.48.39,9.91,7.56,1.1,2.3,1.88,2.55,2.17,2.55h0c1.66,0,4.27-5.67,5.39-8.08,2.67-5.79,4.55-14.18,5.13-17-3.66-.87-16.27-4.29-18.49-11-.9-2.73,0-5.59,2.59-8.52l.75-.83.74.84a19.92,19.92,0,0,0,9.92,5.42,34.93,34.93,0,0,0,8.17.29c4.43-.19,9-.37,12.48,1.92a11.36,11.36,0,0,1,6.39,5.69c1.24,2.82,1,6.15-.76,9.88-5.09,10.89-13.9,27.25-14,27.41l-1.87,3.47,0-17.46.48-.3c.85-.52,3.11-2.32,3.29-4.27a3.75,3.75,0,0,0-1.54-3.1c-.82-.74-1.34-.68-1.66-.58-2.18.72-4.18,6.76-4.93,10.41-.84,4.1-3.87,17.58-7.37,18.89C580,388.1,573,388.69,567,388.69Zm-1.77-22.54c-1.24,1.05-4.62,9.19-5.86,15.67-.67,3.53-.2,4.23-.19,4.23,2.33,1.22,19,.58,22-.56,1.69-.63,4.49-9.54,6.11-17.42.23-1.08,2.29-10.6,6.27-11.91a3.57,3.57,0,0,1,3.62,1,5.66,5.66,0,0,1,2.19,4.77c-.25,2.68-2.7,4.71-3.76,5.47l0,8.44c2.88-5.42,8.43-16,12.06-23.79,1.49-3.19,1.74-6,.74-8.24a9.48,9.48,0,0,0-5.29-4.63l-.26-.13c-3-2-7.06-1.83-11.39-1.65a36.16,36.16,0,0,1-8.67-.33,21.91,21.91,0,0,1-10.19-5.24c-1.6,2.06-2.1,3.95-1.5,5.74,1.81,5.48,13.58,9,18,9.87l1,.2-.18,1c-.09.45-2.14,11.16-5.48,18.39-2.76,6-4.72,9.23-7.19,9.25h0c-1.49,0-2.79-1.21-4-3.69C570.46,366.62,567.37,366.28,565.27,366.15Z"/><path class="cls-5" d="M464,421.09s-13.36-.49-14.76,4.17l2.95,3.78s-5.2,3-9.27,1.3c-2.33-1,2.58,10.75,12.09,10.58s14.38-9.3,14.38-9.3Z"/><path d="M454.8,441.92c-6.63,0-11.37-5.43-12.94-9.12-.65-1.53-.68-2.56-.1-3.15a1.36,1.36,0,0,1,1.55-.23c2.56,1.07,5.73,0,7.33-.73l-2.51-3.22.15-.5c1.58-5.24,14.31-4.94,15.76-4.87l.59,0,5.89,11.51-.25.46c-.21.4-5.26,9.65-15.25,9.83ZM443.54,431.6a13.39,13.39,0,0,0,2.69,4.22,11.72,11.72,0,0,0,8.56,4.1h.2c7.63-.14,12.16-6.58,13.26-8.33l-4.86-9.51c-4.64-.09-11.55.64-13,3l3.29,4.21-1,.57C452.47,430,447.79,432.7,443.54,431.6Z"/><path class="cls-2" d="M532.82,353.5s3.41,45.63,2.93,47.05-66.61,34.27-66.61,34.27l-8.74-13.68,48.15-40.6s-3.06-11.66-6.76-23.64"/><path class="cls-3" d="M468.78,436.12l-9.69-15.18,48.33-40.75c-.68-2.56-3.41-12.71-6.58-23l1.91-.59c3.66,11.86,6.74,23.56,6.77,23.68l.16.61-48,40.44,7.78,12.19c25.06-12.45,62-31.07,65.32-33.48.13-2.88-1.7-29.11-3-46.47l2-.15c1,13.78,3.37,46,2.88,47.44-.17.5-.61,1.82-67.11,34.85Z"/><path class="cls-5" d="M371.12,328.71s-.75-2.67,1-3.3,6.69,3.07,8.89,6.53,2.76,6.47,4.69,7.33l-1.46,3.43-9.87-7.61Z"/><path d="M384.64,344.28l-11.08-8.54-3.4-6.76c-.37-1.32-.45-3.76,1.6-4.51,2.53-.93,7.92,3.54,10.08,6.93a35.75,35.75,0,0,1,2,3.7c.77,1.6,1.38,2.87,2.25,3.25l.9.4Zm-9.5-9.85,8.67,6.69.61-1.46A10.39,10.39,0,0,1,382,336a30.57,30.57,0,0,0-1.87-3.49c-2.24-3.52-6.76-6.47-7.71-6.13-.7.25-.45,1.67-.37,2Z"/><path class="cls-3" d="M511.76,510.27c-1.77-.74-2.79-1.21-2.79-1.21l.84-1.82s1,.46,2.72,1.18Z"/><path class="cls-3" d="M553.34,520.71c-.64,0-1.29,0-2,0l.08-2a42.26,42.26,0,0,0,5.69-.14l.19,2A39.36,39.36,0,0,1,553.34,520.71Zm-7.85-.56c-1.85-.25-3.8-.58-5.81-1l.4-2c2,.4,3.87.72,5.68,1Zm17.78-.86-.64-1.89a14.89,14.89,0,0,0,4.78-2.59l1.27,1.54A16.82,16.82,0,0,1,563.27,519.29ZM534,517.83c-1.84-.47-3.74-1-5.65-1.59l.58-1.91c1.89.57,3.76,1.1,5.57,1.56Zm-11.24-3.4c-1.82-.62-3.67-1.29-5.51-2l.71-1.87c1.82.69,3.65,1.35,5.45,2Z"/><path class="cls-3" d="M572.47,511.41l-1.82-.84a14.52,14.52,0,0,0,.92-2.65l1.94.47A16.78,16.78,0,0,1,572.47,511.41Z"/><path class="cls-3" d="M419.43,578.05l-1.17-1.63,1.55-1.11,1.16,1.63Zm6.42-4.61-1.16-1.62,4.88-3.49,1.16,1.62Zm9.76-7-1.16-1.63,4.88-3.49,1.16,1.63Zm9.76-7-1.16-1.63,4.88-3.49,1.16,1.63Zm9.76-7L454,550.87l4.88-3.49L460,549Zm9.76-7-1.17-1.63,4.88-3.49,1.17,1.63Zm9.76-7-1.17-1.63,4.88-3.49,1.17,1.63Zm9.76-7-1.17-1.62,4.88-3.49,1.17,1.62Z"/><path class="cls-3" d="M370.82,547l-.54-.85-.74-.66a54.84,54.84,0,0,0,2.54-5.15l1.81.84C371.32,546.65,371.14,546.76,370.82,547Zm5.59-11.29-1.81-.83c.77-1.69,1.6-3.53,2.48-5.48l1.83.82C378,532.15,377.19,534,376.41,535.68Zm5-11-1.82-.83L382,518.4l1.83.81Zm4.92-11-1.83-.82,2.45-5.49,1.83.81Zm4.89-11-1.83-.81c.83-1.86,1.65-3.7,2.44-5.5l1.83.81C392.84,499,392,500.86,391.19,502.72Zm4.88-11-1.83-.81,2.44-5.51,1.83.81Zm4.87-11-1.83-.8,2.43-5.52,1.83.81Zm6-8.95-.86-1.81,5.42-2.57.86,1.8Zm10.84-5.15-.86-1.81,5.42-2.57.86,1.81Zm10.84-5.15-.86-1.81,5.42-2.57.86,1.81Zm10.84-5.15-.86-1.8,5.42-2.58.86,1.81Zm10.84-5.14-.86-1.81,3.9-1.86.86,1.81Z"/><path class="cls-3" d="M488.83,447.61l-1.81-.84,1.37-3,1.81.84Zm3.88-8.42-1.81-.84,2.51-5.45,1.81.84Zm5-10.9-1.82-.84,2.51-5.45,1.82.84Z"/><path class="cls-3" d="M476.11,505.4l-1.59-5.78,1.93-.54,1.59,5.79Zm-3.18-11.57-1.59-5.78,1.93-.54,1.59,5.79Zm.31-11.56-1.92-.54L473,476l1.93.54Zm3.28-11.54-1.93-.55,1.64-5.77,1.92.55Z"/><path class="cls-3" d="M527.85,575.64a56.1,56.1,0,0,0-.88-5.75l2-.4a57.42,57.42,0,0,1,.91,6Zm-2.27-11.52c-.51-1.82-1.1-3.73-1.76-5.69l1.9-.63c.67,2,1.27,3.93,1.78,5.79Zm-3.78-11.3c-.69-1.81-1.44-3.67-2.23-5.54l1.84-.77c.8,1.88,1.56,3.77,2.26,5.6Zm-4.64-11c-.8-1.76-1.66-3.58-2.55-5.41l1.8-.87c.9,1.84,1.76,3.68,2.57,5.45Zm-5.23-10.76c-1-1.9-1.91-3.67-2.79-5.3l1.76-1q1.34,2.46,2.81,5.33Zm-5.69-10.54c-1.83-3.22-3-5.16-3-5.18l1.7-1.05s1.22,2,3.07,5.24Z"/><line class="cls-2" x1="547.75" y1="480.51" x2="578.56" y2="502.96"/><rect class="cls-3" x="562.16" y="472.67" width="2" height="38.12" transform="translate(-165.9 657.33) rotate(-53.92)"/><path class="cls-2" d="M586,431.85s-38.17,21.28-39.79,21.28-57.44,9.43-57.44,9.43l-1-12.88,42.95-14.43s31.54-35.15,45.52-40.45"/><path class="cls-3" d="M487.88,463.73,486.79,449l43.43-14.59c2.82-3.13,32.09-35.34,45.73-40.52l.71,1.87c-13.58,5.15-44.81,39.83-45.13,40.18l-.17.2L488.9,450.38l.81,11c9.08-1.53,53.54-9,56.41-9.25,2-.55,24.66-12.94,39.41-21.17l1,1.75c-14.34,8-38.64,21.41-40.28,21.41s-35.08,5.67-57.27,9.42Zm58.22-11.59Zm.13,0h0Z"/><line class="cls-2" x1="466.5" y1="416" x2="474.4" y2="427.64"/><rect class="cls-3" x="469.45" y="414.79" width="2" height="14.06" transform="translate(-155.67 336.83) rotate(-34.15)"/><path class="cls-2" d="M435.45,245.12c1.52-.11,54.81-18,105.52-35"/><path class="cls-3" d="M435.52,246.11l-.14-2,.07,1-.12-1c1.07-.18,16.17-5,105.32-35l.63,1.89C437.53,246,436.07,246.07,435.52,246.11Z"/><path class="cls-2" d="M171.11,394.16c26.76-8.43,55.69-17.57,84.2-26.59"/><path class="cls-3" d="M171.41,395.12l-.6-1.91c26.75-8.43,55.69-17.57,84.2-26.59l.6,1.9C227.1,377.55,198.17,386.69,171.41,395.12Z"/><polygon class="cls-2" points="180.16 455.74 192.6 420.18 275.17 376.26 180.16 455.74"/><polygon class="cls-2" points="543.79 132.72 529.21 167.46 444.11 206.25 543.79 132.72"/><polygon class="cls-6" points="188.76 325.3 195.61 348.89 220.73 336.95 188.76 325.3"/><circle cx="444.11" cy="124.03" r="10.92"/><circle cx="340.77" cy="497.26" r="6.4"/><circle cx="547.04" cy="309.1" r="6.4"/><line class="cls-5" x1="360.82" y1="545.65" x2="359.96" y2="548.49"/><rect class="cls-3" x="358.91" y="546.07" width="2.96" height="2" transform="translate(-267.69 733.3) rotate(-73.14)"/><path class="cls-5" d="M383.28,353.58l-6.42-.69a14.46,14.46,0,0,1-8.87-4.36l-2.52-2.63A11.75,11.75,0,0,1,362.2,337c.29-4.38,1.07-9.87,3.17-10.06,3.51-.32,16.1,7.94,16.25,13.69s-.63,7.71-.63,7.71Z"/><path d="M384.88,354.76l-8.13-.88a15.45,15.45,0,0,1-9.48-4.66l-2.52-2.63a12.81,12.81,0,0,1-3.55-9.69c.64-9.57,2.64-10.85,4.08-11,2.72-.26,8.4,3.15,12.1,6.43,2.35,2.09,5.16,5.21,5.24,8.23a27.45,27.45,0,0,1-.56,7.68ZM365.61,327.9h-.15c-.46,0-1.77,1.76-2.26,9.13a10.79,10.79,0,0,0,3,8.17l2.52,2.63a13.52,13.52,0,0,0,8.25,4.05l4.72.51-1.77-4.08.16-.38s.7-1.95.55-7.32c0-1.77-1.71-4.24-4.56-6.78C372.2,330.41,367.38,327.9,365.61,327.9Z"/><circle cx="207.58" cy="107.53" r="1.93"/><polygon class="cls-6" points="500.75 357.27 462.44 418.26 507.37 380.25 500.75 357.27"/><polygon class="cls-6" points="554.34 450.29 549.15 480.51 586.5 432.76 554.34 450.29"/><polygon class="cls-6" points="456.9 344.77 424.04 359.17 455.73 356.92 456.9 344.77"/></g><path class="cls-3" d="M516.67,430.86l-1.17-1.62a10,10,0,0,0,4.18-9.13l2-.3A12,12,0,0,1,516.67,430.86Z"/><path class="cls-3" d="M529.8,479l-.23-2c2.1-.25,8-1.43,10-3.92l1.55,1.26C538.19,478,530.14,479,529.8,479Z"/></svg>