<svg id="Niezaleznosc" xmlns="http://www.w3.org/2000/svg" viewBox="0 0 360 360"><defs><style>.cls-1{fill:#030303;}.cls-2{fill:#c21333;}.cls-3{fill:#910f2b;}.cls-4{fill:#8e102b;}.cls-5{fill:#aa0f31;}.cls-6{fill:#961430;}.cls-7{fill:#fff;}</style></defs><path class="cls-1" d="M202.14,124.91l-2-.39a40.56,40.56,0,0,1,9.08-18.62l2.47-2.87a22.41,22.41,0,0,1,17-7.77h4.37l.09-.12a18.51,18.51,0,0,1,15.14-7.87h1.15A18.33,18.33,0,0,1,262,92.17a16.79,16.79,0,0,1,11.66-1.51l5,1.15a17,17,0,0,1,10.21,7.06,20.17,20.17,0,0,1,27.88,12.34A7.69,7.69,0,0,1,317,114l-.67,10.2-2-.13.67-10.2a6,6,0,0,0-.24-2.07,18.16,18.16,0,0,0-25.13-11.1l-1.61.76-.46-.79a15,15,0,0,0-9.43-6.9l-5-1.15a14.77,14.77,0,0,0-10.84,1.64l-.67.39-.57-.54a16.41,16.41,0,0,0-11.67-4.83h-1.15a16.52,16.52,0,0,0-13.51,7l-.69,1h-5.4a20.4,20.4,0,0,0-15.46,7.08l-2.47,2.87A38.45,38.45,0,0,0,202.14,124.91Z"/><rect class="cls-1" x="162.74" y="229.48" width="61.2" height="2" transform="translate(-90.08 331.36) rotate(-69.6)"/><rect class="cls-1" x="164.17" y="276.95" width="23.01" height="2" transform="translate(-146.08 345.72) rotate(-69.6)"/><path class="cls-1" d="M300.39,187.78l-1.25-1.56,6.31-5a25.82,25.82,0,0,0,10-13.8L321.8,146a19.8,19.8,0,0,0-2.16-16,16.11,16.11,0,0,0-7.4-6.37l-22.47-9.64c-10-2.56-17-.52-20.3,5.9-3.7,7.28-1.41,17.71,1.33,20,7.43,6.13,19,12.85,32.07,10.1l.42,2c-13.82,2.91-26-4.11-33.76-10.51-3.6-3-5.91-14.43-1.84-22.41,2.61-5.15,8.66-10.52,22.66-6.91l.14,0L313,121.73a18.12,18.12,0,0,1,8.31,7.14,21.79,21.79,0,0,1,2.38,17.67L317.35,168a27.71,27.71,0,0,1-10.71,14.83Z"/><path class="cls-1" d="M276.53,229.83l-2-.36c2.85-15.53,5.08-27.4,5.08-27.4l.06-.37L290,193.53l1.24,1.57-9.67,7.7C281.14,204.91,279.08,215.9,276.53,229.83Z"/><path class="cls-1" d="M264.81,298.86l-2-.2c.62-6.21,3.58-24,8.8-53l2,.36C268.45,274.53,265.42,292.79,264.81,298.86Z"/><rect class="cls-1" x="232.76" y="96.26" width="2" height="14.61" transform="translate(-2.55 5.95) rotate(-1.45)"/><path class="cls-1" d="M245,144.59a11.46,11.46,0,0,1-11.44-11.17l-.41-16.16,2-.05.41,16.16a9.45,9.45,0,0,0,12.11,8.84l7.2-2.44.64,1.9-7.24,2.45A11.49,11.49,0,0,1,245,144.59Z"/><path class="cls-1" d="M265.84,149.43a12.23,12.23,0,0,1-12.09-14.27l4.52-26.76,2,.34-4.52,26.75a10.23,10.23,0,0,0,12.11,11.74L278,145.17l.39,2-10.17,2.06A12.21,12.21,0,0,1,265.84,149.43Z"/><rect class="cls-1" x="258.37" y="95.32" width="5.92" height="2" transform="translate(122.74 337.9) rotate(-80.39)"/><path class="cls-1" d="M228.54,139.87a13,13,0,0,1-12.63-10.16l-1.14-5.19L212,112l2-.39c.07.39,1.42,6.52,2.73,12.44l1.14,5.19a10.93,10.93,0,0,0,16.19,7.07l.54-.29.95,1.76-.5.28A12.87,12.87,0,0,1,228.54,139.87Z"/><path class="cls-1" d="M239.11,161.9l-1.85-.76c6-14.48,17.68-19.53,18.17-19.74l.78,1.85A36,36,0,0,0,239.11,161.9Z"/><path class="cls-1" d="M268.83,203.21c-1.74-.48-3.6-.91-5.56-1.37-12.12-2.85-27.21-6.4-27.5-24.13l2,0c.27,16.18,13.91,19.39,26,22.22,2,.47,3.85.91,5.63,1.4Z"/><path class="cls-1" d="M284.7,139.85a8.6,8.6,0,0,1-1.33-.1c-11.24-1.85-11.36-2.16-11.62-2.83l-.21-.54,0,0c-.62-1.94-2.44-8.81.37-14.88a15.3,15.3,0,0,1,9.12-7.94l.37-.13,12.72,5.46A4.76,4.76,0,0,1,297,123h0a17.46,17.46,0,0,1-7.91,15.54A7.77,7.77,0,0,1,284.7,139.85Zm-11.19-4c.69.21,2.93.74,10.19,1.93a5.78,5.78,0,0,0,4.28-.93,15.49,15.49,0,0,0,7-13.8h0a2.73,2.73,0,0,0-1.67-2.35l-12-5.15a13.28,13.28,0,0,0-7.62,6.75C271.21,127.78,273,134.32,273.51,135.84Z"/><rect class="cls-1" x="281.4" y="105" width="11.9" height="2" transform="translate(129.87 368.69) rotate(-79.3)"/><line class="cls-2" x1="254.82" y1="278.69" x2="251.89" y2="298.76"/><rect class="cls-1" x="243.22" y="287.73" width="20.28" height="2" transform="translate(-68.96 497.68) rotate(-81.69)"/><path class="cls-2" d="M206.06,198.16l-6.37-1.84A8,8,0,0,0,190,202l-1.06,3.91-2.47,9.52"/><path class="cls-1" d="M187.4,215.66l-1.94-.51L189,201.72a9,9,0,0,1,10.95-6.37l6.4,1.85-.56,1.92-6.36-1.84a7,7,0,0,0-8.5,5l-1,3.9Z"/><path class="cls-2" d="M188.59,207.07l-11.84,45.55a4.29,4.29,0,0,0,3.08,5.25L208.93,270a108,108,0,0,0,29.2,7.56L268.7,281a4.3,4.3,0,0,0,5.25-3.08l1.94-7.47v.15L287.21,227a7.57,7.57,0,0,0-5.29-9.2l-3.49-1.05-3.13,12.5-34.37-6a45.59,45.59,0,0,1-8.12-2.22L189.76,204.8Z"/><path class="cls-1" d="M269.79,282.13a5.51,5.51,0,0,1-1.27-.15L238,278.51a109,109,0,0,1-29.48-7.63l-29-12.06a5.31,5.31,0,0,1-3.73-6.45l11.87-45.65,1.62-3.17,43.89,16.54a43.82,43.82,0,0,0,7.94,2.17l33.46,5.85,3.16-12.61,4.49,1.35a8.62,8.62,0,0,1,6,10.41l-13.73,52.8,0-.79a5.3,5.3,0,0,1-4.7,2.86Zm-80.26-74.7-11.82,45.45a3.27,3.27,0,0,0,.35,2.5,3.35,3.35,0,0,0,2,1.53l.13,0L209.31,269a107.26,107.26,0,0,0,28.93,7.5L269,280a3.31,3.31,0,0,0,2.5-.35,3.28,3.28,0,0,0,1.53-2L277.32,261v.15l8.93-34.36a6.61,6.61,0,0,0-4.59-8l-2.5-.75-3.1,12.39-35.29-6.18a44.91,44.91,0,0,1-8.3-2.27l-42.22-15.91Z"/><path class="cls-3" d="M201.45,209.85,197,208.69a4.38,4.38,0,0,1-3.12-5.34h0a4.38,4.38,0,0,1,5.34-3.12l5.18,1.36"/><path d="M201.2,210.82l-4.43-1.16a5.38,5.38,0,0,1-3.28-2.49,5.37,5.37,0,0,1,6-7.9l5.18,1.36-.51,1.93L199,201.2a3.37,3.37,0,0,0-4.12,2.4,3.38,3.38,0,0,0,2.41,4.12l4.43,1.17Z"/><path class="cls-3" d="M277,220.67l3,.79a4.39,4.39,0,0,1,3.12,5.34h0a4.37,4.37,0,0,1-5.34,3.12l-2.53-.66"/><path d="M279,231.07a5.45,5.45,0,0,1-1.38-.18l-2.52-.66.51-1.94,2.52.67a3.38,3.38,0,0,0,3.77-5,3.32,3.32,0,0,0-2.06-1.56l-3-.8.51-1.93,3,.8A5.37,5.37,0,0,1,279,231.07Z"/><path class="cls-1" d="M276.41,230.49,243.34,225a82.5,82.5,0,0,1-15.05-4l-27.48-10.18.7-1.87L229,219.1a80.14,80.14,0,0,0,14.69,3.9l31.13,5.19,2.65-14.39,2,.37Z"/><rect class="cls-1" x="202.34" y="197.92" width="5.54" height="2" transform="translate(-51.67 324.22) rotate(-70.13)"/><path class="cls-4" d="M286,228.17l-34.41,50.06,18.09,1.9a3,3,0,0,0,3.18-2.18Z"/><path class="cls-1" d="M241.05,271.67l-14.91-2.57A49.82,49.82,0,0,1,216,266.21l-15.21-6.12.75-1.86,15.21,6.13a48.54,48.54,0,0,0,9.74,2.77l14.91,2.57Z"/><path class="cls-1" d="M241.87,262.14,227,259.56a49.53,49.53,0,0,1-10.14-2.88L197.75,249l.74-1.86,19.08,7.68a47.6,47.6,0,0,0,9.73,2.76l14.91,2.58Z"/><circle cx="249.34" cy="262.62" r="2.55"/><path class="cls-1" d="M257.65,157.18c-1.43-4.6.9-10.74,1-11l1.87.72c0,.06-2.18,5.76-1,9.69Z"/><path class="cls-1" d="M228.76,150.61a19.87,19.87,0,0,1-2.91-.2l.33-2c.1,0,10,1.55,14.33-5.38l1.7,1.06C238.72,149.71,232.45,150.61,228.76,150.61Z"/><line class="cls-5" x1="283.06" y1="241.49" x2="242.04" y2="235.33"/><rect x="261.55" y="217.67" width="2" height="41.48" transform="translate(-12.21 462.63) rotate(-81.46)"/><line class="cls-5" x1="281.73" y1="248.08" x2="257.64" y2="245.19"/><rect x="268.69" y="234.5" width="2" height="24.27" transform="translate(-7.32 485.01) rotate(-83.16)"/><polygon class="cls-2" points="184.23 211.94 191.57 213.98 187.68 224.79 177.85 222.2 184.23 211.94"/><polygon class="cls-2" points="178.27 235.54 184.5 237.38 180.28 248.08 171.46 245.59 178.27 235.54"/><path class="cls-6" d="M189.27,208l3.58,1.29s8.21,2.38,4.9,11.82-10.82,38.76-10.82,38.76L180,257s-2-.6-2.27-2.08a4.21,4.21,0,0,1,.21-3.22,5.92,5.92,0,0,0,.55-2.2Z"/><path class="cls-4" d="M80.58,131.17c1.52-5.56-.76-9.49-4.07-13l-.27.53-3.65,2.9L76,125.56v3.62l-2.19,2.44L70,133l3,1.83.73,2.57A9.69,9.69,0,0,0,80.58,131.17Z"/><path class="cls-2" d="M86.45,116.38l-7.39-6-.6,4.1-1.95,3.78c3.31,3.47,5.59,7.4,4.07,13a9.69,9.69,0,0,1-6.85,6.18l.76,2.67L72.8,145l-1.1,1.39L82,142.68l6.66-10.29.65-7Z"/><path class="cls-6" d="M113.56,174.52c1.44-2.87-.94-5.19-3-7.8l-1,.6-5,.43,5.89,8-1.37,1C111.23,176.53,113,175.71,113.56,174.52Z"/><path class="cls-2" d="M126.91,182,116.18,159.7l-.18,3-2,2.08-3.44,1.94c2.06,2.61,4.44,4.93,3,7.8-.6,1.19-2.33,2-4.49,2.2l-1.23.89L105,180.33l-2,2.86a20.46,20.46,0,0,0,3.17,6.69C110,183,118.66,181,126.91,182Z"/><path class="cls-6" d="M106.12,189.88a11.7,11.7,0,0,0,2.73,2.54c3.77,1.89,6.6-2.82,9.42-4.71,2.81-2.11,7.2-1.07,11.59.37l-3-6.12C118.66,181,110,183,106.12,189.88Z"/><path class="cls-6" d="M107.91,195.25c7.24,2.9,12.25-2,13.76-8.7a6.33,6.33,0,0,0-3.4,1.16c-2.82,1.89-5.65,6.6-9.42,4.71-3.39-2.26-4.75-5.54-5.9-9.23l-.51.71-6-10.86-3.09,3.35C97.36,183.52,100,192.07,107.91,195.25Z"/><path class="cls-2" d="M129.86,188.08c-2.89-1-5.76-1.71-8.19-1.53-1.51,6.7-6.52,11.6-13.76,8.7-8-3.18-10.55-11.73-14.56-18.86L91.85,178l-8.26.54,14,21.34L113,208.1l12.85-7.4,4.43-11.78Z"/><path class="cls-6" d="M140.89,183.94c-7.2-.8-14.39-2.94-21.59-1.85L115.39,189a41.57,41.57,0,0,1,4.63-2.68l7,.45,5.9,1.94,1.76.44-.25.35A15.44,15.44,0,0,0,140.89,183.94Z"/><path class="cls-6" d="M154.08,197.13c-3.77-1.88-10.36,0-8.48,1.89,2.88,3.6,3.57,7.75,5.41,12l5.76-4.53,1.4-1.24A10.56,10.56,0,0,0,154.08,197.13Z"/><path class="cls-2" d="M164.18,189.45l-8.26-5.13-7.22-6-24.42-5.07-5,8.81c7.2-1.09,14.39,1,21.59,1.85a15.44,15.44,0,0,1-6.41,5.57l-1.85,2.74-1.76,3.26v3l-3.8,0-4.8,4.83-10.72,2.32h-2.72s6.25,3.68,6.56,3.5,21.86,4.26,21.86,4.26l10.8-.12,3-2.33c-1.84-4.28-2.53-8.43-5.41-12-1.88-1.89,4.71-3.77,8.48-1.89a10.56,10.56,0,0,1,4.09,8.15l.54-.48,1.37,4.12a1.53,1.53,0,0,1,.41-.16c1.39-.45,5.7-1.32,5.7-1.32l9.7,1.16Z"/><path class="cls-6" d="M165.39,220.69c-2.83.94-4.71-.94-6.6-2.82-.74-2.25-.31-5.07-.1-7.56l-.87.38-4.9,4.22a36.3,36.3,0,0,0,3.05,7.67C158.79,226.35,164.45,226.35,165.39,220.69Z"/><path class="cls-2" d="M192.73,213.63l-21.11-6.11-6.92.18-6,2.61c-.21,2.49-.64,5.31.1,7.56,1.89,1.88,3.77,3.76,6.6,2.82-.94,5.66-6.6,5.66-9.42,1.89a36.3,36.3,0,0,1-3.05-7.67l-.58.5-2.61-3.21-2,.79-6.91,1-4.46-.6,2.8,6.17,9.52,12.86,4.22,2.92,1.11,2.48,4.48,4.1,3.93,2.19,20.28,5.19,2.52-3.32,1.58-4.88-.47-4.18-11.78-3.42,4.73-5.87,1.33-3.07,9.18,1.34,3.32-3.41,1-4.62Z"/><polygon class="cls-2" points="182.66 124.96 171.66 148.43 133.94 157.66 182.66 124.96"/><path class="cls-1" d="M181.76,250.49a2.93,2.93,0,0,1-.88-.13l-17.28-5a20.75,20.75,0,0,1-12.47-10l1.77-1a18.7,18.7,0,0,0,11.26,9.08l17.27,5a1.19,1.19,0,0,0,1.3-.44c1.35-1.8,3.53-5.43,2.93-9.38a1.42,1.42,0,0,0-1-1.17l-10.44-3,.56-1.92,10.43,3a3.43,3.43,0,0,1,2.42,2.79c.71,4.68-1.77,8.82-3.3,10.88A3.25,3.25,0,0,1,181.76,250.49Zm7.32-23.37a3.1,3.1,0,0,1-.85-.11l-7.91-2.09.25-1-.28,1L170.12,222a4.6,4.6,0,0,0-5.6,2.55l-1.87-.73a6.63,6.63,0,0,1,8-3.74L180.84,223l7.9,2.09a1.34,1.34,0,0,0,1.2-.28,8.59,8.59,0,0,0,2.6-9.81,1.32,1.32,0,0,0-.86-.8L173.58,209a17.94,17.94,0,0,0-20.15,7.77l-1.7-1.05a19.92,19.92,0,0,1,22.4-8.64l18.1,5.21a3.3,3.3,0,0,1,2.19,2,10.66,10.66,0,0,1-3.15,12A3.31,3.31,0,0,1,189.08,227.12Z"/><path class="cls-1" d="M162.69,238.81a22.56,22.56,0,0,1-18.95-10.67l-8.8-14.24,1.7-1.05,8.8,14.24c5.38,8.72,16.69,12.23,25.21,7.83a15.45,15.45,0,0,0,8.21-11.34l2,.33a17.4,17.4,0,0,1-9.27,12.79A19.27,19.27,0,0,1,162.69,238.81Zm-1.31-13.26a7.2,7.2,0,0,1-6-3.4l-6.45-10.46,1.7-1.05L157,221.1a5,5,0,0,0,5.84,2.19,4.73,4.73,0,0,0,.47-.2,3.69,3.69,0,0,0,1.88-2.3,2.68,2.68,0,0,0,.07-.27l2,.42c0,.13-.06.26-.09.39l-1-.27,1,.27a5.7,5.7,0,0,1-2.89,3.53,7.13,7.13,0,0,1-.7.31l-.35-.94.35.94A6.3,6.3,0,0,1,161.38,225.55ZM160,209.77l-.4-.64.86-.53-.86.53-5.76-9.33a4.94,4.94,0,0,0-6.3-2,3.7,3.7,0,0,0-1.93,2.45l-1.94-.47a5.63,5.63,0,0,1,2.95-3.76,7,7,0,0,1,8.92,2.72l6.16,10Zm14.49-1.3-9.06-14.66c-5.38-8.72-16.68-12.23-25.2-7.83a15.35,15.35,0,0,0-8.38,12.65l-2-.16a17.53,17.53,0,0,1,9.45-14.27c9.42-4.87,21.91-1,27.83,8.55l9,14.67Z"/><path class="cls-1" d="M141.44,215a22.3,22.3,0,0,1-4.49-.46l-20.2-4.18a21.59,21.59,0,0,1-9.56-4.64l1.3-1.53a19.44,19.44,0,0,0,8.67,4.21l20.2,4.18c8,1.65,16-1.67,19.89-8.28l1.72,1A20.18,20.18,0,0,1,141.44,215Zm-.35-13a6.92,6.92,0,0,1-1.42-.15l-12.81-2.65.41-2,12.8,2.65a4.47,4.47,0,0,0,5.41-3.21l2,.42A6.39,6.39,0,0,1,141.09,202Zm-24.75-11.71-1.91-.59a6.55,6.55,0,0,1,7.63-4.22l13.13,2.71-.41,2-13.12-2.72A4.56,4.56,0,0,0,116.34,190.26ZM155.17,185a19.31,19.31,0,0,0-10.59-6.1l-20.2-4.18c-8.47-1.76-17.12,2.27-20.58,9.57l-1.8-.86c3.84-8.12,13.42-12.6,22.78-10.67l20.2,4.18a21.39,21.39,0,0,1,11.7,6.74Z"/><polygon class="cls-2" points="131.91 284.11 120.4 275.79 127.29 238.19 131.91 284.11"/><polygon class="cls-2" points="86.65 281.01 92.84 248.29 127.73 221.96 86.65 281.01"/><path class="cls-1" d="M112.6,206.51a22.56,22.56,0,0,1-18.95-10.67L82.83,178.32c-.33-.53-.64-1.08-.92-1.64l1.78-.91q.39.78.84,1.5l10.82,17.52c5.39,8.72,16.69,12.23,25.21,7.83A15.65,15.65,0,0,0,129,188.13l2,0a17.63,17.63,0,0,1-9.5,16.32A19.34,19.34,0,0,1,112.6,206.51Zm-1.3-13.26a7.24,7.24,0,0,1-6.06-3.4L94.42,172.33l1.7-1.05,10.82,17.52a5,5,0,0,0,6.31,2,3.71,3.71,0,0,0,2-2.56l2,.41a5.74,5.74,0,0,1-3,3.92A6.17,6.17,0,0,1,111.3,193.25Zm-2-16.72-5.58-9a5.58,5.58,0,0,0-.51-.69l1.51-1.32a6.54,6.54,0,0,1,.7,1l5.58,9ZM123,173.79l-7.57-12.7,1.72-1,7.57,12.71Z"/><ellipse class="cls-5" cx="89.33" cy="174.54" rx="6.59" ry="3.93" transform="translate(-49.6 36.18) rotate(-18.01)"/><path d="M87.41,179.79a8.12,8.12,0,0,1-1.87-.2,3.94,3.94,0,0,1-2.25-6.91,11,11,0,0,1,9.84-3.2,4.33,4.33,0,0,1,3.42,2.71h0a4.34,4.34,0,0,1-1.17,4.21,10.35,10.35,0,0,1-4.52,2.82A11.18,11.18,0,0,1,87.41,179.79Zm3.86-8.5a9.31,9.31,0,0,0-2.84.46A8.34,8.34,0,0,0,84.8,174a2.49,2.49,0,0,0-.78,2.27,2.46,2.46,0,0,0,2,1.37,9,9,0,0,0,7.89-2.56,2.51,2.51,0,0,0,.78-2.27h0a2.51,2.51,0,0,0-2-1.38A6.3,6.3,0,0,0,91.27,171.29Z"/><path class="cls-1" d="M70.93,147.33a21.11,21.11,0,0,1-2.26-.12l.23-2a17.1,17.1,0,0,0,18.73-12.78,17.89,17.89,0,0,0-12.22-22.12L76,108.4A19.87,19.87,0,0,1,89.55,133C86.65,143.08,78.46,147.33,70.93,147.33ZM69.79,133.9l-.37-2c1.93-.37,4.68-1.91,5.34-3.36a3.93,3.93,0,0,0-.25-3.21A6.34,6.34,0,0,0,71,122l.55-1.93a8.29,8.29,0,0,1,4.82,4.5,5.82,5.82,0,0,1,.25,4.87C75.53,131.7,72,133.49,69.79,133.9Z"/><ellipse class="cls-5" cx="73.81" cy="115.22" rx="6.36" ry="4.09" transform="translate(-63.02 115.1) rotate(-57.3)"/><path d="M72,122a3.81,3.81,0,0,1-2.11-.6c-2.4-1.54-2.54-5.47-.31-8.94s5.86-5,8.26-3.45,2.53,5.47.31,8.94C76.46,120.52,74.06,122,72,122Zm3.71-11.59c-1.41,0-3.22,1.21-4.45,3.13-1.57,2.44-1.7,5.27-.29,6.18s3.92-.4,5.49-2.85,1.71-5.27.3-6.17h0A1.91,1.91,0,0,0,75.66,110.42Z"/><ellipse class="cls-5" cx="69.4" cy="139.58" rx="6.67" ry="5.1" transform="translate(-72.22 204.71) rotate(-88.26)"/><path d="M69.32,147.25h-.15a5.53,5.53,0,0,1-4.33-2.48,9.16,9.16,0,0,1,.33-10.64,5.3,5.3,0,0,1,8.8.27A9.2,9.2,0,0,1,73.64,145,5.55,5.55,0,0,1,69.32,147.25Zm.17-13.33a3.6,3.6,0,0,0-2.77,1.47,6.76,6.76,0,0,0-1.42,4.07,6.85,6.85,0,0,0,1.17,4.15,3.32,3.32,0,0,0,5.62.17,7.22,7.22,0,0,0,.25-8.22,3.57,3.57,0,0,0-2.76-1.64h-.09Z"/><circle cx="107.19" cy="219.5" r="4.36"/><polygon class="cls-2" points="47.54 170.63 53.63 183.84 71.31 176.09 47.54 170.63"/><circle cx="73.86" cy="252.69" r="2.18"/><circle class="cls-6" cx="73.81" cy="213.98" r="5.88"/><polygon class="cls-2" points="135.3 58.76 145.08 74.89 131.91 126.66 135.3 58.76"/><circle cx="172.15" cy="167.02" r="4.61"/><circle cx="115.39" cy="148.43" r="2.18"/><ellipse class="cls-5" cx="109.73" cy="162.7" rx="6.86" ry="4.22" transform="translate(-49.42 47.88) rotate(-20.19)"/><path d="M107.68,168.32c-2.56,0-4.64-1-5.33-2.91a4.61,4.61,0,0,1,1-4.46,11.16,11.16,0,0,1,10.09-3.71,4.21,4.21,0,0,1,2.65,7.2,10.47,10.47,0,0,1-4.57,3.16A11.39,11.39,0,0,1,107.68,168.32Zm4.09-9.24a9.3,9.3,0,0,0-3.15.59,8.34,8.34,0,0,0-3.69,2.52,2.82,2.82,0,0,0-.7,2.53c.59,1.61,3.68,2.07,6.61,1a8.34,8.34,0,0,0,3.69-2.52,2.25,2.25,0,0,0-1.48-4A6.55,6.55,0,0,0,111.77,159.08Z"/><path class="cls-2" d="M122.35,120.85l-5.6,13.91a1.32,1.32,0,0,1-1,.79c-5,1-8.18-2.51-9.39-4.18a1.71,1.71,0,0,1-.21-1.65l5.74-14.08c.2-.5.43-1,.67-1.45"/><path class="cls-1" d="M114,136.74c-4.44,0-7.31-3.24-8.42-4.79a2.66,2.66,0,0,1-.32-2.61L111,115.27c.22-.54.46-1,.71-1.54l1.78.91c-.23.44-.44.9-.64,1.38l-5.73,14.08a.7.7,0,0,0,.09.68c1,1.45,4,4.72,8.38,3.79a.32.32,0,0,0,.24-.18l5.6-13.91,1.85.74-5.59,13.91a2.32,2.32,0,0,1-1.69,1.4A9.43,9.43,0,0,1,114,136.74Z"/><ellipse class="cls-5" cx="117.24" cy="118.01" rx="3.51" ry="5.88" transform="translate(-47.08 143.91) rotate(-54.14)"/><path d="M119.63,123.48l-.56,0a9.23,9.23,0,0,1-4.47-1.79,9.33,9.33,0,0,1-3.1-3.68,3.63,3.63,0,0,1,3.91-5.41,9.15,9.15,0,0,1,4.47,1.79A9.28,9.28,0,0,1,123,118a4,4,0,0,1-.17,4h0A3.75,3.75,0,0,1,119.63,123.48Zm-4.76-8.94a1.89,1.89,0,0,0-1.58.61,2.13,2.13,0,0,0,0,2,8,8,0,0,0,5.91,4.27,2.12,2.12,0,0,0,2-.59h0a2.13,2.13,0,0,0,0-2,8,8,0,0,0-5.91-4.27Z"/><circle cx="97.34" cy="91.42" r="4.36"/><circle class="cls-6" cx="167.45" cy="110.64" r="4.7"/><line class="cls-7" x1="71.31" y1="168.15" x2="39.08" y2="154.08"/><rect class="cls-1" x="54.19" y="143.53" width="2" height="35.17" transform="translate(-114.55 147.26) rotate(-66.42)"/><line class="cls-7" x1="76" y1="181.11" x2="55.19" y2="194.99"/><rect class="cls-1" x="53.09" y="187.05" width="25.02" height="2" transform="translate(-93.39 68.1) rotate(-33.74)"/><line class="cls-7" x1="155.92" y1="91.42" x2="127.07" y2="151.92"/><rect class="cls-1" x="107.98" y="120.67" width="67.03" height="2" transform="translate(-29.26 196.96) rotate(-64.49)"/><path class="cls-7" d="M120,102.08c-.13-1.73,0-33.92,0-33.92"/><path class="cls-1" d="M119,102.16c-.14-1.75,0-32.69,0-34h2c0,11.12-.1,32.51,0,33.84Z"/><path class="cls-2" d="M175,66.72c.24.47.47,1,.67,1.45l5.74,14.08a1.71,1.71,0,0,1-.21,1.65c-1.2,1.67-4.42,5.23-9.39,4.18a1.32,1.32,0,0,1-1-.79l-5.59-13.91"/><path class="cls-1" d="M173.59,89.27a9.43,9.43,0,0,1-2-.21,2.32,2.32,0,0,1-1.69-1.4l-5.59-13.91,1.85-.74,5.6,13.91a.32.32,0,0,0,.24.18c4.27.9,7.08-2,8.38-3.79a.7.7,0,0,0,.09-.68l-5.73-14.08c-.19-.47-.41-.93-.64-1.38l1.78-.91c.26.5.5,1,.71,1.54l5.73,14.07a2.68,2.68,0,0,1-.31,2.61C180.9,86,178,89.27,173.59,89.27Z"/><ellipse class="cls-5" cx="170.35" cy="70.54" rx="5.88" ry="3.51" transform="translate(-9.04 113.15) rotate(-35.86)"/><path d="M168,76a3.75,3.75,0,0,1-3.19-1.44,4,4,0,0,1-.17-4,9.28,9.28,0,0,1,3.11-3.68c3.12-2.26,6.73-2.43,8.21-.38a3.94,3.94,0,0,1,.17,4A9.93,9.93,0,0,1,168.52,76Zm4.75-8.94a6.81,6.81,0,0,0-3.83,1.44,7.37,7.37,0,0,0-2.44,2.85,2.13,2.13,0,0,0-.05,2h0a2.11,2.11,0,0,0,2,.59,8,8,0,0,0,5.91-4.27,2.13,2.13,0,0,0,.05-2A1.9,1.9,0,0,0,172.71,67.07Z"/><circle cx="199.13" cy="89.67" r="2.18"/><path class="cls-1" d="M202,210.39l-1.87-.69L208,188.75c-1.4-1.49-5.45-6.44-8-16.25a56.9,56.9,0,0,1-1.65-17.2l.9-17.39,2,.1-.9,17.39A54.8,54.8,0,0,0,201.89,172c2.89,11.13,7.84,15.72,7.89,15.76l.51.46-.24.64Z"/></svg>