<svg id="Niezaleznosc" xmlns="http://www.w3.org/2000/svg" xmlns:xlink="http://www.w3.org/1999/xlink" viewBox="0 0 360 360"><defs><style>.cls-1{fill:none;}.cls-2{fill:#c21333;}.cls-3{fill:#910f2b;}.cls-4{fill:#8e102b;}.cls-5{fill:#fff;}.cls-6{fill:#961430;}.cls-7{fill:#aa0f31;}.cls-8{clip-path:url(#clip-path);}</style><clipPath id="clip-path"><rect class="cls-1" x="87.77" y="51.66" width="207.88" height="120.44"/></clipPath></defs><path class="cls-2" d="M104.81,205.91V191.12A18.11,18.11,0,0,1,122.92,173H269.11a18.11,18.11,0,0,1,18.11,18.11v71.44a18.11,18.11,0,0,1-18.11,18.11H122.92a18.11,18.11,0,0,1-18.11-18.11V205.91"/><path d="M269.11,281.67H122.92a19.13,19.13,0,0,1-19.11-19.11V191.12A19.13,19.13,0,0,1,122.92,172H269.11a19.13,19.13,0,0,1,19.11,19.11v71.44A19.13,19.13,0,0,1,269.11,281.67ZM122.92,174a17.13,17.13,0,0,0-17.11,17.11v71.44a17.14,17.14,0,0,0,17.11,17.11H269.11a17.14,17.14,0,0,0,17.11-17.11V191.12A17.13,17.13,0,0,0,269.11,174Z"/><path class="cls-2" d="M174.2,150.12h79a21.55,21.55,0,0,1,21.55,21.55v1a0,0,0,0,1,0,0H174.2a0,0,0,0,1,0,0v-22.6A0,0,0,0,1,174.2,150.12Z"/><path d="M275.71,173.72H173.2v-24.6h80a22.58,22.58,0,0,1,22.55,22.56Zm-100.51-2h98.51v0a20.58,20.58,0,0,0-20.55-20.56h-78Z"/><path class="cls-2" d="M250.56,150.12H125.32a20.51,20.51,0,0,0-20.51,20.51h0v24.88"/><path d="M105.81,195.51h-2V170.63a21.54,21.54,0,0,1,21.51-21.51H250.56v2H125.32a19.54,19.54,0,0,0-19.51,19.51Z"/><path class="cls-3" d="M127,157.72h124.6a14.67,14.67,0,0,1,14.67,14.67v.6a0,0,0,0,1,0,0H127a7.34,7.34,0,0,1-7.34-7.34v-.6a7.34,7.34,0,0,1,7.34-7.34Z"/><path d="M267.26,174H127a8.35,8.35,0,0,1-8.33-8.34v-.6a8.35,8.35,0,0,1,8.33-8.34H251.59a15.69,15.69,0,0,1,15.67,15.67ZM127,158.72a6.34,6.34,0,0,0-6.33,6.34v.6A6.35,6.35,0,0,0,127,172H265.26a13.69,13.69,0,0,0-13.67-13.28Z"/><path class="cls-4" d="M231.35,228.31s1.4,24.36,21.23,24.44l33.81.11v-9.63l-43.3-.71Z"/><circle cx="134.49" cy="202.34" r="2.57"/><rect x="133.49" y="210.87" width="2" height="41.99"/><path class="cls-4" d="M105.65,167.84V263.9s0,12.67,13.09,15.41c0,0-3.84-1.22-4.76-7.74C112.32,259.92,105.65,167.84,105.65,167.84Z"/><path class="cls-4" d="M286.23,261.56V189.81s0-12.62-13.66-15.34c0,0,10.51,1,10.51,16.86,0,7.6-.23,42.59.44,63.72C283.89,266.55,286.23,261.56,286.23,261.56Z"/><path class="cls-4" d="M286.23,191.83v71.75s0,12.62-13.66,15.35c0,0,10.51-1,10.51-16.87,0-7.59-.23-42.59.44-63.71C283.89,186.84,286.23,191.83,286.23,191.83Z"/><path class="cls-5" d="M248.65,209.75h37.51a6.15,6.15,0,0,1,6.15,6.15v21.89a6.15,6.15,0,0,1-6.15,6.15H248.65a16.42,16.42,0,0,1-16.42-16.42v-1.34a16.42,16.42,0,0,1,16.42-16.42Z"/><path d="M286.16,244.93H248.65a17.43,17.43,0,0,1-17.41-17.42v-1.34a17.43,17.43,0,0,1,17.41-17.42h37.51a7.16,7.16,0,0,1,7.15,7.15v21.88A7.16,7.16,0,0,1,286.16,244.93Zm-37.51-34.18a15.43,15.43,0,0,0-15.41,15.42v1.34a15.43,15.43,0,0,0,15.41,15.42h37.51a5.16,5.16,0,0,0,5.15-5.15V215.9a5.16,5.16,0,0,0-5.15-5.15Z"/><path class="cls-6" d="M242.62,219.82a8.33,8.33,0,0,0,5.22,14.82,7.33,7.33,0,0,0,1.24-.11C244.47,231.69,242,226.07,242.62,219.82Z"/><path class="cls-2" d="M256.16,226.31a8.32,8.32,0,0,0-13.54-6.49c-.64,6.25,1.85,11.87,6.46,14.71A8.31,8.31,0,0,0,256.16,226.31Z"/><path d="M247.85,236.44a9.35,9.35,0,1,1,9.35-9.35A9.36,9.36,0,0,1,247.85,236.44Zm0-16.69a7.35,7.35,0,1,0,7.35,7.34A7.34,7.34,0,0,0,247.85,219.75Z"/><circle cx="264.42" cy="227.68" r="3.42"/><path d="M113.82,179a11,11,0,0,1-1.72-6.26h2a9.07,9.07,0,0,0,1.39,5.15Z"/><path d="M266.49,271.78h-3v-2h3a11,11,0,0,0,7.28-2.75l1.32,1.5A13.05,13.05,0,0,1,266.49,271.78Zm-14.74,0H240v-2h11.71Zm-23.42,0H216.62v-2h11.71Zm-23.42,0H193.2v-2h11.71Zm-23.42,0H169.78v-2h11.71Zm-23.42,0h-11.7v-2h11.7Zm121.64-14.46h-2V245.61h2Zm0-23.42h-2V222.19h2Zm0-23.42h-2V198.77h2ZM275,188.4a11.07,11.07,0,0,0-8.52-4h-1.1v-2h1.1a13.08,13.08,0,0,1,10.06,4.74Zm-147.5-4c-.93,0-1.84,0-2.7-.1l.16-2a30.7,30.7,0,0,0,3.64.09h8v2H127.5Zm126.18,0H242v-2h11.71Zm-23.42,0H218.55v-2h11.71Zm-23.42,0H195.13v-2h11.71Zm-23.42,0H171.71v-2h11.71Zm-23.42,0H148.29v-2H160Z"/><rect x="128.63" y="269.78" width="6" height="2"/><circle class="cls-2" cx="70.46" cy="219.61" r="17.31"/><path d="M70.46,237.92a18.31,18.31,0,1,1,18.31-18.31A18.33,18.33,0,0,1,70.46,237.92Zm0-34.62a16.31,16.31,0,1,0,16.31,16.31A16.33,16.33,0,0,0,70.46,203.3Z"/><path class="cls-6" d="M63.35,204.77A16.42,16.42,0,0,0,70.49,236a16.24,16.24,0,0,0,7.1-1.63,62.43,62.43,0,0,1-7.67-2.8C61,227.59,58.1,214.25,63.35,204.77Z"/><circle class="cls-7" cx="70.46" cy="219.61" r="11.14"/><path d="M70.46,231.75A12.14,12.14,0,1,1,82.6,219.61,12.15,12.15,0,0,1,70.46,231.75Zm0-22.28A10.14,10.14,0,1,0,80.6,219.61,10.16,10.16,0,0,0,70.46,209.47Z"/><path class="cls-6" d="M66,210.43a10.2,10.2,0,1,0,8.85,18.38,36.9,36.9,0,0,1-4.76-1.75C64.57,224.6,62.76,216.32,66,210.43Z"/><path d="M69.11,224.48a4.5,4.5,0,0,1-1.19-.51,5.23,5.23,0,0,1-1-.86l1-1.22a3.62,3.62,0,0,0,1.18,1,3.09,3.09,0,0,0,1.39.32,2.49,2.49,0,0,0,1.56-.41,1.49,1.49,0,0,0,.52-1.24h0a1.31,1.31,0,0,0-.25-.84,1.52,1.52,0,0,0-.65-.46,5.27,5.27,0,0,0-1-.28h-.16l-.08,0a9.46,9.46,0,0,1-1.59-.41,2.26,2.26,0,0,1-1.05-.83,2.85,2.85,0,0,1-.43-1.7h0a3.69,3.69,0,0,1,.39-1.78,2.5,2.5,0,0,1,1.16-1.06,4.65,4.65,0,0,1,2-.36,4.88,4.88,0,0,1,1,.11,5.28,5.28,0,0,1,1,.32,8,8,0,0,1,1,.54L72.89,216a4.62,4.62,0,0,0-1.06-.54,3.09,3.09,0,0,0-1-.18,2.25,2.25,0,0,0-1.46.4,1.46,1.46,0,0,0-.48,1.2h0a1.25,1.25,0,0,0,.28.87,1.62,1.62,0,0,0,.7.46c.28.09.67.2,1.16.31h.12l.07,0h.07a7.27,7.27,0,0,1,1.45.47,2.29,2.29,0,0,1,1,.89,3,3,0,0,1,.39,1.66h0a3.32,3.32,0,0,1-.4,1.72,2.47,2.47,0,0,1-1.21,1,5.16,5.16,0,0,1-2,.34A4.87,4.87,0,0,1,69.11,224.48Zm.73-11.92h1.5v1.68h-1.5Zm0,11.51h1.5v1.77h-1.5Z"/><rect class="cls-2" x="40.41" y="269.6" width="44.01" height="9.26"/><path d="M85.42,279.87h-46V268.6h46Zm-44-2h42V270.6h-42Z"/><rect class="cls-2" x="48.45" y="260.16" width="44.01" height="9.26"/><path d="M93.46,270.42h-46V259.16h46Zm-44-2h42v-7.26h-42Z"/><rect class="cls-2" x="37.54" y="250.72" width="44.01" height="9.26"/><path d="M82.55,261h-46V249.72h46Zm-44-2h42v-7.26h-42Z"/><rect class="cls-6" x="38.43" y="251.46" width="15.27" height="7.64"/><rect class="cls-6" x="76.39" y="261.13" width="15.09" height="7.38"/><rect class="cls-6" x="41.37" y="270.55" width="14.82" height="7.31"/><g class="cls-8"><polyline class="cls-5" points="163.13 66.44 172.04 62.63 220.45 176.07 151.56 205.47 103.14 92.04 150.65 71.77"/><polygon points="151.03 206.79 101.83 91.52 150.26 70.84 151.04 72.69 104.45 92.57 152.08 204.16 219.14 175.54 171.51 63.95 163.52 67.36 162.74 65.52 172.57 61.32 221.77 176.59 151.03 206.79"/><path d="M163.25,193.84l-.25-1.18a5.7,5.7,0,0,0-7.81-4,5.5,5.5,0,0,0-1.35.81l-1,.83-37.52-87.93,1.23-.22a6,6,0,0,0,1.24-.37,5.67,5.67,0,0,0,2.32-8.66l-.76-1L160.25,74.6l.21,1.25a5.86,5.86,0,0,0,.37,1.31,5.71,5.71,0,0,0,7.49,3h0a5.54,5.54,0,0,0,1.35-.82l1-.84,37.54,88-1.24.22a5.35,5.35,0,0,0-1.25.37,5.7,5.7,0,0,0-3,7.48,5.23,5.23,0,0,0,.52.95l.67,1Zm-5.84-7.67a7.71,7.71,0,0,1,7.1,4.68l.1.24L201,175.55a2.4,2.4,0,0,1-.11-.23A7.71,7.71,0,0,1,205,165.21l.49-.19L169.86,81.64a7.6,7.6,0,0,1-.76.37h0A7.72,7.72,0,0,1,159,78c-.07-.18-.14-.36-.2-.55L122.35,93a5.12,5.12,0,0,1,.25.53,7.71,7.71,0,0,1-4.06,10.11,3.8,3.8,0,0,1-.47.18l35.59,83.38c.24-.13.49-.25.74-.36A7.65,7.65,0,0,1,157.41,186.17Z"/><circle class="cls-7" cx="157.51" cy="120.59" r="13.41"/><path d="M157.53,135a14.4,14.4,0,1,1,5.63-1.15A14.42,14.42,0,0,1,157.53,135Zm0-26.82a12.42,12.42,0,1,0,11.41,7.55h0a12.43,12.43,0,0,0-11.41-7.55Z"/><polyline class="cls-5" points="154.08 141.17 148.73 94.42 223.15 85.9 237.18 208.43 162.76 216.95 154.69 146.46"/><polygon points="161.88 218.06 153.69 146.57 155.68 146.34 163.64 215.84 236.08 207.55 222.27 87 149.84 95.3 155.07 141.06 153.09 141.28 147.62 93.54 224.03 84.79 224.15 85.78 238.29 209.31 161.88 218.06"/><path d="M177.29,209.14l.09-1.21a5.42,5.42,0,0,0,0-1.07,5.71,5.71,0,0,0-6.31-5,5.61,5.61,0,0,0-1.52.4l-1.22.5-10.88-95,1.25.14a6.1,6.1,0,0,0,1.28,0,5.7,5.7,0,0,0,5-6.32,5.59,5.59,0,0,0-.32-1.33l-.44-1.19L208.44,94l-.16,1.26a5.7,5.7,0,0,0,6.3,6.38h0a5.58,5.58,0,0,0,1.53-.4l1.23-.51,10.88,95-1.25-.15a5.74,5.74,0,0,0-1.31,0,5.63,5.63,0,0,0-3.81,2.11,5.7,5.7,0,0,0-1.21,4.2,5.82,5.82,0,0,0,.23,1l.36,1.16Zm-5.59-9.34a7.72,7.72,0,0,1,7.65,6.83,2.11,2.11,0,0,1,0,.25l39.32-4.5,0-.25a7.7,7.7,0,0,1,6.78-8.53l.52,0-10.32-90.07a7.56,7.56,0,0,1-.83.14,7.7,7.7,0,0,1-8.53-6.78,5.65,5.65,0,0,1,0-.59l-39.36,4.51a5.81,5.81,0,0,1,.09.58,7.7,7.7,0,0,1-6.78,8.53,4,4,0,0,1-.5,0L170,200a7.81,7.81,0,0,1,.82-.14A8.65,8.65,0,0,1,171.7,199.8Z"/><circle class="cls-7" cx="192.69" cy="137.29" r="13.41"/><path d="M192.66,151.7a14.43,14.43,0,0,1-14.29-12.77,14.41,14.41,0,1,1,25.6,7.32,14.27,14.27,0,0,1-9.64,5.35A13.48,13.48,0,0,1,192.66,151.7Zm.05-26.82a13.86,13.86,0,0,0-1.43.08A12.41,12.41,0,1,0,205,135.88h0a12.41,12.41,0,0,0-12.3-11Z"/><polyline class="cls-5" points="252.39 120.81 264.13 122.84 243.18 244.38 169.35 231.65 190.31 110.11 241.18 118.88"/><polygon points="243.99 245.53 168.2 232.46 189.49 108.95 241.35 117.89 241.01 119.86 191.12 111.27 170.51 230.83 242.36 243.22 262.98 123.65 252.22 121.8 252.56 119.83 265.29 122.02 243.99 245.53"/><path d="M229.08,235.75l-43.58-7.52.42-1.13a5.19,5.19,0,0,0,.28-1,5.71,5.71,0,0,0-4.65-6.59,5.79,5.79,0,0,0-1.56,0l-1.32.14,16.24-94.22,1.16.48a5.31,5.31,0,0,0,1.24.37,5.71,5.71,0,0,0,6.59-4.65,6.16,6.16,0,0,0,.06-1.37l-.08-1.26,43.85,7.56-.5,1.16a6.13,6.13,0,0,0-.4,1.31,5.7,5.7,0,0,0,4.65,6.59h0a5.62,5.62,0,0,0,1.59,0l1.31-.14-16.24,94.24-1.16-.49a5.58,5.58,0,0,0-1.25-.38,5.73,5.73,0,0,0-4.26,1,5.65,5.65,0,0,0-2.33,3.69,5.44,5.44,0,0,0-.08,1.08Zm-41-9.09,39,6.72a2.34,2.34,0,0,1,0-.26,7.7,7.7,0,0,1,8.9-6.28l.51.11L252,137.61a8,8,0,0,1-.84-.1h0a7.71,7.71,0,0,1-6.28-8.9c0-.19.07-.39.12-.58l-39-6.73a5.6,5.6,0,0,1-.07.59,7.71,7.71,0,0,1-8.9,6.28l-.5-.1-15.4,89.34a7.34,7.34,0,0,1,.82.09,7.72,7.72,0,0,1,6.29,8.9C188.16,226.49,188.15,226.57,188.13,226.66Z"/><circle class="cls-7" cx="220.45" cy="163.6" r="13.41"/><path d="M220.48,178a14.71,14.71,0,0,1-2.47-.21,14.41,14.41,0,1,1,10.75-2.43A14.27,14.27,0,0,1,220.48,178Zm0-26.82a12.53,12.53,0,1,0,2.13.19A11.8,11.8,0,0,0,220.43,151.19Z"/></g><rect x="144.85" y="199.33" width="2" height="19.88"/><circle class="cls-2" cx="258.87" cy="91.16" r="14.18"/><path d="M258.84,106.34a15.18,15.18,0,1,1,13.84-8.87h0A15.21,15.21,0,0,1,258.84,106.34Zm0-28.37a13.3,13.3,0,0,0-4.6.83,13.18,13.18,0,1,0,16.59,17.84h0a13.2,13.2,0,0,0-12-18.67Z"/><path class="cls-6" d="M258.63,77.68a13.45,13.45,0,0,0,.53,26.9,51.67,51.67,0,0,1-4.76-4.71C249.12,93.89,251.49,83,258.63,77.68Z"/><circle class="cls-7" cx="258.87" cy="91.16" r="9.13"/><path d="M258.86,101.29a10.15,10.15,0,1,1,3.54-.64A10.06,10.06,0,0,1,258.86,101.29Zm0-18.26a8.19,8.19,0,0,0-2.84.51,8.13,8.13,0,1,0,10.23,11h0A8.13,8.13,0,0,0,258.87,83Z"/><path class="cls-6" d="M258.69,82.8A8.36,8.36,0,1,0,259,99.51a30.14,30.14,0,0,1-2.95-2.92C252.78,92.87,254.25,86.08,258.69,82.8Z"/><path d="M256.2,94.33A3.86,3.86,0,0,1,255,92.55l1.16-.57a2.89,2.89,0,0,0,.55,1.11,2.54,2.54,0,0,0,.93.72A2.06,2.06,0,0,0,259,94a1.24,1.24,0,0,0,.81-.75h0a1.09,1.09,0,0,0,.1-.71,1.22,1.22,0,0,0-.32-.56,5.34,5.34,0,0,0-.67-.55s0,0,0,0l0,0-.05,0-.06,0a10.24,10.24,0,0,1-1-.85,1.87,1.87,0,0,1-.49-1,2.36,2.36,0,0,1,.26-1.42h0a2.94,2.94,0,0,1,.9-1.2,2,2,0,0,1,1.23-.39,3.76,3.76,0,0,1,1.57.39,4.42,4.42,0,0,1,.72.43,4.86,4.86,0,0,1,.63.58,5.11,5.11,0,0,1,.54.73l-1.09.62a3.77,3.77,0,0,0-.61-.77,2.3,2.3,0,0,0-.7-.48,1.84,1.84,0,0,0-1.22-.2,1.2,1.2,0,0,0-.77.73h0a1,1,0,0,0-.09.73,1.37,1.37,0,0,0,.37.59c.17.16.43.37.75.62l0,0,.05,0,0,0,0,0a5.18,5.18,0,0,1,.92.85,1.91,1.91,0,0,1,.43,1,2.57,2.57,0,0,1-.28,1.37h0A2.86,2.86,0,0,1,260,95a2.06,2.06,0,0,1-1.25.36,4.73,4.73,0,0,1-2.57-1Zm4.61-8.63,1.12.51-.57,1.25L260.24,87Zm-3.92,8.58,1.12.51-.61,1.32-1.11-.52Z"/><circle cx="96.64" cy="123.59" r="3.31"/><polygon class="cls-2" points="97.72 136.28 101.36 146.31 111.9 140.43 97.72 136.28"/><circle cx="88.78" cy="148.47" r="1.65"/><circle cx="292.31" cy="165.36" r="3.31"/><polygon class="cls-2" points="288.82 139.17 284.41 148.88 296.06 152.04 288.82 139.17"/><circle cx="273.9" cy="141.64" r="1.65"/><rect x="275.55" y="295.85" width="37.43" height="2"/><rect x="84.42" y="295.85" width="167.88" height="2"/><rect x="150.65" y="306.64" width="130.44" height="2"/><circle cx="264.17" cy="296.85" r="2.21"/></svg>