<svg id="Niezaleznosc" xmlns="http://www.w3.org/2000/svg" viewBox="0 0 360 360"><defs><style>.cls-1,.cls-2{fill:#fff;}.cls-2{stroke:#030303;stroke-miterlimit:10;stroke-width:2px;}.cls-3{fill:#c21333;}.cls-4{fill:#030303;}.cls-5{fill:#961430;}</style></defs><polyline class="cls-1" points="316.2 243.85 323.8 253.78 326.74 256.8 330.71 259.06 335.05 260.17 335.05 321.5 274.15 302.31 242.55 218.55 237.15 210.84 235.9 208.39 237.28 204.18 264.13 194.39 273.73 199.29 293.99 214.8 316.2 243.85"/><g id="_Powtarzanie_promieniowe_" data-name="&lt;Powtarzanie promieniowe&gt;"><line class="cls-2" x1="91.3" y1="277.91" x2="127.99" y2="231.3"/></g><g id="_Powtarzanie_promieniowe_2" data-name="&lt;Powtarzanie promieniowe&gt;"><line class="cls-2" x1="53.97" y1="222.14" x2="111.04" y2="205.99"/></g><g id="_Powtarzanie_promieniowe_3" data-name="&lt;Powtarzanie promieniowe&gt;"><line class="cls-2" x1="56.55" y1="155.07" x2="112.21" y2="175.55"/></g><g id="_Powtarzanie_promieniowe_4" data-name="&lt;Powtarzanie promieniowe&gt;"><line class="cls-2" x1="98.06" y1="102.33" x2="131.05" y2="151.62"/></g><g id="_Powtarzanie_promieniowe_5" data-name="&lt;Powtarzanie promieniowe&gt;"><line class="cls-2" x1="162.64" y1="84.05" x2="160.36" y2="143.32"/></g><g id="_Powtarzanie_promieniowe_6" data-name="&lt;Powtarzanie promieniowe&gt;"><line class="cls-2" x1="225.63" y1="107.23" x2="188.94" y2="153.84"/></g><g id="_Powtarzanie_promieniowe_7" data-name="&lt;Powtarzanie promieniowe&gt;"><line class="cls-2" x1="262.96" y1="163.01" x2="205.89" y2="179.15"/></g><g id="_Powtarzanie_promieniowe_8" data-name="&lt;Powtarzanie promieniowe&gt;"><line class="cls-2" x1="260.38" y1="230.07" x2="204.72" y2="209.59"/></g><g id="_Powtarzanie_promieniowe_9" data-name="&lt;Powtarzanie promieniowe&gt;"><line class="cls-2" x1="218.88" y1="282.82" x2="185.88" y2="233.53"/></g><g id="_Powtarzanie_promieniowe_10" data-name="&lt;Powtarzanie promieniowe&gt;"><line class="cls-2" x1="154.29" y1="301.09" x2="156.57" y2="241.82"/></g><polygon class="cls-3" points="146.95 114.02 131.43 126.58 148.28 141.64 146.95 114.02"/><path class="cls-3" d="M75.32,31.29,109.15,52A23.46,23.46,0,0,1,84.62,92L74.25,85.66v0a30.81,30.81,0,0,0-31.35,53l13.52,8.43,3.85-6.27-13.53-8.43a23.45,23.45,0,1,1,24.53-40l9.52,5.83A30.81,30.81,0,1,0,113,45.77l-22.86-14Z"/><path d="M56.74,148.52l-14.38-9A31.81,31.81,0,0,1,73.88,84.34l0,0,.87.51,10.37,6.36a22.46,22.46,0,1,0,23.49-38.28l-37-22.72,18.86.59,23.08,14.16A31.81,31.81,0,1,1,80.25,99.15l-9.51-5.84a22.46,22.46,0,0,0-23.49,38.28l14.38,9Zm2.2-65.93a29.85,29.85,0,0,0-15.53,55.27l12.68,7.9,2.8-4.56L46.2,133.29A24.46,24.46,0,0,1,71.78,91.6l9.52,5.84a29.81,29.81,0,1,0,31.17-50.82L89.85,32.74l-10.8-.34,30.62,18.79A24.45,24.45,0,1,1,84.1,92.88L73.74,86.55A29.75,29.75,0,0,0,58.94,82.59Z"/><path class="cls-4" d="M334.81,262l-2.12-.52a18.19,18.19,0,0,1-9.59-6c-2.36-2.84-5.18-6.4-8.38-10.57l1.59-1.22c3.18,4.15,6,7.69,8.33,10.51a16.09,16.09,0,0,0,8.53,5.33l2.12.52Z"/><path class="cls-4" d="M308.67,236.86c-4.9-6.56-9.55-13-12.59-17.2a35.37,35.37,0,0,0-9-8.68l-14.51-10.7-1.17-.81c-2.48-1.74-6.63-4.65-8.89-3.77-1.82.71-3.75,1.59-5.8,2.52a95.76,95.76,0,0,1-17.67,6.52c-.92.23-1.6,1.38-1.92,2a2.8,2.8,0,0,0,1.14,3.65l2.24,1.26-1,1.75-2.24-1.26a4.81,4.81,0,0,1-2-6.27,5.43,5.43,0,0,1,3.25-3.12,94.53,94.53,0,0,0,17.31-6.4c2.08-1,4-1.84,5.9-2.57,3.25-1.26,7.6,1.78,10.77,4l1.18.82,14.5,10.7a37.1,37.1,0,0,1,9.43,9.15c3,4.21,7.68,10.61,12.57,17.16Z"/><path class="cls-3" d="M256.61,209.88A75,75,0,0,0,222,197.75l.56-7.18a77.82,77.82,0,0,1,55.71,29.68"/><path d="M277.47,220.87a76.65,76.65,0,0,0-54-29.22l-.4,5.19a75.88,75.88,0,0,1,34.1,12.2l-1.1,1.67a73.67,73.67,0,0,0-34.16-12l-1-.08.71-9.18,1,.08A78.67,78.67,0,0,1,279,219.63Z"/><polyline class="cls-3" points="292.41 310.54 290.58 335.99 283.36 335.87 285.21 310.21"/><polygon points="291.51 337.01 282.29 336.86 284.21 310.14 286.2 310.29 284.44 334.89 289.65 334.98 291.41 310.47 293.4 310.61 291.51 337.01"/><path class="cls-3" d="M148.15,168.53h31.76a0,0,0,0,1,0,0v46.11a0,0,0,0,1,0,0H148.15a3.38,3.38,0,0,1-3.38-3.38V171.91a3.38,3.38,0,0,1,3.38-3.38Z" transform="translate(15.4 -12.05) rotate(4.46)"/><path d="M179,217l-32.67-2.55a4.39,4.39,0,0,1-4-4.71l3.06-39.23a4.38,4.38,0,0,1,4.71-4l32.66,2.55Zm-29.27-48.53a2.32,2.32,0,0,0-1.54.58,2.38,2.38,0,0,0-.83,1.62l-3.06,39.23a2.38,2.38,0,0,0,2.19,2.56l30.67,2.39,3.43-44-30.67-2.39Z"/><rect class="cls-3" x="179.85" y="166.25" width="8.72" height="54.09" rx="3.29" transform="translate(15.6 -13.75) rotate(4.46)"/><path d="M183.43,221.34h-.33l-2.14-.16a4.3,4.3,0,0,1-3.94-4.62l3.69-47.36a4.3,4.3,0,0,1,4.61-3.94l2.14.17a4.28,4.28,0,0,1,3.94,4.6l-3.69,47.37A4.3,4.3,0,0,1,183.43,221.34Zm-.18-2a2.29,2.29,0,0,0,2.46-2.11l3.7-47.36a2.29,2.29,0,0,0-2.1-2.46l-2.14-.17a2.32,2.32,0,0,0-1.67.55,2.24,2.24,0,0,0-.79,1.56L179,216.71a2.29,2.29,0,0,0,2.1,2.46Z"/><path class="cls-3" d="M188.58,174.22h11.78A10.65,10.65,0,0,1,211,184.88v19.26a10.65,10.65,0,0,1-10.65,10.65H188.58a0,0,0,0,1,0,0V174.22A0,0,0,0,1,188.58,174.22Z" transform="translate(15.74 -14.95) rotate(4.46)"/><path d="M199.63,215.8l-.93,0-12.74-1,3.31-42.43,12.74,1a11.66,11.66,0,0,1,10.71,12.53l-1.5,19.2a11.63,11.63,0,0,1-11.59,10.74Zm-11.52-2.86,10.75.83a9.64,9.64,0,0,0,10.37-8.87l1.5-19.2a9.66,9.66,0,0,0-8.87-10.37l-10.75-.84Z"/><path class="cls-3" d="M219.54,184.42h3a4.63,4.63,0,0,1,4.63,4.63v15.31a0,0,0,0,1,0,0H214.92a0,0,0,0,1,0,0V189a4.63,4.63,0,0,1,4.63-4.63Z" transform="translate(432.05 -10.87) rotate(94.46)"/><path d="M226.27,201.93h-.44l-16.27-1.27,1.11-14.23,16.27,1.27a5.64,5.64,0,0,1,5.17,6.05l-.24,3A5.63,5.63,0,0,1,226.27,201.93Zm-14.56-3.12L226,199.92a3.63,3.63,0,0,0,3.9-3.33l.23-3a3.63,3.63,0,0,0-3.33-3.9l-14.27-1.11Z"/><path d="M131.1,169.06h7.23a0,0,0,0,1,0,0v19a2.73,2.73,0,0,1-2.73,2.73h-1.78a2.73,2.73,0,0,1-2.73-2.73v-19A0,0,0,0,1,131.1,169.06Z" transform="translate(324.59 59.62) rotate(94.46)"/><path d="M129.53,189.18h7.23a0,0,0,0,1,0,0v19a2.73,2.73,0,0,1-2.73,2.73h-1.78a2.73,2.73,0,0,1-2.73-2.73v-19A0,0,0,0,1,129.53,189.18Z" transform="translate(342.96 82.87) rotate(94.46)"/><path class="cls-3" d="M88.84,146.39h31a0,0,0,0,1,0,0v45.12a0,0,0,0,1,0,0h-31a3.38,3.38,0,0,1-3.38-3.38V149.77A3.38,3.38,0,0,1,88.84,146.39Z" transform="translate(103.61 366.64) rotate(-148.99)"/><path d="M104.61,196.88a4.37,4.37,0,0,1-2.25-.62L74.93,179.77,99.2,139.39l27.43,16.48a4.39,4.39,0,0,1,1.5,6l-19.76,32.88A4.38,4.38,0,0,1,104.61,196.88ZM77.67,179.09l25.72,15.45a2.37,2.37,0,0,0,3.26-.81l19.76-32.87a2.38,2.38,0,0,0-.81-3.27L99.88,142.13Z"/><rect class="cls-3" x="79.99" y="131.44" width="8.54" height="52.92" rx="3.4" transform="translate(75.14 336.64) rotate(-148.99)"/><path d="M73.11,182.5a4.43,4.43,0,0,1-2.26-.62L69.37,181a4.41,4.41,0,0,1-1.5-6.05l23.75-39.52a4.4,4.4,0,0,1,6-1.5l1.48.88a4.4,4.4,0,0,1,1.51,6L76.9,180.37A4.42,4.42,0,0,1,73.11,182.5ZM95.4,135.29a2.38,2.38,0,0,0-.59.07,2.35,2.35,0,0,0-1.47,1.09L69.58,176a2.41,2.41,0,0,0,.82,3.3l1.48.89a2.4,2.4,0,0,0,3.3-.82l23.76-39.52a2.4,2.4,0,0,0-.83-3.3l-1.48-.89A2.35,2.35,0,0,0,95.4,135.29Z"/><path class="cls-3" d="M60.18,130.17h11.3a10.65,10.65,0,0,1,10.65,10.65v18.39a10.65,10.65,0,0,1-10.65,10.65H60.18a0,0,0,0,1,0,0V130.17a0,0,0,0,1,0,0Z" transform="translate(54.86 315.25) rotate(-148.99)"/><path d="M70.68,174.05l-10.54-6.33a11.66,11.66,0,0,1-4-16L65.62,136a11.66,11.66,0,0,1,16-4h0l10.54,6.33Zm4.95-41.73A9.66,9.66,0,0,0,67.34,137l-9.47,15.76A9.66,9.66,0,0,0,61.17,166L70,171.31,89.41,139l-8.83-5.3A9.6,9.6,0,0,0,75.63,132.32Z"/><path class="cls-3" d="M51.28,131.07H53.7a4.79,4.79,0,0,1,4.79,4.79v14.72a0,0,0,0,1,0,0h-12a0,0,0,0,1,0,0V135.86a4.79,4.79,0,0,1,4.79-4.79Z" transform="translate(-95.25 113.27) rotate(-58.99)"/><path d="M58.1,152.37l-13.47-8.1a5.77,5.77,0,0,1-2-7.94l1.25-2.08a5.78,5.78,0,0,1,7.94-2l13.47,8.1Zm-9.24-18.93a3.8,3.8,0,0,0-3.25,1.84l-1.25,2.08a3.78,3.78,0,0,0,1.3,5.2l11.76,7.06,5.15-8.57L50.81,134A3.83,3.83,0,0,0,48.86,133.44Z"/><polygon class="cls-3" points="201.38 55.06 209.16 81.26 179.23 142.14 201.38 55.06"/><circle cx="99.46" cy="237.86" r="2.18"/><circle class="cls-5" cx="216.47" cy="153.31" r="4.7"/><polygon class="cls-3" points="120.77 324.95 112.9 298.77 142.61 237.79 120.77 324.95"/><polygon class="cls-3" points="171.7 269.91 187.56 257.79 171.14 242.26 171.7 269.91"/><circle class="cls-5" cx="55.92" cy="198.34" r="4.7"/><path class="cls-1" d="M244,297c-10-6.84-17-15.15-13.29-21.2l2.95-4.12-4.53-6.93a8.87,8.87,0,0,1-1.18-6.93h0a8.84,8.84,0,0,1,8-6.71l2.66-.17L235,247.25a11.07,11.07,0,0,1-2.84-10.38h0a11.08,11.08,0,0,1,6.07-7.39l2.11-1L238,226.41a8.44,8.44,0,0,1-2.67-7.47h0a8.45,8.45,0,0,1,5.18-6.59l1.66-.67c4.53-1.83,12-1.78,15.46-1.64a7.46,7.46,0,0,1,3.39,1c3.41,1.92,11.54,6.46,14.42,7.79,14.79,6.8,16.43,6.36,16.43,6.36"/><path class="cls-4" d="M243.41,297.8c-12.31-8.4-17.26-16.62-13.58-22.55l2.59-3.63-4.15-6.35a9.83,9.83,0,0,1,7.57-15.19l.49,0-2.06-2.1a12.08,12.08,0,0,1,3.52-19.38l.75-.35-1.18-1.07a9.44,9.44,0,0,1,2.82-15.73l1.66-.67c4.6-1.85,11.92-1.86,15.88-1.71a8.51,8.51,0,0,1,3.83,1.1c3.36,1.89,11.49,6.44,14.35,7.75,13.46,6.19,15.84,6.28,15.93,6.28v.67l.34,1.29c-1.29.36-7.36-1.94-17.11-6.42-2.93-1.35-11.11-5.92-14.49-7.83a6.51,6.51,0,0,0-2.93-.84c-3.06-.12-10.64-.21-15,1.57l-1.66.67a7.43,7.43,0,0,0-2.22,12.39l3.4,3.09-3.47,1.62a10.08,10.08,0,0,0-2.94,16.17l5.1,5.21-4.83.32a7.83,7.83,0,0,0-6,12.09l4.9,7.5-3.35,4.69c-3,4.76,1.91,12.18,13,19.79Z"/><path class="cls-1" d="M335.05,321.5l-34.39-10.2s-12,.72-29.58-2.4a66.29,66.29,0,0,1-17.18-6.12"/><path class="cls-4" d="M334.77,322.46l-34.23-10.15a143.75,143.75,0,0,1-29.63-2.43,67.35,67.35,0,0,1-17.46-6.2l.89-1.79a65.81,65.81,0,0,0,16.92,6c17.26,3.06,29.22,2.39,29.34,2.38h.17l.17,0,34.4,10.2Z"/><rect class="cls-4" x="237.12" y="269.93" width="2" height="13.52" transform="translate(-123.72 228.4) rotate(-41.68)"/><rect class="cls-4" x="245.8" y="247" width="2" height="21.27" transform="translate(-108.87 285.68) rotate(-50.74)"/><rect class="cls-4" x="251.23" y="221.64" width="2" height="27.51" transform="translate(-77.92 335.54) rotate(-59.9)"/><line class="cls-1" x1="77.94" y1="134.7" x2="66.98" y2="153.31"/><rect class="cls-4" x="61.66" y="143.01" width="21.6" height="2" transform="translate(-88.39 133.29) rotate(-59.48)"/><line class="cls-1" x1="85.52" y1="135.5" x2="78.6" y2="147.14"/><rect class="cls-4" x="75.29" y="140.32" width="13.54" height="2" transform="translate(-81.35 139.66) rotate(-59.28)"/><path class="cls-4" d="M119.86,161.65l-15.45-9.32A4,4,0,0,0,99,153.64l-1.7-1a6,6,0,0,1,8.15-2l15.46,9.32Z"/><circle cx="96.7" cy="156.27" r="1.44"/><rect class="cls-3" x="109.99" y="149.89" width="8.54" height="52.92" rx="3.4" transform="translate(121.36 386.35) rotate(-148.99)"/><path d="M103.12,201a4.46,4.46,0,0,1-2.27-.62l-1.47-.89a4.4,4.4,0,0,1-1.51-6.05l23.75-39.52a4.43,4.43,0,0,1,6-1.51l1.48.89a4.42,4.42,0,0,1,1.5,6.05L106.9,198.82A4.42,4.42,0,0,1,103.12,201Zm22.28-47.21a2.39,2.39,0,0,0-2.06,1.16L99.58,194.42a2.4,2.4,0,0,0,.83,3.3l1.48.89a2.37,2.37,0,0,0,1.82.27,2.4,2.4,0,0,0,1.48-1.09l23.75-39.52a2.41,2.41,0,0,0-.82-3.3l-1.48-.89A2.44,2.44,0,0,0,125.4,153.74Z"/><polyline class="cls-5" points="77.64 179.11 98.85 191.89 105.96 180 84.69 167.47 77.3 179.17"/><path class="cls-5" d="M100.66,187.95h6.64a0,0,0,0,1,0,0V197a1.94,1.94,0,0,1-1.94,1.94H102.6a1.94,1.94,0,0,1-1.94-1.94v-9.07A0,0,0,0,1,100.66,187.95Z" transform="translate(114.51 -25.92) rotate(31.01)"/><path class="cls-5" d="M70.59,169.58h6.57a0,0,0,0,1,0,0v9.07a1.94,1.94,0,0,1-1.94,1.94H72.53a1.94,1.94,0,0,1-1.94-1.94v-9.07A0,0,0,0,1,70.59,169.58Z" transform="translate(100.74 -13.04) rotate(31.01)"/><path class="cls-5" d="M54.56,154.69H74.65a0,0,0,0,1,0,0V167a0,0,0,0,1,0,0H64.17a9.6,9.6,0,0,1-9.6-9.6v-2.74A0,0,0,0,1,54.56,154.69Z" transform="translate(92.09 -10.3) rotate(31.01)"/><path class="cls-5" d="M42.51,139.85h17.6a0,0,0,0,1,0,0v5.69a0,0,0,0,1,0,0H46.24a3.72,3.72,0,0,1-3.72-3.72v-2A0,0,0,0,1,42.51,139.85Z" transform="translate(80.84 -6.04) rotate(31.01)"/><rect class="cls-4" x="157.16" y="162.03" width="2" height="24.09" transform="translate(-28.3 317.42) rotate(-85.29)"/><circle cx="173.91" cy="175.29" r="1.44"/><circle cx="257.21" cy="143.01" r="2.18"/><circle cx="187.56" cy="291.01" r="4.7"/><circle cx="153.46" cy="66.52" r="4.7"/><circle cx="73.87" cy="260.97" r="4.7"/><path d="M326.57,311.06l-8.47-3c-12.57,1.08-15.5-5.07-15.61-5.33l1.81-.84c.11.21,2.62,5.21,13.84,4.16l.22,0,8.87,3.15Z"/><path class="cls-1" d="M154.79,181.11h0a2.53,2.53,0,0,1,2.53,2.53v17.41a0,0,0,0,1,0,0h-5.06a0,0,0,0,1,0,0V183.64A2.53,2.53,0,0,1,154.79,181.11Z" transform="translate(357.33 51.63) rotate(94.46)"/><path d="M162.21,195.19h-.28l-18.36-1.43.55-7,18.36,1.43a3.53,3.53,0,0,1-.27,7.05Zm-16.49-3.28,16.36,1.27a1.52,1.52,0,0,0,1.12-.36,1.49,1.49,0,0,0,.53-1,1.55,1.55,0,0,0-1.41-1.65L146,188.86Z"/><path class="cls-5" d="M144.29,210l.92-11.79L178.29,201l-1.17,13.79-30.7-2.35A2.31,2.31,0,0,1,144.29,210Z"/><path class="cls-5" d="M179.24,208.49h6.69a0,0,0,0,1,0,0v9.07A1.94,1.94,0,0,1,184,219.5h-2.82a1.94,1.94,0,0,1-1.94-1.94v-9.07a0,0,0,0,1,0,0Z" transform="translate(17.2 -13.56) rotate(4.46)"/><path class="cls-5" d="M198.18,201.37H209a0,0,0,0,1,0,0v12.34a0,0,0,0,1,0,0H188.58a0,0,0,0,1,0,0V211A9.6,9.6,0,0,1,198.18,201.37Z" transform="translate(380.83 429.92) rotate(-175.54)"/><path class="cls-5" d="M215.53,193.81h14.33a0,0,0,0,1,0,0v5.69a0,0,0,0,1,0,0H211.81a0,0,0,0,1,0,0v-2A3.72,3.72,0,0,1,215.53,193.81Z" transform="translate(425.7 409.9) rotate(-175.54)"/><line class="cls-3" x1="203.03" y1="183.92" x2="201.5" y2="203.03"/><rect x="192.68" y="192.48" width="19.17" height="2" transform="translate(-6.78 379.61) rotate(-85.41)"/><line class="cls-3" x1="198.05" y1="183.41" x2="196.52" y2="202.52"/><rect x="187.7" y="191.96" width="19.17" height="2" transform="translate(-10.85 374.17) rotate(-85.41)"/><polygon class="cls-3" points="253.86 129.81 239.11 123.24 223.43 141.01 253.86 129.81"/></svg>