<svg id="Niezaleznosc" xmlns="http://www.w3.org/2000/svg" viewBox="0 0 360 360"><defs><style>.cls-1{fill:#c21333;}.cls-2{fill:#fff;}.cls-3{fill:#030303;}.cls-4{fill:#961430;}</style></defs><circle class="cls-1" cx="249.32" cy="105.19" r="55.49"/><path d="M271.77,46.49l-.9-3.35c-1.08-4-3.14-6-7.14-6.93l-4.56-1.08,4.61-.88c4.11-.78,6.24-2.82,7.35-7l1.14-4.38.81,4.45c.71,4,2.74,6.09,7,7.26l4.08,1.12-4.15.82c-3.9.78-6,2.71-7.21,6.69ZM267.18,35.3a9.76,9.76,0,0,1,4.7,4.78,9.62,9.62,0,0,1,4.83-4.65,9.51,9.51,0,0,1-4.72-4.8A9.43,9.43,0,0,1,267.18,35.3Z"/><path class="cls-2" d="M298.42,163.06c1.15-3.74,3.17-5.92,7.29-6.74-4.18-1.15-6.33-3.35-7-7.36-1,3.94-3.12,6.28-7.44,7.1A8.84,8.84,0,0,1,298.42,163.06Z"/><path d="M298.35,166.67l-.9-3.35c-1-3.61-2.84-5.43-6.46-6.28L286.42,156l4.61-.88c3.72-.71,5.65-2.56,6.66-6.38l1.15-4.37.8,4.45c.65,3.61,2.49,5.52,6.34,6.57l4.08,1.12-4.15.83c-3.53.7-5.43,2.46-6.54,6.06Zm-4-10.54a8.94,8.94,0,0,1,4.1,4.18,8.9,8.9,0,0,1,4.22-4.07,8.72,8.72,0,0,1-4.12-4.19A8.75,8.75,0,0,1,294.36,156.13Z"/><rect x="104.25" y="225.63" width="2" height="8.1" transform="translate(-146.28 205.98) rotate(-60)"/><rect x="145.51" y="235.39" width="2" height="36.23" transform="translate(-146.28 253.63) rotate(-60)"/><path d="M203.53,310l-1-1.74a12.25,12.25,0,0,0,0-21.21l-24.6-14.2,1-1.73,24.6,14.2a14.25,14.25,0,0,1,0,24.68Z"/><rect x="223.16" y="263.89" width="112.83" height="2" transform="translate(-94.98 175.24) rotate(-29.99)"/><polygon class="cls-2" points="115.38 172.63 123.58 195.1 126.74 181.56 125.09 170.79 115.38 172.63"/><path d="M123.8,198.6,114,171.87l11.88-2.25,1.84,12Zm-7.08-25.21,6.65,18.22,2.35-10.08L124.26,172Z"/><path class="cls-2" d="M162.28,154.52l2.21-9.94s6,.18,5.71-5.55-4.11-17.39-4.11-17.39l-16,.87-1.16,10.67,4.31,8.16L146.93,155Z"/><path class="cls-3" d="M145.35,156l6.73-14.65-4.22-8,1.28-11.82,17.66-1,.24.73c.15.48,3.88,11.86,4.16,17.66a6,6,0,0,1-1.57,4.65,7.16,7.16,0,0,1-4.33,1.9l-2.21,10Zm4.56-23,4.4,8.32-5.8,12.61,13-.38,2.22-10,.83,0a5.6,5.6,0,0,0,3.69-1.34,4.11,4.11,0,0,0,1-3.16c-.22-4.71-3-13.78-3.83-16.4l-14.42.78Z"/><polygon points="164.32 144.03 160.67 143.12 163.25 149.65 164.32 144.03"/><path d="M166.94,111.48s7.14,4.94-1.7,10.82l-4.64,3.06s-.1,6.22-.77,8.7c0,0-1-3.51-3.49-3.43s-2.57,2.22-2.44,3.33,2.77,3,2.77,3l-.34,8.45s-16.19-4.44-15.18-18.32,15.28-12.4,17.83-13.07S166.94,111.48,166.94,111.48Z"/><ellipse cx="165.55" cy="130.05" rx="0.68" ry="1.04" transform="translate(-26.65 44.14) rotate(-14.07)"/><path d="M163,129.58s-.36-3.25,1.27-3.68,1.44,1.35,1.44,1.35Z"/><polygon class="cls-2" points="90.38 240.98 76.33 237.88 78.17 229.56 92.36 231.98 90.38 240.98"/><path d="M91.14,242.17l-16-3.53,2.26-10.22,16.17,2.75Zm-13.61-5,12.09,2.66,1.54-7-12.22-2.08Z"/><path class="cls-1" d="M80.26,240.31l-5.08,5.32s-3.86,4.22-6.42,5.18h0A1.44,1.44,0,0,1,67,249.28L71.94,227a1.75,1.75,0,0,1,2.18-1.15l7.28,1.6a1.16,1.16,0,0,1,.88,1.38l-.07.3A3.22,3.22,0,0,1,81,231l-2.94,2.29a1.71,1.71,0,0,0-.43,2.28l2.3,2.5a1.5,1.5,0,0,1,.33,2.25Z"/><path d="M68.53,251.83A2.61,2.61,0,0,1,66.6,251a2.13,2.13,0,0,1-.55-1.92L71,226.78a2.76,2.76,0,0,1,3.37-1.91l7.29,1.61A2.15,2.15,0,0,1,83.26,229l-.07.3a4.24,4.24,0,0,1-1.57,2.44l-3,2.29a.71.71,0,0,0-.22.91l2.17,2.35a2.81,2.81,0,0,1,1,1.83A2.39,2.39,0,0,1,81,241l0,0-5.08,5.32c-.15.17-4,4.39-6.79,5.43l-.22.05Zm5.11-25a.72.72,0,0,0-.73.42L68,249.5c0,.05.06.12.07.14a.66.66,0,0,0,.46.19c1.92-.8,4.9-3.77,5.91-4.87l5.07-5.32a.42.42,0,0,0,.13-.3.83.83,0,0,0-.34-.5l-.1-.1-2.44-2.67a2.7,2.7,0,0,1,.69-3.58l2.94-2.29a2.26,2.26,0,0,0,.85-1.29l.06-.3a.15.15,0,0,0-.11-.18l-7.29-1.61Z"/><path class="cls-1" d="M75,245.75a4,4,0,0,0-1.51-3.16"/><path d="M76,245.8l-2-.11,1,.06-1-.05a2.93,2.93,0,0,0-1.12-2.31l1.2-1.6A4.93,4.93,0,0,1,76,245.8Z"/><path class="cls-1" d="M77.31,243.44a3.92,3.92,0,0,0-1.52-3.15"/><path d="M78.3,243.5l-2-.11,1,.05-1,0a2.92,2.92,0,0,0-1.12-2.31l1.2-1.6A4.93,4.93,0,0,1,78.3,243.5Z"/><circle class="cls-2" cx="75.79" cy="229.94" r="1.39"/><path d="M75.8,231.82a1.86,1.86,0,0,1-1.6-.87,1.87,1.87,0,0,1-.25-1.42,1.89,1.89,0,0,1,2.25-1.44h0a1.9,1.9,0,0,1,.61,3.44A1.94,1.94,0,0,1,75.8,231.82Zm0-2.77a.92.92,0,0,0-.48.14.91.91,0,0,0-.27,1.22.9.9,0,0,0,.56.39.88.88,0,0,0,.67-.12.85.85,0,0,0,.39-.55.88.88,0,0,0-.12-.67.9.9,0,0,0-.56-.39Z"/><polygon class="cls-2" points="159.64 279.39 160.76 294.77 151.65 295.43 149.78 280.1 159.64 279.39"/><path d="M150.77,296.5l-2.11-17.32,11.9-.86,1.27,17.38ZM150.9,281l1.63,13.35,7.16-.52-1-13.39Z"/><path class="cls-1" d="M162.06,290l7,3.59s5.52,2.68,7.29,5h0a1.55,1.55,0,0,1-1,2.26l-24.41,1.77a1.87,1.87,0,0,1-1.85-1.88l-.58-8a1.24,1.24,0,0,1,1.14-1.33l.33,0a3.5,3.5,0,0,1,2.29.67l3.25,2.33a1.84,1.84,0,0,0,2.48-.26l1.86-3.13a1.62,1.62,0,0,1,2.22-1Z"/><path d="M150.82,303.63a2.6,2.6,0,0,1-1.86-.81,3.18,3.18,0,0,1-.89-2l-.58-8a2.22,2.22,0,0,1,.54-1.62,2.17,2.17,0,0,1,1.53-.77l.33,0a4.42,4.42,0,0,1,2.94.86l3.25,2.32a.84.84,0,0,0,1.11-.06l1.76-3a2.89,2.89,0,0,1,1.53-1.56,2.49,2.49,0,0,1,2,.08l0,0,7,3.59c.21.11,5.73,2.81,7.63,5.3l.11.19a2.81,2.81,0,0,1-.12,2.54,2.24,2.24,0,0,1-1.76,1.12L151,303.62Zm-.62-11.23H150l-.32,0a.3.3,0,0,0-.17.08.22.22,0,0,0,0,.17l.58,8a1.2,1.2,0,0,0,.32.76.59.59,0,0,0,.46.21l24.41-1.78c.08,0,.14-.1.18-.15a.78.78,0,0,0,.05-.6c-1.4-1.74-5.4-3.91-6.84-4.62l-7-3.58a.5.5,0,0,0-.41,0,1,1,0,0,0-.45.54l-.07.13-2,3.3a2.83,2.83,0,0,1-3.79.39l-3.25-2.33A2.54,2.54,0,0,0,150.2,292.4Z"/><path class="cls-1" d="M169.27,293.78a4.22,4.22,0,0,0-2.78,2.52"/><path d="M167.43,296.65l-1.88-.69a5.21,5.21,0,0,1,3.49-3.15l.46,1.94-.23-1,.24,1A3.19,3.19,0,0,0,167.43,296.65Z"/><path class="cls-1" d="M166.18,292.07a4.22,4.22,0,0,0-2.78,2.52"/><path d="M164.34,294.94l-1.88-.69A5.21,5.21,0,0,1,166,291.1l.46,1.94-.23-1,.24,1A3.23,3.23,0,0,0,164.34,294.94Z"/><circle class="cls-2" cx="152.78" cy="297.72" r="1.49"/><path d="M152.78,299.71a2,2,0,0,1-1.3-.49,2,2,0,0,1-.68-1.36,2,2,0,0,1,1.84-2.12,2,2,0,0,1,.29,4Zm0-3h-.07a1,1,0,0,0-.67.34,1,1,0,0,0-.24.72,1,1,0,0,0,.34.67.91.91,0,0,0,.71.24,1,1,0,0,0-.07-2Z"/><polyline class="cls-2" points="149.39 209.89 151.89 205.05 123.58 195.1 117.91 233.41 91.2 230.7 89.56 242.84 107.81 247.22"/><polygon points="107.58 248.19 88.45 243.6 90.34 229.6 117.06 232.32 122.77 193.76 153.31 204.48 150.28 210.35 148.5 209.43 150.48 205.61 124.4 196.45 118.76 234.5 92.06 231.79 90.67 242.07 108.05 246.25 107.58 248.19"/><path class="cls-2" d="M115.66,249.11l6.67,1.6a7,7,0,0,0,7.79-3.56l12.78-24.71"/><path d="M124,251.9a8,8,0,0,1-1.87-.22l-6.67-1.6.47-2,6.67,1.6a5.92,5.92,0,0,0,6.66-3L142,222l1.78.92L131,247.61A7.93,7.93,0,0,1,124,251.9Z"/><polyline class="cls-2" points="161.12 219.84 158.16 200.19 131.2 196.87"/><polygon points="160.13 219.99 157.29 201.09 131.08 197.86 131.32 195.87 159.04 199.29 162.11 219.7 160.13 219.99"/><path class="cls-2" d="M133.08,208.75l.65,4.06a19.52,19.52,0,0,0,1,3.9L144,240.77l4.63,42.65a18.81,18.81,0,0,0,12.82-.29L163.64,238a10.18,10.18,0,0,0-.1-2l-1.46-9.72"/><path d="M154.39,285.38a17.07,17.07,0,0,1-6.2-1l-.54-.23L143,241l-9.13-23.93a20,20,0,0,1-1.1-4.1l-.64-4.06,2-.32.65,4.06a18.13,18.13,0,0,0,1,3.71l9.23,24.3,4.57,42a18.42,18.42,0,0,0,10.93-.28l2.2-44.47a8.92,8.92,0,0,0-.09-1.79l-1.46-9.72,2-.3,1.46,9.72a10.69,10.69,0,0,1,.11,2.19l-2.27,45.81-.63.23A21.65,21.65,0,0,1,154.39,285.38Z"/><path class="cls-1" d="M146.84,149.7a18.51,18.51,0,0,0-3.55-.36,5.49,5.49,0,0,0-.6,0,11.92,11.92,0,0,0-1.9.17,13,13,0,0,0-2.48.5h0a72.65,72.65,0,0,0-20.6,8.55s-3,1.82-3.74,2.43,0,12.82,0,12.82L125.79,171l.11-4.16,4.08.07-8.09,36.49a119.06,119.06,0,0,0,36.68.59s10.11-33.16,10.32-39.43S160.19,152.45,146.84,149.7Z"/><path d="M142.25,206.14a114.22,114.22,0,0,1-20.56-1.73l-1-.2,8.05-36.29-1.86,0-.12,3.94L113.07,175l-.07-1.18c-.77-12.71-.09-13.29.31-13.64.76-.64,3.57-2.33,3.88-2.52A74.25,74.25,0,0,1,138,149a14.73,14.73,0,0,1,2.65-.53,12.41,12.41,0,0,1,2.05-.18l.67,0a19.23,19.23,0,0,1,3.65.38c14.1,2.91,23.06,9.15,22.85,15.9-.21,6.33-9.95,38.33-10.37,39.69l-.18.61-.63.09A118.11,118.11,0,0,1,142.25,206.14Zm-19.16-3.51a120.84,120.84,0,0,0,34.71.49c1.37-4.55,9.91-33,10.09-38.56s-8.36-11.22-21.25-13.88h0a17,17,0,0,0-3.36-.34c-.26,0-.43,0-.62,0a9.29,9.29,0,0,0-1.72.16,15.19,15.19,0,0,0-1.93.34v0l-.46.11a72.38,72.38,0,0,0-20.3,8.43c-1.06.63-2.79,1.71-3.46,2.21a85.1,85.1,0,0,0,.15,10.94l9.88-2.29.12-4.38,6.29.12Z"/><path class="cls-1" d="M164.77,157.19s5.63,3.15,6.8,16.91l1.56,8.29,5.83-1.92,3.35,11s-14.84,6.13-15.85,5.73-9.91-21.1-9.91-21.1"/><path d="M166.48,198.16a1,1,0,0,1-.39-.07c-.45-.18-1.4-.56-10.46-21.63l1.84-.79c3.78,8.8,8.21,18.58,9.42,20.46a151.13,151.13,0,0,0,14.2-5.28l-2.79-9.11-5.94,2-1.79-9.52c-1.09-12.92-6.25-16.09-6.3-16.12l1-1.74c.25.14,6.1,3.56,7.3,17.64l1.34,7.12,5.72-1.88L183.54,192l-.85.34C170.38,197.44,167.39,198.16,166.48,198.16Z"/><path class="cls-2" d="M193,186.65l6.59-2.74a23.09,23.09,0,0,0,4.39-2.09c2.43-1.46,2.4-2.69,2.4-2.69.47-5.66-3.88-7.46-3.88-7.46l-3.29,3.07c-.86-.48-3.14-1.62-4.53-1.14-1.75.61-2.68,4.83-2.68,4.83l-12.42,2.68,1.9,10.32,6.31-2.62"/><path d="M180.69,192.83l-2.3-12.5,12.76-2.75c.38-1.4,1.37-4.29,3.17-4.92,1.44-.5,3.37.21,4.7.87l3.23-3,.6.25a8.19,8.19,0,0,1,4.5,8.43c0,.45-.29,1.94-2.88,3.49a24.48,24.48,0,0,1-4.59,2.19l-6.53,2.71-.77-1.84,6.6-2.74a23.7,23.7,0,0,0,4.26-2c1.77-1.07,1.91-1.88,1.91-1.88a6.3,6.3,0,0,0-2.73-6.19L199.33,176l-.63-.35c-1.59-.89-3-1.31-3.72-1.07s-1.65,2.36-2,4.1l-.14.62-12.1,2.61,1.5,8.15,5.17-2.14.76,1.84Z"/><path class="cls-3" d="M156,282h-2v-6h2Zm0-12h-2v-6h2Zm0-12h-2v-6h2Zm0-12h-2v-6h2Zm-2.83-11.51c-.53-1.44-1.25-3.43-2-5.67l1.88-.67c.8,2.24,1.52,4.21,2.05,5.65Zm-4-11.35c-.67-1.93-1.33-3.88-1.93-5.71l1.9-.62c.6,1.82,1.26,3.76,1.92,5.68Zm-3.7-11.51a20,20,0,0,1-.77-3.63l2-.11a17.85,17.85,0,0,0,.7,3.21Z"/><path d="M158.24,216.31a16.1,16.1,0,0,1-8.87-11.16l2-.31a14.11,14.11,0,0,0,7.79,9.68Z"/><line class="cls-2" x1="199.18" y1="174.74" x2="196.42" y2="177.64"/><rect x="195.8" y="175.19" width="4" height="2" transform="translate(-66.22 197.68) rotate(-46.35)"/><line class="cls-1" x1="129.98" y1="166.94" x2="131.67" y2="158.71"/><rect x="126.62" y="161.83" width="8.41" height="2" transform="translate(-55 258.22) rotate(-78.39)"/><polygon class="cls-4" points="155.81 176.46 158.02 203.43 162.08 189.94 155.81 176.46"/><polygon class="cls-4" points="130.98 158.71 120.64 164.28 125.15 170.55 125.55 166.18 129.52 166.3 130.98 158.71"/><path class="cls-4" d="M132.34,159.33l-9.72,43.76a33.72,33.72,0,0,0,5.1.59Z"/><path class="cls-4" d="M169.06,164.86a51.65,51.65,0,0,1,2.22,11.38l1.37,7,5.92-2-7.85,5.83Z"/><line class="cls-4" x1="116.39" y1="169.95" x2="125.81" y2="168.25"/><rect x="116.32" y="168.1" width="9.57" height="2" transform="translate(-28.12 24.21) rotate(-10.23)"/><line class="cls-4" x1="178.57" y1="192.84" x2="176.85" y2="185.57"/><rect x="176.71" y="185.47" width="2" height="7.46" transform="translate(-38.66 45.81) rotate(-13.26)"/><path class="cls-4" d="M166.09,191.72s1.21,3.12,3.6,2.2"/><path d="M168.81,195.09c-1.93,0-3.2-1.84-3.65-3l1.86-.73c0,.09.9,2.19,2.31,1.64l.72,1.86A3.4,3.4,0,0,1,168.81,195.09Z"/><path class="cls-3" d="M123.9,241.72l-6.29-.87.28-2,5.53.76-.08.56,1,.44ZM111.67,240l-5.94-.82.27-2,5.94.82Zm-11.89-1.64-5.94-.82.27-2,6,.82Zm27-3.27-1.83-.79,2.37-5.51,1.84.8Zm4.75-11-1.83-.8,1.67-3.86,1.83.79Z"/><path class="cls-1" d="M132.15,323.44v.06l-4-5.68v-3.77l-5.36-2.85-4.68-5.76-.12.06-2,1.06-9.44,4.9h0l-.12.06-.21,1.07.16,4.15-7.21,4V331l8.69,4.94,0-.07.54-9.55,2.77-1.65,5,6.56-8,4.74.08.13,7.88-4.37,4.71,6.18-.1-.66h0v-3.75l-.15,3.05-1-1.27h0L117,330.7l-.63.37-5-6.55L107,318.76l-.13-2.12-.29-4.38.23.28v0h0v0l1.74,3.1.48-.28,5.61,7.16h0l5.08,6.48.92,1.16v3.31l.17-3.38v0l11.43-6.51Zm-4.24-5.39-1.83-2.31,1.83-1.09Zm-7.07,12.06-.16.09v3.31l.17-3.38Zm0,0-.16.09v3.31l.17-3.38Zm0,0-.16.09v3.31l.17-3.38Zm11.35-6.67-.28,7-10.76,6.81.66-.05,10.5-6.74-.06-6.82Zm-11.51,6.76v3.31l.17-3.38v0Zm.16-.09-.16.09v3.31l.17-3.38Zm0,0-.16.09v3.31l.17-3.38Zm0,0-.16.09v3.31l.17-3.38Z"/><path d="M107.86,327.21,98.53,322v-1.74l.14-.08,7.71-4.39,1.49.8.12,1.81,4.19,5.52-.26,1.46-.27.16-2.79,1.66Zm-6.81-6.1,7.28,4.07,1.59-.95-3.7-4.87-.21-.54,0-.51Z"/><path d="M114.68,323.56l-.79-.39L108.27,316l.29-1.48,10.27-5.85h1l8.87,4.92,0,1.73-13.51,8.07Zm-4.11-7.86,4.35,5.55,11.27-6.74-6.86-3.8Z"/><polygon class="cls-4" points="116.09 331.24 108.15 335.96 107.81 336.03 107.81 335.88 108.35 326.33 111.12 324.68 116.09 331.24"/><path d="M108,337l-1.2-1v-.16l.54-9.56.49-.81,2.77-1.65,1.31.26,5,6.55-.28,1.47-8,4.72-.31.12Zm1.31-10.09-.42,7.43,5.72-3.4L110.87,326Z"/><polygon points="107.57 336.87 107.41 336.78 107.54 334.95 107.7 334.9 107.99 335.69 108.34 335.01 108.5 335.09 108.07 335.92 108.38 336.78 108.22 336.84 107.96 336.13 107.57 336.87"/><polygon class="cls-4" points="127.91 314.65 127.91 318.06 126.08 315.74 127.91 314.65"/><polygon points="127.12 318.67 125.3 316.36 125.57 314.88 127.4 313.79 128.91 314.65 128.91 318.06 127.12 318.67"/><rect x="126.91" y="314.04" width="2" height="0.61"/><rect x="116.07" y="330.16" width="0.32" height="2" transform="translate(-154.15 107.4) rotate(-31.05)"/><polygon points="120.28 329.89 119.25 328.18 126.91 323.59 126.91 318.06 128.91 318.06 128.91 324.16 128.42 325.02 120.28 329.89"/><polygon points="107.48 336.85 98.81 331.86 98.31 330.99 98.31 321.12 100.31 321.12 100.31 330.41 108.48 335.11 107.48 336.85"/><polygon class="cls-1" points="120.68 333.51 120.68 330.2 119.77 329.04 114.68 322.56 114.67 322.56 109.06 315.4 108.58 315.68 106.84 312.58 106.83 312.56 106.83 312.56 106.82 312.54 106.59 312.26 106.59 312.13 106.58 312.12 106.58 312.11 106.57 311.87 106.54 311.47 106.77 311.76 109.41 315.21 109.41 315.21 114.93 322.4 119.94 328.93 120.84 330.11 120.85 330.13 120.68 333.51"/><polygon class="cls-4" points="132.2 323.34 131.91 330.42 121.15 337.22 121.15 337.22 120.68 337.26 120.68 333.51 120.85 330.13 120.84 330.11 132.27 323.6 132.15 323.44 132.3 323.36 132.2 323.34"/><path d="M120.75,338.25l-1.07-1v-3.75l.17-3.43h.3l.2-.85,11.25-6.41.05-.26.15-.08.12.2.4-.34h.1l.15.75.36-.29.13.16-.08.4h.22l-.29,7.08-.46.81-10.76,6.8-.54.15Zm1.07-7.55-.14,2.86v2.15l9.25-5.85.18-4.45Z"/><polygon class="cls-1" points="120.85 330.13 120.68 333.51 120.68 330.2 120.84 330.11 120.85 330.13"/><polygon points="121.68 333.56 119.68 333.51 119.68 330.2 120.19 329.33 120.35 329.24 121.68 329.57 121.85 330.18 121.68 333.56"/><polygon class="cls-1" points="120.68 337.26 121.15 337.22 120.25 337.66 120.68 337.26"/><polygon points="120.68 338.56 119.57 336.92 120 336.52 120.61 336.26 121.08 336.23 121.58 338.13 120.68 338.56"/><polygon class="cls-1" points="132.15 323.44 132.27 323.6 120.84 330.11 132.15 323.44"/><polygon points="121.34 330.98 120.33 329.25 131.64 322.58 132.93 322.82 133.06 322.98 132.77 324.47 121.34 330.98"/><polygon class="cls-1" points="132.15 323.38 132.06 323.55 132.15 323.24 132.15 323.38"/><polygon points="132.94 324.01 131.37 323.38 131.15 323.38 131.1 323.27 131.19 322.96 131.23 322.97 131.26 322.91 131.42 323 133.15 323.24 133.15 323.38 132.94 324.01"/><polygon class="cls-1" points="120.68 337.28 120.67 337.26 120.67 337.26 120.68 337.28"/><polygon points="120.67 338.26 120.67 337.39 119.88 337.88 119.86 337.85 119.98 337.62 119.78 337.71 119.77 337.69 120 337.58 120.67 336.26 121.4 336.72 121.47 336.66 121.4 336.72 121.57 336.83 120.67 337.38 120.67 338.26"/><polygon class="cls-1" points="132.27 323.6 120.84 330.11 120.68 330.2 119.77 329.04 114.68 322.56 114.67 322.56 109.06 315.4 106.84 312.58 106.83 312.56 106.83 312.56 106.82 312.54 106.59 312.26 106.54 312.19 106.37 311.98 106.57 311.87 106.77 311.76 115.98 306.56 117.97 305.44 118.03 305.5 122.69 311.43 126.08 315.74 127.91 318.06 132.15 323.44 132.27 323.6"/><path d="M121.18,331.07l-1.28-.25L106,313.08l0,0-.4-.5.29-1.49.41-.23,11.19-6.31,1.27.23.06.08L133.06,323l-.29,1.49Zm-5.72-9.13h0l5.47,7,9.83-5.61-13.05-16.57-9.84,5.55Z"/><polygon class="cls-4" points="106.59 312.26 107.01 318.76 120.68 337.52 120.84 330.11 106.59 312.26"/><path d="M119.87,338.11,106.2,319.35l-.19-.53-.41-6.49,1.77-.69,14.25,17.85.22.64-.16,7.41ZM108,318.4l11.76,16.14.08-4.09-12-15.08Z"/><path class="cls-1" d="M320.5,225.76,331,220v-.26Zm-73.18-42.07.15,58.47.26.71.38,1.1.08.22,71.23,41.48h1.28l-.05-11.94,0-12.07,0-12,0-11.94,0-12L297.27,212.2l-25.06-14.64h0l-24.14-14.09,10.07-5.82,24.43,14,25.1,14.44,23.68,13.62v-.26l-73.1-42-10.35,5.87-.16.09Zm83.65,36-10.47,6L331,220Zm-10.47,6L331,220v-.26Zm.22,59.91h.51l10-6.06.07-59.85L331,220v59.78Z"/><polygon class="cls-4" points="297.27 212.2 320.5 225.76 330.97 219.71 330.97 219.97 331.34 219.76 307.66 206.14 307.63 206.2 297.27 212.2"/><path d="M321,226.63h-1l-23.22-13.56v-1.73l10.36-6,.13.22.9-.28,23.68,13.62v.74l.13.08V220h-.14v.67l-.37.21-.22-.13Zm-21.74-14.42,21.24,12.4,8.61-5L307.7,207.31Z"/><polygon points="320.98 226.64 320 224.9 330.47 218.84 331.97 219.71 331.97 219.97 331.46 220.84 320.98 226.64"/><polygon class="cls-4" points="272.21 197.56 297.27 212.2 307.63 206.2 307.66 206.14 282.56 191.7 282.55 191.72 272.21 197.56"/><path d="M297.77,213.07h-1l-25.05-14.64v-1.74l10.34-5.84.11.2.89-.22,25.1,14.44.38,1.35-.41.44Zm-23.55-15.49,23,13.47,8.43-4.89-23.13-13.31Z"/><polygon class="cls-4" points="248.06 183.47 272.2 197.56 272.21 197.56 282.55 191.72 282.56 191.7 258.13 177.65 248.06 183.47"/><path d="M272.21,198.56l-.51-.13-24.15-14.1V182.6l10.07-5.82h1l24.43,14.05.33,1.42-.35.34-10.34,5.84Zm-22.16-15.09,22.17,12.94,8.33-4.71-22.41-12.9Z"/><polygon points="319.99 226.63 247.23 184.53 247.22 182.8 247.55 182.6 248.56 182.6 321 224.9 319.99 226.63"/><polygon class="cls-4" points="320.5 225.76 320.54 237.72 320.56 237.74 330.97 231.73 330.97 219.97 320.5 225.76"/><path d="M320.12,238.63l-.58-.9,0-12,.51-.88,10.48-5.8L332,220v11.77l-.5.86-10.41,6Zm1.38-12.28,0,9.67,8.44-4.87v-9.49Z"/><polygon points="320.98 226.64 320 224.9 330.47 218.84 331.97 219.71 331.97 219.97 331.46 220.84 320.98 226.64"/><polygon class="cls-4" points="320.65 273.73 320.69 285.67 320.72 285.67 330.97 279.75 330.97 267.78 320.65 273.73"/><path d="M320.72,286.67l-1-1,0-11.94.5-.87,10.32-6,1.5.87v12l-.5.87-10.25,5.92Zm.94-12.36,0,9.65,8.28-4.79v-9.66Z"/><polygon points="320.72 286.67 320.1 286.07 319.56 285.76 319.5 225.76 321.5 225.76 321.69 285.67 321.56 285.67 320.95 285.73 321.16 286.57 321.07 286.63 320.72 286.43 320.72 286.67"/><path d="M320.19,287l-73-42.36-.49-.86V183.28l1.51-.86.31.18L321,224.9l.5.86.19,60.33Zm-71.46-43.79,71,41.18-.19-58L248.73,185Z"/><polygon points="319.95 238.53 247.23 196.96 248.22 195.22 321.1 236.89 319.95 238.53"/><polygon class="cls-4" points="320.54 237.72 320.57 249.66 330.97 243.74 330.97 231.73 320.56 237.74 320.54 237.72"/><path d="M319.58,251.38l-.05-15.28,1,.5L332,230v14.33Zm2-13,0,9.61,8.4-4.78v-9.7Z"/><polygon points="320.48 250.83 320 250.58 247.23 208.56 248.23 206.83 321 248.84 320.53 249.65 321.15 250.48 320.96 250.6 320.48 250.83"/><polygon class="cls-4" points="320.57 249.66 320.61 261.66 330.97 255.76 330.97 243.74 320.57 249.66"/><path d="M319.62,263.37l-.05-14.29L332,242v14.32Zm1.95-13.13,0,9.7,8.36-4.76v-9.72Z"/><polygon points="320.5 262.84 320 262.59 247.23 220.58 248.23 218.84 321 260.86 320.56 261.6 321.15 262.5 320.98 262.6 320.5 262.84"/><polygon class="cls-4" points="320.61 261.66 320.65 273.73 330.97 267.78 330.97 255.76 320.61 261.66"/><path d="M319.66,275.46l-.05-14.38L332,254v14.31Zm1.95-13.22,0,9.76,8.32-4.8v-9.72Z"/><polygon points="320.62 274.93 320.12 274.68 247.23 232.59 248.23 230.86 321.05 272.92 320.62 273.68 321.19 274.58 320.62 274.93"/><rect x="260.6" y="203.92" width="2" height="11.79"/><polygon points="273 209.85 271 209.85 271 197.14 271.7 196.7 272.27 197.68 273 197.68 273 209.85"/><polygon points="297.49 223.93 295.49 223.93 295.49 212.08 296.75 211.35 297.79 213.06 297.49 213.23 297.49 223.93"/><rect x="270.18" y="221.71" width="2" height="11.54"/><rect x="294.61" y="235.34" width="2" height="12.17"/><rect x="269.34" y="244.86" width="2" height="11.54"/><rect x="293.77" y="258.49" width="2" height="12.17"/><rect x="280.47" y="215.4" width="2" height="11.94"/><rect x="301.06" y="226.95" width="2" height="11.94"/><rect x="260.24" y="227.65" width="2" height="11.79"/><rect x="280.11" y="239.13" width="2" height="11.94"/><rect x="300.7" y="250.69" width="2" height="11.94"/><path class="cls-1" d="M20.88,165.33v.23l9.65,5.34Zm76.67-33.39-.15-.08-9.53-5.41L20.54,165.13v.24l21.81-12.54,23.12-13.3L88,126.59,97.24,132,75,144.93h0L51.92,158.41,30.53,170.9l0,11,0,11,0,11.05,0,11.12,0,11h1.17l65.6-38.19.07-.21.36-1,.23-.66.15-53.84ZM20.88,165.56l9.65,5.34-9.65-5.57Zm0-.23v.23l9.65,5.34Zm0,55.29V165.56l-.34-.19.06,55.12,9.25,5.58h.47Z"/><polygon class="cls-4" points="51.92 158.41 30.53 170.9 20.88 165.33 20.88 165.56 20.54 165.37 42.35 152.83 42.38 152.88 51.92 158.41"/><path d="M30,171.77l-9.43-5.45-.2.12-.34-.19v-.69h-.17v-.23l.17-.1v-.73L41.85,152l.92.26.11-.2,9.54,5.53v1.73L31,171.76Zm-7.28-6.52,7.78,4.5,19.4-11.33L42.31,154Z"/><polygon points="30.05 171.78 20.4 166.44 19.88 165.56 19.88 165.33 21.38 164.46 31.03 170.03 30.05 171.78"/><polygon class="cls-4" points="75 144.93 51.92 158.41 42.38 152.88 42.35 152.83 65.47 139.53 65.48 139.55 75 144.93"/><path d="M51.42,159.28l-9.54-5.53-.38-.38.35-1.41L65,138.66l.89.22.11-.2,9.52,5.38v1.73L52.42,159.28Zm-7.1-6.43,7.6,4.41L73,145l-7.53-4.26Z"/><polygon class="cls-4" points="97.24 131.95 75.01 144.93 75 144.93 65.48 139.55 65.47 139.53 87.96 126.59 97.24 131.95"/><path d="M75,145.93l-.5-.13L65,140.42l-.35-.33.33-1.43,22.49-12.94h1l9.28,5.36v1.73l-22.24,13Zm-7.54-6.4L75,143.78,95.25,132,88,127.75Z"/><polygon points="31.03 171.77 30.03 170.04 96.74 131.09 97.75 131.09 98.05 131.26 98.05 132.99 31.03 171.77"/><polygon class="cls-4" points="30.53 170.9 30.49 181.92 30.47 181.93 20.88 176.39 20.88 165.56 30.53 170.9"/><path d="M30.94,182.81l-1,0-9.59-5.53-.5-.87V165.56l1.49-.87L31,170l.52.87,0,11Zm-9.06-7,7.62,4.39,0-8.72-7.65-4.23Z"/><polygon points="30.05 171.78 20.4 166.44 19.88 165.56 19.88 165.33 21.38 164.46 31.03 170.03 30.05 171.78"/><polygon class="cls-4" points="30.39 215.08 30.35 226.07 30.32 226.07 20.88 220.62 20.88 209.59 30.39 215.08"/><path d="M30.35,227.07l-.53-.13-9.44-5.45-.5-.87v-11l1.5-.86,9.51,5.48.5.87,0,11Zm-8.47-7,7.47,4.32,0-8.7-7.5-4.33Z"/><polygon points="30.35 227.07 30.34 226.79 29.97 227.02 29.85 226.95 30.05 226.16 29.47 226.16 29.47 226.07 29.35 226.07 29.53 170.9 31.53 170.9 31.47 226.07 31.15 226.28 30.35 227.07"/><path d="M30.85,227.32l-1.5-.86.18-55.56L30,170l67-39.12,1.52.85v55.69l-.5.86-.35.21Zm.68-55.84-.18,53.24,65.2-37.84V133.51Z"/><polygon points="31.02 182.76 30.57 181.99 29.88 181.12 30.02 181.03 97.05 142.7 98.04 144.44 31.02 182.76"/><polygon class="cls-4" points="30.49 181.92 30.46 192.91 20.88 187.46 20.88 176.39 30.47 181.93 30.49 181.92"/><path d="M31.46,194.63,19.88,188V174.66l10.62,6.13,1-.48,0,1.61Zm-9.58-7.75,7.59,4.31,0-8.67-7.61-4.4Z"/><polygon points="30.56 194.1 29.93 193.76 30.5 192.9 30.03 192.09 97.05 153.4 98.05 155.13 30.56 194.1"/><polygon class="cls-4" points="30.46 192.91 30.42 203.96 20.88 198.53 20.88 187.46 30.46 192.91"/><path d="M31.42,205.67l-11.54-6.56V185.74l11.58,6.59ZM21.88,198l7.55,4.29,0-8.75-7.58-4.31Z"/><polygon points="30.55 205.16 29.96 204.85 30.48 203.94 30.03 203.15 97.05 164.46 98.05 166.19 30.55 205.16"/><polygon class="cls-4" points="30.42 203.96 30.39 215.08 20.88 209.59 20.88 198.53 30.42 203.96"/><path d="M31.38,216.81l-11.5-6.64V196.81l11.55,6.57ZM21.88,209l7.51,4.33,0-8.81-7.54-4.29Z"/><polygon points="30.41 216.26 29.95 215.99 30.44 215.07 30.05 214.22 97.05 175.53 98.05 177.26 30.41 216.26"/><rect x="83.77" y="150.78" width="2" height="10.85"/><polygon points="76.19 156.25 74.19 156.25 74.19 145.06 74.94 145.04 75.51 144.07 76.19 144.47 76.19 156.25"/><polygon points="53.63 169.21 51.63 169.21 51.63 159.41 51.41 159.27 52.43 157.55 53.63 158.25 53.63 169.21"/><rect x="74.95" y="167.17" width="2" height="10.63"/><rect x="52.45" y="179.72" width="2" height="11.21"/><rect x="75.73" y="188.49" width="2" height="10.63"/><rect x="53.23" y="201.04" width="2" height="11.21"/><rect x="65.47" y="161.35" width="2" height="11"/><rect x="46.51" y="172" width="2" height="11"/><rect x="84.1" y="172.64" width="2" height="10.85"/><rect x="65.8" y="183.21" width="2" height="11"/><rect x="46.84" y="193.85" width="2" height="11"/><path d="M97.37,220.53a14.46,14.46,0,0,1,.21-25l19.3-11,1,1.74-19.29,11a12.46,12.46,0,0,0-.18,21.54Z"/><rect x="174.09" y="113.08" width="135.95" height="2" transform="translate(-24.71 135.13) rotate(-29.74)"/><polyline class="cls-2" points="220.05 88.09 220.05 115.03 251.33 132.94 251.33 106.3"/><polygon points="250.83 133.81 219.55 115.89 219.05 115.03 219.05 88.09 221.05 88.09 221.05 114.45 250.32 131.22 250.32 106.3 252.32 106.3 252.32 132.94 250.83 133.81"/><polyline class="cls-2" points="282.61 87.95 282.61 115.03 251.53 132.46 251.04 106.3 282.61 87.95"/><path d="M250.56,134.15,250,105.73,283.6,86.21v29.4Zm1.49-27.28.44,23.9,29.11-16.33V89.68Z"/><polygon class="cls-2" points="219.75 88.09 251.56 69.89 282.91 87.91 251.04 106.3 219.75 88.09"/><path d="M251.54,107.17h-1L219.25,89V87.22L251.07,69h1l31.35,18v1.73ZM221.75,88.1,251,105.15l29.87-17.24L251.56,71Z"/><circle cx="95.96" cy="156.01" r="1.32"/><circle class="cls-4" cx="235.58" cy="21.99" r="2.84"/><circle cx="279.8" cy="26.15" r="1.32"/><path d="M240.77,27.21c-.51,2.7-1.55,3.68-4.38,4.26a4.47,4.47,0,0,1,4.28,4,4.48,4.48,0,0,1,4.19-3.94A4.57,4.57,0,0,1,240.77,27.21Z"/><circle class="cls-4" cx="280.54" cy="47.66" r="2.21"/><polygon class="cls-1" points="255.6 21.01 250.13 23.29 250.36 33.93 255.6 21.01"/><polygon class="cls-1" points="223.24 34.47 227.5 32.33 233.87 38.03 223.24 34.47"/><path d="M219,45.22c-1.14,2.92-2.51,3.81-5.81,3.87a5.11,5.11,0,0,1,4,5.43A5.11,5.11,0,0,1,222.68,51,5.21,5.21,0,0,1,219,45.22Z"/><path class="cls-4" d="M242.62,71.5c-.21-.15-7-4.06-10.21-9.2-3.07-4.86-5.25-11.69-2.79-15.21a4.11,4.11,0,0,1,2.81-1.8A6.68,6.68,0,0,1,237,46.73l-2.1,2.67a3.47,3.47,0,0,0-2-.75.8.8,0,0,0-.53.38c-1.1,1.58-.21,6.56,2.88,11.46a35.33,35.33,0,0,0,7.53,8.08Z"/><path d="M243.49,73.41l-1.59-1.17c-2.7-1.68-7.64-5.14-10.34-9.41-3.34-5.3-5.5-12.4-2.76-16.31a5.1,5.1,0,0,1,3.48-2.22,7.73,7.73,0,0,1,5.35,1.64l.78.62-3.32,4.24-.79-.6a3.28,3.28,0,0,0-1.1-.54c-.61,1.17-.13,5.44,2.93,10.29a34.17,34.17,0,0,0,7.28,7.82l.44.33ZM233.05,46.25a3.87,3.87,0,0,0-.48,0,3.17,3.17,0,0,0-2.13,1.38c-2.1,3-.17,9.37,2.82,14.11,2.12,3.36,5.84,6.23,8.47,8l.05-.72a35.8,35.8,0,0,1-7.34-8c-3.1-4.9-4.35-10.42-2.86-12.56a1.76,1.76,0,0,1,1.19-.79,3.28,3.28,0,0,1,1.9.42l.88-1.12A5.49,5.49,0,0,0,233.05,46.25Z"/><path class="cls-1" d="M253.13,75.93c12.46-4.35,12.95-26.58,12.95-26.58l-30.79,1.41c.13,3.06.57,9.12,2.17,13.16,2.6,6.58,10.11,12,10.11,12v7.45c-2.65.56-4.54,2.06-4.54,3.84,0,2.25,3.05,4.07,6.81,4.07s6.81-1.82,6.81-4.07c0-1.6-1.54-3-3.78-3.65V75.93Z"/><path d="M249.84,92.29c-4.38,0-7.81-2.23-7.81-5.07,0-2.06,1.75-3.81,4.54-4.62V76.43c-1.66-1.27-7.69-6.19-10-12.14-1.64-4.14-2.1-10.23-2.24-13.49l0-1L267.1,48.3l0,1.07c0,.93-.64,22.51-13.21,27.36v6.12c2.35.9,3.78,2.53,3.78,4.37C257.65,90.06,254.22,92.29,249.84,92.29Zm-13.5-40.58c.18,3.27.67,8.36,2,11.84,2.46,6.23,9.69,11.52,9.76,11.57l.42.3v8.77l-.8.16c-2.2.47-3.74,1.65-3.74,2.87,0,1.45,2.39,3.07,5.81,3.07s5.81-1.62,5.81-3.07c0-1.08-1.2-2.14-3.07-2.7l-.71-.21V74.93H253C263,71.27,264.73,54.78,265,50.4Z"/><path class="cls-1" d="M235.24,50.76h0c0-1.18,0-1.91,0-1.91Z"/><path d="M234.29,51.82l0-1.06V48.85h2s0,.76,0,1.86l0,1Z"/><rect x="246.57" y="83.38" width="2" height="2.97"/><rect x="251.87" y="83.57" width="2" height="2.78"/><path class="cls-4" d="M250.66,58.27c-8.65,0-15.42-3.92-15.42-8.92s6.77-8.92,15.42-8.92,15.42,3.92,15.42,8.92S259.31,58.27,250.66,58.27Z"/><path d="M250.66,59.27c-9.21,0-16.42-4.36-16.42-9.92s7.21-9.92,16.42-9.92,16.42,4.35,16.42,9.92S259.87,59.27,250.66,59.27Zm0-17.84c-7.95,0-14.42,3.55-14.42,7.92s6.47,7.92,14.42,7.92,14.42-3.55,14.42-7.92S258.61,41.43,250.66,41.43Z"/><path class="cls-1" d="M256.07,72.28c1.6,0,3.17-.19,4.37-.33a14.26,14.26,0,0,0,6.88-2.65,10,10,0,0,0,3.94-5.73c.46-1.93-.18-2.68-.39-2.93-1.23-1.46-5.17-1.22-6.2-1.15l.5-3.78c.12,0,.45,0,.91,0,1.73,0,5.35.36,7.38,2.75a6.4,6.4,0,0,1,1.11,5.9A13.29,13.29,0,0,1,269.36,72a17.59,17.59,0,0,1-8.53,3.32,70.35,70.35,0,0,1-8.93.25"/><path d="M254.23,76.63c-.87,0-1.7,0-2.39-.06l.11-2a66.59,66.59,0,0,0,8.77-.25,16.43,16.43,0,0,0,8-3.12,12.32,12.32,0,0,0,4.84-7.09,5.49,5.49,0,0,0-.9-5c-1.8-2.12-5.24-2.38-6.63-2.39h0l-.23,1.75c3-.08,4.88.45,5.82,1.55.29.35,1.17,1.39.6,3.81a11,11,0,0,1-4.32,6.3A15.32,15.32,0,0,1,260.55,73c-1.59.18-3.09.29-4.46.33l0-2c1.31,0,2.75-.14,4.28-.32a13.21,13.21,0,0,0,6.4-2.46,9,9,0,0,0,3.57-5.16c.34-1.44-.05-1.9-.18-2.05s-1.24-1.07-5.38-.8l-1.21.07.76-5.79.82-.06c.13,0,.48,0,1,0,2.07,0,5.88.45,8.13,3.1a7.35,7.35,0,0,1,1.32,6.78A14.17,14.17,0,0,1,270,72.81a18.54,18.54,0,0,1-9,3.51C259.43,76.5,256.64,76.63,254.23,76.63Z"/><line class="cls-2" x1="266.69" y1="59.44" x2="263.25" y2="59.79"/><rect x="263.24" y="58.61" width="3.46" height="2" transform="translate(-4.75 27.73) rotate(-5.94)"/><path class="cls-2" d="M263.68,55.88a20,20,0,0,1,3.21-.16"/><path d="M263.8,56.87l-.24-2a20.77,20.77,0,0,1,3.42-.16l-.19,2A19.84,19.84,0,0,0,263.8,56.87Z"/><path class="cls-1" d="M263.46,56.66a18.3,18.3,0,0,1,3.43.05c.71.22.49,1.73.49,1.73a32.47,32.47,0,0,0-4.59.44C262.1,59.12,263.46,56.66,263.46,56.66Z"/><path d="M236.78,52.05l-1.64-1.15a14.6,14.6,0,0,1,12.48-5.65l-.1,2A12.57,12.57,0,0,0,236.78,52.05Z"/><path class="cls-4" d="M253.65,84.35s2.8,1,2.37,3.05S251.77,90,251.77,90s2.41-1.8,1.91-3.88Z"/><circle cx="250.04" cy="46.08" r="0.99"/><polygon class="cls-2" points="228.16 190.58 231.69 192.49 233.06 192.16 235.88 190.58 235.86 131.71 232.02 133.55 228.38 131.9 228.16 190.58"/><polygon class="cls-2" points="128.64 73.86 128.88 46.77 132.78 44.58 235.58 104.46 235.69 132.1 231.67 134.39 128.64 73.86"/><path d="M232.17,135h-1L128.37,74.76l-.49-.86V47.07l.5-.86,3.9-2.26h1l102.79,60,.5.86v27.08l-.5.87ZM129.88,73.32,231.67,133l2.91-1.68V105.42L132.78,46l-2.9,1.68Z"/><polygon points="132.33 135.15 128.42 133.17 127.88 132.28 127.88 74.51 129.88 74.51 129.88 131.67 131.78 132.63 131.78 76.76 133.78 76.76 133.78 134.26 132.33 135.15"/><polygon points="133.28 135.12 132.28 133.39 135.08 131.78 135.08 78.75 137.08 78.75 137.08 132.35 136.58 133.22 133.28 135.12"/><polygon points="231.83 193.35 227.93 191.38 227.38 190.49 227.38 132.25 229.38 132.25 229.38 189.87 231.28 190.84 231.28 133.59 231.11 107.13 233.11 107.11 233.28 133.58 233.28 192.46 231.83 193.35"/><polygon points="232.24 193.36 231.34 191.57 234.58 189.94 234.58 131.81 236.58 131.81 236.58 190.56 236.03 191.45 232.24 193.36"/><rect x="179.27" y="26.43" width="2" height="118.7" transform="translate(15.85 199) rotate(-60)"/><rect x="179.27" y="35.45" width="2" height="118.7" transform="translate(8.03 203.52) rotate(-60)"/><rect x="222.07" y="102.13" width="2" height="27.2"/><rect x="213.86" y="97.79" width="2" height="26.4"/><rect x="206.04" y="92.79" width="2" height="26.99"/><rect x="198.23" y="88.18" width="2" height="27.16"/><rect x="189.97" y="83.6" width="2" height="27.16"/><rect x="182.07" y="79.02" width="2" height="26.73"/><rect x="174.47" y="74.51" width="2" height="27.16"/><rect x="166.96" y="70.06" width="2" height="26.91"/><rect x="158.84" y="64.88" width="2" height="27.33"/><rect x="150.71" y="60.93" width="2" height="26.49"/><rect x="143.51" y="56.44" width="2" height="27.16"/><rect x="135.39" y="51.3" width="2" height="27.16"/><polygon points="231.39 108.13 128.37 47.94 129.38 46.21 231.86 106.09 235.03 104 236.13 105.68 232.44 108.1 231.39 108.13"/><polygon points="129.07 47.66 129.07 56.21 136.69 60.61 136.69 51.64 129.07 47.66"/><polygon points="144.09 56.39 144.09 64.95 151.71 69.35 151.71 60.37 144.09 56.39"/><polygon points="136.64 60.91 136.64 69.46 144.26 73.86 144.26 64.89 136.64 60.91"/><polygon points="128.88 65.13 128.88 73.68 136.5 78.08 136.5 69.11 128.88 65.13"/><polygon points="143.89 73.86 143.89 82.41 151.51 86.81 151.51 77.84 143.89 73.86"/><polygon points="160.23 65.86 160.23 74.41 167.85 78.81 167.85 69.84 160.23 65.86"/><polygon points="175.25 74.59 175.25 83.15 182.87 87.55 182.87 78.57 175.25 74.59"/><polygon points="167.8 79.11 167.8 87.66 175.42 92.06 175.42 83.09 167.8 79.11"/><polygon points="160.03 83.33 160.03 91.88 167.66 96.28 167.66 87.31 160.03 83.33"/><polygon points="175.05 92.06 175.05 100.61 182.67 105.01 182.67 96.04 175.05 92.06"/><polygon points="151.71 69.64 151.71 78.19 159.33 82.59 159.33 73.62 151.71 69.64"/><polygon points="191.48 83.91 191.48 92.47 199.1 96.87 199.1 87.89 191.48 83.91"/><polygon points="206.82 92.79 206.82 101.35 214.44 105.75 214.44 96.77 206.82 92.79"/><polygon points="199.04 97.16 199.04 105.71 206.66 110.11 206.66 101.14 199.04 97.16"/><polygon points="191.28 101.38 191.28 109.93 198.9 114.33 198.9 105.36 191.28 101.38"/><polygon points="206.82 110.55 206.82 119.11 214.44 123.51 214.44 114.53 206.82 110.55"/><polygon points="183.21 87.65 183.21 96.2 190.83 100.6 190.83 91.63 183.21 87.65"/><polygon points="222.83 102.36 222.83 110.85 231.93 115.22 231.89 107.26 222.83 102.36"/><polygon points="215.06 106.27 215.06 114.82 222.68 119.22 222.68 110.25 215.06 106.27"/><polygon points="223.41 120.15 223.41 129.34 231.86 134.07 231.86 124.42 223.41 120.15"/><polygon points="320.7 286.47 247.06 243.63 243.4 245.76 316.41 288.88 320.7 286.47"/><polygon points="29.87 226.48 97.69 187.02 101.06 188.98 33.82 228.69 29.87 226.48"/><polygon class="cls-1" points="181.04 153.1 181.04 168.26 194.18 160.68 181.04 153.1"/><path d="M187.27,168.94V152.82l13.95,8.06Zm2-12.65v9.18l7.95-4.59Z"/></svg>