<svg id="Niezaleznosc" xmlns="http://www.w3.org/2000/svg" viewBox="0 0 360 360"><defs><style>.cls-1{fill:#c21333;}.cls-2{fill:#030303;}.cls-3{fill:none;stroke:#030303;stroke-miterlimit:10;stroke-width:2px;}.cls-4{fill:#961430;}.cls-5{fill:#fff;}</style></defs><polygon class="cls-1" points="211.83 35.84 211.83 150.49 315.59 102 268.97 50.2 211.83 35.84"/><path class="cls-1" d="M211.42,269.14A120.53,120.53,0,1,1,332,148.61,120.66,120.66,0,0,1,211.42,269.14Zm0-224.06A103.53,103.53,0,1,0,315,148.61,103.65,103.65,0,0,0,211.42,45.08Z"/><path class="cls-2" d="M211.42,270.14A121.53,121.53,0,1,1,333,148.61,121.66,121.66,0,0,1,211.42,270.14Zm0-241.06A119.53,119.53,0,1,0,331,148.61,119.67,119.67,0,0,0,211.42,29.08Zm0,224.06A104.53,104.53,0,1,1,316,148.61,104.65,104.65,0,0,1,211.42,253.14Zm0-207.06A102.53,102.53,0,1,0,314,148.61,102.65,102.65,0,0,0,211.42,46.08Z"/><rect x="163.35" y="100.84" width="96.96" height="2.32" rx="1.16" transform="translate(109.83 313.84) rotate(-90)"/><path class="cls-2" d="M211.83,151.49a2.17,2.17,0,0,1-2.16-2.17V54.69a2.17,2.17,0,1,1,4.33,0v94.63A2.17,2.17,0,0,1,211.83,151.49Zm0-97a.17.17,0,0,0-.16.17v94.63c0,.18.33.18.33,0V54.69A.18.18,0,0,0,211.83,54.52Z"/><g id="_Powtarzanie_promieniowe_" data-name="&lt;Powtarzanie promieniowe&gt;"><line class="cls-3" x1="210.18" y1="218.51" x2="210.02" y2="237.38"/></g><g id="_Powtarzanie_promieniowe_2" data-name="&lt;Powtarzanie promieniowe&gt;"><line class="cls-3" x1="176.1" y1="209.06" x2="166.53" y2="225.32"/></g><g id="_Powtarzanie_promieniowe_3" data-name="&lt;Powtarzanie promieniowe&gt;"><line class="cls-3" x1="151.32" y1="183.83" x2="134.89" y2="193.12"/></g><g id="_Powtarzanie_promieniowe_4" data-name="&lt;Powtarzanie promieniowe&gt;"><line class="cls-3" x1="142.46" y1="149.59" x2="123.6" y2="149.43"/></g><g id="_Powtarzanie_promieniowe_5" data-name="&lt;Powtarzanie promieniowe&gt;"><line class="cls-3" x1="151.92" y1="115.51" x2="135.66" y2="105.93"/></g><g id="_Powtarzanie_promieniowe_6" data-name="&lt;Powtarzanie promieniowe&gt;"><line class="cls-3" x1="177.14" y1="90.73" x2="167.85" y2="74.3"/></g><g id="_Powtarzanie_promieniowe_7" data-name="&lt;Powtarzanie promieniowe&gt;"><line class="cls-3" x1="211.38" y1="81.87" x2="211.55" y2="63"/></g><g id="_Powtarzanie_promieniowe_8" data-name="&lt;Powtarzanie promieniowe&gt;"><line class="cls-3" x1="245.46" y1="91.33" x2="255.04" y2="75.07"/></g><g id="_Powtarzanie_promieniowe_9" data-name="&lt;Powtarzanie promieniowe&gt;"><line class="cls-3" x1="270.25" y1="116.55" x2="286.67" y2="107.26"/></g><g id="_Powtarzanie_promieniowe_10" data-name="&lt;Powtarzanie promieniowe&gt;"><line class="cls-3" x1="279.1" y1="150.79" x2="297.97" y2="150.96"/></g><g id="_Powtarzanie_promieniowe_11" data-name="&lt;Powtarzanie promieniowe&gt;"><line class="cls-3" x1="269.65" y1="184.87" x2="285.91" y2="194.45"/></g><g id="_Powtarzanie_promieniowe_12" data-name="&lt;Powtarzanie promieniowe&gt;"><line class="cls-3" x1="244.42" y1="209.66" x2="253.71" y2="226.08"/></g><path class="cls-4" d="M211.49,44A104.69,104.69,0,1,1,106.8,148.71,104.69,104.69,0,0,1,211.49,44m0-6a110.69,110.69,0,1,0,78.27,32.42A109.93,109.93,0,0,0,211.49,38Z"/><polyline points="208.11 143.65 212.4 155.43 285.81 115.92 206.67 144.18"/><path class="cls-5" d="M203.93,152.19a8.31,8.31,0,1,1,2.76,3.24"/><path class="cls-2" d="M211.42,157.91a9.22,9.22,0,0,1-5.3-1.66l1.14-1.64a7.27,7.27,0,1,0-2.43-2.85l-1.8.86a9.3,9.3,0,1,1,8.39,5.29Z"/><path class="cls-5" d="M219.59,291.13c8.58-4.78,17.19-9.64,17.19-9.64l-4.12-9.86s-18.3,2.58-24.25,6.25-3,4-3,4l6.25-1.21s-11.14,7-13.53,9.81-2.67,7.86-2.59,9,4.27,1.83,7.21.7c.77-.3,3.49-1.74,7.08-3.7"/><path class="cls-2" d="M199.38,301.79a7.93,7.93,0,0,1-3.91-.85,1.75,1.75,0,0,1-.91-1.36c-.09-1.17.14-6.58,2.82-9.71,1.48-1.73,6-4.9,9.47-7.21l-1.4.27-.16,0a1.77,1.77,0,0,1-1.57-1.3c-.27-1.26.93-2.59,4.17-4.59,6.05-3.73,23.88-6.27,24.63-6.38l.76-.1L238,281.92l-.77.44s-8.61,4.87-17.2,9.65l-1-1.75c7.05-3.93,14.11-7.91,16.41-9.21L232,272.74c-3.51.53-18.08,2.88-23.1,6a16.5,16.5,0,0,0-2.79,2l10.55-2-4.49,2.83c-3.81,2.4-11.5,7.5-13.31,9.61-2.09,2.45-2.38,6.92-2.36,8.09a8.44,8.44,0,0,0,5.86,0c.45-.17,2-.95,7-3.64l1,1.76c-4.09,2.23-6.45,3.46-7.2,3.75A10.6,10.6,0,0,1,199.38,301.79Z"/><path class="cls-5" d="M278.65,207.22l-4.15-18.7s-11.25.34-10.74-10.43,7.74-32.71,7.74-32.71L301.66,147l2.18,20.08-8.1,15.34,11.79,25.64Z"/><path class="cls-2" d="M309.11,209.12l-31.26-.92-4.15-18.7c-1.69-.09-5.55-.63-8.23-3.35a10.35,10.35,0,0,1-2.71-8.1c.52-10.78,7.49-32.08,7.79-33l.24-.73,31.78,1.72,2.3,21.23-8,15.17Zm-29.65-2.88,26.48.78L294.62,182.4l8.2-15.51L300.76,148l-28.55-1.54c-1.24,3.88-7,22.31-7.45,31.72a8.46,8.46,0,0,0,2.13,6.6c2.81,2.87,7.54,2.79,7.59,2.78l.82,0Z"/><polygon points="274.81 187.5 281.69 185.77 276.83 198.06 274.81 187.5"/><path d="M269.89,126.27s-13.43,9.3,3.2,20.35l8.72,5.75s.19,11.7,1.44,16.36c0,0,1.87-6.58,6.58-6.44s4.84,4.17,4.59,6.26-5.21,5.73-5.21,5.73l.64,15.91s30.45-8.36,28.53-34.46-28.72-23.32-33.52-24.59S269.89,126.27,269.89,126.27Z"/><ellipse cx="272.51" cy="161.2" rx="1.95" ry="1.28" transform="translate(49.9 386.36) rotate(-75.93)"/><path d="M277.4,160.31s.67-6.11-2.39-6.91-2.7,2.53-2.7,2.53Z"/><polygon class="cls-1" points="277.46 252.44 225.99 271.63 225.99 288.75 277.46 284.82 277.46 252.44"/><path class="cls-2" d="M225,289.83V270.94L278.46,251v34.76Zm2-17.5v15.34l49.47-3.77v-30Z"/><path class="cls-1" d="M324.06,318.54S323.44,222.13,307,206.2c-49.47-48-37.93,112.34-37.93,112.34"/><path class="cls-2" d="M268.08,318.62c-.32-4.47-7.58-109.54,17.62-121.29,6.09-2.85,13.5-.1,22,8.15,16.54,16,17.32,109.1,17.35,113.06h-2c0-1-.8-96.18-16.74-111.64-7.85-7.61-14.51-10.23-19.78-7.77-24,11.18-16.54,118.25-16.46,119.33Z"/><path class="cls-1" d="M278.25,318.54l5.54-28.39s-15-57.72-9.47-72.82"/><path class="cls-2" d="M279.23,318.74l-2-.39,5.49-28.16c-1.15-4.49-14.82-58.3-9.38-73.21l1.88.69c-5.35,14.64,9.35,71.66,9.49,72.23l.06.22,0,.23Z"/><polyline class="cls-1" points="307.52 225.94 310.67 284.57 303.7 318.54"/><polygon class="cls-2" points="304.68 318.75 302.72 318.34 309.66 284.5 306.53 225.99 308.52 225.88 311.67 284.65 311.65 284.77 304.68 318.75"/><polygon class="cls-4" points="308.82 225.84 311.8 284.57 318.31 268.66 308.82 225.84"/><path class="cls-4" d="M266.66,284.57s.19-27.08.75-27.18l-17.69,28.48Z"/><path class="cls-1" d="M303.7,280s2.35,3.66,0,11.14"/><path d="M304.66,291.43l-1.91-.59c2.15-6.87.13-10.29.1-10.32l1.7-1.07C304.65,279.62,307.11,283.6,304.66,291.43Z"/><rect x="231.24" y="269.3" width="2" height="14.27"/><polygon class="cls-1" points="44.79 319.19 118.36 319.19 113.48 205.5 73.63 191.91 67.83 192.89 55.8 208.7 44.79 319.19"/><path class="cls-5" d="M141.31,198.2c-1.2-6.91-.78-14,5.84-14.68l5.18.25s3.76-16.79,7.37-17c0,0,1.72-.45,1.58,1.83s-3.32,15.76-3.08,17.59,3.08,8.79,2.33,11.7-6.9,14.49-6.9,14.49l-8.4-.82a73.28,73.28,0,0,1-3-8.93"/><path d="M154.2,213.41l-9.67-.94-.23-.55a77.24,77.24,0,0,1-3-9.07l1.93-.5a74.65,74.65,0,0,0,2.69,8.24l7.13.7c1.88-3.57,5.95-11.51,6.51-13.67.44-1.76-.76-5.69-1.55-8.29a22.64,22.64,0,0,1-.81-3c-.15-1.14.57-4.84,1.78-10.79.61-3,1.24-6.1,1.29-7,0-.53-.07-.74-.11-.78a.55.55,0,0,0-.21,0l-.19,0c-1.53.1-4.55,7.69-6.47,16.25l-.18.83-5.94-.3a5.24,5.24,0,0,0-3.83,2c-1.63,2.14-2,6.13-1.06,11.53l-2,.34c-1-6.05-.56-10.45,1.44-13.08a7.22,7.22,0,0,1,5.3-2.77h.07l4.41.22c1.3-5.58,4.31-16.58,8-17a2.35,2.35,0,0,1,1.88.44,2.78,2.78,0,0,1,.84,2.44c-.07,1-.65,3.92-1.33,7.26-.75,3.68-1.88,9.25-1.76,10.14a23.4,23.4,0,0,0,.74,2.71c1,3.15,2.16,7.08,1.57,9.37-.76,3-6.73,14.23-7,14.71Z"/><path class="cls-1" d="M44.79,317l3.53-59.16,18.84-65s5.16-2.75,13.94-2.41,28.05,1,32.87,8.26,31.66,56.08,31.66,56.08l-3.79-44.72,16.87-1.38s13.07,57.47,10.32,78.81-52-19.1-52-19.1"/><path d="M45.79,317.07l-2-.12,3.54-59.27,0-.11,19-65.36.37-.2c.22-.12,5.48-2.89,14.45-2.53h.24c9.21.36,28.36,1.11,33.42,8.69,4,6,22.82,40,29.43,52l-3.47-41,18.73-1.53.19.85c.54,2.35,13.09,57.89,10.34,79.16-.43,3.31-1.92,5.49-4.44,6.49-12.54,5-47.66-23.72-49.15-24.95l1.27-1.54c9.89,8.12,37.65,28.4,47.15,24.63,1.81-.72,2.86-2.32,3.19-4.89,2.52-19.51-8.52-70.42-10.12-77.61l-15,1.22,4.1,48.43-2.27-4.14c-.27-.49-26.88-48.9-31.62-56-4.49-6.73-23.65-7.48-31.83-7.8h-.24A29.81,29.81,0,0,0,68,193.6L49.31,258Z"/><path class="cls-5" d="M82,143.5v47.84s12.56,10.15,22.37,4.82l2.77-2.08-3.46-11.86,12.56,1.89s1.72-42,0-49.21-27-4.82-27-4.82Z"/><path class="cls-2" d="M98,198.72c-8.34,0-16.21-6.26-16.63-6.6l-.37-.3V143.25l7.6-14.11.53-.06c2.68-.25,26.22-2.26,28.09,5.59,1.73,7.28.09,47.76,0,49.48l0,1.12L105,183.44l3.22,11L104.81,197A14.24,14.24,0,0,1,98,198.72Zm-15-7.87c2.1,1.56,12.64,8.85,20.83,4.46L106,193.7,102.24,181l13,2c.25-6.7,1.49-41.47,0-47.83-1.09-4.56-15.94-4.94-25.42-4.1L83,143.75Z"/><path d="M86.78,118.72s-10.5-.34-9.12,13.6,3.44,42.33,3.44,42.33l4.3-21.34s-6-7.4,1.38-10.5,5,14.46,5,14.46-2.69,19.79.37,22.37,21.29,9.82,24.83,9.3,3.71-25.48,1.3-26.17-6.54-1.89-12.56,4.13-7.23-.51-8.09-9.63,1.09-21.86,1.09-21.86,32.12,4.48,24.72-13.42a23.79,23.79,0,0,1-13.59,2.24C102.09,123.2,94,116.83,86.78,118.72Z"/><path class="cls-2" d="M116.61,190c-4.84,0-22.14-7.06-25.11-9.56-3.32-2.79-1.19-19.87-.72-23.27.58-4.29.71-11.71-1.44-13.37-.34-.26-.93-.55-2.18,0a4.52,4.52,0,0,0-3,2.89c-.68,2.72,2,6,2,6.05l.29.37-.09.46L80.63,182l-.53-7.3c0-.28-2.08-28.54-3.44-42.3-.5-5.11.47-9,2.88-11.59a10.23,10.23,0,0,1,7.11-3.11c4.65-1.15,9.54.8,14.26,2.69a39.88,39.88,0,0,0,9.06,2.83,23,23,0,0,0,13-2.12l1-.55.43,1c1.71,4.14,1.57,7.54-.42,10.12-5,6.46-20.28,5.25-24.37,4.8-.42,3.12-1.65,13.18-1,20.64.32,3.35,1,10.32,2.88,11,.72.26,2-.44,3.51-2,6.42-6.42,11-5.1,13.52-4.39,3.22.92,2.2,16.89,2.19,17.05-.7,10.64-2.81,10.95-3.6,11.06A2.53,2.53,0,0,1,116.61,190ZM88.39,141.45a3.48,3.48,0,0,1,2.17.73c3.77,2.9,2.37,14,2.2,15.22-1.29,9.46-1.63,20.08,0,21.47,2.86,2.42,20.86,9.55,24,9.08,0,0,.68-.46,1.3-3.94,1.3-7.37.77-18.77-.28-20.32-2.4-.68-6-1.55-11.43,3.92-2.21,2.21-4,3-5.6,2.45-2.6-.94-3.48-5.19-4.19-12.7-.86-9.14,1-21.57,1.1-22.1l.15-1,1,.13c.19,0,18.54,2.5,23.51-3.92,1.37-1.77,1.55-4.17.53-7.13a25.17,25.17,0,0,1-13.18,1.85,41.44,41.44,0,0,1-9.53-3c-4.68-1.86-9.09-3.63-13.14-2.57l-.14,0h-.14A8.32,8.32,0,0,0,81,122.21c-2,2.15-2.77,5.51-2.33,10,.94,9.45,2.2,25.71,2.91,35.1l2.77-13.77c-.79-1.1-2.84-4.33-2.07-7.4a6.38,6.38,0,0,1,4.13-4.26A5.12,5.12,0,0,1,88.39,141.45Z"/><polyline class="cls-1" points="66.22 319.19 58.44 261.41 81.1 233.07"/><polygon points="65.23 319.33 57.39 261.12 80.32 232.44 81.88 233.69 59.49 261.7 67.21 319.06 65.23 319.33"/><path class="cls-1" d="M68.78,192.2s-16.45,3.22-44.21,68c-8.15,19,12.07,45.32,21.46,59"/><path d="M45.21,319.76l-2.46-3.55c-10-14.37-26.81-38.44-19.1-56.43,27.65-64.5,44.25-68.42,44.94-68.56l.4,2c-.16,0-16.49,4.39-43.5,67.38-7.28,17,9.11,40.47,18.9,54.51.88,1.26,1.71,2.45,2.47,3.56Z"/><line class="cls-1" x1="117.41" y1="319.19" x2="116.72" y2="217.84"/><rect x="116.06" y="217.84" width="2" height="101.36" transform="translate(-1.82 0.8) rotate(-0.39)"/><polygon class="cls-4" points="143.1 211.15 146.91 259.39 157.3 277.41 151.03 221.37 143.1 211.15"/><polygon class="cls-4" points="81.58 234.05 67.06 319.19 59.43 261.76 81.58 234.05"/><path d="M100.41,147.69s2-5.34,4.89-4.71,1.17,3.23,1.17,3.23Z"/><ellipse cx="104.81" cy="150.57" rx="2.18" ry="1.43" transform="translate(-51.34 246.88) rotate(-86.82)"/><ellipse cx="113.97" cy="150.57" rx="2.18" ry="1.43" transform="translate(-42.69 256.02) rotate(-86.82)"/><path d="M118.07,147s-2.64-4.82-4.9-3.8-.37,3.26-.37,3.26Z"/><path class="cls-1" d="M32.79,257.63a20.18,20.18,0,0,0-3,18.5"/><path d="M28.86,276.43A21,21,0,0,1,32,257l1.52,1.31-.76-.66.76.66a19,19,0,0,0-2.78,17.54Z"/><path class="cls-1" d="M72.56,197s8.37,3.05,8.54,14.19"/><path d="M80.1,211.16c-.16-10.34-7.8-13.25-7.88-13.27L72.9,196c.37.13,9,3.42,9.2,15.12Z"/><line class="cls-1" x1="143.48" y1="221.53" x2="156.91" y2="220.69"/><rect x="143.47" y="220.11" width="13.46" height="2" transform="translate(-13.53 9.82) rotate(-3.58)"/><circle cx="314.56" cy="110.23" r="1.92"/><path class="cls-2" d="M321.91,157.07l-2-.32c3-18.74-4.32-40.29-4.39-40.51l1.89-.65C317.51,115.81,325,137.83,321.91,157.07Z"/><path class="cls-2" d="M135.36,70.11l-1.44-1.39c.17-.17,16.4-16.8,34.94-22.8l.61,1.91C151.42,53.67,135.52,70,135.36,70.11Z"/><polygon class="cls-1" points="238.13 187.49 245.23 192.38 255.19 184.58 238.13 187.49"/><polygon class="cls-1" points="42.18 115.92 43.81 129.2 63.13 132.74 42.18 115.92"/><circle cx="96.02" cy="161.53" r="2.18"/><circle class="cls-4" cx="58.44" cy="148.61" r="4.7"/><path class="cls-2" d="M48.65,102.67l-11.59-13,1.5-1.33,11.58,13Z"/><path class="cls-2" d="M69,125.2c-.24-.13-.42-.23-14.76-16.29l1.49-1.33c11.92,13.34,14.13,15.74,14.4,16l-.55.59Z"/><rect class="cls-2" x="68.16" y="91.66" width="2" height="25.75" transform="translate(-40.88 44.52) rotate(-27.9)"/><polygon class="cls-1" points="83.35 57.27 73.68 76.16 83.16 112.61 83.35 57.27"/><polygon class="cls-1" points="203.46 171.59 221.1 183.39 258.4 178.23 203.46 171.59"/><polygon class="cls-1" points="239.99 161.19 240.92 169.76 253.33 172.23 239.99 161.19"/><circle cx="116.72" cy="57.27" r="3.09"/><circle cx="326.12" cy="218.66" r="2.06"/><circle cx="134.64" cy="296.97" r="3.87"/></svg>