<svg id="Niezaleznosc" xmlns="http://www.w3.org/2000/svg" viewBox="0 0 360 360"><defs><style>.cls-1{fill:#961430;}.cls-2{fill:#c21333;}.cls-3{fill:#fff;}.cls-4{fill:#030303;}</style></defs><path class="cls-1" d="M98.18,45a1,1,0,0,0,.48-.15,59.9,59.9,0,0,0-12-1.21A59.2,59.2,0,0,0,54.8,52.91C56.73,62.75,62.38,71.45,69.18,79,76.18,66,83.18,51,98.18,45Z"/><path class="cls-2" d="M98.66,44.85a1,1,0,0,1-.48.15c-15,6-22,21-29,34-6.8-7.55-12.45-16.25-14.38-26.09a59.48,59.48,0,1,0,43.86-8.06Z"/><path d="M86.67,162.79a59.63,59.63,0,0,1-31.94-110l.16-.09,0,.17c1.69,8.64,6.35,17.11,14.23,25.9l1.54-2.86c6.66-12.53,13.55-25.48,27.44-31h.05a1,1,0,0,0,.43-.13l0,0h0a59.64,59.64,0,0,1-12,118.06Zm-32-109.68a59.37,59.37,0,1,0,44-8.13,1.11,1.11,0,0,1-.48.14C84.41,50.65,77.55,63.55,70.91,76l-1.62,3-.09.16-.11-.14C61.15,70.27,56.45,61.77,54.71,53.11Z"/><path class="cls-2" d="M57.86,127.75l-5.41,31.6A21.78,21.78,0,0,0,69,185.3h0a17.08,17.08,0,0,0,13.26-2.53l24.58-16.62A136.84,136.84,0,0,0,151.58,116l3.67-7a78.61,78.61,0,0,0,7.59-22h0a36.94,36.94,0,0,0-28.37-42.83l-6.74-1.48A48.42,48.42,0,0,0,70,79.52"/><path d="M72.7,186.7a18,18,0,0,1-3.87-.42,22.77,22.77,0,0,1-17.35-27.14l5.4-31.56,2,.34-5.41,31.6a20.8,20.8,0,0,0,15.82,24.81,16.2,16.2,0,0,0,12.48-2.39l24.58-16.61a136.31,136.31,0,0,0,44.37-49.75l3.67-7a77.77,77.77,0,0,0,7.5-21.76,35.79,35.79,0,0,0-27.61-41.66l-6.74-1.49A47.41,47.41,0,0,0,71,79.74l-2-.43a49.41,49.41,0,0,1,58.88-37.63l6.74,1.48a37.8,37.8,0,0,1,29.15,44,79.89,79.89,0,0,1-7.7,22.31l-3.67,7a138.3,138.3,0,0,1-45,50.48L82.86,183.6A18.21,18.21,0,0,1,72.7,186.7Z"/><path class="cls-1" d="M144.4,116.3q1.86-5,3.23-10.1l1.6-6A62.41,62.41,0,0,0,151.31,82h0a28.77,28.77,0,0,0-28.59-28h-5.34A37.67,37.67,0,0,0,80.09,88.1s12.25-17.51,35.06-12.79S144.4,116.3,144.4,116.3Z"/><path class="cls-1" d="M92.45,120.33l7.11-9.41c-24.14-11.17-18-30.53-18-30.53L96.25,92.55c12.1,8.91,15.87,17.6,15.87,17.6,4.3,13.44-4.63,23.29-14.46,29.94l-12.84,8.68a8.92,8.92,0,0,1-6.92,1.32h0a11.37,11.37,0,0,1-8.67-13.55L73.75,116Z"/><path d="M79.8,151.3a10.12,10.12,0,0,1-2.12-.23,12.39,12.39,0,0,1-9.42-14.75L73,114.81,92,119.21l6-7.92c-23.36-11.48-17.45-31-17.38-31.2l.45-1.41,15.79,13.1c12.13,8.93,16,17.61,16.15,18l0,.09c3.66,11.47-1.34,21.93-14.86,31.07L85.38,149.6A10,10,0,0,1,79.8,151.3Zm-5.29-34.09-4.3,19.54a10.39,10.39,0,0,0,7.9,12.37,8,8,0,0,0,6.15-1.18l12.84-8.68c12.68-8.57,17.42-18.24,14.09-28.75-.3-.65-4.25-8.84-15.53-17.15L82.2,82.19C81.34,86.82,80.53,101,100,110l1.13.52-8.25,10.92Z"/><path d="M72,175.62a12,12,0,0,1-5.14-1.22l.85-1.81a9.78,9.78,0,0,0,8.62,0,7.37,7.37,0,0,1,1.76-.54c2-.52,37.91-20.16,59.28-52.05,21-31.39,13-45.91,12.91-46l-.08-.18c-.06-.15-5.58-15.13-21.32-18s-20.82-.8-27.2,1.86l-.54.23c-3.25,1.35-14.2,6.91-18.72,21.64l-1.91-.58C85.27,63.35,96.9,57.45,100.36,56l.54-.22c6.42-2.69,12-5,28.33-2S151.51,71.63,152,73.05c.79,1.42,8.17,16.46-13,48.09-21.6,32.24-58.16,52.66-60.73,52.93a7.55,7.55,0,0,0-1.24.41A13.1,13.1,0,0,1,72,175.62Z"/><path class="cls-3" d="M184.25,157.67h4a39.74,39.74,0,0,0,14.27-2.62l25.72,14.28V119.69l-.08.11c0-.7.08-1.4.08-2.11h0a39.87,39.87,0,0,0-13.36-29.83"/><path d="M229.23,171l-26.8-14.88a40.73,40.73,0,0,1-14.19,2.52h-4v-2h4a38.88,38.88,0,0,0,13.91-2.55l.44-.17,24.64,13.68V122.77l-.26.35.19-3.71c0-.57.07-1.14.07-1.72a39,39,0,0,0-13-29.08l1.34-1.5a41.08,41.08,0,0,1,13.67,29.52l0,0Z"/><path class="cls-3" d="M204.74,81.26a39.84,39.84,0,0,0-16.5-3.55h-27a40,40,0,0,0-40,40h0a40,40,0,0,0,40,40H175"/><path d="M175,158.67H161.21a41,41,0,0,1,0-82h27a40.63,40.63,0,0,1,16.92,3.64l-.83,1.82a38.63,38.63,0,0,0-16.09-3.46h-27a39,39,0,0,0,0,78H175Z"/><path d="M152.67,123.83a8.22,8.22,0,1,1,8.21-8.21A8.22,8.22,0,0,1,152.67,123.83Zm0-14.43a6.22,6.22,0,1,0,6.21,6.22A6.22,6.22,0,0,0,152.67,109.4Z"/><path d="M172.49,123.83a8.22,8.22,0,1,1,8.22-8.21A8.22,8.22,0,0,1,172.49,123.83Zm0-14.43a6.22,6.22,0,1,0,6.22,6.22A6.22,6.22,0,0,0,172.49,109.4Z"/><path d="M191.46,123.83a8.22,8.22,0,1,1,8.21-8.21A8.22,8.22,0,0,1,191.46,123.83Zm0-14.43a6.22,6.22,0,1,0,6.21,6.22A6.22,6.22,0,0,0,191.46,109.4Z"/><path class="cls-3" d="M132.1,199.11c-3.51-14-7.68-30.2-8.84-34.72a2.16,2.16,0,0,1,.6-2.1h0a2.18,2.18,0,0,1,3.5.62l7.76,16.34-4-18.09a8.29,8.29,0,0,1,.48-5.06h0a2.58,2.58,0,0,1,4.73,0h0l.3-.54a3.63,3.63,0,0,1,6.52.47l7.61,19.23,3.36-22.54a2.77,2.77,0,0,1,1.63-2.13l.07,0a2.77,2.77,0,0,1,3.88,2.62l-.75,24.6,2.61,13.58,8.37-9.21a3.35,3.35,0,0,1,2-1.07h0a2.28,2.28,0,0,1,2.42,3.12L164,209.67l.8,5.3-27.41,6.35c0-.4-1.26-5.86-3.1-13.28"/><path d="M137.43,222.32a1,1,0,0,1-.66-.25,1,1,0,0,1-.34-.76c0-.41-.51-2.68-3.07-13l1.94-.48c1.88,7.56,2.64,10.83,2.94,12.31l25.48-5.9-.66-4.39a1,1,0,0,1,.06-.53l10.31-25.49a1.26,1.26,0,0,0-.17-1.26,1.28,1.28,0,0,0-1.19-.49,2.36,2.36,0,0,0-1.43.75L162.27,192a1,1,0,0,1-1.72-.48L157.94,178a.78.78,0,0,1,0-.22l.75-24.6a1.75,1.75,0,0,0-.78-1.52,1.72,1.72,0,0,0-1.7-.15,1.8,1.8,0,0,0-1.11,1.39l-3.36,22.54a1,1,0,0,1-1.92.22l-7.61-19.23a2.63,2.63,0,0,0-4.72-.34l-.3.53a1,1,0,0,1-.92.5,1,1,0,0,1-.87-.59,1.54,1.54,0,0,0-1.44-.94h0a1.53,1.53,0,0,0-1.44,1,7.24,7.24,0,0,0-.42,4.45l4,18.09a1,1,0,0,1-.66,1.16,1,1,0,0,1-1.22-.51l-7.76-16.34a1.19,1.19,0,0,0-1.91-.34,1.21,1.21,0,0,0-.32,1.14c1.19,4.62,5.33,20.77,8.84,34.73l-1.94.49c-3.51-14-7.65-30.1-8.84-34.72a3.19,3.19,0,0,1,6-2.15l4,8.32-2.1-9.43a9.18,9.18,0,0,1,.53-5.67,3.5,3.5,0,0,1,3.27-2.17h0a3.53,3.53,0,0,1,2.28.81,4.63,4.63,0,0,1,7.83,1.29l6.24,15.77,2.81-18.86a3.81,3.81,0,0,1,7.57.64l-.75,24.49,2.21,11.51,7-7.74a4.34,4.34,0,0,1,2.65-1.38,3.28,3.28,0,0,1,3.48,4.48l-10.22,25.24.76,5a1,1,0,0,1-.76,1.13l-27.42,6.35Z"/><line class="cls-3" x1="142.68" y1="178.02" x2="136.3" y2="156.08"/><path d="M142.68,179a1,1,0,0,1-1-.72l-6.38-22a1,1,0,0,1,1.92-.55l6.38,21.94A1,1,0,0,1,143,179,1.35,1.35,0,0,1,142.68,179Z"/><line class="cls-3" x1="132.1" y1="180.84" x2="154.98" y2="175.64"/><rect x="131.81" y="177.24" width="23.46" height="2" transform="translate(-35.93 36.24) rotate(-12.8)"/><path class="cls-3" d="M160,194.22s-6.23,6.89-7.22,13.31"/><path d="M153.77,207.68l-2-.3c1-6.64,7.2-13.54,7.47-13.83l1.48,1.34C160.68,195,154.7,201.64,153.77,207.68Z"/><path class="cls-2" d="M342.74,232.72s-13.15-18.44-46.31-31.47l-22.75,9-19.65-3s-31.07.19-72.54,52.09l-10.83-47.4L132,222.76l12.86,96.62s46.39-5.31,83.36-33.19l-5.36,46.52"/><path class="cls-4" d="M223.86,332.82l-2-.23,5.1-44.22c-36.45,26.53-81.53,31.95-82,32l-1,.11L130.9,222l40.5-11.39L182,257.07c40.63-50.09,70.74-50.85,72-50.86h.16l19.39,3,22.86-9,.37.15c33.05,13,46.21,31.06,46.76,31.82l-1.63,1.16c-.13-.18-13.31-18.23-45.5-31l-22.63,8.92-19.83-3c-1.67.07-32,2.06-71.69,51.72l-1.3,1.62-11.06-48.4-36.81,10.34,12.62,94.77c6.85-1,48.51-7.69,81.9-32.87l1.86-1.4Z"/><path class="cls-3" d="M289.6,171.38a80.4,80.4,0,0,1,.25-10.24s8.22-4.37,4.35-13.31-12.66-3.32-12.67,1.41L276.23,130l-34.12-3s-8.49,40.43,4.51,57.87l10.79.2,13.13.25"/><path d="M270.53,186.3l-24.41-.46-.3-.4c-13.12-17.59-5-57-4.69-58.67l.18-.87L277,129.06l4.62,16.81a8.58,8.58,0,0,1,5.29-3.63c1.64-.34,5.72-.51,8.19,5.19,3.61,8.35-2.51,13.11-4.32,14.3a83.19,83.19,0,0,0-.2,9.62l-2,.06a81,81,0,0,1,.25-10.38l.06-.53.47-.25c.3-.16,7.35-4.06,3.9-12-1.34-3.12-3.45-4.54-5.95-4s-4.8,2.93-4.8,5.06l0,7.33-7.05-25.65-32.54-2.88c-1.11,5.9-6.93,40.14,4.23,55.81l23.42.44Z"/><path class="cls-3" d="M258.6,185.07,254,207.21s.46,9.67,14.74,10.13,27.66-16.09,27.66-16.09a62,62,0,0,1-5.75-18.39"/><path d="M269.36,218.35h-.63c-15-.49-15.69-11-15.7-11.08v-.13l4.6-22.26,2,.41-4.54,22c.1,1.06,1.3,8.67,13.76,9.07h.55c12,0,23.59-12.58,25.89-15.24A63,63,0,0,1,289.7,183l2-.31a60.38,60.38,0,0,0,5.65,18.08l.3.58-.41.51C296.66,202.56,283.72,218.35,269.36,218.35Z"/><path d="M242.13,143.32s2.42-6.42,5.87-5.66,1.4,3.88,1.4,3.88Z"/><ellipse cx="246.76" cy="154.86" rx="2.18" ry="1.43" transform="translate(78.46 392.66) rotate(-86.82)"/><ellipse cx="257.42" cy="155.45" rx="2.18" ry="1.43" transform="translate(87.94 403.86) rotate(-86.82)"/><polyline class="cls-3" points="251.43 153.31 247.18 164.67 251.78 164.93"/><polygon points="251.73 165.93 245.77 165.6 250.5 152.96 252.37 153.66 248.6 163.75 251.84 163.93 251.73 165.93"/><path d="M293.12,124.7s-24.34,12.61-46.4,5.15L242.11,127l-.38,6.71s-10.66-3.33-3.2-9.78c0,0-13.76-5.38-1.74-12.07,0,0-6-17.42,13.69-6.47,0,0-1.8-11.45,5.21-10.81s7.69,10.53,7.69,10.53l30.34,8.66Z"/><path class="cls-4" d="M252.64,176.68a4.08,4.08,0,0,1-.61,0c-4.6-.54-6.05-6.12-6.11-6.36l-.34-1.32,18.1,1-1.58,1.58C261.88,171.77,256.91,176.68,252.64,176.68Zm-4.29-5.56c.61,1.35,1.83,3.29,3.91,3.54s4.74-1.46,6.63-2.95Z"/><rect class="cls-4" x="277.43" y="128.17" width="30.88" height="2" transform="matrix(0.06, -1, 1, 0.06, 147.59, 414.39)"/><path d="M263.89,149.71s-3.59-5.84-6.83-4.44-.64,4.08-.64,4.08Z"/><path class="cls-1" d="M169.76,213.39,181,261.54s23.85-29.23,36.46-36.46l-42.92,62.49Z"/><polygon class="cls-1" points="298.94 269.3 296.89 245.15 313.17 257.35 298.94 269.3"/><path class="cls-1" d="M229.3,284.13,234,252.25S222.19,282.9,213,295.13c0,0,11.92-7,16-10.62"/><path d="M137.44,232.36l-.48-1.94,11.64-2.91.48,1.94Zm23.28-5.82-.48-1.94,7.9-2,.49,1.94Z"/><path d="M270.54,184.15s-17.09,25.42-16.4,23.82,4.46-22.9,4.46-22.9Z"/><circle cx="174.97" cy="62.93" r="3.93"/><circle cx="153.11" cy="34.78" r="1.96"/><circle cx="201.43" cy="167.05" r="3.31"/><polygon class="cls-2" points="116.83 190.64 113.2 180.62 102.66 186.5 116.83 190.64"/><circle cx="226.57" cy="180" r="1.65"/><circle cx="91.1" cy="193.1" r="1.65"/><polygon class="cls-2" points="211.83 66.77 204.66 59.33 197.65 68.69 211.83 66.77"/><polygon class="cls-2" points="188.75 190.3 193.95 180.62 180.89 171.38 188.75 190.3"/></svg>